<svg width="406" height="264" viewBox="0 0 406 264" fill="none" xmlns="http://www.w3.org/2000/svg">
<mask id="path-1-inside-1_93:125" fill="white">
<path fill-rule="evenodd" clip-rule="evenodd" d="M406 0L0 0L0 122L142 122V264L264 264L264 122L406 122V0Z"/>
</mask>
<path fill-rule="evenodd" clip-rule="evenodd" d="M406 0L0 0L0 122L142 122V264L264 264L264 122L406 122V0Z" fill="#D2D2D2"/>
<path d="M0 0L0 -2L-2 -2L-2 0L0 0ZM406 0L408 0V-2L406 -2V0ZM0 122H-2L-2 124H0L0 122ZM142 122H144V120H142V122ZM142 264H140V266H142V264ZM264 264V266H266V264H264ZM264 122V120H262V122H264ZM406 122V124L408 124V122L406 122ZM0 2L406 2V-2L0 -2L0 2ZM2 122L2 0L-2 0L-2 122H2ZM142 120L0 120L0 124L142 124V120ZM144 264V122H140V264H144ZM264 262L142 262V266L264 266V262ZM262 122L262 264H266L266 122H262ZM406 120L264 120V124L406 124V120ZM404 0V122L408 122V0L404 0Z" fill="#FF0000" mask="url(#path-1-inside-1_93:125)"/>
<path d="M248.5 122L158 122" stroke="#FF0000" stroke-width="2"/>
<path d="M248.5 142L158 142" stroke="#FF0000" stroke-width="2"/>
<path d="M122 14L122 104.5" stroke="#FF0000" stroke-width="2"/>
<path d="M142 14V104.5" stroke="#FF0000" stroke-width="2"/>
<path d="M264 14V104.5" stroke="#FF0000" stroke-width="2"/>
<path d="M284 14V104.5" stroke="#FF0000" stroke-width="2"/>
<path d="M32.9531 73L43.7812 38.6406H47.7891L59.3203 73H55.0547L51.7734 62.5938H40.0078L36.9141 73H32.9531ZM41.0859 58.8906H50.625L47.6953 49.375C46.7891 46.4531 46.125 44.0781 45.7031 42.25C45.3438 44.4531 44.8359 46.6406 44.1797 48.8125L41.0859 58.8906ZM62.2734 73L62.2734 38.6406L74.7656 38.6406C77.375 38.6406 79.2969 38.9609 80.5312 39.6016C81.7812 40.2422 82.8047 41.3125 83.6016 42.8125C84.3984 44.2969 84.7969 46.0234 84.7969 47.9922C84.7969 50.5859 84.1172 52.6875 82.7578 54.2969C81.4141 55.9062 79.4531 56.9297 76.875 57.3672C77.9219 57.9922 78.7188 58.625 79.2656 59.2656C80.375 60.5781 81.3516 62.0391 82.1953 63.6484L87.1172 73H82.4297L78.6797 65.8516C77.2266 63.0547 76.125 61.1719 75.375 60.2031C74.6406 59.2344 73.9219 58.5859 73.2188 58.2578C72.5312 57.9141 71.5625 57.7422 70.3125 57.7422H66V73H62.2734ZM66 53.8047H74.0156C75.7656 53.8047 77.0938 53.5937 78 53.1719C78.9062 52.75 79.625 52.0859 80.1562 51.1797C80.6875 50.2734 80.9531 49.2187 80.9531 48.0156C80.9531 46.2812 80.4453 44.9219 79.4297 43.9375C78.4141 42.9375 76.9062 42.4375 74.9062 42.4375L66 42.4375V53.8047Z" fill="#FF0000"/>
<path d="M183.953 60.5547C183.953 56.2578 184.852 53.0156 186.648 50.8281C188.461 48.6406 190.75 47.5469 193.516 47.5469C196.234 47.5469 198.508 48.6406 200.336 50.8281C202.164 53.0156 203.078 56.1719 203.078 60.2969C203.078 64.7656 202.18 68.0938 200.383 70.2812C198.586 72.4688 196.297 73.5625 193.516 73.5625C190.781 73.5625 188.5 72.4688 186.672 70.2812C184.859 68.0781 183.953 64.8359 183.953 60.5547ZM187.492 60.5547C187.492 63.7734 188.078 66.1719 189.25 67.75C190.422 69.3125 191.875 70.0938 193.609 70.0938C195.234 70.0938 196.625 69.3047 197.781 67.7266C198.953 66.1328 199.539 63.7422 199.539 60.5547C199.539 57.3516 198.953 54.9688 197.781 53.4062C196.609 51.8281 195.156 51.0391 193.422 51.0391C191.781 51.0391 190.383 51.8281 189.227 53.4062C188.07 54.9844 187.492 57.3672 187.492 60.5547ZM220.516 63.8828L223.914 64.4219C223.523 67.3906 222.539 69.6562 220.961 71.2188C219.398 72.7812 217.516 73.5625 215.312 73.5625C212.641 73.5625 210.438 72.4688 208.703 70.2812C206.984 68.0781 206.125 64.8281 206.125 60.5312C206.125 56.2031 206.992 52.9609 208.727 50.8047C210.477 48.6328 212.719 47.5469 215.453 47.5469C217.562 47.5469 219.336 48.2031 220.773 49.5156C222.227 50.8281 223.156 52.7969 223.562 55.4219L220.211 56.0547C219.883 54.3672 219.312 53.1094 218.5 52.2812C217.688 51.4375 216.711 51.0156 215.57 51.0156C213.867 51.0156 212.453 51.7734 211.328 53.2891C210.219 54.7891 209.664 57.1797 209.664 60.4609C209.664 63.8516 210.195 66.3047 211.258 67.8203C212.336 69.3359 213.711 70.0938 215.383 70.0938C216.695 70.0938 217.812 69.5938 218.734 68.5938C219.672 67.5781 220.266 66.0078 220.516 63.8828Z" fill="#FF0000"/>
<path d="M326.891 63.8828L330.289 64.4219C329.898 67.3906 328.914 69.6562 327.336 71.2188C325.773 72.7812 323.891 73.5625 321.688 73.5625C319.016 73.5625 316.812 72.4688 315.078 70.2812C313.359 68.0781 312.5 64.8281 312.5 60.5312C312.5 56.2031 313.367 52.9609 315.102 50.8047C316.852 48.6328 319.094 47.5469 321.828 47.5469C323.938 47.5469 325.711 48.2031 327.148 49.5156C328.602 50.8281 329.531 52.7969 329.938 55.4219L326.586 56.0547C326.258 54.3672 325.688 53.1094 324.875 52.2812C324.062 51.4375 323.086 51.0156 321.945 51.0156C320.242 51.0156 318.828 51.7734 317.703 53.2891C316.594 54.7891 316.039 57.1797 316.039 60.4609C316.039 63.8516 316.57 66.3047 317.633 67.8203C318.711 69.3359 320.086 70.0938 321.758 70.0938C323.07 70.0938 324.188 69.5938 325.109 68.5938C326.047 67.5781 326.641 66.0078 326.891 63.8828ZM333.266 48.1094H336.711V67.0938L346.32 48.1094L350.047 48.1094V73H346.602V54.1328L336.992 73H333.266V48.1094ZM371.375 48.1094V73H367.93V63.2969H365.914C364.742 63.2969 363.852 63.4844 363.242 63.8594C362.633 64.2344 361.75 65.4688 360.594 67.5625L357.594 73H353.305L357.031 66.2969C358.172 64.25 359.305 63.0937 360.43 62.8281C358.461 62.4844 357 61.6172 356.047 60.2266C355.094 58.8203 354.617 57.2031 354.617 55.375C354.617 53.0937 355.258 51.3125 356.539 50.0312C357.836 48.75 359.625 48.1094 361.906 48.1094H371.375ZM367.93 51.6016H363.008C360.945 51.6016 359.617 52 359.023 52.7969C358.43 53.5781 358.133 54.4844 358.133 55.5156C358.133 57.0156 358.57 58.1094 359.445 58.7969C360.336 59.4844 361.891 59.8281 364.109 59.8281H367.93V51.6016Z" fill="#FF0000"/>
</svg>
