<svg width="548" height="122" viewBox="0 0 548 122" fill="none" xmlns="http://www.w3.org/2000/svg">
<rect x="1" y="121" width="120" height="546" transform="rotate(-90 1 121)" fill="#D2D2D2" stroke="#0000FF" stroke-width="2"/>
<path d="M406 15.5V106" stroke="#0000FF" stroke-width="2"/>
<path d="M426 15.5V106" stroke="#0000FF" stroke-width="2"/>
<path d="M264 15.5V106" stroke="#0000FF" stroke-width="2"/>
<path d="M284 15.5V106" stroke="#0000FF" stroke-width="2"/>
<path d="M122 15.5V106" stroke="#0000FF" stroke-width="2"/>
<path d="M142 15.5V106" stroke="#0000FF" stroke-width="2"/>
<path d="M24.5937 67.4297L28.0625 66.8672C28.7812 71.3672 30.6015 73.6172 33.5234 73.6172C35.1015 73.6172 36.4687 72.9531 37.625 71.625C38.7812 70.2812 39.3594 68.5469 39.3594 66.4219C39.3594 64.4219 38.8281 62.8125 37.7656 61.5938C36.7031 60.375 35.3984 59.7656 33.8515 59.7656C33.1953 59.7656 32.3828 59.9219 31.414 60.2344L31.8125 56.5312L32.3515 56.5781C34.0547 56.5781 35.4375 56.0547 36.5 55.0078C37.5625 53.9609 38.0937 52.5625 38.0937 50.8125C38.0937 49.2031 37.6484 47.9141 36.7578 46.9453C35.8672 45.9609 34.7812 45.4688 33.5 45.4688C32.1719 45.4688 31.0469 45.9844 30.125 47.0156C29.2187 48.0312 28.6406 49.5781 28.3906 51.6562L24.9453 50.9062C25.3828 47.9688 26.3672 45.75 27.8984 44.25C29.4297 42.75 31.2812 42 33.4531 42C35.7344 42 37.6719 42.8438 39.2656 44.5312C40.8594 46.2188 41.6562 48.3438 41.6562 50.9062C41.6562 52.4688 41.3125 53.8516 40.625 55.0547C39.9531 56.2578 39.0078 57.2031 37.789 57.8906C38.914 58.2031 39.8437 58.7188 40.5781 59.4375C41.3125 60.1562 41.9062 61.1172 42.3594 62.3203C42.8125 63.5234 43.039 64.8672 43.039 66.3516C43.039 69.5078 42.1094 72.0938 40.25 74.1094C38.3906 76.1094 36.164 77.1094 33.5703 77.1094C31.164 77.1094 29.125 76.2344 27.4531 74.4844C25.7812 72.7344 24.8281 70.3828 24.5937 67.4297ZM71.7734 67.3828L75.1719 67.9219C74.7812 70.8906 73.7969 73.1562 72.2187 74.7188C70.6562 76.2812 68.7734 77.0625 66.5703 77.0625C63.8984 77.0625 61.6953 75.9688 59.9609 73.7812C58.2422 71.5781 57.3828 68.3281 57.3828 64.0312C57.3828 59.7031 58.25 56.4609 59.9844 54.3047C61.7344 52.1328 63.9765 51.0469 66.7109 51.0469C68.8203 51.0469 70.5937 51.7031 72.0312 53.0156C73.4844 54.3281 74.414 56.2969 74.8203 58.9219L71.4687 59.5547C71.1406 57.8672 70.5703 56.6094 69.7578 55.7812C68.9453 54.9375 67.9687 54.5156 66.8281 54.5156C65.125 54.5156 63.7109 55.2734 62.5859 56.7891C61.4765 58.2891 60.9219 60.6797 60.9219 63.9609C60.9219 67.3516 61.4531 69.8047 62.5156 71.3203C63.5937 72.8359 64.9687 73.5938 66.6406 73.5938C67.9531 73.5938 69.0703 73.0938 69.9922 72.0938C70.9297 71.0781 71.5234 69.5078 71.7734 67.3828ZM79.8125 51.6094H95.8906V76.5H92.4453V55.1016H83.2812V67.5C83.2812 70.3281 83.2031 72.2266 83.0469 73.1953C82.9062 74.1641 82.4765 74.9844 81.7578 75.6562C81.0547 76.3281 80.0469 76.6641 78.7344 76.6641C77.9219 76.6641 77.0078 76.6094 75.9922 76.5V72.9609C77.6172 72.9453 78.5781 72.8906 78.875 72.7969C79.1719 72.7031 79.3984 72.4688 79.5547 72.0938C79.7265 71.7031 79.8125 70.3438 79.8125 68.0156V51.6094Z" fill="#0000FF"/>
<path d="M173.242 63.5547C173.242 59.2578 174.141 56.0156 175.937 53.8281C177.75 51.6406 180.039 50.5469 182.805 50.5469C185.523 50.5469 187.797 51.6406 189.625 53.8281C191.453 56.0156 192.367 59.1719 192.367 63.2969C192.367 67.7656 191.469 71.0938 189.672 73.2812C187.875 75.4688 185.586 76.5625 182.805 76.5625C180.07 76.5625 177.789 75.4688 175.961 73.2812C174.148 71.0781 173.242 67.8359 173.242 63.5547ZM176.781 63.5547C176.781 66.7734 177.367 69.1719 178.539 70.75C179.711 72.3125 181.164 73.0938 182.898 73.0938C184.523 73.0938 185.914 72.3047 187.07 70.7266C188.242 69.1328 188.828 66.7422 188.828 63.5547C188.828 60.3516 188.242 57.9688 187.07 56.4062C185.898 54.8281 184.445 54.0391 182.711 54.0391C181.07 54.0391 179.672 54.8281 178.516 56.4062C177.359 57.9844 176.781 60.3672 176.781 63.5547ZM196.492 51.1094H204.461C206.273 51.1094 207.656 51.2812 208.609 51.625C209.578 51.9688 210.437 52.6797 211.187 53.7578C211.953 54.8203 212.336 56.1406 212.336 57.7188C212.336 60.0938 211.523 61.8672 209.898 63.0391C212.133 64.0391 213.25 66.0391 213.25 69.0391C213.25 70.9609 212.68 72.6016 211.539 73.9609C210.398 75.3203 208.453 76 205.703 76H196.492V51.1094ZM199.937 61.5859H203.641C205.109 61.5859 206.117 61.4922 206.664 61.3047C207.227 61.1172 207.727 60.7422 208.164 60.1797C208.602 59.6016 208.82 58.8984 208.82 58.0703C208.82 56.7578 208.43 55.8516 207.648 55.3516C206.883 54.8516 205.586 54.6016 203.758 54.6016H199.937V61.5859ZM199.937 72.5312H204.508C206.461 72.5312 207.812 72.2344 208.562 71.6406C209.312 71.0312 209.687 70.0938 209.687 68.8281C209.687 67.4844 209.289 66.5234 208.492 65.9453C207.711 65.3516 206.266 65.0547 204.156 65.0547H199.937V72.5312ZM230.641 72.9297C229.484 74.1328 228.281 75.0391 227.031 75.6484C225.781 76.2578 224.484 76.5625 223.141 76.5625C221.016 76.5625 219.32 75.9219 218.055 74.6406C216.789 73.3594 216.156 71.6328 216.156 69.4609C216.156 68.0234 216.453 66.75 217.047 65.6406C217.641 64.5312 218.453 63.6641 219.484 63.0391C220.516 62.4141 222.078 61.9531 224.172 61.6562C226.984 61.25 229.047 60.7656 230.359 60.2031L230.383 59.125C230.383 57.4219 230.078 56.2266 229.469 55.5391C228.609 54.5391 227.289 54.0391 225.508 54.0391C223.898 54.0391 222.695 54.375 221.898 55.0469C221.102 55.7031 220.516 56.9453 220.141 58.7734L216.742 58.2109C217.227 55.5391 218.203 53.5938 219.672 52.375C221.156 51.1562 223.273 50.5469 226.023 50.5469C228.164 50.5469 229.844 50.9531 231.062 51.7656C232.281 52.5625 233.047 53.5547 233.359 54.7422C233.687 55.9297 233.852 57.6641 233.852 59.9453V65.5703C233.852 69.5078 233.922 71.9922 234.062 73.0234C234.219 74.0391 234.516 75.0312 234.953 76H231.344C230.984 75.1406 230.75 74.1172 230.641 72.9297ZM230.359 63.5078C229.094 64.1328 227.211 64.6641 224.711 65.1016C223.258 65.3516 222.242 65.6406 221.664 65.9688C221.086 66.2812 220.633 66.7344 220.305 67.3281C219.992 67.9062 219.836 68.5781 219.836 69.3438C219.836 70.5312 220.203 71.4844 220.937 72.2031C221.672 72.9062 222.687 73.2578 223.984 73.2578C225.219 73.2578 226.336 72.9375 227.336 72.2969C228.352 71.6562 229.109 70.8047 229.609 69.7422C230.109 68.6641 230.359 67.1016 230.359 65.0547V63.5078Z" fill="#0000FF"/>
<path d="M307.242 64.5547C307.242 60.2578 308.141 57.0156 309.937 54.8281C311.75 52.6406 314.039 51.5469 316.805 51.5469C319.523 51.5469 321.797 52.6406 323.625 54.8281C325.453 57.0156 326.367 60.1719 326.367 64.2969C326.367 68.7656 325.469 72.0938 323.672 74.2812C321.875 76.4688 319.586 77.5625 316.805 77.5625C314.07 77.5625 311.789 76.4688 309.961 74.2812C308.148 72.0781 307.242 68.8359 307.242 64.5547ZM310.781 64.5547C310.781 67.7734 311.367 70.1719 312.539 71.75C313.711 73.3125 315.164 74.0938 316.898 74.0938C318.523 74.0938 319.914 73.3047 321.07 71.7266C322.242 70.1328 322.828 67.7422 322.828 64.5547C322.828 61.3516 322.242 58.9688 321.07 57.4062C319.898 55.8281 318.445 55.0391 316.711 55.0391C315.07 55.0391 313.672 55.8281 312.516 57.4062C311.359 58.9844 310.781 61.3672 310.781 64.5547ZM341.906 77V42.6406H352.523C355.023 42.6406 356.867 42.8594 358.055 43.2969C359.68 43.8906 360.977 44.9922 361.945 46.6016C362.914 48.2109 363.398 50.1875 363.398 52.5312C363.398 55.625 362.609 58.1484 361.031 60.1016C359.453 62.0547 356.727 63.0312 352.852 63.0312H345.633V77H341.906ZM345.633 58.9766H352.922C355.219 58.9766 356.898 58.4609 357.961 57.4297C359.023 56.3828 359.555 54.8125 359.555 52.7188C359.555 51.3594 359.289 50.1953 358.758 49.2266C358.242 48.2578 357.609 47.5938 356.859 47.2344C356.125 46.875 354.789 46.6953 352.852 46.6953H345.633V58.9766ZM366.352 64.5547C366.352 60.2578 367.25 57.0156 369.047 54.8281C370.859 52.6406 373.148 51.5469 375.914 51.5469C378.633 51.5469 380.906 52.6406 382.734 54.8281C384.562 57.0156 385.477 60.1719 385.477 64.2969C385.477 68.7656 384.578 72.0938 382.781 74.2812C380.984 76.4688 378.695 77.5625 375.914 77.5625C373.18 77.5625 370.898 76.4688 369.07 74.2812C367.258 72.0781 366.352 68.8359 366.352 64.5547ZM369.891 64.5547C369.891 67.7734 370.477 70.1719 371.648 71.75C372.82 73.3125 374.273 74.0938 376.008 74.0938C377.633 74.0938 379.023 73.3047 380.18 71.7266C381.352 70.1328 381.937 67.7422 381.937 64.5547C381.937 61.3516 381.352 58.9688 380.18 57.4062C379.008 55.8281 377.555 55.0391 375.82 55.0391C374.18 55.0391 372.781 55.8281 371.625 57.4062C370.469 58.9844 369.891 61.3672 369.891 64.5547Z" fill="#0000FF"/>
<path d="M458.695 67.8828L462.094 68.4219C461.703 71.3906 460.719 73.6562 459.141 75.2188C457.578 76.7812 455.695 77.5625 453.492 77.5625C450.82 77.5625 448.617 76.4688 446.883 74.2812C445.164 72.0781 444.305 68.8281 444.305 64.5312C444.305 60.2031 445.172 56.9609 446.906 54.8047C448.656 52.6328 450.898 51.5469 453.633 51.5469C455.742 51.5469 457.516 52.2031 458.953 53.5156C460.406 54.8281 461.336 56.7969 461.742 59.4219L458.391 60.0547C458.062 58.3672 457.492 57.1094 456.68 56.2812C455.867 55.4375 454.891 55.0156 453.75 55.0156C452.047 55.0156 450.633 55.7734 449.508 57.2891C448.398 58.7891 447.844 61.1797 447.844 64.4609C447.844 67.8516 448.375 70.3047 449.438 71.8203C450.516 73.3359 451.891 74.0938 453.562 74.0938C454.875 74.0938 455.992 73.5938 456.914 72.5938C457.852 71.5781 458.445 70.0078 458.695 67.8828ZM478.383 67.8828L481.781 68.4219C481.391 71.3906 480.406 73.6562 478.828 75.2188C477.266 76.7812 475.383 77.5625 473.18 77.5625C470.508 77.5625 468.305 76.4688 466.57 74.2812C464.852 72.0781 463.992 68.8281 463.992 64.5312C463.992 60.2031 464.859 56.9609 466.594 54.8047C468.344 52.6328 470.586 51.5469 473.32 51.5469C475.43 51.5469 477.203 52.2031 478.641 53.5156C480.094 54.8281 481.023 56.7969 481.43 59.4219L478.078 60.0547C477.75 58.3672 477.18 57.1094 476.367 56.2812C475.555 55.4375 474.578 55.0156 473.438 55.0156C471.734 55.0156 470.32 55.7734 469.195 57.2891C468.086 58.7891 467.531 61.1797 467.531 64.4609C467.531 67.8516 468.062 70.3047 469.125 71.8203C470.203 73.3359 471.578 74.0938 473.25 74.0938C474.562 74.0938 475.68 73.5938 476.602 72.5938C477.539 71.5781 478.133 70.0078 478.383 67.8828ZM484.758 52.1094H488.203V71.0938L497.812 52.1094H501.539V77H498.094V58.1328L488.484 77H484.758V52.1094ZM506.789 52.1094H510.234V71.0938L519.844 52.1094H523.57V77H520.125V58.1328L510.516 77H506.789V52.1094Z" fill="#0000FF"/>
</svg>
