<svg width="406" height="264" viewBox="0 0 406 264" fill="none" xmlns="http://www.w3.org/2000/svg">
<mask id="path-1-inside-1_93:44" fill="white">
<path fill-rule="evenodd" clip-rule="evenodd" d="M264 0H142V142H0V264H406V142H264V0Z"/>
</mask>
<path fill-rule="evenodd" clip-rule="evenodd" d="M264 0H142V142H0V264H406V142H264V0Z" fill="#D2D2D2"/>
<path d="M142 0V-2H140V0H142ZM264 0H266V-2H264V0ZM142 142V144H144V142H142ZM0 142V140H-2V142H0ZM0 264H-2V266H0V264ZM406 264V266H408V264H406ZM406 142H408V140H406V142ZM264 142H262V144H264V142ZM142 2H264V-2H142V2ZM144 142V0H140V142H144ZM0 144H142V140H0V144ZM2 264V142H-2V264H2ZM406 262H0V266H406V262ZM404 142V264H408V142H404ZM264 144H406V140H264V144ZM262 0V142H266V0H262Z" fill="#FF0000" mask="url(#path-1-inside-1_93:44)"/>
<path d="M248.5 122L158 122" stroke="#FF0000" stroke-width="2"/>
<path d="M248.5 142L158 142" stroke="#FF0000" stroke-width="2"/>
<path d="M122 158V248.5" stroke="#FF0000" stroke-width="2"/>
<path d="M142 158V248.5" stroke="#FF0000" stroke-width="2"/>
<path d="M264 158V248.5" stroke="#FF0000" stroke-width="2"/>
<path d="M284 158V248.5" stroke="#FF0000" stroke-width="2"/>
<path d="M47.625 198.109H51.0703V208.516H55.2656C55.9531 201.203 58.8906 197.547 64.0781 197.547C66.7656 197.547 68.9062 198.688 70.5 200.969C72.1094 203.25 72.9141 206.414 72.9141 210.461C72.9141 214.711 72.1172 217.961 70.5234 220.211C68.9453 222.445 66.7734 223.562 64.0078 223.562C61.4141 223.562 59.3672 222.531 57.8672 220.469C56.3828 218.406 55.5156 215.578 55.2656 211.984H51.0703V223H47.625V198.109ZM64.125 201.133C62.4062 201.133 61.0781 201.93 60.1406 203.523C59.2188 205.102 58.7578 207.32 58.7578 210.18C58.7578 213.57 59.2266 216.07 60.1641 217.68C61.1016 219.289 62.375 220.094 63.9844 220.094C65.4688 220.094 66.7344 219.398 67.7812 218.008C68.8438 216.617 69.375 214.195 69.375 210.742C69.375 204.336 67.625 201.133 64.125 201.133Z" fill="#FF0000"/>
<path d="M185.359 198.109H201.953V201.602H195.391V223H191.922V201.602H185.359V198.109ZM205.117 232.586L204.742 228.625C205.508 228.875 206.164 229 206.711 229C207.445 229 208.047 228.852 208.516 228.555C209 228.258 209.398 227.797 209.711 227.172C209.82 226.953 210.273 225.578 211.07 223.047L203.312 198.109H207.039L211.305 212.523C211.836 214.32 212.328 216.242 212.781 218.289C213.172 216.352 213.641 214.461 214.188 212.617L218.547 198.109H222.016L214.258 223.422C213.242 226.703 212.438 228.891 211.844 229.984C211.266 231.094 210.602 231.891 209.852 232.375C209.117 232.859 208.281 233.102 207.344 233.102C206.688 233.102 205.945 232.93 205.117 232.586Z" fill="#FF0000"/>
<path d="M353.781 187.844H356.852C356.711 189.562 356.398 190.75 355.914 191.406C355.43 192.047 354.82 192.453 354.086 192.625C353.352 192.797 351.922 192.883 349.797 192.883C347 192.883 345.07 193.211 344.008 193.867C342.961 194.508 342.203 195.586 341.734 197.102C341.266 198.602 341 200.516 340.938 202.844C342.672 199.688 345 198.109 347.922 198.109C350.656 198.109 352.891 199.242 354.625 201.508C356.359 203.773 357.227 206.797 357.227 210.578C357.227 214.188 356.422 217.258 354.812 219.789C353.203 222.305 350.867 223.562 347.805 223.562C345.523 223.562 343.695 222.945 342.32 221.711C340.961 220.461 339.898 218.742 339.133 216.555C338.367 214.367 337.984 210.703 337.984 205.562C337.984 198.844 338.891 194.344 340.703 192.062C342.531 189.781 345.352 188.641 349.164 188.641C351.523 188.641 352.859 188.586 353.172 188.477C353.5 188.367 353.703 188.156 353.781 187.844ZM353.617 210.461C353.617 207.68 353.078 205.508 352 203.945C350.938 202.383 349.555 201.602 347.852 201.602C345.93 201.602 344.453 202.453 343.422 204.156C342.391 205.859 341.875 208.219 341.875 211.234C341.875 214.219 342.461 216.453 343.633 217.938C344.805 219.422 346.227 220.164 347.898 220.164C349.523 220.164 350.883 219.289 351.977 217.539C353.07 215.789 353.617 213.43 353.617 210.461Z" fill="#FF0000"/>
</svg>
