<svg width="406" height="264" viewBox="0 0 406 264" fill="none" xmlns="http://www.w3.org/2000/svg">
<mask id="path-1-inside-1_93:76" fill="white">
<path fill-rule="evenodd" clip-rule="evenodd" d="M0 264L406 264L406 142L406 0L284 -1.06656e-05L284 142L1.06656e-05 142L0 264Z"/>
</mask>
<path fill-rule="evenodd" clip-rule="evenodd" d="M0 264L406 264L406 142L406 0L284 -1.06656e-05L284 142L1.06656e-05 142L0 264Z" fill="#D2D2D2"/>
<path d="M406 264L406 266L408 266L408 264L406 264ZM0 264L-2 264L-2 266L-1.74846e-07 266L0 264ZM406 142L408 142L406 142ZM406 0L408 1.74845e-07L408 -2L406 -2L406 0ZM284 -1.06656e-05L284 -2.00001L282 -2.00001L282 -1.08404e-05L284 -1.06656e-05ZM284 142L284 144L286 144L286 142L284 142ZM1.06656e-05 142L1.08404e-05 140L-1.99999 140L-1.99999 142L1.06656e-05 142ZM406 262L1.74846e-07 262L-1.74846e-07 266L406 266L406 262ZM404 142L404 264L408 264L408 142L404 142ZM404 -1.74847e-07L404 142L408 142L408 1.74845e-07L404 -1.74847e-07ZM284 1.99999L406 2L406 -2L284 -2.00001L284 1.99999ZM286 142L286 -1.04907e-05L282 -1.08404e-05L282 142L286 142ZM1.04907e-05 144L284 144L284 140L1.08404e-05 140L1.04907e-05 144ZM2 264L2.00001 142L-1.99999 142L-2 264L2 264Z" fill="white" mask="url(#path-1-inside-1_93:76)"/>
<path d="M299.5 142L390 142" stroke="white" stroke-width="2"/>
<path d="M299.5 122L390 122" stroke="white" stroke-width="2"/>
<path d="M284 250L284 159.5" stroke="white" stroke-width="2"/>
<path d="M264 250L264 159.5" stroke="white" stroke-width="2"/>
<path d="M142 250L142 159.5" stroke="white" stroke-width="2"/>
<path d="M122 250L122 159.5" stroke="white" stroke-width="2"/>
<path d="M54.7969 207.555C54.7969 203.258 55.6953 200.016 57.4922 197.828C59.3047 195.641 61.5938 194.547 64.3594 194.547C67.0781 194.547 69.3516 195.641 71.1797 197.828C73.0078 200.016 73.9219 203.172 73.9219 207.297C73.9219 211.766 73.0234 215.094 71.2266 217.281C69.4297 219.469 67.1406 220.562 64.3594 220.562C61.625 220.562 59.3438 219.469 57.5156 217.281C55.7031 215.078 54.7969 211.836 54.7969 207.555ZM58.3359 207.555C58.3359 210.773 58.9219 213.172 60.0938 214.75C61.2656 216.312 62.7188 217.094 64.4531 217.094C66.0781 217.094 67.4688 216.305 68.625 214.727C69.7969 213.133 70.3828 210.742 70.3828 207.555C70.3828 204.352 69.7969 201.969 68.625 200.406C67.4531 198.828 66 198.039 64.2656 198.039C62.625 198.039 61.2266 198.828 60.0703 200.406C58.9141 201.984 58.3359 204.367 58.3359 207.555Z" fill="white"/>
<path d="M321.438 193.109H324.883V203.469H334.492V193.109H337.938V218H334.492V206.961H324.883V218H321.438V193.109ZM356.43 214.93C355.273 216.133 354.07 217.039 352.82 217.648C351.57 218.258 350.273 218.562 348.93 218.562C346.805 218.562 345.109 217.922 343.844 216.641C342.578 215.359 341.945 213.633 341.945 211.461C341.945 210.023 342.242 208.75 342.836 207.641C343.43 206.531 344.242 205.664 345.273 205.039C346.305 204.414 347.867 203.953 349.961 203.656C352.773 203.25 354.836 202.766 356.148 202.203L356.172 201.125C356.172 199.422 355.867 198.227 355.258 197.539C354.398 196.539 353.078 196.039 351.297 196.039C349.688 196.039 348.484 196.375 347.688 197.047C346.891 197.703 346.305 198.945 345.93 200.773L342.531 200.211C343.016 197.539 343.992 195.594 345.461 194.375C346.945 193.156 349.062 192.547 351.812 192.547C353.953 192.547 355.633 192.953 356.852 193.766C358.07 194.562 358.836 195.555 359.148 196.742C359.477 197.93 359.641 199.664 359.641 201.945V207.57C359.641 211.508 359.711 213.992 359.852 215.023C360.008 216.039 360.305 217.031 360.742 218H357.133C356.773 217.141 356.539 216.117 356.43 214.93ZM356.148 205.508C354.883 206.133 353 206.664 350.5 207.102C349.047 207.352 348.031 207.641 347.453 207.969C346.875 208.281 346.422 208.734 346.094 209.328C345.781 209.906 345.625 210.578 345.625 211.344C345.625 212.531 345.992 213.484 346.727 214.203C347.461 214.906 348.477 215.258 349.773 215.258C351.008 215.258 352.125 214.938 353.125 214.297C354.141 213.656 354.898 212.805 355.398 211.742C355.898 210.664 356.148 209.102 356.148 207.055V205.508ZM378.391 208.883L381.789 209.422C381.398 212.391 380.414 214.656 378.836 216.219C377.273 217.781 375.391 218.562 373.188 218.562C370.516 218.562 368.312 217.469 366.578 215.281C364.859 213.078 364 209.828 364 205.531C364 201.203 364.867 197.961 366.602 195.805C368.352 193.633 370.594 192.547 373.328 192.547C375.438 192.547 377.211 193.203 378.648 194.516C380.102 195.828 381.031 197.797 381.438 200.422L378.086 201.055C377.758 199.367 377.188 198.109 376.375 197.281C375.562 196.438 374.586 196.016 373.445 196.016C371.742 196.016 370.328 196.773 369.203 198.289C368.094 199.789 367.539 202.18 367.539 205.461C367.539 208.852 368.07 211.305 369.133 212.82C370.211 214.336 371.586 215.094 373.258 215.094C374.57 215.094 375.688 214.594 376.609 213.594C377.547 212.578 378.141 211.008 378.391 208.883Z" fill="white"/>
</svg>
