<svg width="406" height="264" viewBox="0 0 406 264" fill="none" xmlns="http://www.w3.org/2000/svg">
<mask id="path-1-inside-1_93:60" fill="white">
<path fill-rule="evenodd" clip-rule="evenodd" d="M0 264L406 264L406 142L406 0L284 -1.06656e-05L284 142L1.06656e-05 142L0 264Z"/>
</mask>
<path fill-rule="evenodd" clip-rule="evenodd" d="M0 264L406 264L406 142L406 0L284 -1.06656e-05L284 142L1.06656e-05 142L0 264Z" fill="#D2D2D2"/>
<path d="M406 264L406 266L408 266L408 264L406 264ZM0 264L-2 264L-2 266L-1.74846e-07 266L0 264ZM406 142L408 142L406 142ZM406 0L408 1.74844e-07L408 -2L406 -2L406 0ZM284 -1.06656e-05L284 -2.00001L282 -2.00001L282 -1.08404e-05L284 -1.06656e-05ZM284 142L284 144L286 144L286 142L284 142ZM1.06656e-05 142L1.08404e-05 140L-1.99999 140L-1.99999 142L1.06656e-05 142ZM406 262L1.74846e-07 262L-1.74846e-07 266L406 266L406 262ZM404 142L404 264L408 264L408 142L404 142ZM404 -1.74847e-07L404 142L408 142L408 1.74844e-07L404 -1.74847e-07ZM284 1.99999L406 2L406 -2L284 -2.00001L284 1.99999ZM286 142L286 -1.04907e-05L282 -1.08404e-05L282 142L286 142ZM1.04907e-05 144L284 144L284 140L1.08404e-05 140L1.04907e-05 144ZM2 264L2.00001 142L-1.99999 142L-2 264L2 264Z" fill="white" mask="url(#path-1-inside-1_93:60)"/>
<path d="M299.5 142L390 142" stroke="white" stroke-width="2"/>
<path d="M299.5 122L390 122" stroke="white" stroke-width="2"/>
<path d="M284 250L284 159.5" stroke="white" stroke-width="2"/>
<path d="M264 250L264 159.5" stroke="white" stroke-width="2"/>
<path d="M142 250L142 159.5" stroke="white" stroke-width="2"/>
<path d="M122 250L122 159.5" stroke="white" stroke-width="2"/>
<path d="M31.3673 198.109L34.8126 198.109L34.8126 217.094L44.4219 198.109L48.1485 198.109L48.1485 223L44.7032 223L44.7032 204.133L35.0938 223L31.3672 223L31.3673 198.109ZM53.3985 198.109L56.8438 198.109L56.8438 208.469L66.4532 208.469L66.4532 198.109L69.8985 198.109L69.8985 223L66.4532 223L66.4532 211.961L56.8438 211.961L56.8438 223L53.3985 223L53.3985 198.109ZM88.461 213.883L91.8594 214.422C91.4688 217.391 90.4844 219.656 88.9063 221.219C87.3438 222.781 85.461 223.563 83.2579 223.563C80.586 223.563 78.3829 222.469 76.6485 220.281C74.9297 218.078 74.0704 214.828 74.0704 210.531C74.0704 206.203 74.9376 202.961 76.6719 200.805C78.4219 198.633 80.6641 197.547 83.3985 197.547C85.5079 197.547 87.2813 198.203 88.7188 199.516C90.1719 200.828 91.1016 202.797 91.5079 205.422L88.1563 206.055C87.8282 204.367 87.2579 203.109 86.4454 202.281C85.6329 201.438 84.6563 201.016 83.5157 201.016C81.8126 201.016 80.3985 201.773 79.2735 203.289C78.1641 204.789 77.6094 207.18 77.6094 210.461C77.6094 213.852 78.1407 216.305 79.2032 217.82C80.2813 219.336 81.6563 220.094 83.3282 220.094C84.6407 220.094 85.7579 219.594 86.6797 218.594C87.6172 217.578 88.211 216.008 88.461 213.883Z" fill="white"/>
<path d="M176.063 198.109L192.656 198.109L192.656 201.602L186.094 201.602L186.094 223L182.625 223L182.625 201.602L176.063 201.602L176.063 198.109ZM209.227 219.93C208.07 221.133 206.867 222.039 205.617 222.648C204.367 223.258 203.07 223.563 201.727 223.563C199.602 223.563 197.906 222.922 196.641 221.641C195.375 220.359 194.742 218.633 194.742 216.461C194.742 215.023 195.039 213.75 195.633 212.641C196.227 211.531 197.039 210.664 198.07 210.039C199.102 209.414 200.664 208.953 202.758 208.656C205.57 208.25 207.633 207.766 208.945 207.203L208.969 206.125C208.969 204.422 208.664 203.227 208.055 202.539C207.195 201.539 205.875 201.039 204.094 201.039C202.484 201.039 201.281 201.375 200.484 202.047C199.688 202.703 199.102 203.945 198.727 205.773L195.328 205.211C195.813 202.539 196.789 200.594 198.258 199.375C199.742 198.156 201.859 197.547 204.609 197.547C206.75 197.547 208.43 197.953 209.648 198.766C210.867 199.563 211.633 200.555 211.945 201.742C212.273 202.93 212.438 204.664 212.438 206.945L212.438 212.57C212.438 216.508 212.508 218.992 212.648 220.023C212.805 221.039 213.102 222.031 213.539 223L209.93 223C209.57 222.141 209.336 221.117 209.227 219.93ZM208.945 210.508C207.68 211.133 205.797 211.664 203.297 212.102C201.844 212.352 200.828 212.641 200.25 212.969C199.672 213.281 199.219 213.734 198.891 214.328C198.578 214.906 198.422 215.578 198.422 216.344C198.422 217.531 198.789 218.484 199.523 219.203C200.258 219.906 201.273 220.258 202.57 220.258C203.805 220.258 204.922 219.938 205.922 219.297C206.938 218.656 207.695 217.805 208.195 216.742C208.695 215.664 208.945 214.102 208.945 212.055L208.945 210.508ZM217.898 198.109L229.641 198.109L229.641 201.602L221.344 201.602L221.344 223L217.898 223L217.898 198.109Z" fill="white"/>
<path d="M311.594 232.539L311.594 198.109L314.758 198.109L314.758 201.344C315.539 200 316.406 199.031 317.359 198.438C318.313 197.844 319.406 197.547 320.641 197.547C322.25 197.547 323.703 198.023 325 198.977C326.297 199.93 327.336 201.383 328.117 203.336C328.914 205.273 329.313 207.609 329.313 210.344C329.313 214.578 328.422 217.844 326.641 220.141C324.875 222.422 322.797 223.563 320.406 223.563C319.344 223.563 318.352 223.289 317.43 222.742C316.508 222.195 315.711 221.422 315.039 220.422L315.039 232.539L311.594 232.539ZM314.711 210.695C314.711 213.914 315.25 216.289 316.328 217.82C317.406 219.336 318.711 220.094 320.242 220.094C321.711 220.094 323 219.305 324.109 217.727C325.219 216.148 325.773 213.711 325.773 210.414C325.773 207.164 325.234 204.758 324.156 203.195C323.078 201.633 321.766 200.852 320.219 200.852C318.828 200.852 317.563 201.695 316.422 203.383C315.281 205.055 314.711 207.492 314.711 210.695ZM346.797 219.93C345.641 221.133 344.438 222.039 343.188 222.648C341.938 223.258 340.641 223.563 339.297 223.563C337.172 223.563 335.477 222.922 334.211 221.641C332.945 220.359 332.313 218.633 332.313 216.461C332.313 215.023 332.609 213.75 333.203 212.641C333.797 211.531 334.609 210.664 335.641 210.039C336.672 209.414 338.234 208.953 340.328 208.656C343.141 208.25 345.203 207.766 346.516 207.203L346.539 206.125C346.539 204.422 346.234 203.227 345.625 202.539C344.766 201.539 343.445 201.039 341.664 201.039C340.055 201.039 338.852 201.375 338.055 202.047C337.258 202.703 336.672 203.945 336.297 205.773L332.898 205.211C333.383 202.539 334.359 200.594 335.828 199.375C337.313 198.156 339.43 197.547 342.18 197.547C344.32 197.547 346 197.953 347.219 198.766C348.438 199.563 349.203 200.555 349.516 201.742C349.844 202.93 350.008 204.664 350.008 206.945L350.008 212.57C350.008 216.508 350.078 218.992 350.219 220.023C350.375 221.039 350.672 222.031 351.109 223L347.5 223C347.141 222.141 346.906 221.117 346.797 219.93ZM346.516 210.508C345.25 211.133 343.367 211.664 340.867 212.102C339.414 212.352 338.398 212.641 337.82 212.969C337.242 213.281 336.789 213.734 336.461 214.328C336.148 214.906 335.992 215.578 335.992 216.344C335.992 217.531 336.359 218.484 337.094 219.203C337.828 219.906 338.844 220.258 340.141 220.258C341.375 220.258 342.492 219.938 343.492 219.297C344.508 218.656 345.266 217.805 345.766 216.742C346.266 215.664 346.516 214.102 346.516 212.055L346.516 210.508ZM355.539 198.109L360.93 198.109L366.297 218.031L372.227 198.109L377.219 198.109L377.219 223L373.75 223L373.75 202.961L367.727 223L364.633 223L358.914 202L358.914 223L355.539 223L355.539 198.109Z" fill="white"/>
</svg>
