<svg width="406" height="264" viewBox="0 0 406 264" fill="none" xmlns="http://www.w3.org/2000/svg">
<mask id="path-1-inside-1_93:91" fill="white">
<path fill-rule="evenodd" clip-rule="evenodd" d="M142 0H0V122H142V264H264H406V142H264V122V0H142Z"/>
</mask>
<path fill-rule="evenodd" clip-rule="evenodd" d="M142 0H0V122H142V264H264H406V142H264V122V0H142Z" fill="#D2D2D2"/>
<path d="M0 0V-2H-2V0H0ZM0 122H-2V124H0V122ZM142 122H144V120H142V122ZM142 264H140V266H142V264ZM406 264V266H408V264H406ZM406 142H408V140H406V142ZM264 142H262V144H264V142ZM264 0H266V-2H264V0ZM0 2H142V-2H0V2ZM2 122V0H-2V122H2ZM142 120H0V124H142V120ZM140 122V264H144V122H140ZM142 266H264V262H142V266ZM264 266H406V262H264V266ZM408 264V142H404V264H408ZM406 140H264V144H406V140ZM266 142V122H262V142H266ZM266 122V0H262V122H266ZM264 -2H142V2H264V-2Z" fill="#0000FF" mask="url(#path-1-inside-1_93:91)"/>
<path d="M248.5 122L158 122" stroke="#0000FF" stroke-width="2"/>
<path d="M248.5 142L158 142" stroke="#0000FF" stroke-width="2"/>
<path d="M122 16V106.5" stroke="#0000FF" stroke-width="2"/>
<path d="M142 16V106.5" stroke="#0000FF" stroke-width="2"/>
<path d="M264 158V248.5" stroke="#0000FF" stroke-width="2"/>
<path d="M284 158V248.5" stroke="#0000FF" stroke-width="2"/>
<path d="M44.2578 52.1094H60.8516V55.6016H54.2891V77H50.8203V55.6016H44.2578V52.1094ZM78.0781 68.9844L81.6406 69.5234C81.0469 72.1797 79.9688 74.1875 78.4062 75.5469C76.8594 76.8906 74.9375 77.5625 72.6406 77.5625C69.75 77.5625 67.4062 76.4688 65.6094 74.2812C63.8281 72.0781 62.9375 68.9062 62.9375 64.7656C62.9375 60.4688 63.8359 57.1953 65.6328 54.9453C67.4453 52.6797 69.7344 51.5469 72.5 51.5469C75.1406 51.5469 77.3438 52.6562 79.1094 54.875C80.875 57.0938 81.7578 60.3047 81.7578 64.5078L81.7344 65.6328H66.5C66.6406 68.4297 67.2891 70.5391 68.4453 71.9609C69.6016 73.3828 71.0078 74.0938 72.6641 74.0938C75.2578 74.0938 77.0625 72.3906 78.0781 68.9844ZM66.7109 62.1641H78.1016C77.9453 60.0078 77.4844 58.3984 76.7188 57.3359C75.6094 55.7891 74.1953 55.0156 72.4766 55.0156C70.9297 55.0156 69.6094 55.6641 68.5156 56.9609C67.4219 58.2422 66.8203 59.9766 66.7109 62.1641Z" fill="#0000FF"/>
<path d="M179.141 52.1094H195.219V77H191.773V55.6016H182.609V68C182.609 70.8281 182.531 72.7266 182.375 73.6953C182.234 74.6641 181.805 75.4844 181.086 76.1562C180.383 76.8281 179.375 77.1641 178.062 77.1641C177.25 77.1641 176.336 77.1094 175.32 77V73.4609C176.945 73.4453 177.906 73.3906 178.203 73.2969C178.5 73.2031 178.727 72.9688 178.883 72.5938C179.055 72.2031 179.141 70.8438 179.141 68.5156V52.1094ZM214.344 68.9844L217.906 69.5234C217.312 72.1797 216.234 74.1875 214.672 75.5469C213.125 76.8906 211.203 77.5625 208.906 77.5625C206.016 77.5625 203.672 76.4688 201.875 74.2812C200.094 72.0781 199.203 68.9062 199.203 64.7656C199.203 60.4688 200.102 57.1953 201.898 54.9453C203.711 52.6797 206 51.5469 208.766 51.5469C211.406 51.5469 213.609 52.6562 215.375 54.875C217.141 57.0938 218.023 60.3047 218.023 64.5078L218 65.6328H202.766C202.906 68.4297 203.555 70.5391 204.711 71.9609C205.867 73.3828 207.273 74.0938 208.93 74.0938C211.523 74.0938 213.328 72.3906 214.344 68.9844ZM202.977 62.1641H214.367C214.211 60.0078 213.75 58.3984 212.984 57.3359C211.875 55.7891 210.461 55.0156 208.742 55.0156C207.195 55.0156 205.875 55.6641 204.781 56.9609C203.688 58.2422 203.086 59.9766 202.977 62.1641ZM222.359 52.1094H234.102V55.6016H225.805V77H222.359V52.1094Z" fill="#0000FF"/>
<path d="M184.141 232.539V198.109H187.305V201.344C188.086 200 188.953 199.031 189.906 198.438C190.859 197.844 191.953 197.547 193.188 197.547C194.797 197.547 196.25 198.023 197.547 198.977C198.844 199.93 199.883 201.383 200.664 203.336C201.461 205.273 201.859 207.609 201.859 210.344C201.859 214.578 200.969 217.844 199.188 220.141C197.422 222.422 195.344 223.562 192.953 223.562C191.891 223.562 190.898 223.289 189.977 222.742C189.055 222.195 188.258 221.422 187.586 220.422V232.539H184.141ZM187.258 210.695C187.258 213.914 187.797 216.289 188.875 217.82C189.953 219.336 191.258 220.094 192.789 220.094C194.258 220.094 195.547 219.305 196.656 217.727C197.766 216.148 198.32 213.711 198.32 210.414C198.32 207.164 197.781 204.758 196.703 203.195C195.625 201.633 194.312 200.852 192.766 200.852C191.375 200.852 190.109 201.695 188.969 203.383C187.828 205.055 187.258 207.492 187.258 210.695ZM219.344 219.93C218.188 221.133 216.984 222.039 215.734 222.648C214.484 223.258 213.188 223.562 211.844 223.562C209.719 223.562 208.023 222.922 206.758 221.641C205.492 220.359 204.859 218.633 204.859 216.461C204.859 215.023 205.156 213.75 205.75 212.641C206.344 211.531 207.156 210.664 208.188 210.039C209.219 209.414 210.781 208.953 212.875 208.656C215.688 208.25 217.75 207.766 219.062 207.203L219.086 206.125C219.086 204.422 218.781 203.227 218.172 202.539C217.312 201.539 215.992 201.039 214.211 201.039C212.602 201.039 211.398 201.375 210.602 202.047C209.805 202.703 209.219 203.945 208.844 205.773L205.445 205.211C205.93 202.539 206.906 200.594 208.375 199.375C209.859 198.156 211.977 197.547 214.727 197.547C216.867 197.547 218.547 197.953 219.766 198.766C220.984 199.562 221.75 200.555 222.062 201.742C222.391 202.93 222.555 204.664 222.555 206.945V212.57C222.555 216.508 222.625 218.992 222.766 220.023C222.922 221.039 223.219 222.031 223.656 223H220.047C219.688 222.141 219.453 221.117 219.344 219.93ZM219.062 210.508C217.797 211.133 215.914 211.664 213.414 212.102C211.961 212.352 210.945 212.641 210.367 212.969C209.789 213.281 209.336 213.734 209.008 214.328C208.695 214.906 208.539 215.578 208.539 216.344C208.539 217.531 208.906 218.484 209.641 219.203C210.375 219.906 211.391 220.258 212.688 220.258C213.922 220.258 215.039 219.938 216.039 219.297C217.055 218.656 217.812 217.805 218.312 216.742C218.812 215.664 219.062 214.102 219.062 212.055V210.508Z" fill="#0000FF"/>
<path d="M334.648 198.109H340.039L345.406 218.031L351.336 198.109H356.328V223H352.859V202.961L346.836 223H343.742L338.023 202V223H334.648V198.109Z" fill="#0000FF"/>
</svg>
