<svg width="264" height="406" viewBox="0 0 264 406" fill="none" xmlns="http://www.w3.org/2000/svg">
<mask id="path-1-inside-1_93:1811" fill="white">
<path fill-rule="evenodd" clip-rule="evenodd" d="M5.53131e-05 122V0.000244141H142L142 0.000308021L264 0.000308021L264 406H142L142 122H5.53131e-05Z"/>
</mask>
<path fill-rule="evenodd" clip-rule="evenodd" d="M5.53131e-05 122V0.000244141H142L142 0.000308021L264 0.000308021L264 406H142L142 122H5.53131e-05Z" fill="#D2D2D2"/>
<path d="M5.53131e-05 0.000244141H-1.99994V-1.99976H5.53131e-05V0.000244141ZM5.53131e-05 122V124H-1.99994V122H5.53131e-05ZM142 0.000244141V-1.99976H143.579L143.945 -0.464417L142 0.000244141ZM142 0.000308021L142 2.00031L140.422 2.00031L140.055 0.464969L142 0.000308021ZM264 0.000308021L264 -1.99969L266 -1.99969L266 0.00030787L264 0.000308021ZM264 406L266 406L266 408H264V406ZM142 406V408H140L140 406L142 406ZM142 122V120H144L144 122L142 122ZM2.00006 0.000244141V122H-1.99994V0.000244141H2.00006ZM142 2.00024H5.53131e-05V-1.99976H142V2.00024ZM140.055 0.464969L140.055 0.464905L143.945 -0.464417L143.945 -0.464353L140.055 0.464969ZM264 2.00031L142 2.00031L142 -1.99969L264 -1.99969L264 2.00031ZM262 406L262 0.000308171L266 0.00030787L266 406L262 406ZM142 404H264V408H142V404ZM144 122L144 406L140 406L140 122L144 122ZM5.53131e-05 120H142V124H5.53131e-05V120Z" fill="#FF0000" mask="url(#path-1-inside-1_93:1811)"/>
<path d="M157.5 141L248 141" stroke="#FF0000" stroke-width="2"/>
<path d="M157.5 121L248 121" stroke="#FF0000" stroke-width="2"/>
<path d="M157.5 284L248 284" stroke="#FF0000" stroke-width="2"/>
<path d="M157.5 264L248 264" stroke="#FF0000" stroke-width="2"/>
<path d="M142 105L142 14.5" stroke="#FF0000" stroke-width="2"/>
<path d="M122 105L122 14.5" stroke="#FF0000" stroke-width="2"/>
<path d="M184.141 225.539V191.109H187.305V194.344C188.086 193 188.953 192.031 189.906 191.438C190.859 190.844 191.953 190.547 193.188 190.547C194.797 190.547 196.25 191.023 197.547 191.977C198.844 192.93 199.883 194.383 200.664 196.336C201.461 198.273 201.859 200.609 201.859 203.344C201.859 207.578 200.969 210.844 199.188 213.141C197.422 215.422 195.344 216.562 192.953 216.562C191.891 216.562 190.898 216.289 189.977 215.742C189.055 215.195 188.258 214.422 187.586 213.422V225.539H184.141ZM187.258 203.695C187.258 206.914 187.797 209.289 188.875 210.82C189.953 212.336 191.258 213.094 192.789 213.094C194.258 213.094 195.547 212.305 196.656 210.727C197.766 209.148 198.32 206.711 198.32 203.414C198.32 200.164 197.781 197.758 196.703 196.195C195.625 194.633 194.312 193.852 192.766 193.852C191.375 193.852 190.109 194.695 188.969 196.383C187.828 198.055 187.258 200.492 187.258 203.695ZM220 207.984L223.562 208.523C222.969 211.18 221.891 213.188 220.328 214.547C218.781 215.891 216.859 216.562 214.562 216.562C211.672 216.562 209.328 215.469 207.531 213.281C205.75 211.078 204.859 207.906 204.859 203.766C204.859 199.469 205.758 196.195 207.555 193.945C209.367 191.68 211.656 190.547 214.422 190.547C217.062 190.547 219.266 191.656 221.031 193.875C222.797 196.094 223.68 199.305 223.68 203.508L223.656 204.633H208.422C208.562 207.43 209.211 209.539 210.367 210.961C211.523 212.383 212.93 213.094 214.586 213.094C217.18 213.094 218.984 211.391 220 207.984ZM208.633 201.164H220.023C219.867 199.008 219.406 197.398 218.641 196.336C217.531 194.789 216.117 194.016 214.398 194.016C212.852 194.016 211.531 194.664 210.438 195.961C209.344 197.242 208.742 198.977 208.633 201.164Z" fill="#FF0000"/>
<path d="M183.602 330.109H187.047V334.82C187.047 336.883 187.156 338.391 187.375 339.344C187.594 340.281 188.086 341.07 188.852 341.711C189.617 342.336 190.531 342.648 191.594 342.648C192.922 342.648 194.633 342.227 196.727 341.383V330.109H200.172V355H196.727V344.969C194.586 345.781 192.594 346.188 190.75 346.188C188.734 346.188 187.039 345.398 185.664 343.82C184.289 342.227 183.602 339.828 183.602 336.625V330.109ZM218.664 351.93C217.508 353.133 216.305 354.039 215.055 354.648C213.805 355.258 212.508 355.562 211.164 355.562C209.039 355.562 207.344 354.922 206.078 353.641C204.812 352.359 204.18 350.633 204.18 348.461C204.18 347.023 204.477 345.75 205.07 344.641C205.664 343.531 206.477 342.664 207.508 342.039C208.539 341.414 210.102 340.953 212.195 340.656C215.008 340.25 217.07 339.766 218.383 339.203L218.406 338.125C218.406 336.422 218.102 335.227 217.492 334.539C216.633 333.539 215.312 333.039 213.531 333.039C211.922 333.039 210.719 333.375 209.922 334.047C209.125 334.703 208.539 335.945 208.164 337.773L204.766 337.211C205.25 334.539 206.227 332.594 207.695 331.375C209.18 330.156 211.297 329.547 214.047 329.547C216.188 329.547 217.867 329.953 219.086 330.766C220.305 331.562 221.07 332.555 221.383 333.742C221.711 334.93 221.875 336.664 221.875 338.945V344.57C221.875 348.508 221.945 350.992 222.086 352.023C222.242 353.039 222.539 354.031 222.977 355H219.367C219.008 354.141 218.773 353.117 218.664 351.93ZM218.383 342.508C217.117 343.133 215.234 343.664 212.734 344.102C211.281 344.352 210.266 344.641 209.688 344.969C209.109 345.281 208.656 345.734 208.328 346.328C208.016 346.906 207.859 347.578 207.859 348.344C207.859 349.531 208.227 350.484 208.961 351.203C209.695 351.906 210.711 352.258 212.008 352.258C213.242 352.258 214.359 351.938 215.359 351.297C216.375 350.656 217.133 349.805 217.633 348.742C218.133 347.664 218.383 346.102 218.383 344.055V342.508Z" fill="#FF0000"/>
<path d="M176.781 48.1094H184.75C186.562 48.1094 187.945 48.2812 188.898 48.625C189.867 48.9688 190.726 49.6797 191.476 50.7578C192.242 51.8203 192.625 53.1406 192.625 54.7188C192.625 57.0938 191.812 58.8672 190.187 60.0391C192.422 61.0391 193.539 63.0391 193.539 66.0391C193.539 67.9609 192.969 69.6016 191.828 70.9609C190.687 72.3203 188.742 73 185.992 73H176.781V48.1094ZM180.226 58.5859H183.93C185.398 58.5859 186.406 58.4922 186.953 58.3047C187.516 58.1172 188.016 57.7422 188.453 57.1797C188.891 56.6016 189.109 55.8984 189.109 55.0703C189.109 53.7578 188.719 52.8516 187.937 52.3516C187.172 51.8516 185.875 51.6016 184.047 51.6016H180.226V58.5859ZM180.226 69.5312H184.797C186.75 69.5312 188.101 69.2344 188.851 68.6406C189.601 68.0312 189.976 67.0938 189.976 65.8281C189.976 64.4844 189.578 63.5234 188.781 62.9453C188 62.3516 186.555 62.0547 184.445 62.0547H180.226V69.5312ZM211 63.8828L214.398 64.4219C214.008 67.3906 213.023 69.6562 211.445 71.2188C209.883 72.7812 208 73.5625 205.797 73.5625C203.125 73.5625 200.922 72.4688 199.187 70.2812C197.469 68.0781 196.609 64.8281 196.609 60.5312C196.609 56.2031 197.476 52.9609 199.211 50.8047C200.961 48.6328 203.203 47.5469 205.937 47.5469C208.047 47.5469 209.82 48.2031 211.258 49.5156C212.711 50.8281 213.641 52.7969 214.047 55.4219L210.695 56.0547C210.367 54.3672 209.797 53.1094 208.984 52.2812C208.172 51.4375 207.195 51.0156 206.055 51.0156C204.351 51.0156 202.937 51.7734 201.812 53.2891C200.703 54.7891 200.148 57.1797 200.148 60.4609C200.148 63.8516 200.68 66.3047 201.742 67.8203C202.82 69.3359 204.195 70.0938 205.867 70.0938C207.18 70.0938 208.297 69.5938 209.219 68.5938C210.156 67.5781 210.75 66.0078 211 63.8828ZM215.5 48.1094H232.094V51.6016H225.531V73H222.062V51.6016H215.5V48.1094Z" fill="#FF0000"/>
</svg>
