<svg width="406" height="264" viewBox="0 0 406 264" fill="none" xmlns="http://www.w3.org/2000/svg">
<mask id="path-1-inside-1_93:109" fill="white">
<path fill-rule="evenodd" clip-rule="evenodd" d="M284 264L406 264L406 122L406 122L406 0L-8.41148e-05 4.97607e-06L-7.34492e-05 122L284 122L284 264Z"/>
</mask>
<path fill-rule="evenodd" clip-rule="evenodd" d="M284 264L406 264L406 122L406 122L406 0L-8.41148e-05 4.97607e-06L-7.34492e-05 122L284 122L284 264Z" fill="#D2D2D2"/>
<path d="M406 264L406 266L408 266L408 264L406 264ZM284 264L282 264L282 266L284 266L284 264ZM406 122L408 122L406 122ZM406 -3.05176e-05L408 -3.06924e-05L408 -2.00003L406 -2.00003L406 -3.05176e-05ZM-8.41148e-05 4.97607e-06L-8.42896e-05 -2L-2.00008 -1.99999L-2.00008 5.15092e-06L-8.41148e-05 4.97607e-06ZM-7.34492e-05 122L-2.00007 122L-2.00007 124L-7.32743e-05 124L-7.34492e-05 122ZM284 122L286 122L286 120L284 120L284 122ZM406 262L284 262L284 266L406 266L406 262ZM404 122L404 264L408 264L408 122L404 122ZM404 -3.03427e-05L404 122L408 122L408 -3.06924e-05L404 -3.03427e-05ZM-8.39399e-05 2L406 1.99997L406 -2.00003L-8.42896e-05 -2L-8.39399e-05 2ZM1.99993 122L1.99992 4.80123e-06L-2.00008 5.15092e-06L-2.00007 122L1.99993 122ZM284 120L-7.3624e-05 120L-7.32743e-05 124L284 124L284 120ZM286 264L286 122L282 122L282 264L286 264Z" fill="#0000FF" mask="url(#path-1-inside-1_93:109)"/>
<path d="M299.5 142L390 142" stroke="#0000FF" stroke-width="2"/>
<path d="M299.5 122L390 122" stroke="#0000FF" stroke-width="2"/>
<path d="M284 106L284 15.5" stroke="#0000FF" stroke-width="2"/>
<path d="M264 106L264 15.5" stroke="#0000FF" stroke-width="2"/>
<path d="M142 106L142 15.5" stroke="#0000FF" stroke-width="2"/>
<path d="M122 106L122 15.5" stroke="#0000FF" stroke-width="2"/>
<path d="M187.062 49.1094H190.508V68.0938L200.117 49.1094H203.844V74H200.398V55.1328L190.789 74H187.062V49.1094ZM213.617 62.75V59.4453C215.086 59.4297 216.078 59.3594 216.594 59.2344C217.125 59.1094 217.625 58.7422 218.094 58.1328C218.562 57.5078 218.797 56.7188 218.797 55.7656C218.797 54.6094 218.484 53.6953 217.859 53.0234C217.25 52.3516 216.453 52.0156 215.469 52.0156C213.516 52.0156 212.148 53.4141 211.367 56.2109L208.086 55.5547C209.133 50.8828 211.609 48.5469 215.516 48.5469C217.672 48.5469 219.367 49.2734 220.602 50.7266C221.852 52.1641 222.477 53.8984 222.477 55.9297C222.477 57.8828 221.672 59.5 220.062 60.7812C222.109 62.1406 223.133 64.2266 223.133 67.0391C223.133 69.2734 222.469 71.0859 221.141 72.4766C219.812 73.8672 217.953 74.5625 215.562 74.5625C210.922 74.5625 208.219 72.0391 207.453 66.9922L210.687 66.1484C210.984 67.7266 211.586 68.9609 212.492 69.8516C213.398 70.7266 214.43 71.1641 215.586 71.1641C216.773 71.1641 217.75 70.7656 218.516 69.9688C219.281 69.1562 219.664 68.125 219.664 66.875C219.664 65.875 219.422 65.0312 218.937 64.3438C218.453 63.6406 217.937 63.1953 217.391 63.0078C216.859 62.8203 215.977 62.7266 214.742 62.7266L213.617 62.75Z" fill="#0000FF"/>
<path d="M43.0781 64.8828L46.4765 65.4219C46.0859 68.3906 45.1015 70.6562 43.5234 72.2188C41.9609 73.7812 40.0781 74.5625 37.875 74.5625C35.2031 74.5625 33 73.4688 31.2656 71.2812C29.5468 69.0781 28.6875 65.8281 28.6875 61.5312C28.6875 57.2031 29.5546 53.9609 31.289 51.8047C33.039 49.6328 35.2812 48.5469 38.0156 48.5469C40.125 48.5469 41.8984 49.2031 43.3359 50.5156C44.789 51.8281 45.7187 53.7969 46.125 56.4219L42.7734 57.0547C42.4453 55.3672 41.875 54.1094 41.0625 53.2812C40.25 52.4375 39.2734 52.0156 38.1328 52.0156C36.4296 52.0156 35.0156 52.7734 33.8906 54.2891C32.7812 55.7891 32.2265 58.1797 32.2265 61.4609C32.2265 64.8516 32.7578 67.3047 33.8203 68.8203C34.8984 70.3359 36.2734 71.0938 37.9453 71.0938C39.2578 71.0938 40.375 70.5938 41.2968 69.5938C42.2343 68.5781 42.8281 67.0078 43.0781 64.8828ZM62.6953 70.9297C61.539 72.1328 60.3359 73.0391 59.0859 73.6484C57.8359 74.2578 56.539 74.5625 55.1953 74.5625C53.0703 74.5625 51.375 73.9219 50.1093 72.6406C48.8437 71.3594 48.2109 69.6328 48.2109 67.4609C48.2109 66.0234 48.5078 64.75 49.1015 63.6406C49.6953 62.5312 50.5078 61.6641 51.539 61.0391C52.5703 60.4141 54.1328 59.9531 56.2265 59.6562C59.039 59.25 61.1015 58.7656 62.414 58.2031L62.4375 57.125C62.4375 55.4219 62.1328 54.2266 61.5234 53.5391C60.664 52.5391 59.3437 52.0391 57.5625 52.0391C55.9531 52.0391 54.75 52.375 53.9531 53.0469C53.1562 53.7031 52.5703 54.9453 52.1953 56.7734L48.7968 56.2109C49.2812 53.5391 50.2578 51.5938 51.7265 50.375C53.2109 49.1562 55.3281 48.5469 58.0781 48.5469C60.2187 48.5469 61.8984 48.9531 63.1171 49.7656C64.3359 50.5625 65.1015 51.5547 65.414 52.7422C65.7421 53.9297 65.9062 55.6641 65.9062 57.9453V63.5703C65.9062 67.5078 65.9765 69.9922 66.1171 71.0234C66.2734 72.0391 66.5703 73.0312 67.0078 74H63.3984C63.039 73.1406 62.8046 72.1172 62.6953 70.9297ZM62.414 61.5078C61.1484 62.1328 59.2656 62.6641 56.7656 63.1016C55.3125 63.3516 54.2968 63.6406 53.7187 63.9688C53.1406 64.2812 52.6875 64.7344 52.3593 65.3281C52.0468 65.9062 51.8906 66.5781 51.8906 67.3438C51.8906 68.5312 52.2578 69.4844 52.9921 70.2031C53.7265 70.9062 54.7421 71.2578 56.039 71.2578C57.2734 71.2578 58.3906 70.9375 59.3906 70.2969C60.4062 69.6562 61.164 68.8047 61.664 67.7422C62.164 66.6641 62.414 65.1016 62.414 63.0547V61.5078ZM71.4375 49.1094H76.8281L82.1953 69.0312L88.125 49.1094H93.1171V74H89.6484V53.9609L83.625 74H80.5312L74.8125 53V74H71.4375V49.1094Z" fill="#0000FF"/>
<path d="M319.391 49.1094H333.594V70.5312H335.797V81.0547H332.961V74H316.906V81.0547H314.047V70.5312H315.875C318.266 66.5625 319.437 59.4219 319.391 49.1094ZM322.25 52.6016C322 60.6953 320.977 66.6719 319.18 70.5312H330.148V52.6016H322.25ZM352.859 70.9297C351.703 72.1328 350.5 73.0391 349.25 73.6484C348 74.2578 346.703 74.5625 345.359 74.5625C343.234 74.5625 341.539 73.9219 340.273 72.6406C339.008 71.3594 338.375 69.6328 338.375 67.4609C338.375 66.0234 338.672 64.75 339.266 63.6406C339.859 62.5312 340.672 61.6641 341.703 61.0391C342.734 60.4141 344.297 59.9531 346.391 59.6562C349.203 59.25 351.266 58.7656 352.578 58.2031L352.602 57.125C352.602 55.4219 352.297 54.2266 351.687 53.5391C350.828 52.5391 349.508 52.0391 347.727 52.0391C346.117 52.0391 344.914 52.375 344.117 53.0469C343.32 53.7031 342.734 54.9453 342.359 56.7734L338.961 56.2109C339.445 53.5391 340.422 51.5938 341.891 50.375C343.375 49.1562 345.492 48.5469 348.242 48.5469C350.383 48.5469 352.062 48.9531 353.281 49.7656C354.5 50.5625 355.266 51.5547 355.578 52.7422C355.906 53.9297 356.07 55.6641 356.07 57.9453V63.5703C356.07 67.5078 356.141 69.9922 356.281 71.0234C356.437 72.0391 356.734 73.0312 357.172 74H353.562C353.203 73.1406 352.969 72.1172 352.859 70.9297ZM352.578 61.5078C351.312 62.1328 349.43 62.6641 346.93 63.1016C345.477 63.3516 344.461 63.6406 343.883 63.9688C343.305 64.2812 342.852 64.7344 342.523 65.3281C342.211 65.9062 342.055 66.5781 342.055 67.3438C342.055 68.5312 342.422 69.4844 343.156 70.2031C343.891 70.9062 344.906 71.2578 346.203 71.2578C347.437 71.2578 348.555 70.9375 349.555 70.2969C350.57 69.6562 351.328 68.8047 351.828 67.7422C352.328 66.6641 352.578 65.1016 352.578 63.0547V61.5078ZM359.633 49.1094H376.227V52.6016H369.664V74H366.195V52.6016H359.633V49.1094Z" fill="#0000FF"/>
</svg>
