<svg width="264" height="264" viewBox="0 0 264 264" fill="none" xmlns="http://www.w3.org/2000/svg">
<rect x="1" y="1" width="262" height="262" fill="#D2D2D2" stroke="#FF0000" stroke-width="2"/>
<path d="M107.5 122L17 122" stroke="#FF0000" stroke-width="2"/>
<path d="M107.5 142L17 142" stroke="#FF0000" stroke-width="2"/>
<path d="M248.5 122L158 122" stroke="#FF0000" stroke-width="2"/>
<path d="M248.5 142L158 142" stroke="#FF0000" stroke-width="2"/>
<path d="M122 158V248.5" stroke="#FF0000" stroke-width="2"/>
<path d="M142 158V248.5" stroke="#FF0000" stroke-width="2"/>
<path d="M122 16V106.5" stroke="#FF0000" stroke-width="2"/>
<path d="M142 16V106.5" stroke="#FF0000" stroke-width="2"/>
<path d="M55.4531 77.9297C54.2969 79.1328 53.0938 80.0391 51.8438 80.6484C50.5938 81.2578 49.2969 81.5625 47.9531 81.5625C45.8281 81.5625 44.1328 80.9219 42.8672 79.6406C41.6016 78.3594 40.9688 76.6328 40.9688 74.4609C40.9688 73.0234 41.2656 71.75 41.8594 70.6406C42.4531 69.5312 43.2656 68.6641 44.2969 68.0391C45.3281 67.4141 46.8906 66.9531 48.9844 66.6562C51.7969 66.25 53.8594 65.7656 55.1719 65.2031L55.1953 64.125C55.1953 62.4219 54.8906 61.2266 54.2812 60.5391C53.4219 59.5391 52.1016 59.0391 50.3203 59.0391C48.7109 59.0391 47.5078 59.375 46.7109 60.0469C45.9141 60.7031 45.3281 61.9453 44.9531 63.7734L41.5547 63.2109C42.0391 60.5391 43.0156 58.5938 44.4844 57.375C45.9688 56.1562 48.0859 55.5469 50.8359 55.5469C52.9766 55.5469 54.6562 55.9531 55.875 56.7656C57.0938 57.5625 57.8594 58.5547 58.1719 59.7422C58.5 60.9297 58.6641 62.6641 58.6641 64.9453V70.5703C58.6641 74.5078 58.7344 76.9922 58.875 78.0234C59.0312 79.0391 59.3281 80.0312 59.7656 81H56.1562C55.7969 80.1406 55.5625 79.1172 55.4531 77.9297ZM55.1719 68.5078C53.9062 69.1328 52.0234 69.6641 49.5234 70.1016C48.0703 70.3516 47.0547 70.6406 46.4766 70.9688C45.8984 71.2812 45.4453 71.7344 45.1172 72.3281C44.8047 72.9062 44.6484 73.5781 44.6484 74.3438C44.6484 75.5312 45.0156 76.4844 45.75 77.2031C46.4844 77.9062 47.5 78.2578 48.7969 78.2578C50.0312 78.2578 51.1484 77.9375 52.1484 77.2969C53.1641 76.6562 53.9219 75.8047 54.4219 74.7422C54.9219 73.6641 55.1719 72.1016 55.1719 70.0547V68.5078ZM64.0312 90.5391V56.1094H67.1953V59.3438C67.9766 58 68.8438 57.0312 69.7969 56.4375C70.75 55.8438 71.8438 55.5469 73.0781 55.5469C74.6875 55.5469 76.1406 56.0234 77.4375 56.9766C78.7344 57.9297 79.7734 59.3828 80.5547 61.3359C81.3516 63.2734 81.75 65.6094 81.75 68.3438C81.75 72.5781 80.8594 75.8438 79.0781 78.1406C77.3125 80.4219 75.2344 81.5625 72.8438 81.5625C71.7812 81.5625 70.7891 81.2891 69.8672 80.7422C68.9453 80.1953 68.1484 79.4219 67.4766 78.4219V90.5391H64.0312ZM67.1484 68.6953C67.1484 71.9141 67.6875 74.2891 68.7656 75.8203C69.8438 77.3359 71.1484 78.0938 72.6797 78.0938C74.1484 78.0938 75.4375 77.3047 76.5469 75.7266C77.6562 74.1484 78.2109 71.7109 78.2109 68.4141C78.2109 65.1641 77.6719 62.7578 76.5938 61.1953C75.5156 59.6328 74.2031 58.8516 72.6562 58.8516C71.2656 58.8516 70 59.6953 68.8594 61.3828C67.7188 63.0547 67.1484 65.4922 67.1484 68.6953Z" fill="#FF0000"/>
<path d="M171.469 81L178.922 68.0625L172.031 56.1094H176.344L179.484 61.9453C180.062 63.0234 180.539 63.9531 180.914 64.7344C181.492 63.6719 182.008 62.7578 182.461 61.9922L185.906 56.1094H190.031L182.977 67.8281L190.57 81H186.328L182.133 73.2656L181.031 71.1797L175.664 81H171.469ZM193.477 56.1094H196.922V75.0938L206.531 56.1094H210.258V81H206.812V62.1328L197.203 81H193.477V56.1094ZM215.508 56.1094H223.477C225.289 56.1094 226.672 56.2812 227.625 56.625C228.594 56.9688 229.453 57.6797 230.203 58.7578C230.969 59.8203 231.352 61.1406 231.352 62.7188C231.352 65.0938 230.539 66.8672 228.914 68.0391C231.148 69.0391 232.266 71.0391 232.266 74.0391C232.266 75.9609 231.695 77.6016 230.555 78.9609C229.414 80.3203 227.469 81 224.719 81H215.508V56.1094ZM218.953 66.5859H222.656C224.125 66.5859 225.133 66.4922 225.68 66.3047C226.242 66.1172 226.742 65.7422 227.18 65.1797C227.617 64.6016 227.836 63.8984 227.836 63.0703C227.836 61.7578 227.445 60.8516 226.664 60.3516C225.898 59.8516 224.602 59.6016 222.773 59.6016H218.953V66.5859ZM218.953 77.5312H223.523C225.477 77.5312 226.828 77.2344 227.578 76.6406C228.328 76.0312 228.703 75.0938 228.703 73.8281C228.703 72.4844 228.305 71.5234 227.508 70.9453C226.727 70.3516 225.281 70.0547 223.172 70.0547H218.953V77.5312Z" fill="#FF0000"/>
</svg>
