<svg width="423" height="45" viewBox="0 0 423 45" fill="none" xmlns="http://www.w3.org/2000/svg">
<path d="M0.601562 10.1094H4.04688V20.4688H13.6562V10.1094H17.1016V35H13.6562V23.9609H4.04688V35H0.601562V10.1094Z" fill="#FF0000"/>
<path d="M35.5938 31.9297C34.4375 33.1328 33.2344 34.0391 31.9844 34.6484C30.7344 35.2578 29.4375 35.5625 28.0938 35.5625C25.9688 35.5625 24.2734 34.9219 23.0078 33.6406C21.7422 32.3594 21.1094 30.6328 21.1094 28.4609C21.1094 27.0234 21.4062 25.75 22 24.6406C22.5938 23.5312 23.4062 22.6641 24.4375 22.0391C25.4688 21.4141 27.0312 20.9531 29.125 20.6562C31.9375 20.25 34 19.7656 35.3125 19.2031L35.3359 18.125C35.3359 16.4219 35.0312 15.2266 34.4219 14.5391C33.5625 13.5391 32.2422 13.0391 30.4609 13.0391C28.8516 13.0391 27.6484 13.375 26.8516 14.0469C26.0547 14.7031 25.4688 15.9453 25.0938 17.7734L21.6953 17.2109C22.1797 14.5391 23.1562 12.5938 24.625 11.375C26.1094 10.1562 28.2266 9.54688 30.9766 9.54688C33.1172 9.54688 34.7969 9.95312 36.0156 10.7656C37.2344 11.5625 38 12.5547 38.3125 13.7422C38.6406 14.9297 38.8047 16.6641 38.8047 18.9453V24.5703C38.8047 28.5078 38.875 30.9922 39.0156 32.0234C39.1719 33.0391 39.4688 34.0312 39.9062 35H36.2969C35.9375 34.1406 35.7031 33.1172 35.5938 31.9297ZM35.3125 22.5078C34.0469 23.1328 32.1641 23.6641 29.6641 24.1016C28.2109 24.3516 27.1953 24.6406 26.6172 24.9688C26.0391 25.2812 25.5859 25.7344 25.2578 26.3281C24.9453 26.9062 24.7891 27.5781 24.7891 28.3438C24.7891 29.5312 25.1562 30.4844 25.8906 31.2031C26.625 31.9062 27.6406 32.2578 28.9375 32.2578C30.1719 32.2578 31.2891 31.9375 32.2891 31.2969C33.3047 30.6562 34.0625 29.8047 34.5625 28.7422C35.0625 27.6641 35.3125 26.1016 35.3125 24.0547V22.5078Z" fill="#FF0000"/>
<path d="M48.7656 23.75V20.4453C50.2344 20.4297 51.2266 20.3594 51.7422 20.2344C52.2734 20.1094 52.7734 19.7422 53.2422 19.1328C53.7109 18.5078 53.9453 17.7188 53.9453 16.7656C53.9453 15.6094 53.6328 14.6953 53.0078 14.0234C52.3984 13.3516 51.6016 13.0156 50.6172 13.0156C48.6641 13.0156 47.2969 14.4141 46.5156 17.2109L43.2344 16.5547C44.2812 11.8828 46.7578 9.54688 50.6641 9.54688C52.8203 9.54688 54.5156 10.2734 55.75 11.7266C57 13.1641 57.625 14.8984 57.625 16.9297C57.625 18.8828 56.8203 20.5 55.2109 21.7812C57.2578 23.1406 58.2812 25.2266 58.2812 28.0391C58.2812 30.2734 57.6172 32.0859 56.2891 33.4766C54.9609 34.8672 53.1016 35.5625 50.7109 35.5625C46.0703 35.5625 43.3672 33.0391 42.6016 27.9922L45.8359 27.1484C46.1328 28.7266 46.7344 29.9609 47.6406 30.8516C48.5469 31.7266 49.5781 32.1641 50.7344 32.1641C51.9219 32.1641 52.8984 31.7656 53.6641 30.9688C54.4297 30.1562 54.8125 29.125 54.8125 27.875C54.8125 26.875 54.5703 26.0312 54.0859 25.3438C53.6016 24.6406 53.0859 24.1953 52.5391 24.0078C52.0078 23.8203 51.125 23.7266 49.8906 23.7266L48.7656 23.75Z" fill="#FF0000"/>
<path d="M62.2891 10.1094H70.2578C72.0703 10.1094 73.4531 10.2812 74.4062 10.625C75.375 10.9688 76.2344 11.6797 76.9844 12.7578C77.75 13.8203 78.1328 15.1406 78.1328 16.7188C78.1328 19.0938 77.3203 20.8672 75.6953 22.0391C77.9297 23.0391 79.0469 25.0391 79.0469 28.0391C79.0469 29.9609 78.4766 31.6016 77.3359 32.9609C76.1953 34.3203 74.25 35 71.5 35H62.2891V10.1094ZM65.7344 20.5859H69.4375C70.9062 20.5859 71.9141 20.4922 72.4609 20.3047C73.0234 20.1172 73.5234 19.7422 73.9609 19.1797C74.3984 18.6016 74.6172 17.8984 74.6172 17.0703C74.6172 15.7578 74.2266 14.8516 73.4453 14.3516C72.6797 13.8516 71.3828 13.6016 69.5547 13.6016H65.7344V20.5859ZM65.7344 31.5312H70.3047C72.2578 31.5312 73.6094 31.2344 74.3594 30.6406C75.1094 30.0312 75.4844 29.0938 75.4844 27.8281C75.4844 26.4844 75.0859 25.5234 74.2891 24.9453C73.5078 24.3516 72.0625 24.0547 69.9531 24.0547H65.7344V31.5312Z" fill="#FF0000"/>
<path d="M96.4375 31.9297C95.2812 33.1328 94.0781 34.0391 92.8281 34.6484C91.5781 35.2578 90.2812 35.5625 88.9375 35.5625C86.8125 35.5625 85.1172 34.9219 83.8516 33.6406C82.5859 32.3594 81.9531 30.6328 81.9531 28.4609C81.9531 27.0234 82.25 25.75 82.8438 24.6406C83.4375 23.5312 84.25 22.6641 85.2812 22.0391C86.3125 21.4141 87.875 20.9531 89.9688 20.6562C92.7812 20.25 94.8438 19.7656 96.1562 19.2031L96.1797 18.125C96.1797 16.4219 95.875 15.2266 95.2656 14.5391C94.4062 13.5391 93.0859 13.0391 91.3047 13.0391C89.6953 13.0391 88.4922 13.375 87.6953 14.0469C86.8984 14.7031 86.3125 15.9453 85.9375 17.7734L82.5391 17.2109C83.0234 14.5391 84 12.5938 85.4688 11.375C86.9531 10.1562 89.0703 9.54688 91.8203 9.54688C93.9609 9.54688 95.6406 9.95312 96.8594 10.7656C98.0781 11.5625 98.8438 12.5547 99.1562 13.7422C99.4844 14.9297 99.6484 16.6641 99.6484 18.9453V24.5703C99.6484 28.5078 99.7188 30.9922 99.8594 32.0234C100.016 33.0391 100.312 34.0312 100.75 35H97.1406C96.7812 34.1406 96.5469 33.1172 96.4375 31.9297ZM96.1562 22.5078C94.8906 23.1328 93.0078 23.6641 90.5078 24.1016C89.0547 24.3516 88.0391 24.6406 87.4609 24.9688C86.8828 25.2812 86.4297 25.7344 86.1016 26.3281C85.7891 26.9062 85.6328 27.5781 85.6328 28.3438C85.6328 29.5312 86 30.4844 86.7344 31.2031C87.4688 31.9062 88.4844 32.2578 89.7812 32.2578C91.0156 32.2578 92.1328 31.9375 93.1328 31.2969C94.1484 30.6562 94.9062 29.8047 95.4062 28.7422C95.9062 27.6641 96.1562 26.1016 96.1562 24.0547V22.5078Z" fill="#FF0000"/>
<path d="M105.086 10.1094H108.531V20.4688H118.141V10.1094H121.586V35H118.141V23.9609H108.531V35H105.086V10.1094Z" fill="#FF0000"/>
<path d="M126.836 10.1094H130.281V29.0938L139.891 10.1094H143.617V35H140.172V16.1328L130.562 35H126.836V10.1094Z" fill="#FF0000"/>
<path d="M162.766 26.9844L166.328 27.5234C165.734 30.1797 164.656 32.1875 163.094 33.5469C161.547 34.8906 159.625 35.5625 157.328 35.5625C154.438 35.5625 152.094 34.4688 150.297 32.2812C148.516 30.0781 147.625 26.9062 147.625 22.7656C147.625 18.4688 148.523 15.1953 150.32 12.9453C152.133 10.6797 154.422 9.54688 157.188 9.54688C159.828 9.54688 162.031 10.6562 163.797 12.875C165.562 15.0938 166.445 18.3047 166.445 22.5078L166.422 23.6328H151.188C151.328 26.4297 151.977 28.5391 153.133 29.9609C154.289 31.3828 155.695 32.0938 157.352 32.0938C159.945 32.0938 161.75 30.3906 162.766 26.9844ZM151.398 20.1641H162.789C162.633 18.0078 162.172 16.3984 161.406 15.3359C160.297 13.7891 158.883 13.0156 157.164 13.0156C155.617 13.0156 154.297 13.6641 153.203 14.9609C152.109 16.2422 151.508 17.9766 151.398 20.1641Z" fill="#FF0000"/>
<path d="M182.055 35V0.640625H187.656L194.336 24.9688L195.672 30.0547C196 28.7891 196.5 26.9531 197.172 24.5469L203.922 0.640625H208.938V35H205.352V6.24219L197.148 35H193.797L185.641 5.75V35H182.055Z" fill="#FF0000"/>
<path d="M228.438 26.9844L232 27.5234C231.406 30.1797 230.328 32.1875 228.766 33.5469C227.219 34.8906 225.297 35.5625 223 35.5625C220.109 35.5625 217.766 34.4688 215.969 32.2812C214.188 30.0781 213.297 26.9062 213.297 22.7656C213.297 18.4688 214.195 15.1953 215.992 12.9453C217.805 10.6797 220.094 9.54688 222.859 9.54688C225.5 9.54688 227.703 10.6562 229.469 12.875C231.234 15.0938 232.117 18.3047 232.117 22.5078L232.094 23.6328H216.859C217 26.4297 217.648 28.5391 218.805 29.9609C219.961 31.3828 221.367 32.0938 223.023 32.0938C225.617 32.0938 227.422 30.3906 228.438 26.9844ZM217.07 20.1641H228.461C228.305 18.0078 227.844 16.3984 227.078 15.3359C225.969 13.7891 224.555 13.0156 222.836 13.0156C221.289 13.0156 219.969 13.6641 218.875 14.9609C217.781 16.2422 217.18 17.9766 217.07 20.1641Z" fill="#FF0000"/>
<path d="M236.359 44.5391V10.1094H239.523V13.3438C240.305 12 241.172 11.0312 242.125 10.4375C243.078 9.84375 244.172 9.54688 245.406 9.54688C247.016 9.54688 248.469 10.0234 249.766 10.9766C251.062 11.9297 252.102 13.3828 252.883 15.3359C253.68 17.2734 254.078 19.6094 254.078 22.3438C254.078 26.5781 253.188 29.8438 251.406 32.1406C249.641 34.4219 247.562 35.5625 245.172 35.5625C244.109 35.5625 243.117 35.2891 242.195 34.7422C241.273 34.1953 240.477 33.4219 239.805 32.4219V44.5391H236.359ZM239.477 22.6953C239.477 25.9141 240.016 28.2891 241.094 29.8203C242.172 31.3359 243.477 32.0938 245.008 32.0938C246.477 32.0938 247.766 31.3047 248.875 29.7266C249.984 28.1484 250.539 25.7109 250.539 22.4141C250.539 19.1641 250 16.7578 248.922 15.1953C247.844 13.6328 246.531 12.8516 244.984 12.8516C243.594 12.8516 242.328 13.6953 241.188 15.3828C240.047 17.0547 239.477 19.4922 239.477 22.6953Z" fill="#FF0000"/>
<path d="M256.961 22.5547C256.961 18.2578 257.859 15.0156 259.656 12.8281C261.469 10.6406 263.758 9.54688 266.523 9.54688C269.242 9.54688 271.516 10.6406 273.344 12.8281C275.172 15.0156 276.086 18.1719 276.086 22.2969C276.086 26.7656 275.188 30.0938 273.391 32.2812C271.594 34.4688 269.305 35.5625 266.523 35.5625C263.789 35.5625 261.508 34.4688 259.68 32.2812C257.867 30.0781 256.961 26.8359 256.961 22.5547ZM260.5 22.5547C260.5 25.7734 261.086 28.1719 262.258 29.75C263.43 31.3125 264.883 32.0938 266.617 32.0938C268.242 32.0938 269.633 31.3047 270.789 29.7266C271.961 28.1328 272.547 25.7422 272.547 22.5547C272.547 19.3516 271.961 16.9688 270.789 15.4062C269.617 13.8281 268.164 13.0391 266.43 13.0391C264.789 13.0391 263.391 13.8281 262.234 15.4062C261.078 16.9844 260.5 19.3672 260.5 22.5547Z" fill="#FF0000"/>
<path d="M280.234 10.1094H296.336V35H292.891V13.6016H283.68V35H280.234V10.1094Z" fill="#FF0000"/>
<path d="M301.469 44.5391V10.1094H304.633V13.3438C305.414 12 306.281 11.0312 307.234 10.4375C308.188 9.84375 309.281 9.54688 310.516 9.54688C312.125 9.54688 313.578 10.0234 314.875 10.9766C316.172 11.9297 317.211 13.3828 317.992 15.3359C318.789 17.2734 319.188 19.6094 319.188 22.3438C319.188 26.5781 318.297 29.8438 316.516 32.1406C314.75 34.4219 312.672 35.5625 310.281 35.5625C309.219 35.5625 308.227 35.2891 307.305 34.7422C306.383 34.1953 305.586 33.4219 304.914 32.4219V44.5391H301.469ZM304.586 22.6953C304.586 25.9141 305.125 28.2891 306.203 29.8203C307.281 31.3359 308.586 32.0938 310.117 32.0938C311.586 32.0938 312.875 31.3047 313.984 29.7266C315.094 28.1484 315.648 25.7109 315.648 22.4141C315.648 19.1641 315.109 16.7578 314.031 15.1953C312.953 13.6328 311.641 12.8516 310.094 12.8516C308.703 12.8516 307.438 13.6953 306.297 15.3828C305.156 17.0547 304.586 19.4922 304.586 22.6953Z" fill="#FF0000"/>
<path d="M323.43 10.1094H326.875V29.0938L336.484 10.1094H340.211V35H336.766V16.1328L327.156 35H323.43V10.1094Z" fill="#FF0000"/>
<path d="M361.539 10.1094V35H358.094V25.2969H356.078C354.906 25.2969 354.016 25.4844 353.406 25.8594C352.797 26.2344 351.914 27.4688 350.758 29.5625L347.758 35H343.469L347.195 28.2969C348.336 26.25 349.469 25.0938 350.594 24.8281C348.625 24.4844 347.164 23.6172 346.211 22.2266C345.258 20.8203 344.781 19.2031 344.781 17.375C344.781 15.0938 345.422 13.3125 346.703 12.0312C348 10.75 349.789 10.1094 352.07 10.1094H361.539ZM358.094 13.6016H353.172C351.109 13.6016 349.781 14 349.188 14.7969C348.594 15.5781 348.297 16.4844 348.297 17.5156C348.297 19.0156 348.734 20.1094 349.609 20.7969C350.5 21.4844 352.055 21.8281 354.273 21.8281H358.094V13.6016Z" fill="#FF0000"/>
<path d="M364.914 10.1094H381.508V13.6016H374.945V35H371.477V13.6016H364.914V10.1094Z" fill="#FF0000"/>
<path d="M384.836 10.1094H388.281V29.0938L397.891 10.1094H401.617V35H398.172V16.1328L388.562 35H384.836V10.1094Z" fill="#FF0000"/>
<path d="M422.945 10.1094V35H419.5V25.2969H417.484C416.312 25.2969 415.422 25.4844 414.812 25.8594C414.203 26.2344 413.32 27.4688 412.164 29.5625L409.164 35H404.875L408.602 28.2969C409.742 26.25 410.875 25.0938 412 24.8281C410.031 24.4844 408.57 23.6172 407.617 22.2266C406.664 20.8203 406.188 19.2031 406.188 17.375C406.188 15.0938 406.828 13.3125 408.109 12.0312C409.406 10.75 411.195 10.1094 413.477 10.1094H422.945ZM419.5 13.6016H414.578C412.516 13.6016 411.188 14 410.594 14.7969C410 15.5781 409.703 16.4844 409.703 17.5156C409.703 19.0156 410.141 20.1094 411.016 20.7969C411.906 21.4844 413.461 21.8281 415.68 21.8281H419.5V13.6016Z" fill="#FF0000"/>
</svg>
