<svg width="561" height="59" viewBox="0 0 561 59" fill="none" xmlns="http://www.w3.org/2000/svg">
<path d="M0.0078125 45.9999V0.471191H4.94579V19.1672H24.3561V0.471191H29.294V45.9999H24.3561V24.5399H4.94579V45.9999H0.0078125Z" fill="#FF0000"/>
<path d="M54.6361 41.9315C53.104 43.5258 51.5097 44.7266 49.8534 45.5341C48.197 46.3415 46.4786 46.7453 44.698 46.7453C41.8822 46.7453 39.6358 45.8964 37.9588 44.1986C36.2817 42.5009 35.4432 40.2131 35.4432 37.3352C35.4432 35.4304 35.8366 33.743 36.6233 32.273C37.4101 30.803 38.4867 29.6539 39.8532 28.8257C41.2197 27.9975 43.2901 27.3868 46.0645 26.9934C49.7913 26.4551 52.5242 25.8132 54.2634 25.0679L54.2945 23.6393C54.2945 21.3825 53.8907 19.7986 53.0833 18.8877C51.9445 17.5626 50.195 16.9 47.8347 16.9C45.7022 16.9 44.1079 17.3452 43.052 18.2355C41.9961 19.105 41.2197 20.751 40.7228 23.1734L36.2196 22.4281C36.8614 18.8877 38.1555 16.31 40.1017 14.695C42.0686 13.0801 44.874 12.2726 48.518 12.2726C51.3544 12.2726 53.5802 12.8109 55.1951 13.8876C56.81 14.9435 57.8245 16.2582 58.2386 17.8317C58.6734 19.4053 58.8908 21.7034 58.8908 24.7263V32.1798C58.8908 37.3973 58.984 40.6893 59.1703 42.0558C59.3774 43.4015 59.7707 44.7163 60.3505 45.9999H55.5678C55.0916 44.8612 54.781 43.5051 54.6361 41.9315ZM54.2634 29.4468C52.5864 30.275 50.0915 30.979 46.7788 31.5587C44.8533 31.8899 43.5075 32.273 42.7415 32.7078C41.9754 33.1219 41.375 33.7223 40.9402 34.509C40.5261 35.2751 40.3191 36.1654 40.3191 37.1799C40.3191 38.7534 40.8056 40.0164 41.7787 40.9688C42.7518 41.9005 44.0976 42.3663 45.8161 42.3663C47.4517 42.3663 48.932 41.9419 50.2571 41.093C51.6029 40.2441 52.6071 39.1157 53.2696 37.7079C53.9321 36.2793 54.2634 34.2088 54.2634 31.4966V29.4468Z" fill="#FF0000"/>
<path d="M72.0898 31.0928V26.7139C74.036 26.6932 75.3507 26.6 76.034 26.4344C76.7379 26.2687 77.4004 25.7822 78.0216 24.9747C78.6427 24.1465 78.9533 23.101 78.9533 21.838C78.9533 20.3059 78.5392 19.0947 77.711 18.2044C76.9035 17.3141 75.8476 16.869 74.5433 16.869C71.9552 16.869 70.1436 18.722 69.1084 22.4281L64.7605 21.5585C66.1477 15.3679 69.4293 12.2726 74.6054 12.2726C77.4626 12.2726 79.709 13.2354 81.3446 15.1609C83.0009 17.0657 83.8291 19.3639 83.8291 22.0554C83.8291 24.6434 82.7629 26.7863 80.6303 28.4841C83.3426 30.2854 84.6987 33.0494 84.6987 36.7762C84.6987 39.7369 83.8188 42.1386 82.0589 43.9813C80.299 45.8239 77.8352 46.7453 74.6675 46.7453C68.5183 46.7453 64.9365 43.4015 63.9219 36.714L68.2077 35.596C68.6011 37.6871 69.3982 39.3228 70.5991 40.5029C71.7999 41.6624 73.1664 42.2421 74.6985 42.2421C76.2721 42.2421 77.5661 41.7141 78.5806 40.6582C79.5951 39.5816 80.1023 38.2151 80.1023 36.5588C80.1023 35.2337 79.7814 34.1157 79.1396 33.2047C78.4978 32.273 77.8145 31.6829 77.0899 31.4345C76.3859 31.186 75.2161 31.0618 73.5805 31.0618L72.0898 31.0928Z" fill="#FF0000"/>
<path d="M90.0094 13.018H100.569C102.97 13.018 104.803 13.2457 106.066 13.7012C107.349 14.1567 108.488 15.0988 109.482 16.5274C110.496 17.9353 111.004 19.6848 111.004 21.7759C111.004 24.923 109.927 27.2729 107.774 28.8257C110.734 30.1508 112.215 32.8009 112.215 36.7762C112.215 39.3228 111.459 41.4967 109.948 43.298C108.436 45.0993 105.858 45.9999 102.215 45.9999H90.0094V13.018ZM94.5746 26.9002H99.4816C101.428 26.9002 102.763 26.776 103.488 26.5275C104.233 26.2791 104.896 25.7822 105.475 25.0368C106.055 24.2708 106.345 23.3391 106.345 22.2418C106.345 20.5026 105.827 19.3017 104.792 18.6392C103.778 17.9767 102.059 17.6454 99.6368 17.6454H94.5746V26.9002ZM94.5746 41.4036H100.631C103.219 41.4036 105.01 41.0102 106.003 40.2234C106.997 39.416 107.494 38.1737 107.494 36.4967C107.494 34.7161 106.966 33.4428 105.91 32.6767C104.875 31.8899 102.96 31.4966 100.165 31.4966H94.5746V41.4036Z" fill="#FF0000"/>
<path d="M135.259 41.9315C133.726 43.5258 132.132 44.7266 130.476 45.5341C128.82 46.3415 127.101 46.7453 125.321 46.7453C122.505 46.7453 120.258 45.8964 118.581 44.1986C116.904 42.5009 116.066 40.2131 116.066 37.3352C116.066 35.4304 116.459 33.743 117.246 32.273C118.033 30.803 119.109 29.6539 120.476 28.8257C121.842 27.9975 123.913 27.3868 126.687 26.9934C130.414 26.4551 133.147 25.8132 134.886 25.0679L134.917 23.6393C134.917 21.3825 134.513 19.7986 133.706 18.8877C132.567 17.5626 130.818 16.9 128.457 16.9C126.325 16.9 124.73 17.3452 123.675 18.2355C122.619 19.105 121.842 20.751 121.345 23.1734L116.842 22.4281C117.484 18.8877 118.778 16.31 120.724 14.695C122.691 13.0801 125.497 12.2726 129.14 12.2726C131.977 12.2726 134.203 12.8109 135.818 13.8876C137.433 14.9435 138.447 16.2582 138.861 17.8317C139.296 19.4053 139.513 21.7034 139.513 24.7263V32.1798C139.513 37.3973 139.606 40.6893 139.793 42.0558C140 43.4015 140.393 44.7163 140.973 45.9999H136.19C135.714 44.8612 135.404 43.5051 135.259 41.9315ZM134.886 29.4468C133.209 30.275 130.714 30.979 127.401 31.5587C125.476 31.8899 124.13 32.273 123.364 32.7078C122.598 33.1219 121.997 33.7223 121.563 34.509C121.149 35.2751 120.942 36.1654 120.942 37.1799C120.942 38.7534 121.428 40.0164 122.401 40.9688C123.374 41.9005 124.72 42.3663 126.439 42.3663C128.074 42.3663 129.555 41.9419 130.88 41.093C132.225 40.2441 133.23 39.1157 133.892 37.7079C134.555 36.2793 134.886 34.2088 134.886 31.4966V29.4468Z" fill="#FF0000"/>
<path d="M146.718 13.018H151.284V26.7449H164.017V13.018H168.582V45.9999H164.017V31.3723H151.284V45.9999H146.718V13.018Z" fill="#FF0000"/>
<path d="M175.539 13.018H180.104V38.1737L192.837 13.018H197.775V45.9999H193.21V20.9995L180.477 45.9999H175.539V13.018Z" fill="#FF0000"/>
<path d="M223.148 35.3786L227.869 36.0929C227.082 39.6126 225.653 42.2731 223.583 44.0744C221.533 45.855 218.987 46.7453 215.943 46.7453C212.113 46.7453 209.007 45.296 206.626 42.3974C204.266 39.4781 203.086 35.2751 203.086 29.7885C203.086 24.0948 204.276 19.7572 206.657 16.7758C209.059 13.7737 212.092 12.2726 215.757 12.2726C219.256 12.2726 222.175 13.7426 224.515 16.6826C226.854 19.6227 228.024 23.8774 228.024 29.4468L227.993 30.9376H207.806C207.993 34.6436 208.852 37.4387 210.384 39.3228C211.916 41.2069 213.78 42.1489 215.974 42.1489C219.411 42.1489 221.803 39.8922 223.148 35.3786ZM208.086 26.3412H223.179C222.972 23.484 222.362 21.3515 221.347 19.9436C219.877 17.8939 218.003 16.869 215.726 16.869C213.676 16.869 211.927 17.7282 210.477 19.4467C209.028 21.1444 208.231 23.4426 208.086 26.3412Z" fill="#FF0000"/>
<path d="M248.397 13.018H255.54L262.652 39.416L270.509 13.018H277.124V45.9999H272.528V19.4467L264.547 45.9999H260.447L252.869 18.1734V45.9999H248.397V13.018Z" fill="#FF0000"/>
<path d="M302.591 35.3786L307.311 36.0929C306.524 39.6126 305.096 42.2731 303.025 44.0744C300.976 45.855 298.429 46.7453 295.386 46.7453C291.555 46.7453 288.45 45.296 286.069 42.3974C283.708 39.4781 282.528 35.2751 282.528 29.7885C282.528 24.0948 283.719 19.7572 286.1 16.7758C288.501 13.7737 291.535 12.2726 295.199 12.2726C298.698 12.2726 301.618 13.7426 303.957 16.6826C306.297 19.6227 307.466 23.8774 307.466 29.4468L307.435 30.9376H287.249C287.435 34.6436 288.294 37.4387 289.826 39.3228C291.359 41.2069 293.222 42.1489 295.417 42.1489C298.854 42.1489 301.245 39.8922 302.591 35.3786ZM287.528 26.3412H302.622C302.415 23.484 301.804 21.3515 300.789 19.9436C299.319 17.8939 297.446 16.869 295.168 16.869C293.118 16.869 291.369 17.7282 289.92 19.4467C288.47 21.1444 287.673 23.4426 287.528 26.3412Z" fill="#FF0000"/>
<path d="M313.088 58.6399V13.018H317.28V17.3038C318.316 15.5232 319.465 14.2395 320.728 13.4528C321.991 12.666 323.44 12.2726 325.076 12.2726C327.208 12.2726 329.134 12.9041 330.852 14.1671C332.57 15.43 333.947 17.3555 334.983 19.9436C336.038 22.5109 336.566 25.6062 336.566 29.2294C336.566 34.8403 335.386 39.1675 333.026 42.211C330.686 45.2339 327.933 46.7453 324.765 46.7453C323.357 46.7453 322.042 46.3829 320.821 45.6583C319.599 44.9336 318.543 43.9088 317.653 42.5837V58.6399H313.088ZM317.218 29.6953C317.218 33.9604 317.933 37.1074 319.361 39.1364C320.79 41.1448 322.519 42.1489 324.548 42.1489C326.494 42.1489 328.202 41.1034 329.672 39.0122C331.142 36.9211 331.877 33.6912 331.877 29.3226C331.877 25.0161 331.163 21.8277 329.734 19.7572C328.305 17.6868 326.566 16.6516 324.516 16.6516C322.674 16.6516 320.997 17.7696 319.485 20.0057C317.974 22.221 317.218 25.4509 317.218 29.6953Z" fill="#FF0000"/>
<path d="M340.386 29.509C340.386 23.8153 341.577 19.5191 343.958 16.6205C346.36 13.7219 349.393 12.2726 353.057 12.2726C356.66 12.2726 359.672 13.7219 362.095 16.6205C364.517 19.5191 365.728 23.7014 365.728 29.1673C365.728 35.0888 364.538 39.4988 362.157 42.3974C359.776 45.296 356.743 46.7453 353.057 46.7453C349.434 46.7453 346.411 45.296 343.989 42.3974C341.587 39.4781 340.386 35.1819 340.386 29.509ZM345.076 29.509C345.076 33.774 345.852 36.9521 347.405 39.0433C348.958 41.1137 350.883 42.1489 353.182 42.1489C355.335 42.1489 357.178 41.1034 358.71 39.0122C360.262 36.9004 361.039 33.7326 361.039 29.509C361.039 25.2646 360.262 22.1072 358.71 20.0367C357.157 17.9456 355.231 16.9 352.933 16.9C350.759 16.9 348.906 17.9456 347.374 20.0367C345.842 22.1279 345.076 25.2853 345.076 29.509Z" fill="#FF0000"/>
<path d="M371.225 13.018H392.561V45.9999H387.996V17.6454H375.791V45.9999H371.225V13.018Z" fill="#FF0000"/>
<path d="M399.362 58.6399V13.018H403.555V17.3038C404.59 15.5232 405.739 14.2395 407.002 13.4528C408.265 12.666 409.715 12.2726 411.35 12.2726C413.483 12.2726 415.408 12.9041 417.127 14.1671C418.845 15.43 420.222 17.3555 421.257 19.9436C422.313 22.5109 422.841 25.6062 422.841 29.2294C422.841 34.8403 421.661 39.1675 419.301 42.211C416.961 45.2339 414.207 46.7453 411.04 46.7453C409.632 46.7453 408.317 46.3829 407.096 45.6583C405.874 44.9336 404.818 43.9088 403.928 42.5837V58.6399H399.362ZM403.493 29.6953C403.493 33.9604 404.207 37.1074 405.636 39.1364C407.064 41.1448 408.793 42.1489 410.822 42.1489C412.768 42.1489 414.477 41.1034 415.947 39.0122C417.417 36.9211 418.152 33.6912 418.152 29.3226C418.152 25.0161 417.437 21.8277 416.009 19.7572C414.58 17.6868 412.841 16.6516 410.791 16.6516C408.949 16.6516 407.272 17.7696 405.76 20.0057C404.249 22.221 403.493 25.4509 403.493 29.6953Z" fill="#FF0000"/>
<path d="M428.462 13.018H433.028V38.1737L445.761 13.018H450.699V45.9999H446.133V20.9995L433.4 45.9999H428.462V13.018Z" fill="#FF0000"/>
<path d="M478.96 13.018V45.9999H474.395V33.1426H471.724C470.171 33.1426 468.991 33.391 468.184 33.8879C467.376 34.3848 466.206 36.0205 464.674 38.7948L460.699 45.9999H455.016L459.954 37.1178C461.465 34.4055 462.966 32.8734 464.457 32.5214C461.848 32.0659 459.912 30.9168 458.649 29.0742C457.386 27.2108 456.755 25.0679 456.755 22.6455C456.755 19.6227 457.604 17.2624 459.301 15.5646C461.02 13.8669 463.39 13.018 466.413 13.018H478.96ZM474.395 17.6454H467.873C465.14 17.6454 463.38 18.1734 462.593 19.2293C461.807 20.2645 461.413 21.4653 461.413 22.8318C461.413 24.8194 461.993 26.2687 463.152 27.1797C464.333 28.0907 466.393 28.5462 469.333 28.5462H474.395V17.6454Z" fill="#FF0000"/>
<path d="M483.432 13.018H505.42V17.6454H496.724V45.9999H492.128V17.6454H483.432V13.018Z" fill="#FF0000"/>
<path d="M509.83 13.018H514.396V38.1737L527.129 13.018H532.067V45.9999H527.501V20.9995L514.768 45.9999H509.83V13.018Z" fill="#FF0000"/>
<path d="M560.328 13.018V45.9999H555.763V33.1426H553.092C551.539 33.1426 550.359 33.391 549.551 33.8879C548.744 34.3848 547.574 36.0205 546.042 38.7948L542.067 45.9999H536.383L541.321 37.1178C542.833 34.4055 544.334 32.8734 545.825 32.5214C543.216 32.0659 541.28 30.9168 540.017 29.0742C538.754 27.2108 538.123 25.0679 538.123 22.6455C538.123 19.6227 538.971 17.2624 540.669 15.5646C542.388 13.8669 544.758 13.018 547.781 13.018H560.328ZM555.763 17.6454H549.241C546.508 17.6454 544.748 18.1734 543.961 19.2293C543.174 20.2645 542.781 21.4653 542.781 22.8318C542.781 24.8194 543.361 26.2687 544.52 27.1797C545.7 28.0907 547.76 28.5462 550.701 28.5462H555.763V17.6454Z" fill="#FF0000"/>
</svg>
