<svg width="457" height="230" viewBox="0 0 457 230" fill="none" xmlns="http://www.w3.org/2000/svg">
<path d="M0.248047 0.471191H5.21708L17.4223 28.3599L28.0436 0.471191H32.9815L18.9751 35.8755C17.1738 40.3891 15.7038 43.3084 14.5651 44.6334C13.447 45.9585 11.9046 46.621 9.93765 46.621C8.59188 46.621 6.99764 46.2587 5.15496 45.5341V40.3787C6.48004 41.3104 7.87758 41.7762 9.34758 41.7762C10.5691 41.7762 11.6147 41.3104 12.4843 40.3787C13.3539 39.447 14.3166 37.2938 15.3725 33.919L0.248047 0.471191Z" fill="#FF0000"/>
<path d="M37.1431 45.9999V0.471191H51.2117C54.5243 0.471191 56.9674 0.761051 58.541 1.34077C60.6942 2.12753 62.4127 3.58719 63.6963 5.71973C64.98 7.85227 65.6218 10.4714 65.6218 13.577C65.6218 17.6765 64.5763 21.0202 62.4851 23.6082C60.394 26.1963 56.7811 27.4903 51.6464 27.4903H42.0811V45.9999H37.1431ZM42.0811 22.1175H51.7396C54.7831 22.1175 57.0089 21.4343 58.4167 20.0678C59.8246 18.6806 60.5286 16.5998 60.5286 13.8255C60.5286 12.0242 60.1766 10.4817 59.4727 9.19805C58.7894 7.91438 57.9509 7.03445 56.9571 6.55825C55.984 6.08205 54.2138 5.84395 51.6464 5.84395H42.0811V22.1175Z" fill="#FF0000"/>
<path d="M67.8268 45.9999L82.1749 0.471191H87.4856L102.765 45.9999H97.1131L92.7652 32.2109H77.1748L73.0754 45.9999H67.8268ZM78.6034 27.3039H91.2434L87.3613 14.695C86.1605 10.8233 85.2806 7.67628 84.7215 5.25388C84.2453 8.17319 83.5725 11.0718 82.7029 13.9497L78.6034 27.3039Z" fill="#FF0000"/>
<path d="M109.411 0.471191H132.797V45.9999H127.828V5.84395H114.349V29.2916C114.349 33.95 114.163 37.4076 113.79 39.6644C113.438 41.9005 112.662 43.65 111.461 44.9129C110.281 46.1552 108.821 46.7763 107.082 46.7763C105.943 46.7763 104.618 46.5175 103.107 45.9999L103.945 40.6893C104.753 41.1034 105.447 41.3104 106.026 41.3104C107.124 41.3104 107.962 40.8135 108.542 39.8197C109.122 38.8259 109.411 36.3931 109.411 32.5214V0.471191Z" fill="#FF0000"/>
<path d="M2.35906 99.0001V76.2357H6.8933L12.2816 92.354C12.7785 93.8551 13.1408 94.9783 13.3686 95.7237C13.6274 94.8955 14.0311 93.6791 14.5798 92.0745L20.0302 76.2357H24.083V99.0001H21.1793V79.947L14.5642 99.0001H11.8468L5.26283 79.6209V99.0001H2.35906Z" fill="#FF0000"/>
<path d="M39.7199 96.9659C38.6847 97.8458 37.6857 98.467 36.723 98.8293C35.7706 99.1916 34.7457 99.3728 33.6484 99.3728C31.8368 99.3728 30.4444 98.9328 29.4713 98.0529C28.4982 97.1626 28.0117 96.029 28.0117 94.6522C28.0117 93.8447 28.1928 93.1097 28.5552 92.4472C28.9278 91.7743 29.4092 91.236 29.9993 90.8323C30.5997 90.4285 31.2726 90.1231 32.018 89.9161C32.5666 89.7712 33.3948 89.6314 34.5025 89.4968C36.7592 89.2277 38.4208 88.9068 39.487 88.5341C39.4974 88.1511 39.5025 87.9078 39.5025 87.8043C39.5025 86.6655 39.2386 85.8632 38.7106 85.3974C37.9963 84.7659 36.9352 84.4502 35.5273 84.4502C34.2126 84.4502 33.2395 84.6831 32.608 85.1489C31.9869 85.6044 31.5262 86.4171 31.226 87.5869L28.493 87.2142C28.7415 86.0444 29.1504 85.1024 29.7198 84.3881C30.2891 83.6634 31.1121 83.1096 32.1888 82.7265C33.2654 82.3332 34.5128 82.1365 35.9311 82.1365C37.339 82.1365 38.4829 82.3021 39.3628 82.6334C40.2427 82.9646 40.8897 83.3839 41.3038 83.8912C41.7179 84.3881 42.0078 85.0195 42.1734 85.7856C42.2666 86.2618 42.3132 87.121 42.3132 88.3633V92.0901C42.3132 94.6884 42.3701 96.3344 42.484 97.028C42.6082 97.7113 42.8463 98.3686 43.1983 99.0001H40.279C39.9891 98.4204 39.8028 97.7423 39.7199 96.9659ZM39.487 90.7236C38.4725 91.1377 36.9507 91.4896 34.9217 91.7795C33.7726 91.9451 32.96 92.1315 32.4838 92.3385C32.0076 92.5455 31.6401 92.8509 31.3813 93.2547C31.1225 93.648 30.9931 94.088 30.9931 94.5746C30.9931 95.3199 31.2726 95.941 31.8316 96.438C32.401 96.9349 33.2292 97.1833 34.3161 97.1833C35.3927 97.1833 36.3503 96.9504 37.1888 96.4845C38.0274 96.0083 38.6433 95.3613 39.0367 94.5435C39.3369 93.912 39.487 92.9803 39.487 91.7484V90.7236Z" fill="#FF0000"/>
<path d="M57.4221 92.9596L60.1706 93.3168C59.8704 95.2112 59.0992 96.6968 57.8569 97.7734C56.625 98.8396 55.1084 99.3728 53.3071 99.3728C51.0504 99.3728 49.2336 98.6378 47.8567 97.1678C46.4902 95.6874 45.807 93.5704 45.807 90.8167C45.807 89.0362 46.102 87.4782 46.6921 86.1427C47.2822 84.8073 48.1776 83.8083 49.3785 83.1458C50.5897 82.4729 51.9044 82.1365 53.3227 82.1365C55.1136 82.1365 56.5784 82.592 57.7171 83.5029C58.8559 84.4036 59.5857 85.6873 59.9066 87.3539L57.1892 87.7732C56.9304 86.6655 56.4697 85.8322 55.8072 85.2732C55.155 84.7141 54.3631 84.4346 53.4314 84.4346C52.0235 84.4346 50.8796 84.9419 49.9996 85.9564C49.1197 86.9606 48.6797 88.5548 48.6797 90.7391C48.6797 92.9545 49.1042 94.5642 49.953 95.5684C50.8019 96.5725 51.9096 97.0746 53.2761 97.0746C54.3734 97.0746 55.2896 96.7382 56.0246 96.0653C56.7596 95.3924 57.2254 94.3572 57.4221 92.9596Z" fill="#FF0000"/>
<path d="M62.5464 82.5091H65.3415V89.6366C66.2318 89.6366 66.8529 89.4658 67.2049 89.1242C67.5672 88.7825 68.0952 87.7887 68.7888 86.1427C69.3374 84.8384 69.7826 83.9791 70.1242 83.5651C70.4658 83.151 70.8592 82.8715 71.3043 82.7265C71.7495 82.5816 72.4638 82.5091 73.4472 82.5091H74.0062V84.8228L73.2298 84.8073C72.4948 84.8073 72.0238 84.916 71.8168 85.1334C71.5994 85.3612 71.2681 86.0392 70.823 87.1676C70.3985 88.2442 70.0103 88.9896 69.6583 89.4037C69.3064 89.8178 68.7629 90.1956 68.0279 90.5372C69.2287 90.8581 70.4089 91.9762 71.5683 93.8913L74.6274 99.0001H71.5528L68.5714 93.8913C67.9606 92.8665 67.4275 92.1936 66.972 91.8727C66.5165 91.5414 65.973 91.3758 65.3415 91.3758V99.0001H62.5464V82.5091Z" fill="#FF0000"/>
<path d="M76.4752 82.5091H79.2703V95.087L87.0189 82.5091H90.0314V99.0001H87.2363V86.4999L79.4877 99.0001H76.4752V82.5091Z" fill="#FF0000"/>
<path d="M102.05 90.7546C102.05 87.7007 102.899 85.4388 104.597 83.9688C106.015 82.7472 107.744 82.1365 109.783 82.1365C112.05 82.1365 113.903 82.8818 115.342 84.3725C116.781 85.8529 117.501 87.9026 117.501 90.5217C117.501 92.6439 117.18 94.3158 116.538 95.5373C115.907 96.7485 114.98 97.6906 113.758 98.3635C112.547 99.0363 111.222 99.3728 109.783 99.3728C107.475 99.3728 105.606 98.6326 104.178 97.1523C102.759 95.6719 102.05 93.5394 102.05 90.7546ZM104.923 90.7546C104.923 92.8665 105.384 94.4503 106.305 95.5063C107.226 96.5518 108.386 97.0746 109.783 97.0746C111.17 97.0746 112.325 96.5466 113.246 95.4907C114.167 94.4348 114.628 92.8251 114.628 90.6615C114.628 88.6221 114.162 87.0796 113.231 86.034C112.309 84.9781 111.16 84.4502 109.783 84.4502C108.386 84.4502 107.226 84.973 106.305 86.0185C105.384 87.0641 104.923 88.6428 104.923 90.7546Z" fill="#FF0000"/>
<path d="M118.572 82.5091H131.973V84.8228H126.662V99.0001H123.883V84.8228H118.572V82.5091Z" fill="#FF0000"/>
<path d="M143.899 76.2357H146.911V86.2049C148.288 86.2049 149.256 85.9409 149.815 85.4129C150.374 84.8746 151.088 83.5909 151.958 81.5619C152.589 80.0712 153.107 79.0205 153.511 78.4097C153.925 77.7886 154.51 77.271 155.265 76.8569C156.021 76.4324 156.854 76.2202 157.765 76.2202C158.925 76.2202 159.536 76.2306 159.598 76.2513V78.86C159.494 78.86 159.292 78.8548 158.992 78.8445C158.661 78.8341 158.459 78.829 158.387 78.829C157.424 78.829 156.71 79.0619 156.244 79.5277C155.767 79.9936 155.224 80.9874 154.613 82.5091C153.847 84.4346 153.2 85.651 152.672 86.1583C152.144 86.6552 151.513 87.0537 150.778 87.3539C152.248 87.7577 153.697 89.1138 155.126 91.4223L159.815 99.0001H156.073L152.268 92.8199C151.223 91.1118 150.348 89.942 149.644 89.3105C148.94 88.6687 148.029 88.3478 146.911 88.3478V99.0001H143.899V76.2357Z" fill="#FF0000"/>
<path d="M172.797 96.9659C171.762 97.8458 170.763 98.467 169.8 98.8293C168.847 99.1916 167.823 99.3728 166.725 99.3728C164.914 99.3728 163.521 98.9328 162.548 98.0529C161.575 97.1626 161.088 96.029 161.088 94.6522C161.088 93.8447 161.27 93.1097 161.632 92.4472C162.005 91.7743 162.486 91.236 163.076 90.8323C163.677 90.4285 164.349 90.1231 165.095 89.9161C165.643 89.7712 166.472 89.6314 167.579 89.4968C169.836 89.2277 171.498 88.9068 172.564 88.5341C172.574 88.1511 172.579 87.9078 172.579 87.8043C172.579 86.6655 172.315 85.8632 171.787 85.3974C171.073 84.7659 170.012 84.4502 168.604 84.4502C167.289 84.4502 166.316 84.6831 165.685 85.1489C165.064 85.6044 164.603 86.4171 164.303 87.5869L161.57 87.2142C161.818 86.0444 162.227 85.1024 162.797 84.3881C163.366 83.6634 164.189 83.1096 165.266 82.7265C166.342 82.3332 167.59 82.1365 169.008 82.1365C170.416 82.1365 171.56 82.3021 172.44 82.6334C173.32 82.9646 173.967 83.3839 174.381 83.8912C174.795 84.3881 175.085 85.0195 175.25 85.7856C175.343 86.2618 175.39 87.121 175.39 88.3633V92.0901C175.39 94.6884 175.447 96.3344 175.561 97.028C175.685 97.7113 175.923 98.3686 176.275 99.0001H173.356C173.066 98.4204 172.88 97.7423 172.797 96.9659ZM172.564 90.7236C171.549 91.1377 170.028 91.4896 167.999 91.7795C166.849 91.9451 166.037 92.1315 165.561 92.3385C165.084 92.5455 164.717 92.8509 164.458 93.2547C164.199 93.648 164.07 94.088 164.07 94.5746C164.07 95.3199 164.349 95.941 164.908 96.438C165.478 96.9349 166.306 97.1833 167.393 97.1833C168.47 97.1833 169.427 96.9504 170.266 96.4845C171.104 96.0083 171.72 95.3613 172.114 94.5435C172.414 93.912 172.564 92.9803 172.564 91.7484V90.7236Z" fill="#FF0000"/>
<path d="M177.517 82.5091H190.918V84.8228H185.608V99.0001H182.828V84.8228H177.517V82.5091Z" fill="#FF0000"/>
<path d="M193.589 82.5091H196.384V95.087L204.133 82.5091H207.145V99.0001H204.35V86.4999L196.602 99.0001H193.589V82.5091Z" fill="#FF0000"/>
<path d="M218.061 99.0001L226.804 76.2357H230.049L239.366 99.0001H235.934L233.279 92.1056H223.76L221.26 99.0001H218.061ZM224.63 89.6521H232.347L229.972 83.3477C229.247 81.4325 228.709 79.859 228.357 78.6271C228.067 80.0867 227.658 81.536 227.13 82.975L224.63 89.6521Z" fill="#FF0000"/>
<path d="M242.782 82.5091H255.764V99.0001H252.984V84.8228H245.577V93.0373C245.577 94.9524 245.515 96.2154 245.391 96.8262C245.267 97.4369 244.925 97.9701 244.366 98.4256C243.807 98.8811 243 99.1088 241.944 99.1088C241.292 99.1088 240.541 99.0674 239.692 98.9846V96.6553H240.919C241.499 96.6553 241.913 96.5984 242.161 96.4845C242.41 96.3603 242.575 96.1688 242.658 95.91C242.741 95.6512 242.782 94.8075 242.782 93.3789V82.5091Z" fill="#FF0000"/>
<path d="M271.277 93.6895L274.165 94.0466C273.709 95.734 272.866 97.0436 271.634 97.9752C270.402 98.9069 268.828 99.3728 266.913 99.3728C264.501 99.3728 262.586 98.6326 261.168 97.1523C259.76 95.6615 259.056 93.5756 259.056 90.8944C259.056 88.12 259.77 85.9668 261.199 84.4346C262.627 82.9025 264.481 82.1365 266.758 82.1365C268.963 82.1365 270.764 82.887 272.162 84.3881C273.559 85.8891 274.258 88.001 274.258 90.7236C274.258 90.8892 274.253 91.1377 274.243 91.4689H261.944C262.048 93.2805 262.56 94.6677 263.482 95.6305C264.403 96.5932 265.552 97.0746 266.929 97.0746C267.954 97.0746 268.828 96.8055 269.553 96.2671C270.278 95.7288 270.852 94.8696 271.277 93.6895ZM262.1 89.1707H271.308C271.184 87.7836 270.832 86.7432 270.252 86.0496C269.362 84.973 268.207 84.4346 266.789 84.4346C265.505 84.4346 264.424 84.8643 263.544 85.7235C262.674 86.5827 262.193 87.7318 262.1 89.1707Z" fill="#FF0000"/>
<path d="M277.783 82.5091H280.578V96.7019H286.945V82.5091H289.74V96.7019H296.122V82.5091H298.901V96.7019H300.749V103.674H298.436V99.0001H277.783V82.5091Z" fill="#FF0000"/>
<path d="M314.787 93.6895L317.675 94.0466C317.22 95.734 316.376 97.0436 315.144 97.9752C313.912 98.9069 312.339 99.3728 310.423 99.3728C308.011 99.3728 306.096 98.6326 304.678 97.1523C303.27 95.6615 302.566 93.5756 302.566 90.8944C302.566 88.12 303.28 85.9668 304.709 84.4346C306.138 82.9025 307.991 82.1365 310.268 82.1365C312.473 82.1365 314.274 82.887 315.672 84.3881C317.069 85.8891 317.768 88.001 317.768 90.7236C317.768 90.8892 317.763 91.1377 317.753 91.4689H305.454C305.558 93.2805 306.07 94.6677 306.992 95.6305C307.913 96.5932 309.062 97.0746 310.439 97.0746C311.464 97.0746 312.339 96.8055 313.063 96.2671C313.788 95.7288 314.362 94.8696 314.787 93.6895ZM305.61 89.1707H314.818C314.694 87.7836 314.342 86.7432 313.762 86.0496C312.872 84.973 311.717 84.4346 310.299 84.4346C309.015 84.4346 307.934 84.8643 307.054 85.7235C306.184 86.5827 305.703 87.7318 305.61 89.1707Z" fill="#FF0000"/>
<path d="M321.215 82.5091H324.01V89.3726H331.759V82.5091H334.554V99.0001H331.759V91.6863H324.01V99.0001H321.215V82.5091Z" fill="#FF0000"/>
<path d="M338.762 82.5091H341.557V89.6366C342.448 89.6366 343.069 89.4658 343.421 89.1242C343.783 88.7825 344.311 87.7887 345.005 86.1427C345.553 84.8384 345.998 83.9791 346.34 83.5651C346.682 83.151 347.075 82.8715 347.52 82.7265C347.965 82.5816 348.68 82.5091 349.663 82.5091H350.222V84.8228L349.446 84.8073C348.711 84.8073 348.24 84.916 348.033 85.1334C347.815 85.3612 347.484 86.0392 347.039 87.1676C346.614 88.2442 346.226 88.9896 345.874 89.4037C345.522 89.8178 344.979 90.1956 344.244 90.5372C345.445 90.8581 346.625 91.9762 347.784 93.8913L350.843 99.0001H347.769L344.787 93.8913C344.176 92.8665 343.643 92.1936 343.188 91.8727C342.732 91.5414 342.189 91.3758 341.557 91.3758V99.0001H338.762V82.5091Z" fill="#FF0000"/>
<path d="M352.023 90.7546C352.023 87.7007 352.872 85.4388 354.57 83.9688C355.988 82.7472 357.717 82.1365 359.757 82.1365C362.024 82.1365 363.877 82.8818 365.316 84.3725C366.755 85.8529 367.474 87.9026 367.474 90.5217C367.474 92.6439 367.153 94.3158 366.511 95.5373C365.88 96.7485 364.953 97.6906 363.732 98.3635C362.521 99.0363 361.195 99.3728 359.757 99.3728C357.448 99.3728 355.579 98.6326 354.151 97.1523C352.733 95.6719 352.023 93.5394 352.023 90.7546ZM354.896 90.7546C354.896 92.8665 355.357 94.4503 356.278 95.5063C357.199 96.5518 358.359 97.0746 359.757 97.0746C361.144 97.0746 362.298 96.5466 363.219 95.4907C364.141 94.4348 364.601 92.8251 364.601 90.6615C364.601 88.6221 364.135 87.0796 363.204 86.034C362.282 84.9781 361.133 84.4502 359.757 84.4502C358.359 84.4502 357.199 84.973 356.278 86.0185C355.357 87.0641 354.896 88.6428 354.896 90.7546Z" fill="#FF0000"/>
<path d="M1.05469 121.755C1.05469 118.701 1.90356 116.439 3.60132 114.969C5.01956 113.747 6.74837 113.136 8.78774 113.136C11.0549 113.136 12.9079 113.882 14.3468 115.373C15.7858 116.853 16.5053 118.903 16.5053 121.522C16.5053 123.644 16.1843 125.316 15.5425 126.537C14.911 127.749 13.9845 128.691 12.763 129.363C11.5518 130.036 10.2267 130.373 8.78774 130.373C6.47921 130.373 4.61065 129.633 3.18205 128.152C1.76381 126.672 1.05469 124.539 1.05469 121.755ZM3.92741 121.755C3.92741 123.866 4.38808 125.45 5.30942 126.506C6.23076 127.552 7.3902 128.075 8.78774 128.075C10.1749 128.075 11.3292 127.547 12.2505 126.491C13.1719 125.435 13.6325 123.825 13.6325 121.661C13.6325 119.622 13.1667 118.08 12.235 117.034C11.3137 115.978 10.1646 115.45 8.78774 115.45C7.3902 115.45 6.23076 115.973 5.30942 117.019C4.38808 118.064 3.92741 119.643 3.92741 121.755Z" fill="#FF0000"/>
<path d="M28.726 113.509H33.0739L37.4062 126.708L42.22 113.509H46.2418V130H43.4467V116.723L38.5709 130H36.0708L31.4589 116.087V130H28.726V113.509Z" fill="#FF0000"/>
<path d="M50.5121 113.509H53.3071V126.087L61.0557 113.509H64.0682V130H61.2731V117.5L53.5245 130H50.5121V113.509Z" fill="#FF0000"/>
<path d="M68.2763 136.32V113.509H70.823V115.652C71.4234 114.814 72.1014 114.187 72.8572 113.773C73.6129 113.349 74.529 113.136 75.6056 113.136C77.0135 113.136 78.2558 113.499 79.3324 114.223C80.409 114.948 81.2217 115.973 81.7703 117.298C82.319 118.613 82.5933 120.057 82.5933 121.63C82.5933 123.318 82.288 124.84 81.6772 126.196C81.0768 127.541 80.1968 128.577 79.0374 129.301C77.8883 130.016 76.6771 130.373 75.4038 130.373C74.4721 130.373 73.6336 130.176 72.8882 129.783C72.1532 129.389 71.5476 128.892 71.0714 128.292V136.32H68.2763ZM70.8074 121.848C70.8074 123.97 71.237 125.538 72.0963 126.553C72.9555 127.567 73.9959 128.075 75.2174 128.075C76.4597 128.075 77.5208 127.552 78.4007 126.506C79.291 125.45 79.7362 123.82 79.7362 121.615C79.7362 119.513 79.3014 117.94 78.4318 116.894C77.5726 115.849 76.5425 115.326 75.3417 115.326C74.1512 115.326 73.0953 115.885 72.1739 117.003C71.2629 118.111 70.8074 119.726 70.8074 121.848Z" fill="#FF0000"/>
<path d="M97.2675 124.689L100.156 125.047C99.7003 126.734 98.8566 128.044 97.6247 128.975C96.3928 129.907 94.8192 130.373 92.9041 130.373C90.492 130.373 88.5769 129.633 87.1586 128.152C85.7508 126.662 85.0468 124.576 85.0468 121.894C85.0468 119.12 85.7611 116.967 87.1897 115.435C88.6183 113.903 90.4713 113.136 92.7488 113.136C94.9538 113.136 96.7551 113.887 98.1526 115.388C99.5502 116.889 100.249 119.001 100.249 121.724C100.249 121.889 100.244 122.138 100.233 122.469H87.9351C88.0386 124.281 88.551 125.668 89.4724 126.63C90.3937 127.593 91.5428 128.075 92.9196 128.075C93.9445 128.075 94.8192 127.805 95.5439 127.267C96.2685 126.729 96.8431 125.87 97.2675 124.689ZM88.0903 120.171H97.2986C97.1743 118.784 96.8224 117.743 96.2427 117.05C95.3524 115.973 94.1981 115.435 92.7799 115.435C91.4962 115.435 90.4144 115.864 89.5345 116.723C88.6649 117.583 88.1835 118.732 88.0903 120.171Z" fill="#FF0000"/>
<path d="M112.408 136.351L112.097 133.727C112.708 133.893 113.241 133.975 113.696 133.975C114.317 133.975 114.814 133.872 115.187 133.665C115.56 133.458 115.865 133.168 116.103 132.795C116.279 132.516 116.564 131.822 116.957 130.714C117.009 130.559 117.092 130.331 117.206 130.031L110.948 113.509H113.96L117.392 123.059C117.837 124.27 118.236 125.544 118.588 126.879C118.909 125.595 119.292 124.343 119.737 123.121L123.262 113.509H126.057L119.783 130.28C119.111 132.091 118.588 133.339 118.215 134.022C117.718 134.943 117.149 135.616 116.507 136.041C115.865 136.475 115.099 136.693 114.209 136.693C113.67 136.693 113.07 136.579 112.408 136.351Z" fill="#FF0000"/>
<path d="M128.06 136.32V113.509H130.607V115.652C131.207 114.814 131.885 114.187 132.641 113.773C133.396 113.349 134.313 113.136 135.389 113.136C136.797 113.136 138.039 113.499 139.116 114.223C140.193 114.948 141.005 115.973 141.554 117.298C142.103 118.613 142.377 120.057 142.377 121.63C142.377 123.318 142.072 124.84 141.461 126.196C140.86 127.541 139.98 128.577 138.821 129.301C137.672 130.016 136.461 130.373 135.187 130.373C134.256 130.373 133.417 130.176 132.672 129.783C131.937 129.389 131.331 128.892 130.855 128.292V136.32H128.06ZM130.591 121.848C130.591 123.97 131.021 125.538 131.88 126.553C132.739 127.567 133.78 128.075 135.001 128.075C136.243 128.075 137.304 127.552 138.184 126.506C139.075 125.45 139.52 123.82 139.52 121.615C139.52 119.513 139.085 117.94 138.215 116.894C137.356 115.849 136.326 115.326 135.125 115.326C133.935 115.326 132.879 115.885 131.958 117.003C131.047 118.111 130.591 119.726 130.591 121.848Z" fill="#FF0000"/>
<path d="M156.523 127.966C155.488 128.846 154.489 129.467 153.526 129.829C152.574 130.192 151.549 130.373 150.452 130.373C148.64 130.373 147.248 129.933 146.275 129.053C145.301 128.163 144.815 127.029 144.815 125.652C144.815 124.845 144.996 124.11 145.358 123.447C145.731 122.774 146.212 122.236 146.803 121.832C147.403 121.429 148.076 121.123 148.821 120.916C149.37 120.771 150.198 120.631 151.306 120.497C153.562 120.228 155.224 119.907 156.29 119.534C156.301 119.151 156.306 118.908 156.306 118.804C156.306 117.666 156.042 116.863 155.514 116.397C154.8 115.766 153.738 115.45 152.331 115.45C151.016 115.45 150.043 115.683 149.411 116.149C148.79 116.604 148.329 117.417 148.029 118.587L145.296 118.214C145.545 117.044 145.954 116.102 146.523 115.388C147.092 114.663 147.915 114.11 148.992 113.727C150.069 113.333 151.316 113.136 152.734 113.136C154.142 113.136 155.286 113.302 156.166 113.633C157.046 113.965 157.693 114.384 158.107 114.891C158.521 115.388 158.811 116.02 158.977 116.786C159.07 117.262 159.116 118.121 159.116 119.363V123.09C159.116 125.688 159.173 127.334 159.287 128.028C159.411 128.711 159.65 129.369 160.002 130H157.082C156.792 129.42 156.606 128.742 156.523 127.966ZM156.29 121.724C155.276 122.138 153.754 122.49 151.725 122.779C150.576 122.945 149.763 123.131 149.287 123.339C148.811 123.546 148.443 123.851 148.185 124.255C147.926 124.648 147.796 125.088 147.796 125.575C147.796 126.32 148.076 126.941 148.635 127.438C149.204 127.935 150.032 128.183 151.119 128.183C152.196 128.183 153.154 127.95 153.992 127.485C154.831 127.008 155.447 126.361 155.84 125.544C156.14 124.912 156.29 123.98 156.29 122.748V121.724Z" fill="#FF0000"/>
<path d="M164.831 113.509H177.812V130H175.033V115.823H167.626V124.037C167.626 125.952 167.564 127.215 167.44 127.826C167.315 128.437 166.974 128.97 166.415 129.426C165.856 129.881 165.048 130.109 163.992 130.109C163.34 130.109 162.59 130.067 161.741 129.985V127.655H162.967C163.547 127.655 163.961 127.598 164.21 127.485C164.458 127.36 164.624 127.169 164.707 126.91C164.789 126.651 164.831 125.807 164.831 124.379V113.509Z" fill="#FF0000"/>
<path d="M181.989 113.509H184.785V119.953H188.325C190.633 119.953 192.409 120.404 193.651 121.304C194.904 122.195 195.53 123.426 195.53 125C195.53 126.377 195.007 127.557 193.962 128.54C192.926 129.514 191.265 130 188.977 130H181.989V113.509ZM184.785 127.702H187.719C189.49 127.702 190.753 127.485 191.508 127.05C192.264 126.615 192.642 125.937 192.642 125.016C192.642 124.301 192.362 123.665 191.803 123.106C191.244 122.547 190.007 122.267 188.092 122.267H184.785V127.702Z" fill="#FF0000"/>
<path d="M209.381 123.96L212.13 124.317C211.83 126.211 211.058 127.697 209.816 128.773C208.584 129.84 207.068 130.373 205.266 130.373C203.009 130.373 201.193 129.638 199.816 128.168C198.449 126.687 197.766 124.57 197.766 121.817C197.766 120.036 198.061 118.478 198.651 117.143C199.241 115.807 200.137 114.808 201.338 114.146C202.549 113.473 203.864 113.136 205.282 113.136C207.073 113.136 208.538 113.592 209.676 114.503C210.815 115.404 211.545 116.687 211.866 118.354L209.148 118.773C208.89 117.666 208.429 116.832 207.766 116.273C207.114 115.714 206.322 115.435 205.39 115.435C203.983 115.435 202.839 115.942 201.959 116.956C201.079 117.961 200.639 119.555 200.639 121.739C200.639 123.954 201.063 125.564 201.912 126.568C202.761 127.573 203.869 128.075 205.235 128.075C206.333 128.075 207.249 127.738 207.984 127.065C208.719 126.392 209.185 125.357 209.381 123.96Z" fill="#FF0000"/>
<path d="M214.506 113.509H217.301V120.637C218.191 120.637 218.812 120.466 219.164 120.124C219.526 119.783 220.054 118.789 220.748 117.143C221.297 115.838 221.742 114.979 222.083 114.565C222.425 114.151 222.818 113.871 223.263 113.727C223.709 113.582 224.423 113.509 225.406 113.509H225.965V115.823L225.189 115.807C224.454 115.807 223.983 115.916 223.776 116.133C223.559 116.361 223.227 117.039 222.782 118.168C222.358 119.244 221.969 119.99 221.617 120.404C221.265 120.818 220.722 121.196 219.987 121.537C221.188 121.858 222.368 122.976 223.527 124.891L226.587 130H223.512L220.53 124.891C219.92 123.866 219.387 123.194 218.931 122.873C218.476 122.541 217.932 122.376 217.301 122.376V130H214.506V113.509Z" fill="#FF0000"/>
<path d="M227.767 121.755C227.767 118.701 228.616 116.439 230.313 114.969C231.732 113.747 233.46 113.136 235.5 113.136C237.767 113.136 239.62 113.882 241.059 115.373C242.498 116.853 243.217 118.903 243.217 121.522C243.217 123.644 242.896 125.316 242.254 126.537C241.623 127.749 240.696 128.691 239.475 129.363C238.264 130.036 236.939 130.373 235.5 130.373C233.191 130.373 231.323 129.633 229.894 128.152C228.476 126.672 227.767 124.539 227.767 121.755ZM230.639 121.755C230.639 123.866 231.1 125.45 232.021 126.506C232.943 127.552 234.102 128.075 235.5 128.075C236.887 128.075 238.041 127.547 238.962 126.491C239.884 125.435 240.344 123.825 240.344 121.661C240.344 119.622 239.879 118.08 238.947 117.034C238.026 115.978 236.877 115.45 235.5 115.45C234.102 115.45 232.943 115.973 232.021 117.019C231.1 118.064 230.639 119.643 230.639 121.755Z" fill="#FF0000"/>
<path d="M246.525 113.509H256.012V115.823H249.32V130H246.525V113.509Z" fill="#FF0000"/>
<path d="M256.37 121.755C256.37 118.701 257.218 116.439 258.916 114.969C260.334 113.747 262.063 113.136 264.103 113.136C266.37 113.136 268.223 113.882 269.662 115.373C271.101 116.853 271.82 118.903 271.82 121.522C271.82 123.644 271.499 125.316 270.857 126.537C270.226 127.749 269.299 128.691 268.078 129.363C266.867 130.036 265.542 130.373 264.103 130.373C261.794 130.373 259.926 129.633 258.497 128.152C257.079 126.672 256.37 124.539 256.37 121.755ZM259.242 121.755C259.242 123.866 259.703 125.45 260.624 126.506C261.546 127.552 262.705 128.075 264.103 128.075C265.49 128.075 266.644 127.547 267.565 126.491C268.487 125.435 268.947 123.825 268.947 121.661C268.947 119.622 268.482 118.08 267.55 117.034C266.629 115.978 265.479 115.45 264.103 115.45C262.705 115.45 261.546 115.973 260.624 117.019C259.703 118.064 259.242 119.643 259.242 121.755Z" fill="#FF0000"/>
<path d="M283.979 113.509H296.991V130H294.196V115.823H286.774V130H283.979V113.509Z" fill="#FF0000"/>
<path d="M301.2 113.509H303.995V126.087L311.743 113.509H314.756V130H311.961V117.5L304.212 130H301.2V113.509Z" fill="#FF0000"/>
<path d="M329.725 123.96L332.473 124.317C332.173 126.211 331.402 127.697 330.16 128.773C328.928 129.84 327.411 130.373 325.61 130.373C323.353 130.373 321.536 129.638 320.16 128.168C318.793 126.687 318.11 124.57 318.11 121.817C318.11 120.036 318.405 118.478 318.995 117.143C319.585 115.807 320.48 114.808 321.681 114.146C322.893 113.473 324.207 113.136 325.625 113.136C327.416 113.136 328.881 113.592 330.02 114.503C331.159 115.404 331.888 116.687 332.209 118.354L329.492 118.773C329.233 117.666 328.773 116.832 328.11 116.273C327.458 115.714 326.666 115.435 325.734 115.435C324.326 115.435 323.182 115.942 322.302 116.956C321.422 117.961 320.983 119.555 320.983 121.739C320.983 123.954 321.407 125.564 322.256 126.568C323.105 127.573 324.212 128.075 325.579 128.075C326.676 128.075 327.592 127.738 328.327 127.065C329.062 126.392 329.528 125.357 329.725 123.96Z" fill="#FF0000"/>
<path d="M345.626 127.966C344.591 128.846 343.592 129.467 342.629 129.829C341.676 130.192 340.652 130.373 339.554 130.373C337.743 130.373 336.35 129.933 335.377 129.053C334.404 128.163 333.918 127.029 333.918 125.652C333.918 124.845 334.099 124.11 334.461 123.447C334.834 122.774 335.315 122.236 335.905 121.832C336.506 121.429 337.178 121.123 337.924 120.916C338.472 120.771 339.301 120.631 340.408 120.497C342.665 120.228 344.327 119.907 345.393 119.534C345.403 119.151 345.408 118.908 345.408 118.804C345.408 117.666 345.144 116.863 344.616 116.397C343.902 115.766 342.841 115.45 341.433 115.45C340.118 115.45 339.145 115.683 338.514 116.149C337.893 116.604 337.432 117.417 337.132 118.587L334.399 118.214C334.647 117.044 335.056 116.102 335.626 115.388C336.195 114.663 337.018 114.11 338.095 113.727C339.171 113.333 340.419 113.136 341.837 113.136C343.245 113.136 344.389 113.302 345.269 113.633C346.149 113.965 346.796 114.384 347.21 114.891C347.624 115.388 347.914 116.02 348.079 116.786C348.172 117.262 348.219 118.121 348.219 119.363V123.09C348.219 125.688 348.276 127.334 348.39 128.028C348.514 128.711 348.752 129.369 349.104 130H346.185C345.895 129.42 345.709 128.742 345.626 127.966ZM345.393 121.724C344.378 122.138 342.857 122.49 340.828 122.779C339.678 122.945 338.866 123.131 338.39 123.339C337.913 123.546 337.546 123.851 337.287 124.255C337.028 124.648 336.899 125.088 336.899 125.575C336.899 126.32 337.178 126.941 337.737 127.438C338.307 127.935 339.135 128.183 340.222 128.183C341.299 128.183 342.256 127.95 343.095 127.485C343.933 127.008 344.549 126.361 344.943 125.544C345.243 124.912 345.393 123.98 345.393 122.748V121.724Z" fill="#FF0000"/>
<path d="M350.346 113.509H363.747V115.823H358.437V130H355.657V115.823H350.346V113.509Z" fill="#FF0000"/>
<path d="M377.334 124.689L380.223 125.047C379.767 126.734 378.923 128.044 377.692 128.975C376.46 129.907 374.886 130.373 372.971 130.373C370.559 130.373 368.644 129.633 367.226 128.152C365.818 126.662 365.114 124.576 365.114 121.894C365.114 119.12 365.828 116.967 367.257 115.435C368.685 113.903 370.538 113.136 372.816 113.136C375.021 113.136 376.822 113.887 378.22 115.388C379.617 116.889 380.316 119.001 380.316 121.724C380.316 121.889 380.311 122.138 380.3 122.469H368.002C368.105 124.281 368.618 125.668 369.539 126.63C370.461 127.593 371.61 128.075 372.987 128.075C374.011 128.075 374.886 127.805 375.611 127.267C376.335 126.729 376.91 125.87 377.334 124.689ZM368.157 120.171H377.365C377.241 118.784 376.889 117.743 376.31 117.05C375.419 115.973 374.265 115.435 372.847 115.435C371.563 115.435 370.481 115.864 369.601 116.723C368.732 117.583 368.25 118.732 368.157 120.171Z" fill="#FF0000"/>
<path d="M384.058 113.509H397.04V130H394.26V115.823H386.853V124.037C386.853 125.952 386.791 127.215 386.667 127.826C386.543 128.437 386.201 128.97 385.642 129.426C385.083 129.881 384.276 130.109 383.22 130.109C382.567 130.109 381.817 130.067 380.968 129.985V127.655H382.195C382.774 127.655 383.189 127.598 383.437 127.485C383.685 127.36 383.851 127.169 383.934 126.91C384.017 126.651 384.058 125.807 384.058 124.379V113.509Z" fill="#FF0000"/>
<path d="M414.245 113.509V130H411.465V123.571H409.85C408.867 123.571 408.132 123.701 407.645 123.96C407.169 124.208 406.47 125.021 405.549 126.398L403.111 130H399.648L402.661 125.559C403.582 124.203 404.498 123.437 405.409 123.261C403.815 123.043 402.63 122.469 401.853 121.537C401.087 120.606 400.704 119.534 400.704 118.323C400.704 116.894 401.206 115.735 402.211 114.845C403.225 113.954 404.69 113.509 406.605 113.509H414.245ZM411.465 115.823H407.49C405.824 115.823 404.747 116.082 404.26 116.599C403.784 117.117 403.546 117.722 403.546 118.416C403.546 119.4 403.898 120.124 404.602 120.59C405.316 121.046 406.574 121.273 408.375 121.273H411.465V115.823Z" fill="#FF0000"/>
<path d="M2.48328 138.236H20.3873V161H17.3593V140.922H5.49576V161H2.48328V138.236Z" fill="#FF0000"/>
<path d="M35.7137 158.966C34.6785 159.846 33.6795 160.467 32.7167 160.829C31.7643 161.192 30.7395 161.373 29.6421 161.373C27.8305 161.373 26.4381 160.933 25.465 160.053C24.4919 159.163 24.0054 158.029 24.0054 156.652C24.0054 155.845 24.1866 155.11 24.5489 154.447C24.9216 153.774 25.4029 153.236 25.993 152.832C26.5934 152.429 27.2663 152.123 28.0117 151.916C28.5603 151.771 29.3885 151.631 30.4962 151.497C32.753 151.228 34.4145 150.907 35.4807 150.534C35.4911 150.151 35.4963 149.908 35.4963 149.804C35.4963 148.666 35.2323 147.863 34.7043 147.397C33.99 146.766 32.9289 146.45 31.521 146.45C30.2063 146.45 29.2332 146.683 28.6017 147.149C27.9806 147.604 27.5199 148.417 27.2197 149.587L24.4868 149.214C24.7352 148.044 25.1441 147.102 25.7135 146.388C26.2829 145.663 27.1059 145.11 28.1825 144.727C29.2591 144.333 30.5065 144.136 31.9248 144.136C33.3327 144.136 34.4766 144.302 35.3565 144.633C36.2365 144.965 36.8835 145.384 37.2975 145.891C37.7116 146.388 38.0015 147.02 38.1671 147.786C38.2603 148.262 38.3069 149.121 38.3069 150.363V154.09C38.3069 156.688 38.3638 158.334 38.4777 159.028C38.6019 159.711 38.84 160.369 39.192 161H36.2727C35.9828 160.42 35.7965 159.742 35.7137 158.966ZM35.4807 152.724C34.4662 153.138 32.9445 153.49 30.9154 153.779C29.7664 153.945 28.9537 154.131 28.4775 154.339C28.0013 154.546 27.6338 154.851 27.375 155.255C27.1162 155.648 26.9868 156.088 26.9868 156.575C26.9868 157.32 27.2663 157.941 27.8253 158.438C28.3947 158.935 29.2229 159.183 30.3098 159.183C31.3865 159.183 32.344 158.95 33.1826 158.485C34.0211 158.008 34.637 157.361 35.0304 156.544C35.3306 155.912 35.4807 154.98 35.4807 153.748V152.724Z" fill="#FF0000"/>
<path d="M42.6703 144.509H49.1145C50.6984 144.509 51.8734 144.644 52.6394 144.913C53.4158 145.172 54.0784 145.653 54.627 146.357C55.1861 147.061 55.4656 147.905 55.4656 148.888C55.4656 149.675 55.2999 150.363 54.9687 150.953C54.6477 151.533 54.1612 152.02 53.509 152.413C54.2854 152.672 54.9272 153.158 55.4345 153.873C55.9521 154.577 56.2109 155.415 56.2109 156.388C56.1074 157.951 55.5484 159.111 54.5339 159.867C53.5194 160.622 52.0442 161 50.1083 161H42.6703V144.509ZM45.4654 151.45H48.4468C49.6373 151.45 50.4551 151.388 50.9003 151.264C51.3454 151.14 51.744 150.891 52.0959 150.519C52.4479 150.136 52.6239 149.68 52.6239 149.152C52.6239 148.282 52.3133 147.677 51.6922 147.335C51.0814 146.994 50.0307 146.823 48.54 146.823H45.4654V151.45ZM45.4654 158.702H49.1456C50.7295 158.702 51.8164 158.521 52.4065 158.158C52.9966 157.786 53.3071 157.149 53.3382 156.248C53.3382 155.721 53.1674 155.234 52.8258 154.789C52.4841 154.333 52.039 154.049 51.4903 153.935C50.9417 153.811 50.0617 153.748 48.8505 153.748H45.4654V158.702Z" fill="#FF0000"/>
<path d="M60.1706 144.509H73.1522V161H70.3726V146.823H62.9657V155.037C62.9657 156.952 62.9036 158.215 62.7793 158.826C62.6551 159.437 62.3135 159.97 61.7545 160.426C61.1955 160.881 60.388 161.109 59.3321 161.109C58.6799 161.109 57.9294 161.067 57.0805 160.985V158.655H58.3072C58.8869 158.655 59.301 158.598 59.5495 158.485C59.7979 158.36 59.9636 158.169 60.0464 157.91C60.1292 157.651 60.1706 156.807 60.1706 155.379V144.509Z" fill="#FF0000"/>
<path d="M88.1369 158.966C87.1017 159.846 86.1027 160.467 85.14 160.829C84.1876 161.192 83.1627 161.373 82.0654 161.373C80.2538 161.373 78.8614 160.933 77.8883 160.053C76.9152 159.163 76.4286 158.029 76.4286 156.652C76.4286 155.845 76.6098 155.11 76.9721 154.447C77.3448 153.774 77.8262 153.236 78.4163 152.832C79.0167 152.429 79.6896 152.123 80.4349 151.916C80.9836 151.771 81.8118 151.631 82.9194 151.497C85.1762 151.228 86.8377 150.907 87.904 150.534C87.9144 150.151 87.9195 149.908 87.9195 149.804C87.9195 148.666 87.6555 147.863 87.1276 147.397C86.4133 146.766 85.3522 146.45 83.9443 146.45C82.6296 146.45 81.6565 146.683 81.025 147.149C80.4039 147.604 79.9432 148.417 79.643 149.587L76.91 149.214C77.1585 148.044 77.5674 147.102 78.1367 146.388C78.7061 145.663 79.5291 145.11 80.6057 144.727C81.6824 144.333 82.9298 144.136 84.348 144.136C85.7559 144.136 86.8998 144.302 87.7798 144.633C88.6597 144.965 89.3067 145.384 89.7208 145.891C90.1349 146.388 90.4248 147.02 90.5904 147.786C90.6836 148.262 90.7301 149.121 90.7301 150.363V154.09C90.7301 156.688 90.7871 158.334 90.9009 159.028C91.0252 159.711 91.2633 160.369 91.6152 161H88.6959C88.4061 160.42 88.2197 159.742 88.1369 158.966ZM87.904 152.724C86.8895 153.138 85.3677 153.49 83.3387 153.779C82.1896 153.945 81.377 154.131 80.9008 154.339C80.4246 154.546 80.0571 154.851 79.7983 155.255C79.5395 155.648 79.4101 156.088 79.4101 156.575C79.4101 157.32 79.6896 157.941 80.2486 158.438C80.818 158.935 81.6461 159.183 82.7331 159.183C83.8097 159.183 84.7673 158.95 85.6058 158.485C86.4444 158.008 87.0603 157.361 87.4537 156.544C87.7539 155.912 87.904 154.98 87.904 153.748V152.724Z" fill="#FF0000"/>
<path d="M104.426 138.236H119.193V140.922H107.438V147.941H112.873C114.882 147.941 116.476 148.132 117.656 148.515C118.847 148.898 119.799 149.623 120.513 150.689C121.228 151.745 121.585 152.977 121.585 154.385C121.585 155.534 121.326 156.611 120.808 157.615C120.301 158.609 119.54 159.421 118.526 160.053C117.511 160.684 115.782 161 113.339 161H104.426V138.236ZM107.438 158.438H113.463C115.089 158.438 116.305 158.107 117.113 157.444C117.93 156.782 118.339 155.788 118.339 154.463C118.339 153.521 118.106 152.734 117.641 152.102C117.175 151.471 116.528 151.052 115.7 150.845C114.871 150.638 113.458 150.534 111.46 150.534H107.438V158.438Z" fill="#FF0000"/>
<path d="M135.56 158.966C134.525 159.846 133.526 160.467 132.563 160.829C131.611 161.192 130.586 161.373 129.489 161.373C127.677 161.373 126.285 160.933 125.311 160.053C124.338 159.163 123.852 158.029 123.852 156.652C123.852 155.845 124.033 155.11 124.395 154.447C124.768 153.774 125.249 153.236 125.839 152.832C126.44 152.429 127.113 152.123 127.858 151.916C128.407 151.771 129.235 151.631 130.343 151.497C132.599 151.228 134.261 150.907 135.327 150.534C135.338 150.151 135.343 149.908 135.343 149.804C135.343 148.666 135.079 147.863 134.551 147.397C133.836 146.766 132.775 146.45 131.367 146.45C130.053 146.45 129.08 146.683 128.448 147.149C127.827 147.604 127.366 148.417 127.066 149.587L124.333 149.214C124.582 148.044 124.991 147.102 125.56 146.388C126.129 145.663 126.952 145.11 128.029 144.727C129.106 144.333 130.353 144.136 131.771 144.136C133.179 144.136 134.323 144.302 135.203 144.633C136.083 144.965 136.73 145.384 137.144 145.891C137.558 146.388 137.848 147.02 138.014 147.786C138.107 148.262 138.153 149.121 138.153 150.363V154.09C138.153 156.688 138.21 158.334 138.324 159.028C138.448 159.711 138.686 160.369 139.038 161H136.119C135.829 160.42 135.643 159.742 135.56 158.966ZM135.327 152.724C134.313 153.138 132.791 153.49 130.762 153.779C129.613 153.945 128.8 154.131 128.324 154.339C127.848 154.546 127.48 154.851 127.221 155.255C126.963 155.648 126.833 156.088 126.833 156.575C126.833 157.32 127.113 157.941 127.672 158.438C128.241 158.935 129.069 159.183 130.156 159.183C131.233 159.183 132.19 158.95 133.029 158.485C133.868 158.008 134.483 157.361 134.877 156.544C135.177 155.912 135.327 154.98 135.327 153.748V152.724Z" fill="#FF0000"/>
<path d="M152.47 144.509V151.637C153.361 151.637 153.987 151.466 154.349 151.124C154.712 150.783 155.24 149.789 155.933 148.143C156.585 146.58 157.17 145.581 157.688 145.146C158.195 144.721 159.003 144.509 160.11 144.509H161.135V146.823L160.374 146.807C159.629 146.807 159.153 146.916 158.946 147.133C158.728 147.361 158.397 148.039 157.952 149.168C157.538 150.244 157.155 150.99 156.803 151.404C156.451 151.818 155.902 152.196 155.157 152.537C156.368 152.858 157.548 153.976 158.697 155.891L161.772 161H158.697L155.7 155.891C155.089 154.856 154.556 154.178 154.101 153.857C153.645 153.536 153.102 153.376 152.47 153.376V161H149.613V153.376C148.992 153.376 148.454 153.536 147.998 153.857C147.543 154.168 147.01 154.846 146.399 155.891L143.402 161H140.327L143.386 155.891C144.546 153.976 145.731 152.858 146.942 152.537C146.114 152.154 145.534 151.74 145.203 151.295C144.872 150.839 144.375 149.763 143.712 148.065C143.485 147.496 143.241 147.144 142.983 147.009C142.713 146.875 142.315 146.807 141.787 146.807C141.652 146.807 141.378 146.812 140.964 146.823V144.509H141.352C142.429 144.509 143.184 144.576 143.619 144.711C144.064 144.835 144.458 145.11 144.799 145.534C145.151 145.948 145.607 146.818 146.166 148.143C146.849 149.768 147.367 150.757 147.719 151.109C148.081 151.461 148.712 151.637 149.613 151.637V144.509H152.47Z" fill="#FF0000"/>
<path d="M162.734 152.755C162.734 149.701 163.583 147.439 165.281 145.969C166.699 144.747 168.428 144.136 170.468 144.136C172.735 144.136 174.588 144.882 176.027 146.373C177.466 147.853 178.185 149.903 178.185 152.522C178.185 154.644 177.864 156.316 177.222 157.537C176.591 158.749 175.664 159.691 174.443 160.363C173.232 161.036 171.906 161.373 170.468 161.373C168.159 161.373 166.29 160.633 164.862 159.152C163.444 157.672 162.734 155.539 162.734 152.755ZM165.607 152.755C165.607 154.866 166.068 156.45 166.989 157.506C167.911 158.552 169.07 159.075 170.468 159.075C171.855 159.075 173.009 158.547 173.93 157.491C174.852 156.435 175.312 154.825 175.312 152.661C175.312 150.622 174.846 149.08 173.915 148.034C172.993 146.978 171.844 146.45 170.468 146.45C169.07 146.45 167.911 146.973 166.989 148.019C166.068 149.064 165.607 150.643 165.607 152.755Z" fill="#FF0000"/>
<path d="M181.493 144.509H187.937C189.521 144.509 190.696 144.644 191.462 144.913C192.238 145.172 192.901 145.653 193.449 146.357C194.008 147.061 194.288 147.905 194.288 148.888C194.288 149.675 194.122 150.363 193.791 150.953C193.47 151.533 192.983 152.02 192.331 152.413C193.108 152.672 193.75 153.158 194.257 153.873C194.774 154.577 195.033 155.415 195.033 156.388C194.93 157.951 194.371 159.111 193.356 159.867C192.342 160.622 190.866 161 188.931 161H181.493V144.509ZM184.288 151.45H187.269C188.46 151.45 189.277 151.388 189.723 151.264C190.168 151.14 190.566 150.891 190.918 150.519C191.27 150.136 191.446 149.68 191.446 149.152C191.446 148.282 191.136 147.677 190.514 147.335C189.904 146.994 188.853 146.823 187.362 146.823H184.288V151.45ZM184.288 158.702H187.968C189.552 158.702 190.639 158.521 191.229 158.158C191.819 157.786 192.129 157.149 192.16 156.248C192.16 155.721 191.99 155.234 191.648 154.789C191.306 154.333 190.861 154.049 190.313 153.935C189.764 153.811 188.884 153.748 187.673 153.748H184.288V158.702Z" fill="#FF0000"/>
<path d="M208.76 158.966C207.725 159.846 206.726 160.467 205.763 160.829C204.811 161.192 203.786 161.373 202.689 161.373C200.877 161.373 199.485 160.933 198.511 160.053C197.538 159.163 197.052 158.029 197.052 156.652C197.052 155.845 197.233 155.11 197.595 154.447C197.968 153.774 198.449 153.236 199.039 152.832C199.64 152.429 200.313 152.123 201.058 151.916C201.607 151.771 202.435 151.631 203.543 151.497C205.799 151.228 207.461 150.907 208.527 150.534C208.538 150.151 208.543 149.908 208.543 149.804C208.543 148.666 208.279 147.863 207.751 147.397C207.036 146.766 205.975 146.45 204.567 146.45C203.253 146.45 202.28 146.683 201.648 147.149C201.027 147.604 200.566 148.417 200.266 149.587L197.533 149.214C197.782 148.044 198.191 147.102 198.76 146.388C199.329 145.663 200.152 145.11 201.229 144.727C202.306 144.333 203.553 144.136 204.971 144.136C206.379 144.136 207.523 144.302 208.403 144.633C209.283 144.965 209.93 145.384 210.344 145.891C210.758 146.388 211.048 147.02 211.214 147.786C211.307 148.262 211.353 149.121 211.353 150.363V154.09C211.353 156.688 211.41 158.334 211.524 159.028C211.648 159.711 211.886 160.369 212.238 161H209.319C209.029 160.42 208.843 159.742 208.76 158.966ZM208.527 152.724C207.513 153.138 205.991 153.49 203.962 153.779C202.813 153.945 202 154.131 201.524 154.339C201.048 154.546 200.68 154.851 200.421 155.255C200.163 155.648 200.033 156.088 200.033 156.575C200.033 157.32 200.313 157.941 200.872 158.438C201.441 158.935 202.269 159.183 203.356 159.183C204.433 159.183 205.39 158.95 206.229 158.485C207.068 158.008 207.683 157.361 208.077 156.544C208.377 155.912 208.527 154.98 208.527 153.748V152.724Z" fill="#FF0000"/>
<path d="M216.431 161V157.817H219.614V161C219.614 162.17 219.407 163.112 218.993 163.826C218.579 164.551 217.922 165.11 217.021 165.503L216.245 164.308C216.835 164.049 217.27 163.666 217.549 163.159C217.829 162.662 217.984 161.942 218.015 161H216.431Z" fill="#FF0000"/>
<path d="M233.419 144.509H242.907V146.823H236.214V161H233.419V144.509Z" fill="#FF0000"/>
<path d="M245.795 144.509H257.286V158.702H259.072V165.674H256.773V161H243.792V165.674H241.494V158.702H242.969C244.936 156.031 245.878 151.3 245.795 144.509ZM248.124 146.823C247.917 152.175 247.089 156.135 245.64 158.702H254.506V146.823H248.124Z" fill="#FF0000"/>
<path d="M273.451 155.689L276.339 156.047C275.883 157.734 275.04 159.044 273.808 159.975C272.576 160.907 271.002 161.373 269.087 161.373C266.675 161.373 264.76 160.633 263.342 159.152C261.934 157.662 261.23 155.576 261.23 152.894C261.23 150.12 261.944 147.967 263.373 146.435C264.801 144.903 266.654 144.136 268.932 144.136C271.137 144.136 272.938 144.887 274.336 146.388C275.733 147.889 276.432 150.001 276.432 152.724C276.432 152.889 276.427 153.138 276.417 153.469H264.118C264.222 155.281 264.734 156.668 265.655 157.63C266.577 158.593 267.726 159.075 269.103 159.075C270.128 159.075 271.002 158.805 271.727 158.267C272.452 157.729 273.026 156.87 273.451 155.689ZM264.273 151.171H273.482C273.357 149.784 273.005 148.743 272.426 148.05C271.535 146.973 270.381 146.435 268.963 146.435C267.679 146.435 266.598 146.864 265.718 147.723C264.848 148.583 264.367 149.732 264.273 151.171Z" fill="#FF0000"/>
<path d="M288.715 167.32V144.509H291.262V146.652C291.862 145.814 292.54 145.187 293.296 144.773C294.051 144.349 294.968 144.136 296.044 144.136C297.452 144.136 298.694 144.499 299.771 145.223C300.848 145.948 301.66 146.973 302.209 148.298C302.758 149.613 303.032 151.057 303.032 152.63C303.032 154.318 302.727 155.84 302.116 157.196C301.515 158.541 300.635 159.577 299.476 160.301C298.327 161.016 297.116 161.373 295.842 161.373C294.911 161.373 294.072 161.176 293.327 160.783C292.592 160.389 291.986 159.892 291.51 159.292V167.32H288.715ZM291.246 152.848C291.246 154.97 291.676 156.538 292.535 157.553C293.394 158.567 294.434 159.075 295.656 159.075C296.898 159.075 297.959 158.552 298.839 157.506C299.73 156.45 300.175 154.82 300.175 152.615C300.175 150.513 299.74 148.94 298.87 147.894C298.011 146.849 296.981 146.326 295.78 146.326C294.59 146.326 293.534 146.885 292.612 148.003C291.701 149.111 291.246 150.726 291.246 152.848Z" fill="#FF0000"/>
<path d="M317.706 155.689L320.594 156.047C320.139 157.734 319.295 159.044 318.063 159.975C316.831 160.907 315.258 161.373 313.343 161.373C310.931 161.373 309.015 160.633 307.597 159.152C306.189 157.662 305.485 155.576 305.485 152.894C305.485 150.12 306.2 147.967 307.628 146.435C309.057 144.903 310.91 144.136 313.187 144.136C315.392 144.136 317.194 144.887 318.591 146.388C319.989 147.889 320.687 150.001 320.687 152.724C320.687 152.889 320.682 153.138 320.672 153.469H308.374C308.477 155.281 308.99 156.668 309.911 157.63C310.832 158.593 311.981 159.075 313.358 159.075C314.383 159.075 315.258 158.805 315.982 158.267C316.707 157.729 317.282 156.87 317.706 155.689ZM308.529 151.171H317.737C317.613 149.784 317.261 148.743 316.681 148.05C315.791 146.973 314.637 146.435 313.218 146.435C311.935 146.435 310.853 146.864 309.973 147.723C309.103 148.583 308.622 149.732 308.529 151.171Z" fill="#FF0000"/>
<path d="M334.88 158.966C333.845 159.846 332.846 160.467 331.883 160.829C330.931 161.192 329.906 161.373 328.809 161.373C326.997 161.373 325.605 160.933 324.632 160.053C323.659 159.163 323.172 158.029 323.172 156.652C323.172 155.845 323.353 155.11 323.715 154.447C324.088 153.774 324.57 153.236 325.16 152.832C325.76 152.429 326.433 152.123 327.178 151.916C327.727 151.771 328.555 151.631 329.663 151.497C331.92 151.228 333.581 150.907 334.647 150.534C334.658 150.151 334.663 149.908 334.663 149.804C334.663 148.666 334.399 147.863 333.871 147.397C333.157 146.766 332.096 146.45 330.688 146.45C329.373 146.45 328.4 146.683 327.768 147.149C327.147 147.604 326.687 148.417 326.386 149.587L323.653 149.214C323.902 148.044 324.311 147.102 324.88 146.388C325.449 145.663 326.272 145.11 327.349 144.727C328.426 144.333 329.673 144.136 331.091 144.136C332.499 144.136 333.643 144.302 334.523 144.633C335.403 144.965 336.05 145.384 336.464 145.891C336.878 146.388 337.168 147.02 337.334 147.786C337.427 148.262 337.473 149.121 337.473 150.363V154.09C337.473 156.688 337.53 158.334 337.644 159.028C337.769 159.711 338.007 160.369 338.359 161H335.439C335.149 160.42 334.963 159.742 334.88 158.966ZM334.647 152.724C333.633 153.138 332.111 153.49 330.082 153.779C328.933 153.945 328.12 154.131 327.644 154.339C327.168 154.546 326.8 154.851 326.542 155.255C326.283 155.648 326.153 156.088 326.153 156.575C326.153 157.32 326.433 157.941 326.992 158.438C327.561 158.935 328.389 159.183 329.476 159.183C330.553 159.183 331.511 158.95 332.349 158.485C333.188 158.008 333.804 157.361 334.197 156.544C334.497 155.912 334.647 154.98 334.647 153.748V152.724Z" fill="#FF0000"/>
<path d="M343.188 144.509H356.169V161H353.39V146.823H345.983V155.037C345.983 156.952 345.921 158.215 345.797 158.826C345.672 159.437 345.331 159.97 344.772 160.426C344.213 160.881 343.405 161.109 342.349 161.109C341.697 161.109 340.947 161.067 340.098 160.985V158.655H341.324C341.904 158.655 342.318 158.598 342.567 158.485C342.815 158.36 342.981 158.169 343.064 157.91C343.146 157.651 343.188 156.807 343.188 155.379V144.509Z" fill="#FF0000"/>
<path d="M360.347 144.509H363.142V150.953H366.682C368.991 150.953 370.766 151.404 372.008 152.304C373.261 153.195 373.887 154.426 373.887 156C373.887 157.377 373.364 158.557 372.319 159.54C371.284 160.514 369.622 161 367.334 161H360.347V144.509ZM363.142 158.702H366.076C367.847 158.702 369.11 158.485 369.865 158.05C370.621 157.615 370.999 156.937 370.999 156.016C370.999 155.301 370.719 154.665 370.16 154.106C369.601 153.547 368.364 153.267 366.449 153.267H363.142V158.702Z" fill="#FF0000"/>
<path d="M376.993 144.509H379.788V151.373H387.536V144.509H390.332V161H387.536V153.686H379.788V161H376.993V144.509Z" fill="#FF0000"/>
<path d="M393.515 152.755C393.515 149.701 394.364 147.439 396.061 145.969C397.48 144.747 399.209 144.136 401.248 144.136C403.515 144.136 405.368 144.882 406.807 146.373C408.246 147.853 408.965 149.903 408.965 152.522C408.965 154.644 408.645 156.316 408.003 157.537C407.371 158.749 406.445 159.691 405.223 160.363C404.012 161.036 402.687 161.373 401.248 161.373C398.939 161.373 397.071 160.633 395.642 159.152C394.224 157.672 393.515 155.539 393.515 152.755ZM396.388 152.755C396.388 154.866 396.848 156.45 397.77 157.506C398.691 158.552 399.85 159.075 401.248 159.075C402.635 159.075 403.789 158.547 404.711 157.491C405.632 156.435 406.093 154.825 406.093 152.661C406.093 150.622 405.627 149.08 404.695 148.034C403.774 146.978 402.625 146.45 401.248 146.45C399.85 146.45 398.691 146.973 397.77 148.019C396.848 149.064 396.388 150.643 396.388 152.755Z" fill="#FF0000"/>
<path d="M423.018 154.96L425.767 155.317C425.467 157.211 424.695 158.697 423.453 159.773C422.221 160.84 420.705 161.373 418.903 161.373C416.647 161.373 414.83 160.638 413.453 159.168C412.087 157.687 411.403 155.57 411.403 152.817C411.403 151.036 411.698 149.478 412.288 148.143C412.878 146.807 413.774 145.808 414.975 145.146C416.186 144.473 417.501 144.136 418.919 144.136C420.71 144.136 422.175 144.592 423.313 145.503C424.452 146.404 425.182 147.687 425.503 149.354L422.785 149.773C422.527 148.666 422.066 147.832 421.404 147.273C420.751 146.714 419.959 146.435 419.028 146.435C417.62 146.435 416.476 146.942 415.596 147.956C414.716 148.961 414.276 150.555 414.276 152.739C414.276 154.954 414.7 156.564 415.549 157.568C416.398 158.573 417.506 159.075 418.872 159.075C419.97 159.075 420.886 158.738 421.621 158.065C422.356 157.392 422.822 156.357 423.018 154.96Z" fill="#FF0000"/>
<path d="M426.652 144.509H440.053V146.823H434.742V161H431.963V146.823H426.652V144.509Z" fill="#FF0000"/>
<path d="M442.677 144.509H445.472V150.953H449.013C451.321 150.953 453.097 151.404 454.339 152.304C455.591 153.195 456.218 154.426 456.218 156C456.218 157.377 455.695 158.557 454.649 159.54C453.614 160.514 451.953 161 449.665 161H442.677V144.509ZM445.472 158.702H448.407C450.177 158.702 451.44 158.485 452.196 158.05C452.952 157.615 453.329 156.937 453.329 156.016C453.329 155.301 453.05 154.665 452.491 154.106C451.932 153.547 450.695 153.267 448.78 153.267H445.472V158.702Z" fill="#FF0000"/>
<path d="M2.09508 175.509H4.89016V188.087L12.6387 175.509H15.6512V192H12.8561V179.5L5.10755 192H2.09508V175.509Z" fill="#FF0000"/>
<path d="M38.3069 169.236H41.102V177.109C41.6817 176.446 42.3183 175.954 43.0119 175.633C43.7055 175.302 44.4509 175.136 45.248 175.136C47.2045 175.136 48.7522 175.954 49.8909 177.59C51.04 179.215 51.6146 181.265 51.6146 183.739C51.6146 186.317 50.9986 188.403 49.7667 189.997C48.5348 191.581 47.0027 192.373 45.1703 192.373C44.5699 192.373 43.9591 192.28 43.338 192.093C42.7169 191.907 41.9715 191.4 41.102 190.572V198.32H38.3069V190.572C37.7479 191.172 37.1267 191.622 36.4435 191.922C35.7706 192.223 35.0408 192.373 34.254 192.373C32.5252 192.373 31.0138 191.617 29.7198 190.106C28.4258 188.584 27.7787 186.41 27.7787 183.584C27.7787 181.192 28.3636 179.189 29.5334 177.574C30.7032 175.949 32.2768 175.136 34.254 175.136C35.0822 175.136 35.8327 175.302 36.5056 175.633C37.1785 175.954 37.7789 176.446 38.3069 177.109V169.236ZM41.0864 183.817C41.0864 186.301 41.428 187.973 42.1113 188.832C42.7945 189.681 43.6486 190.106 44.6734 190.106C45.8122 190.106 46.7801 189.583 47.5772 188.537C48.3847 187.481 48.7884 185.846 48.7884 183.63C48.7884 181.539 48.4157 179.981 47.6704 178.956C46.9354 177.932 45.9882 177.419 44.8287 177.419C43.5865 177.419 42.6496 177.952 42.0181 179.019C41.397 180.085 41.0864 181.684 41.0864 183.817ZM30.6204 183.506C30.6204 185.835 31.0086 187.512 31.785 188.537C32.5718 189.562 33.5449 190.075 34.7043 190.075C35.9155 190.075 36.8213 189.567 37.4218 188.553C38.0222 187.528 38.3224 185.996 38.3224 183.956C38.3224 181.783 38.0067 180.152 37.3752 179.065C36.7437 177.978 35.7913 177.435 34.518 177.435C33.3689 177.435 32.432 177.968 31.7074 179.034C30.9827 180.09 30.6204 181.581 30.6204 183.506Z" fill="#FF0000"/>
<path d="M65.6521 189.966C64.6168 190.846 63.6179 191.467 62.6551 191.829C61.7027 192.192 60.6779 192.373 59.5805 192.373C57.7689 192.373 56.3765 191.933 55.4034 191.053C54.4303 190.163 53.9438 189.029 53.9438 187.652C53.9438 186.845 54.125 186.11 54.4873 185.447C54.86 184.774 55.3413 184.236 55.9314 183.832C56.5318 183.429 57.2047 183.123 57.9501 182.916C58.4987 182.771 59.3269 182.631 60.4346 182.497C62.6914 182.228 64.3529 181.907 65.4191 181.534C65.4295 181.151 65.4347 180.908 65.4347 180.804C65.4347 179.666 65.1707 178.863 64.6427 178.397C63.9284 177.766 62.8673 177.45 61.4594 177.45C60.1447 177.45 59.1716 177.683 58.5401 178.149C57.919 178.604 57.4583 179.417 57.1581 180.587L54.4252 180.214C54.6736 179.044 55.0825 178.102 55.6519 177.388C56.2213 176.663 57.0443 176.11 58.1209 175.727C59.1975 175.333 60.4449 175.136 61.8632 175.136C63.2711 175.136 64.415 175.302 65.2949 175.633C66.1748 175.965 66.8219 176.384 67.2359 176.891C67.65 177.388 67.9399 178.02 68.1055 178.786C68.1987 179.262 68.2453 180.121 68.2453 181.363V185.09C68.2453 187.688 68.3022 189.334 68.4161 190.028C68.5403 190.711 68.7784 191.369 69.1304 192H66.2111C65.9212 191.42 65.7349 190.742 65.6521 189.966ZM65.4191 183.724C64.4046 184.138 62.8829 184.49 60.8538 184.779C59.7048 184.945 58.8921 185.131 58.4159 185.339C57.9397 185.546 57.5722 185.851 57.3134 186.255C57.0546 186.648 56.9252 187.088 56.9252 187.575C56.9252 188.32 57.2047 188.941 57.7637 189.438C58.3331 189.935 59.1613 190.183 60.2482 190.183C61.3249 190.183 62.2824 189.95 63.121 189.485C63.9595 189.008 64.5754 188.361 64.9688 187.544C65.269 186.912 65.4191 185.98 65.4191 184.748V183.724Z" fill="#FF0000"/>
<path d="M72.6087 175.509H75.4038V182.373H83.1524V175.509H85.9474V192H83.1524V184.686H75.4038V192H72.6087V175.509Z" fill="#FF0000"/>
<path d="M88.6649 175.509H102.066V177.823H96.7551V192H93.9755V177.823H88.6649V175.509Z" fill="#FF0000"/>
<path d="M115.125 189.966C114.09 190.846 113.091 191.467 112.128 191.829C111.176 192.192 110.151 192.373 109.053 192.373C107.242 192.373 105.849 191.933 104.876 191.053C103.903 190.163 103.417 189.029 103.417 187.652C103.417 186.845 103.598 186.11 103.96 185.447C104.333 184.774 104.814 184.236 105.404 183.832C106.005 183.429 106.678 183.123 107.423 182.916C107.972 182.771 108.8 182.631 109.907 182.497C112.164 182.228 113.826 181.907 114.892 181.534C114.902 181.151 114.908 180.908 114.908 180.804C114.908 179.666 114.644 178.863 114.116 178.397C113.401 177.766 112.34 177.45 110.932 177.45C109.618 177.45 108.645 177.683 108.013 178.149C107.392 178.604 106.931 179.417 106.631 180.587L103.898 180.214C104.147 179.044 104.555 178.102 105.125 177.388C105.694 176.663 106.517 176.11 107.594 175.727C108.67 175.333 109.918 175.136 111.336 175.136C112.744 175.136 113.888 175.302 114.768 175.633C115.648 175.965 116.295 176.384 116.709 176.891C117.123 177.388 117.413 178.02 117.578 178.786C117.672 179.262 117.718 180.121 117.718 181.363V185.09C117.718 187.688 117.775 189.334 117.889 190.028C118.013 190.711 118.251 191.369 118.603 192H115.684C115.394 191.42 115.208 190.742 115.125 189.966ZM114.892 183.724C113.878 184.138 112.356 184.49 110.327 184.779C109.178 184.945 108.365 185.131 107.889 185.339C107.413 185.546 107.045 185.851 106.786 186.255C106.528 186.648 106.398 187.088 106.398 187.575C106.398 188.32 106.678 188.941 107.237 189.438C107.806 189.935 108.634 190.183 109.721 190.183C110.798 190.183 111.755 189.95 112.594 189.485C113.432 189.008 114.048 188.361 114.442 187.544C114.742 186.912 114.892 185.98 114.892 184.748V183.724Z" fill="#FF0000"/>
<path d="M132.827 185.96L135.576 186.317C135.275 188.211 134.504 189.697 133.262 190.773C132.03 191.84 130.513 192.373 128.712 192.373C126.455 192.373 124.639 191.638 123.262 190.168C121.895 188.687 121.212 186.57 121.212 183.817C121.212 182.036 121.507 180.478 122.097 179.143C122.687 177.807 123.583 176.808 124.784 176.146C125.995 175.473 127.309 175.136 128.728 175.136C130.519 175.136 131.983 175.592 133.122 176.503C134.261 177.404 134.991 178.687 135.312 180.354L132.594 180.773C132.335 179.666 131.875 178.832 131.212 178.273C130.56 177.714 129.768 177.435 128.836 177.435C127.428 177.435 126.285 177.942 125.405 178.956C124.525 179.961 124.085 181.555 124.085 183.739C124.085 185.954 124.509 187.564 125.358 188.568C126.207 189.573 127.315 190.075 128.681 190.075C129.778 190.075 130.695 189.738 131.43 189.065C132.165 188.392 132.63 187.357 132.827 185.96Z" fill="#FF0000"/>
<path d="M136.461 175.509H149.862V177.823H144.551V192H141.771V177.823H136.461V175.509Z" fill="#FF0000"/>
<path d="M152.532 175.509H155.327V188.087L163.076 175.509H166.089V192H163.293V179.5L155.545 192H152.532V175.509Z" fill="#FF0000"/>
<path d="M170.281 175.509H173.076V182.637C173.967 182.637 174.588 182.466 174.94 182.124C175.302 181.783 175.83 180.789 176.524 179.143C177.072 177.838 177.517 176.979 177.859 176.565C178.201 176.151 178.594 175.871 179.039 175.727C179.484 175.582 180.199 175.509 181.182 175.509H181.741V177.823L180.965 177.807C180.23 177.807 179.759 177.916 179.552 178.133C179.334 178.361 179.003 179.039 178.558 180.168C178.133 181.244 177.745 181.99 177.393 182.404C177.041 182.818 176.498 183.196 175.763 183.537C176.963 183.858 178.144 184.976 179.303 186.891L182.362 192H179.288L176.306 186.891C175.695 185.866 175.162 185.194 174.707 184.873C174.251 184.541 173.708 184.376 173.076 184.376V192H170.281V175.509Z" fill="#FF0000"/>
<path d="M195.685 189.966C194.65 190.846 193.651 191.467 192.688 191.829C191.736 192.192 190.711 192.373 189.614 192.373C187.802 192.373 186.41 191.933 185.437 191.053C184.464 190.163 183.977 189.029 183.977 187.652C183.977 186.845 184.158 186.11 184.521 185.447C184.893 184.774 185.375 184.236 185.965 183.832C186.565 183.429 187.238 183.123 187.983 182.916C188.532 182.771 189.36 182.631 190.468 182.497C192.725 182.228 194.386 181.907 195.452 181.534C195.463 181.151 195.468 180.908 195.468 180.804C195.468 179.666 195.204 178.863 194.676 178.397C193.962 177.766 192.901 177.45 191.493 177.45C190.178 177.45 189.205 177.683 188.573 178.149C187.952 178.604 187.492 179.417 187.191 180.587L184.458 180.214C184.707 179.044 185.116 178.102 185.685 177.388C186.255 176.663 187.078 176.11 188.154 175.727C189.231 175.333 190.478 175.136 191.896 175.136C193.304 175.136 194.448 175.302 195.328 175.633C196.208 175.965 196.855 176.384 197.269 176.891C197.683 177.388 197.973 178.02 198.139 178.786C198.232 179.262 198.279 180.121 198.279 181.363V185.09C198.279 187.688 198.335 189.334 198.449 190.028C198.574 190.711 198.812 191.369 199.164 192H196.244C195.954 191.42 195.768 190.742 195.685 189.966ZM195.452 183.724C194.438 184.138 192.916 184.49 190.887 184.779C189.738 184.945 188.925 185.131 188.449 185.339C187.973 185.546 187.605 185.851 187.347 186.255C187.088 186.648 186.958 187.088 186.958 187.575C186.958 188.32 187.238 188.941 187.797 189.438C188.366 189.935 189.195 190.183 190.282 190.183C191.358 190.183 192.316 189.95 193.154 189.485C193.993 189.008 194.609 188.361 195.002 187.544C195.302 186.912 195.452 185.98 195.452 184.748V183.724Z" fill="#FF0000"/>
<path d="M211.493 175.509H224.506V192H221.711V177.823H214.288V192H211.493V175.509Z" fill="#FF0000"/>
<path d="M227.673 183.755C227.673 180.701 228.522 178.439 230.22 176.969C231.638 175.747 233.367 175.136 235.407 175.136C237.674 175.136 239.527 175.882 240.966 177.373C242.405 178.853 243.124 180.903 243.124 183.522C243.124 185.644 242.803 187.316 242.161 188.537C241.53 189.749 240.603 190.691 239.382 191.363C238.171 192.036 236.845 192.373 235.407 192.373C233.098 192.373 231.229 191.633 229.801 190.152C228.383 188.672 227.673 186.539 227.673 183.755ZM230.546 183.755C230.546 185.866 231.007 187.45 231.928 188.506C232.85 189.552 234.009 190.075 235.407 190.075C236.794 190.075 237.948 189.547 238.869 188.491C239.791 187.435 240.251 185.825 240.251 183.661C240.251 181.622 239.785 180.08 238.854 179.034C237.932 177.978 236.783 177.45 235.407 177.45C234.009 177.45 232.85 177.973 231.928 179.019C231.007 180.064 230.546 181.643 230.546 183.755Z" fill="#FF0000"/>
<path d="M246.416 198.32V175.509H248.963V177.652C249.563 176.814 250.241 176.187 250.997 175.773C251.753 175.349 252.669 175.136 253.745 175.136C255.153 175.136 256.395 175.499 257.472 176.223C258.549 176.948 259.361 177.973 259.91 179.298C260.459 180.613 260.733 182.057 260.733 183.63C260.733 185.318 260.428 186.84 259.817 188.196C259.216 189.541 258.337 190.577 257.177 191.301C256.028 192.016 254.817 192.373 253.543 192.373C252.612 192.373 251.773 192.176 251.028 191.783C250.293 191.389 249.687 190.892 249.211 190.292V198.32H246.416ZM248.947 183.848C248.947 185.97 249.377 187.538 250.236 188.553C251.095 189.567 252.136 190.075 253.357 190.075C254.599 190.075 255.661 189.552 256.54 188.506C257.431 187.45 257.876 185.82 257.876 183.615C257.876 181.513 257.441 179.94 256.571 178.894C255.712 177.849 254.682 177.326 253.481 177.326C252.291 177.326 251.235 177.885 250.314 179.003C249.403 180.111 248.947 181.726 248.947 183.848Z" fill="#FF0000"/>
<path d="M263.078 183.755C263.078 180.701 263.927 178.439 265.624 176.969C267.043 175.747 268.771 175.136 270.811 175.136C273.078 175.136 274.931 175.882 276.37 177.373C277.809 178.853 278.528 180.903 278.528 183.522C278.528 185.644 278.207 187.316 277.566 188.537C276.934 189.749 276.008 190.691 274.786 191.363C273.575 192.036 272.25 192.373 270.811 192.373C268.502 192.373 266.634 191.633 265.205 190.152C263.787 188.672 263.078 186.539 263.078 183.755ZM265.951 183.755C265.951 185.866 266.411 187.45 267.333 188.506C268.254 189.552 269.413 190.075 270.811 190.075C272.198 190.075 273.352 189.547 274.274 188.491C275.195 187.435 275.656 185.825 275.656 183.661C275.656 181.622 275.19 180.08 274.258 179.034C273.337 177.978 272.188 177.45 270.811 177.45C269.413 177.45 268.254 177.973 267.333 179.019C266.411 180.064 265.951 181.643 265.951 183.755Z" fill="#FF0000"/>
<path d="M281.82 175.509H284.615V188.087L292.364 175.509H295.376V192H292.581V179.5L284.833 192H281.82V175.509ZM291.525 169.267H293.435C293.28 170.561 292.804 171.555 292.007 172.248C291.22 172.942 290.169 173.289 288.855 173.289C287.53 173.289 286.468 172.947 285.671 172.264C284.885 171.57 284.414 170.571 284.258 169.267H286.168C286.313 169.971 286.598 170.499 287.022 170.851C287.457 171.192 288.037 171.363 288.761 171.363C289.6 171.363 290.231 171.197 290.656 170.866C291.091 170.525 291.381 169.991 291.525 169.267Z" fill="#FF0000"/>
<path d="M2.11061 206.509H4.90569V213.373H12.6543V206.509H15.4493V223H12.6543V215.686H4.90569V223H2.11061V206.509Z" fill="#FF0000"/>
<path d="M30.962 217.689L33.8503 218.047C33.3948 219.734 32.5511 221.044 31.3192 221.975C30.0873 222.907 28.5137 223.373 26.5986 223.373C24.1866 223.373 22.2714 222.633 20.8532 221.152C19.4453 219.662 18.7413 217.576 18.7413 214.894C18.7413 212.12 19.4556 209.967 20.8842 208.435C22.3128 206.903 24.1658 206.136 26.4433 206.136C28.6483 206.136 30.4496 206.887 31.8471 208.388C33.2447 209.889 33.9434 212.001 33.9434 214.724C33.9434 214.889 33.9383 215.138 33.9279 215.469H21.6296C21.7331 217.281 22.2455 218.668 23.1669 219.63C24.0882 220.593 25.2373 221.075 26.6141 221.075C27.639 221.075 28.5138 220.805 29.2384 220.267C29.963 219.729 30.5376 218.87 30.962 217.689ZM21.7849 213.171H30.9931C30.8689 211.784 30.5169 210.743 29.9372 210.05C29.0469 208.973 27.8926 208.435 26.4744 208.435C25.1907 208.435 24.1089 208.864 23.229 209.723C22.3594 210.583 21.878 211.732 21.7849 213.171Z" fill="#FF0000"/>
<path d="M37.3752 229.32V206.509H39.9218V208.652C40.5222 207.814 41.2003 207.187 41.956 206.773C42.7117 206.349 43.6279 206.136 44.7045 206.136C46.1124 206.136 47.3547 206.499 48.4313 207.223C49.5079 207.948 50.3205 208.973 50.8692 210.298C51.4179 211.613 51.6922 213.057 51.6922 214.63C51.6922 216.318 51.3868 217.84 50.776 219.196C50.1756 220.541 49.2957 221.577 48.1362 222.301C46.9871 223.016 45.776 223.373 44.5026 223.373C43.5709 223.373 42.7324 223.176 41.9871 222.783C41.2521 222.389 40.6465 221.892 40.1703 221.292V229.32H37.3752ZM39.9063 214.848C39.9063 216.97 40.3359 218.538 41.1951 219.553C42.0544 220.567 43.0947 221.075 44.3163 221.075C45.5586 221.075 46.6196 220.552 47.4996 219.506C48.3899 218.45 48.835 216.82 48.835 214.615C48.835 212.513 48.4002 210.94 47.5306 209.894C46.6714 208.849 45.6414 208.326 44.4405 208.326C43.25 208.326 42.1941 208.885 41.2728 210.003C40.3618 211.111 39.9063 212.726 39.9063 214.848Z" fill="#FF0000"/>
<path d="M65.8384 220.966C64.8032 221.846 63.8042 222.467 62.8415 222.829C61.8891 223.192 60.8642 223.373 59.7669 223.373C57.9552 223.373 56.5629 222.933 55.5898 222.053C54.6167 221.163 54.1301 220.029 54.1301 218.652C54.1301 217.845 54.3113 217.11 54.6736 216.447C55.0463 215.774 55.5277 215.236 56.1177 214.832C56.7182 214.429 57.3911 214.123 58.1364 213.916C58.6851 213.771 59.5132 213.631 60.6209 213.497C62.8777 213.228 64.5392 212.907 65.6055 212.534C65.6158 212.151 65.621 211.908 65.621 211.804C65.621 210.666 65.357 209.863 64.8291 209.397C64.1148 208.766 63.0537 208.45 61.6458 208.45C60.3311 208.45 59.358 208.683 58.7265 209.149C58.1054 209.604 57.6447 210.417 57.3445 211.587L54.6115 211.214C54.86 210.044 55.2689 209.102 55.8382 208.388C56.4076 207.663 57.2306 207.11 58.3072 206.727C59.3838 206.333 60.6313 206.136 62.0495 206.136C63.4574 206.136 64.6013 206.302 65.4813 206.633C66.3612 206.965 67.0082 207.384 67.4223 207.891C67.8364 208.388 68.1262 209.02 68.2919 209.786C68.385 210.262 68.4316 211.121 68.4316 212.363V216.09C68.4316 218.688 68.4885 220.334 68.6024 221.028C68.7267 221.711 68.9647 222.369 69.3167 223H66.3974C66.1076 222.42 65.9212 221.742 65.8384 220.966ZM65.6055 214.724C64.591 215.138 63.0692 215.49 61.0402 215.779C59.8911 215.945 59.0785 216.131 58.6023 216.339C58.1261 216.546 57.7586 216.851 57.4997 217.255C57.2409 217.648 57.1115 218.088 57.1115 218.575C57.1115 219.32 57.391 219.941 57.9501 220.438C58.5194 220.935 59.3476 221.183 60.4346 221.183C61.5112 221.183 62.4688 220.95 63.3073 220.485C64.1458 220.008 64.7618 219.361 65.1552 218.544C65.4554 217.912 65.6055 216.98 65.6055 215.748V214.724Z" fill="#FF0000"/>
<path d="M76.056 215.547V213.357C77.2361 213.347 78.0384 213.3 78.4628 213.217C78.8976 213.135 79.3065 212.886 79.6896 212.472C80.0726 212.058 80.2641 211.54 80.2641 210.919C80.2641 210.163 80.0105 209.563 79.5032 209.118C79.0063 208.662 78.3593 208.435 77.5622 208.435C75.9887 208.435 74.8862 209.361 74.2547 211.214L71.5994 210.779C72.4275 207.684 74.4255 206.136 77.5933 206.136C79.3531 206.136 80.73 206.618 81.7238 207.581C82.7279 208.543 83.23 209.692 83.23 211.028C83.23 212.374 82.5778 213.445 81.2735 214.242C82.1016 214.687 82.7227 215.257 83.1368 215.95C83.5509 216.634 83.758 217.446 83.758 218.388C83.758 219.869 83.2197 221.069 82.143 221.991C81.0664 222.912 79.5602 223.373 77.6243 223.373C73.8665 223.373 71.6874 221.701 71.0869 218.357L73.7112 217.798C73.9493 218.854 74.4307 219.672 75.1553 220.252C75.8903 220.831 76.7289 221.121 77.6709 221.121C78.613 221.121 79.3945 220.857 80.0157 220.329C80.6471 219.791 80.9629 219.108 80.9629 218.28C80.9629 217.638 80.7662 217.079 80.3728 216.602C79.9794 216.126 79.5602 215.831 79.115 215.717C78.6699 215.593 77.8624 215.531 76.6926 215.531C76.5995 215.531 76.3872 215.536 76.056 215.547Z" fill="#FF0000"/>
<path d="M87.9972 206.509H100.979V223H98.1992V208.823H90.7922V217.037C90.7922 218.952 90.7301 220.215 90.6059 220.826C90.4817 221.437 90.1401 221.97 89.581 222.426C89.022 222.881 88.2146 223.109 87.1586 223.109C86.5065 223.109 85.7559 223.067 84.9071 222.985V220.655H86.1338C86.7135 220.655 87.1276 220.598 87.376 220.485C87.6245 220.36 87.7901 220.169 87.8729 219.91C87.9558 219.651 87.9972 218.807 87.9972 217.379V206.509Z" fill="#FF0000"/>
<path d="M105.202 206.509H107.998V219.087L115.746 206.509H118.759V223H115.963V210.5L108.215 223H105.202V206.509Z" fill="#FF0000"/>
<path d="M121.942 206.509H124.737V209.63C124.737 210.976 124.815 211.954 124.97 212.565C125.135 213.166 125.524 213.694 126.134 214.149C126.745 214.594 127.511 214.817 128.433 214.817C129.489 214.817 130.855 214.537 132.532 213.978V206.509H135.327V223H132.532V216.354C130.814 216.892 129.209 217.161 127.718 217.161C126.466 217.161 125.358 216.846 124.395 216.214C123.443 215.572 122.796 214.791 122.454 213.87C122.113 212.948 121.942 211.934 121.942 210.826V206.509Z" fill="#FF0000"/>
<path d="M139.551 206.509H142.346V219.087L150.094 206.509H153.107V223H150.312V210.5L142.563 223H139.551V206.509Z" fill="#FF0000"/>
<path d="M157.393 206.509H161.741L166.073 219.708L170.887 206.509H174.909V223H172.114V209.723L167.238 223H164.738L160.126 209.087V223H157.393V206.509Z" fill="#FF0000"/>
<path d="M194.878 206.509H197.673V223H194.878V206.509ZM179.241 206.509H182.036V212.953H185.576C187.885 212.953 189.66 213.404 190.903 214.304C192.155 215.195 192.782 216.426 192.782 218C192.782 219.377 192.259 220.557 191.213 221.54C190.178 222.514 188.516 223 186.229 223H179.241V206.509ZM182.036 220.702H184.971C186.741 220.702 188.004 220.485 188.76 220.05C189.515 219.615 189.893 218.937 189.893 218.016C189.893 217.301 189.614 216.665 189.055 216.106C188.496 215.547 187.259 215.267 185.344 215.267H182.036V220.702Z" fill="#FF0000"/>
<path d="M202.828 223V219.817H206.012V223H202.828Z" fill="#FF0000"/>
</svg>
