<svg width="460" height="260" viewBox="0 0 460 260" fill="none" xmlns="http://www.w3.org/2000/svg">
<path d="M0.25 47L14.6912 23.2729L1.9581 1.47124H7.82777L14.6291 13.1485C16.0163 15.5502 17.0101 17.4135 17.6105 18.7386C18.418 17.1237 19.4015 15.3949 20.5609 13.5522L28.1076 1.47124H33.4493L20.3435 22.9312L34.4742 47H28.3871L18.977 30.7575C18.4594 29.8465 17.9211 28.832 17.3621 27.7139C16.5132 29.3703 15.9128 30.509 15.5608 31.1301L6.18178 47H0.25Z" fill="#FF0000"/>
<path d="M34.7226 47L49.0707 1.47124H54.3814L69.6611 47H64.0089L59.661 33.2109H44.0706L39.9712 47H34.7226ZM45.4992 28.304H58.1392L54.2571 15.6951C53.0563 11.8234 52.1764 8.67633 51.6173 6.25393C51.1411 9.17323 50.4683 12.0718 49.5987 14.9497L45.4992 28.304Z" fill="#FF0000"/>
<path d="M73.6674 1.47124H78.6054V21.4095C80.8828 21.4095 82.4667 20.8815 83.357 19.8256C84.268 18.7697 85.4481 16.2023 86.8974 12.1236C87.9948 8.95584 88.9058 6.73012 89.6304 5.44646C90.3758 4.16279 91.3592 3.16899 92.5808 2.46504C93.823 1.74039 95.4897 1.37807 97.5809 1.37807C98.1813 1.37807 98.7921 1.40912 99.4132 1.47124V6.71977L98.4194 6.68872L97.3013 6.65766C95.9556 6.65766 94.8893 7.05104 94.1025 7.8378C93.3158 8.60386 92.3634 10.6639 91.2453 14.018C90.0238 17.7655 88.9782 20.1672 88.1086 21.2231C87.2598 22.2583 86.2038 23.0865 84.9409 23.7076C87.3633 24.5151 89.7443 27.2274 92.0839 31.8444L99.7548 47H93.6367L87.3943 34.6395C85.4274 30.7264 83.8539 28.2522 82.6738 27.217C81.4936 26.1818 80.3031 25.6642 79.1023 25.6642C78.9573 25.6642 78.7917 25.6745 78.6054 25.6953V47H73.6674V1.47124Z" fill="#FF0000"/>
<path d="M99.879 47L114.227 1.47124H119.538L134.818 47H129.165L124.817 33.2109H109.227L105.128 47H99.879ZM110.656 28.304H123.296L119.414 15.6951C118.213 11.8234 117.333 8.67633 116.774 6.25393C116.298 9.17323 115.625 12.0718 114.755 14.9497L110.656 28.304Z" fill="#FF0000"/>
<path d="M165.253 31.037L170.222 32.5587C169.125 37.6727 167.199 41.4926 164.445 44.0185C161.712 46.5238 158.379 47.7764 154.445 47.7764C150.988 47.7764 148.027 46.9379 145.563 45.2608C143.12 43.5631 141.112 40.8508 139.538 37.124C137.985 33.3972 137.209 28.9976 137.209 23.925C137.209 18.9146 137.985 14.6806 139.538 11.223C141.112 7.74463 143.234 5.12554 145.905 3.36568C148.576 1.58511 151.557 0.694824 154.849 0.694824C158.451 0.694824 161.547 1.82321 164.135 4.07998C166.723 6.31604 168.534 9.60802 169.57 13.9559L164.725 15.3535C163.069 9.01795 159.745 5.85019 154.756 5.85019C152.271 5.85019 150.118 6.49202 148.296 7.77569C146.474 9.03865 145.014 11.0159 143.917 13.7075C142.84 16.399 142.302 19.8049 142.302 23.925C142.302 30.157 143.399 34.8362 145.594 37.9625C147.789 41.0682 150.708 42.621 154.352 42.621C157.044 42.621 159.362 41.6686 161.309 39.7638C163.276 37.8383 164.59 34.9294 165.253 31.037Z" fill="#FF0000"/>
<path d="M176.464 1.47124H180.936V37.5278L200.812 1.47124H205.781V47H201.309V11.0366L181.402 47H176.464V1.47124Z" fill="#FF0000"/>
<path d="M243.515 47V1.47124H226.962C223.504 1.47124 220.947 1.89567 219.291 2.74455C217.655 3.59342 216.31 5.01167 215.254 6.99928C214.198 8.96619 213.67 11.254 213.67 13.8628C213.67 17.2997 214.56 20.0844 216.341 22.2169C218.142 24.3495 220.751 25.7056 224.167 26.2853C222.78 27.1135 221.724 27.952 220.999 28.8009C219.529 30.5401 218.235 32.4759 217.117 34.6084L210.595 47H216.807L221.776 37.5278C223.701 33.8217 225.15 31.3268 226.123 30.0432C227.117 28.7595 228.07 27.9003 228.981 27.4655C229.912 27.01 231.206 26.7822 232.863 26.7822H238.577V47H243.515ZM238.577 21.5647H227.956C225.637 21.5647 223.877 21.2852 222.676 20.7262C221.475 20.1672 220.523 19.2873 219.819 18.0864C219.115 16.8856 218.763 15.488 218.763 13.8938C218.763 11.5956 219.436 9.79436 220.782 8.48999C222.128 7.16491 224.125 6.50238 226.776 6.50238H238.577V21.5647Z" fill="#FF0000"/>
<path d="M1.21207 93.5711L4.08479 92.8257C4.30219 93.9334 4.88191 95.0411 5.82395 96.1487C6.77635 97.2564 8.03413 97.8103 9.59731 97.8103C11.1915 97.8103 12.4493 97.4013 13.3707 96.5835C14.292 95.7657 14.7527 94.7771 14.7527 93.6176C14.7527 92.365 14.2661 91.3712 13.293 90.6362C12.3199 89.8909 10.9948 89.5182 9.3178 89.5182H7.87368V86.8939C9.26086 86.8939 10.322 86.8163 11.057 86.661C11.792 86.4954 12.439 86.0865 12.998 85.4343C13.5674 84.7717 13.852 84.0212 13.852 83.1827C13.852 82.1889 13.4638 81.3245 12.6874 80.5895C11.9214 79.8545 10.881 79.487 9.56625 79.487C8.41716 79.487 7.43371 79.7768 6.61589 80.3565C5.80842 80.9259 5.24941 81.6868 4.93884 82.6392C4.62828 83.5812 4.473 84.2852 4.473 84.751L1.58475 84.0988C2.29905 79.2644 4.9699 76.8472 9.59731 76.8472C11.823 76.8472 13.5881 77.4683 14.8924 78.7106C16.1968 79.9425 16.849 81.3866 16.849 83.0429C16.849 85.1651 15.8448 86.8111 13.8365 87.9809C14.996 88.3018 15.9639 88.9592 16.7403 89.953C17.5271 90.9364 17.9204 92.1166 17.9204 93.4934C17.9204 95.45 17.1596 97.0908 15.6378 98.4159C14.1264 99.7306 12.1181 100.388 9.61284 100.388C5.30634 100.388 2.50609 98.1156 1.21207 93.5711Z" fill="#FF0000"/>
<path d="M32.0822 97.9655C31.047 98.8455 30.048 99.4666 29.0852 99.8289C28.1328 100.191 27.108 100.372 26.0106 100.372C24.199 100.372 22.8066 99.9324 21.8335 99.0525C20.8604 98.1622 20.3739 97.0287 20.3739 95.6518C20.3739 94.8444 20.5551 94.1094 20.9174 93.4468C21.2901 92.7739 21.7714 92.2356 22.3615 91.8319C22.9619 91.4282 23.6348 91.1228 24.3802 90.9157C24.9288 90.7708 25.757 90.631 26.8647 90.4965C29.1215 90.2273 30.783 89.9064 31.8492 89.5337C31.8596 89.1507 31.8648 88.9074 31.8648 88.8039C31.8648 87.6652 31.6008 86.8629 31.0728 86.397C30.3585 85.7655 29.2974 85.4498 27.8895 85.4498C26.5748 85.4498 25.6017 85.6827 24.9702 86.1486C24.3491 86.6041 23.8884 87.4167 23.5882 88.5865L20.8553 88.2138C21.1037 87.044 21.5126 86.102 22.082 85.3877C22.6514 84.663 23.4744 84.1092 24.551 83.7262C25.6276 83.3328 26.875 83.1361 28.2933 83.1361C29.7012 83.1361 30.8451 83.3017 31.725 83.633C32.6049 83.9643 33.252 84.3835 33.666 84.8908C34.0801 85.3877 34.37 86.0192 34.5356 86.7852C34.6288 87.2614 34.6754 88.1207 34.6754 89.3629V93.0897C34.6754 95.6881 34.7323 97.3341 34.8462 98.0277C34.9704 98.7109 35.2085 99.3683 35.5605 99.9997H32.6412C32.3513 99.42 32.165 98.742 32.0822 97.9655ZM31.8492 91.7232C30.8347 92.1373 29.313 92.4893 27.2839 92.7791C26.1349 92.9448 25.3222 93.1311 24.846 93.3381C24.3698 93.5452 24.0023 93.8506 23.7435 94.2543C23.4847 94.6477 23.3553 95.0876 23.3553 95.5742C23.3553 96.3196 23.6348 96.9407 24.1938 97.4376C24.7632 97.9345 25.5914 98.1829 26.6783 98.1829C27.755 98.1829 28.7125 97.95 29.5511 97.4842C30.3896 97.008 31.0055 96.361 31.3989 95.5431C31.6991 94.9117 31.8492 93.98 31.8492 92.7481V91.7232Z" fill="#FF0000"/>
<path d="M39.0388 83.5088H48.5265V85.8225H41.8339V99.9997H39.0388V83.5088Z" fill="#FF0000"/>
<path d="M60.6851 97.9655C59.6499 98.8455 58.6509 99.4666 57.6882 99.8289C56.7358 100.191 55.7109 100.372 54.6136 100.372C52.802 100.372 51.4096 99.9324 50.4365 99.0525C49.4634 98.1622 48.9769 97.0287 48.9769 95.6518C48.9769 94.8444 49.158 94.1094 49.5204 93.4468C49.893 92.7739 50.3744 92.2356 50.9645 91.8319C51.5649 91.4282 52.2378 91.1228 52.9831 90.9157C53.5318 90.7708 54.36 90.631 55.4677 90.4965C57.7244 90.2273 59.3859 89.9064 60.4522 89.5337C60.4626 89.1507 60.4677 88.9074 60.4677 88.8039C60.4677 87.6652 60.2038 86.8629 59.6758 86.397C58.9615 85.7655 57.9004 85.4498 56.4925 85.4498C55.1778 85.4498 54.2047 85.6827 53.5732 86.1486C52.9521 86.6041 52.4914 87.4167 52.1912 88.5865L49.4582 88.2138C49.7067 87.044 50.1156 86.102 50.685 85.3877C51.2543 84.663 52.0773 84.1092 53.154 83.7262C54.2306 83.3328 55.478 83.1361 56.8963 83.1361C58.3041 83.1361 59.4481 83.3017 60.328 83.633C61.2079 83.9643 61.8549 84.3835 62.269 84.8908C62.6831 85.3877 62.973 86.0192 63.1386 86.7852C63.2318 87.2614 63.2784 88.1207 63.2784 89.3629V93.0897C63.2784 95.6881 63.3353 97.3341 63.4492 98.0277C63.5734 98.7109 63.8115 99.3683 64.1635 99.9997H61.2442C60.9543 99.42 60.768 98.742 60.6851 97.9655ZM60.4522 91.7232C59.4377 92.1373 57.9159 92.4893 55.8869 92.7791C54.7378 92.9448 53.9252 93.1311 53.449 93.3381C52.9728 93.5452 52.6053 93.8506 52.3465 94.2543C52.0877 94.6477 51.9583 95.0876 51.9583 95.5742C51.9583 96.3196 52.2378 96.9407 52.7968 97.4376C53.3662 97.9345 54.1943 98.1829 55.2813 98.1829C56.3579 98.1829 57.3155 97.95 58.154 97.4842C58.9926 97.008 59.6085 96.361 60.0019 95.5431C60.3021 94.9117 60.4522 93.98 60.4522 92.7481V91.7232Z" fill="#FF0000"/>
<path d="M69.8313 83.5088H81.3221V97.7016H83.1079V104.674H80.8097V99.9997H67.8281V104.674H65.5299V97.7016H67.0051C68.972 95.0307 69.9141 90.2998 69.8313 83.5088ZM72.1605 85.8225C71.9534 91.1745 71.1253 95.1342 69.676 97.7016H78.5426V85.8225H72.1605Z" fill="#FF0000"/>
<path d="M86.1825 83.5088H88.9775V90.6362C89.8678 90.6362 90.489 90.4654 90.8409 90.1238C91.2033 89.7822 91.7312 88.7884 92.4248 87.1424C92.9735 85.838 93.4186 84.9788 93.7602 84.5647C94.1019 84.1506 94.4952 83.8711 94.9404 83.7262C95.3855 83.5812 96.0998 83.5088 97.0833 83.5088H97.6423V85.8225L96.8659 85.8069C96.1309 85.8069 95.6599 85.9156 95.4528 86.133C95.2354 86.3608 94.9041 87.0389 94.459 88.1672C94.0346 89.2439 93.6464 89.9892 93.2944 90.4033C92.9424 90.8174 92.3989 91.1952 91.6639 91.5369C92.8648 91.8578 94.0449 92.9758 95.2044 94.891L98.2634 99.9997H95.1888L92.2074 94.891C91.5966 93.8661 91.0635 93.1932 90.608 92.8723C90.1525 92.541 89.609 92.3754 88.9775 92.3754V99.9997H86.1825V83.5088Z" fill="#FF0000"/>
<path d="M100.111 83.5088H102.906V96.0866L110.655 83.5088H113.667V99.9997H110.872V87.4995L103.124 99.9997H100.111V83.5088Z" fill="#FF0000"/>
<path d="M128.932 83.5088H140.423V97.7016H142.208V104.674H139.91V99.9997H126.929V104.674H124.63V97.7016H126.106C128.072 95.0307 129.014 90.2998 128.932 83.5088ZM131.261 85.8225C131.054 91.1745 130.226 95.1342 128.776 97.7016H137.643V85.8225H131.261Z" fill="#FF0000"/>
<path d="M145.298 106.32V83.5088H147.845V85.6517C148.445 84.8131 149.124 84.1868 149.879 83.7728C150.635 83.3483 151.551 83.1361 152.628 83.1361C154.036 83.1361 155.278 83.4984 156.354 84.2231C157.431 84.9477 158.244 85.9726 158.792 87.2977C159.341 88.6124 159.615 90.0565 159.615 91.63C159.615 93.3174 159.31 94.8392 158.699 96.1953C158.099 97.5411 157.219 98.5763 156.059 99.301C154.91 100.015 153.699 100.372 152.426 100.372C151.494 100.372 150.656 100.176 149.91 99.7823C149.175 99.389 148.57 98.8921 148.093 98.2916V106.32H145.298ZM147.829 91.8474C147.829 93.9696 148.259 95.538 149.118 96.5525C149.978 97.567 151.018 98.0742 152.24 98.0742C153.482 98.0742 154.543 97.5515 155.423 96.5059C156.313 95.45 156.758 93.8195 156.758 91.6145C156.758 89.513 156.323 87.9395 155.454 86.8939C154.595 85.8484 153.565 85.3256 152.364 85.3256C151.173 85.3256 150.117 85.8846 149.196 87.0026C148.285 88.1103 147.829 89.7252 147.829 91.8474Z" fill="#FF0000"/>
<path d="M174.29 94.6891L177.178 95.0462C176.722 96.7336 175.879 98.0432 174.647 98.9749C173.415 99.9066 171.841 100.372 169.926 100.372C167.514 100.372 165.599 99.6322 164.181 98.1519C162.773 96.6612 162.069 94.5752 162.069 91.894C162.069 89.1196 162.783 86.9664 164.212 85.4343C165.64 83.9022 167.493 83.1361 169.771 83.1361C171.976 83.1361 173.777 83.8866 175.175 85.3877C176.572 86.8887 177.271 89.0006 177.271 91.7232C177.271 91.8888 177.266 92.1373 177.255 92.4686H164.957C165.061 94.2802 165.573 95.6674 166.494 96.6301C167.416 97.5929 168.565 98.0742 169.942 98.0742C170.967 98.0742 171.841 97.8051 172.566 97.2668C173.291 96.7285 173.865 95.8692 174.29 94.6891ZM165.112 90.1704H174.321C174.196 88.7832 173.844 87.7428 173.265 87.0492C172.374 85.9726 171.22 85.4343 169.802 85.4343C168.518 85.4343 167.436 85.8639 166.557 86.7231C165.687 87.5823 165.206 88.7314 165.112 90.1704Z" fill="#FF0000"/>
<path d="M180.718 83.5088H187.162C188.746 83.5088 189.921 83.6434 190.687 83.9125C191.464 84.1713 192.126 84.6527 192.675 85.3566C193.234 86.0606 193.514 86.9043 193.514 87.8877C193.514 88.6745 193.348 89.3629 193.017 89.953C192.696 90.5327 192.209 91.0193 191.557 91.4126C192.333 91.6714 192.975 92.158 193.482 92.8723C194 93.5762 194.259 94.4148 194.259 95.3879C194.155 96.951 193.596 98.1105 192.582 98.8662C191.567 99.6219 190.092 99.9997 188.156 99.9997H180.718V83.5088ZM183.513 90.4499H186.495C187.685 90.4499 188.503 90.3878 188.948 90.2635C189.393 90.1393 189.792 89.8909 190.144 89.5182C190.496 89.1352 190.672 88.6797 190.672 88.1517C190.672 87.2821 190.361 86.6765 189.74 86.3349C189.129 85.9933 188.079 85.8225 186.588 85.8225H183.513V90.4499ZM183.513 97.7016H187.194C188.777 97.7016 189.864 97.5204 190.454 97.1581C191.045 96.7854 191.355 96.1487 191.386 95.2481C191.386 94.7201 191.215 94.2336 190.874 93.7885C190.532 93.333 190.087 93.0483 189.538 92.9344C188.99 92.8102 188.11 92.7481 186.898 92.7481H183.513V97.7016Z" fill="#FF0000"/>
<path d="M197.613 83.5088H200.408V90.3722H208.157V83.5088H210.952V99.9997H208.157V92.6859H200.408V99.9997H197.613V83.5088Z" fill="#FF0000"/>
<path d="M214.135 91.7543C214.135 88.7004 214.984 86.4384 216.682 84.9684C218.1 83.7469 219.829 83.1361 221.868 83.1361C224.135 83.1361 225.988 83.8815 227.427 85.3722C228.866 86.8525 229.586 88.9022 229.586 91.5213C229.586 93.6435 229.265 95.3154 228.623 96.5369C227.991 97.7481 227.065 98.6902 225.843 99.3631C224.632 100.036 223.307 100.372 221.868 100.372C219.559 100.372 217.691 99.6322 216.262 98.1519C214.844 96.6715 214.135 94.539 214.135 91.7543ZM217.008 91.7543C217.008 93.8661 217.468 95.45 218.39 96.5059C219.311 97.5515 220.47 98.0742 221.868 98.0742C223.255 98.0742 224.409 97.5463 225.331 96.4904C226.252 95.4344 226.713 93.8247 226.713 91.6611C226.713 89.6217 226.247 88.0792 225.315 87.0337C224.394 85.9778 223.245 85.4498 221.868 85.4498C220.47 85.4498 219.311 85.9726 218.39 87.0181C217.468 88.0637 217.008 89.6424 217.008 91.7543Z" fill="#FF0000"/>
<path d="M243.639 93.9593L246.387 94.3164C246.087 96.2109 245.316 97.6964 244.073 98.773C242.841 99.8393 241.325 100.372 239.524 100.372C237.267 100.372 235.45 99.6374 234.073 98.1674C232.707 96.6871 232.023 94.57 232.023 91.8164C232.023 90.0358 232.319 88.4778 232.909 87.1424C233.499 85.8069 234.394 84.808 235.595 84.1454C236.806 83.4725 238.121 83.1361 239.539 83.1361C241.33 83.1361 242.795 83.5916 243.934 84.5026C245.072 85.4032 245.802 86.6869 246.123 88.3536L243.406 88.7728C243.147 87.6652 242.686 86.8318 242.024 86.2728C241.371 85.7138 240.58 85.4343 239.648 85.4343C238.24 85.4343 237.096 85.9415 236.216 86.956C235.336 87.9602 234.896 89.5544 234.896 91.7387C234.896 93.9541 235.321 95.5638 236.17 96.568C237.018 97.5722 238.126 98.0742 239.493 98.0742C240.59 98.0742 241.506 97.7378 242.241 97.0649C242.976 96.392 243.442 95.3568 243.639 93.9593Z" fill="#FF0000"/>
<path d="M247.272 83.5088H260.673V85.8225H255.362V99.9997H252.583V85.8225H247.272V83.5088Z" fill="#FF0000"/>
<path d="M263.344 83.5088H266.139V96.0866L273.888 83.5088H276.9V99.9997H274.105V87.4995L266.356 99.9997H263.344V83.5088Z" fill="#FF0000"/>
<path d="M289.975 83.5088H302.987V99.9997H300.192V85.8225H292.77V99.9997H289.975V83.5088Z" fill="#FF0000"/>
<path d="M306.155 91.7543C306.155 88.7004 307.004 86.4384 308.702 84.9684C310.12 83.7469 311.849 83.1361 313.888 83.1361C316.155 83.1361 318.008 83.8815 319.447 85.3722C320.886 86.8525 321.606 88.9022 321.606 91.5213C321.606 93.6435 321.285 95.3154 320.643 96.5369C320.012 97.7481 319.085 98.6902 317.863 99.3631C316.652 100.036 315.327 100.372 313.888 100.372C311.58 100.372 309.711 99.6322 308.283 98.1519C306.864 96.6715 306.155 94.539 306.155 91.7543ZM309.028 91.7543C309.028 93.8661 309.489 95.45 310.41 96.5059C311.331 97.5515 312.491 98.0742 313.888 98.0742C315.275 98.0742 316.43 97.5463 317.351 96.4904C318.272 95.4344 318.733 93.8247 318.733 91.6611C318.733 89.6217 318.267 88.0792 317.335 87.0337C316.414 85.9778 315.265 85.4498 313.888 85.4498C312.491 85.4498 311.331 85.9726 310.41 87.0181C309.489 88.0637 309.028 89.6424 309.028 91.7543Z" fill="#FF0000"/>
<path d="M326.388 83.5088H337.879V97.7016H339.665V104.674H337.367V99.9997H324.385V104.674H322.087V97.7016H323.562C325.529 95.0307 326.471 90.2998 326.388 83.5088ZM328.718 85.8225C328.511 91.1745 327.682 95.1342 326.233 97.7016H335.1V85.8225H328.718Z" fill="#FF0000"/>
<path d="M2.11271 114.509H15.1254V131H12.3303V116.822H4.90779V131H2.11271V114.509Z" fill="#FF0000"/>
<path d="M30.0946 128.966C29.0593 129.845 28.0604 130.467 27.0976 130.829C26.1452 131.191 25.1203 131.372 24.023 131.372C22.2114 131.372 20.819 130.932 19.8459 130.053C18.8728 129.162 18.3863 128.029 18.3863 126.652C18.3863 125.844 18.5674 125.109 18.9298 124.447C19.3024 123.774 19.7838 123.236 20.3739 122.832C20.9743 122.428 21.6472 122.123 22.3926 121.916C22.9412 121.771 23.7694 121.631 24.8771 121.496C27.1338 121.227 28.7954 120.906 29.8616 120.534C29.872 120.151 29.8772 119.907 29.8772 119.804C29.8772 118.665 29.6132 117.863 29.0852 117.397C28.3709 116.766 27.3098 116.45 25.9019 116.45C24.5872 116.45 23.6141 116.683 22.9826 117.149C22.3615 117.604 21.9008 118.417 21.6006 119.586L18.8677 119.214C19.1161 118.044 19.525 117.102 20.0944 116.388C20.6638 115.663 21.4867 115.109 22.5634 114.726C23.64 114.333 24.8874 114.136 26.3057 114.136C27.7136 114.136 28.8575 114.302 29.7374 114.633C30.6173 114.964 31.2643 115.384 31.6784 115.891C32.0925 116.388 32.3824 117.019 32.548 117.785C32.6412 118.261 32.6878 119.121 32.6878 120.363V124.09C32.6878 126.688 32.7447 128.334 32.8586 129.028C32.9828 129.711 33.2209 130.368 33.5729 131H30.6536C30.3637 130.42 30.1774 129.742 30.0946 128.966ZM29.8616 122.723C28.8471 123.137 27.3254 123.489 25.2963 123.779C24.1472 123.945 23.3346 124.131 22.8584 124.338C22.3822 124.545 22.0147 124.851 21.7559 125.254C21.4971 125.648 21.3677 126.088 21.3677 126.574C21.3677 127.32 21.6472 127.941 22.2062 128.438C22.7756 128.934 23.6038 129.183 24.6907 129.183C25.7674 129.183 26.7249 128.95 27.5635 128.484C28.402 128.008 29.0179 127.361 29.4113 126.543C29.7115 125.912 29.8616 124.98 29.8616 123.748V122.723Z" fill="#FF0000"/>
<path d="M38.4021 114.509H51.3837V131H48.6042V116.822H41.1972V125.037C41.1972 126.952 41.1351 128.215 41.0109 128.826C40.8867 129.437 40.545 129.97 39.986 130.425C39.427 130.881 38.6195 131.108 37.5636 131.108C36.9114 131.108 36.1609 131.067 35.312 130.984V128.655H36.5388C37.1185 128.655 37.5326 128.598 37.781 128.484C38.0295 128.36 38.1951 128.168 38.2779 127.91C38.3607 127.651 38.4021 126.807 38.4021 125.379V114.509Z" fill="#FF0000"/>
<path d="M68.589 114.509V131H65.8094V124.571H64.1945C63.2111 124.571 62.4761 124.7 61.9895 124.959C61.5133 125.208 60.8145 126.02 59.8932 127.397L57.4553 131H53.9925L57.005 126.559C57.9263 125.203 58.8425 124.436 59.7534 124.26C58.1592 124.043 56.9739 123.469 56.1975 122.537C55.4314 121.605 55.0484 120.534 55.0484 119.323C55.0484 117.894 55.5505 116.734 56.5546 115.844C57.5691 114.954 59.034 114.509 60.9491 114.509H68.589ZM65.8094 116.822H61.8342C60.1675 116.822 59.0909 117.081 58.6044 117.599C58.1282 118.116 57.8901 118.722 57.8901 119.416C57.8901 120.399 58.242 121.124 58.946 121.59C59.6603 122.045 60.9181 122.273 62.7193 122.273H65.8094V116.822Z" fill="#FF0000"/>
<path d="M72.9369 114.509H75.732V128.702H82.0985V114.509H84.8936V128.702H91.2757V114.509H94.0553V128.702H95.9031V135.674H93.5894V131H72.9369V114.509Z" fill="#FF0000"/>
<path d="M99.0243 114.509H101.819V127.087L109.568 114.509H112.58V131H109.785V118.5L102.037 131H99.0243V114.509Z" fill="#FF0000"/>
<path d="M116.866 114.509H121.214L125.547 127.708L130.36 114.509H134.382V131H131.587V117.723L126.711 131H124.211L119.599 117.086V131H116.866V114.509Z" fill="#FF0000"/>
<path d="M158.264 124.959L161.013 125.316C160.713 127.211 159.942 128.696 158.699 129.773C157.467 130.839 155.951 131.372 154.149 131.372C151.893 131.372 150.076 130.637 148.699 129.167C147.333 127.687 146.649 125.57 146.649 122.816C146.649 121.036 146.944 119.478 147.534 118.142C148.125 116.807 149.02 115.808 150.221 115.145C151.432 114.473 152.747 114.136 154.165 114.136C155.956 114.136 157.421 114.592 158.559 115.503C159.698 116.403 160.428 117.687 160.749 119.354L158.032 119.773C157.773 118.665 157.312 117.832 156.65 117.273C155.997 116.714 155.205 116.434 154.274 116.434C152.866 116.434 151.722 116.942 150.842 117.956C149.962 118.96 149.522 120.554 149.522 122.739C149.522 124.954 149.947 126.564 150.795 127.568C151.644 128.572 152.752 129.074 154.118 129.074C155.216 129.074 156.132 128.738 156.867 128.065C157.602 127.392 158.068 126.357 158.264 124.959Z" fill="#FF0000"/>
<path d="M161.898 114.509H175.299V116.822H169.988V131H167.209V116.822H161.898V114.509Z" fill="#FF0000"/>
<path d="M188.886 125.689L191.774 126.046C191.319 127.734 190.475 129.043 189.243 129.975C188.011 130.907 186.438 131.372 184.523 131.372C182.111 131.372 180.195 130.632 178.777 129.152C177.369 127.661 176.665 125.575 176.665 122.894C176.665 120.12 177.38 117.966 178.808 116.434C180.237 114.902 182.09 114.136 184.367 114.136C186.572 114.136 188.374 114.887 189.771 116.388C191.169 117.889 191.868 120.001 191.868 122.723C191.868 122.889 191.862 123.137 191.852 123.469H179.554C179.657 125.28 180.17 126.667 181.091 127.63C182.012 128.593 183.161 129.074 184.538 129.074C185.563 129.074 186.438 128.805 187.162 128.267C187.887 127.728 188.462 126.869 188.886 125.689ZM179.709 121.17H188.917C188.793 119.783 188.441 118.743 187.861 118.049C186.971 116.973 185.817 116.434 184.398 116.434C183.115 116.434 182.033 116.864 181.153 117.723C180.283 118.582 179.802 119.731 179.709 121.17Z" fill="#FF0000"/>
<path d="M195.315 114.509H208.327V131H205.532V116.822H198.11V131H195.315V114.509Z" fill="#FF0000"/>
<path d="M212.551 114.509H215.346V121.372H223.095V114.509H225.89V131H223.095V123.686H215.346V131H212.551V114.509Z" fill="#FF0000"/>
<path d="M245.813 114.509H248.608V131H245.813V114.509ZM230.176 114.509H232.971V120.953H236.511C238.82 120.953 240.595 121.403 241.837 122.304C243.09 123.194 243.716 124.426 243.716 126C243.716 127.376 243.193 128.557 242.148 129.54C241.113 130.513 239.451 131 237.163 131H230.176V114.509ZM232.971 128.702H235.906C237.676 128.702 238.939 128.484 239.694 128.049C240.45 127.615 240.828 126.937 240.828 126.015C240.828 125.301 240.548 124.664 239.989 124.105C239.43 123.546 238.193 123.267 236.278 123.267H232.971V128.702Z" fill="#FF0000"/>
<path d="M253.049 114.509H257.397L261.729 127.708L266.543 114.509H270.565V131H267.769V117.723L262.894 131H260.394L255.782 117.086V131H253.049V114.509Z" fill="#FF0000"/>
<path d="M294.447 124.959L297.195 125.316C296.895 127.211 296.124 128.696 294.882 129.773C293.65 130.839 292.133 131.372 290.332 131.372C288.075 131.372 286.258 130.637 284.882 129.167C283.515 127.687 282.832 125.57 282.832 122.816C282.832 121.036 283.127 119.478 283.717 118.142C284.307 116.807 285.202 115.808 286.403 115.145C287.614 114.473 288.929 114.136 290.347 114.136C292.138 114.136 293.603 114.592 294.742 115.503C295.881 116.403 296.61 117.687 296.931 119.354L294.214 119.773C293.955 118.665 293.494 117.832 292.832 117.273C292.18 116.714 291.388 116.434 290.456 116.434C289.048 116.434 287.904 116.942 287.024 117.956C286.144 118.96 285.704 120.554 285.704 122.739C285.704 124.954 286.129 126.564 286.978 127.568C287.827 128.572 288.934 129.074 290.301 129.074C291.398 129.074 292.314 128.738 293.049 128.065C293.784 127.392 294.25 126.357 294.447 124.959Z" fill="#FF0000"/>
<path d="M298.919 122.754C298.919 119.7 299.768 117.438 301.466 115.968C302.884 114.747 304.613 114.136 306.652 114.136C308.919 114.136 310.772 114.881 312.211 116.372C313.65 117.853 314.37 119.902 314.37 122.521C314.37 124.644 314.049 126.315 313.407 127.537C312.775 128.748 311.849 129.69 310.627 130.363C309.416 131.036 308.091 131.372 306.652 131.372C304.344 131.372 302.475 130.632 301.046 129.152C299.628 127.672 298.919 125.539 298.919 122.754ZM301.792 122.754C301.792 124.866 302.252 126.45 303.174 127.506C304.095 128.551 305.255 129.074 306.652 129.074C308.039 129.074 309.194 128.546 310.115 127.49C311.036 126.434 311.497 124.825 311.497 122.661C311.497 120.622 311.031 119.079 310.099 118.034C309.178 116.978 308.029 116.45 306.652 116.45C305.255 116.45 304.095 116.973 303.174 118.018C302.252 119.064 301.792 120.642 301.792 122.754Z" fill="#FF0000"/>
<path d="M318.314 114.509H331.295V131H328.516V116.822H321.109V125.037C321.109 126.952 321.047 128.215 320.923 128.826C320.798 129.437 320.457 129.97 319.898 130.425C319.339 130.881 318.531 131.108 317.475 131.108C316.823 131.108 316.073 131.067 315.224 130.984V128.655H316.45C317.03 128.655 317.444 128.598 317.693 128.484C317.941 128.36 318.107 128.168 318.19 127.91C318.272 127.651 318.314 126.807 318.314 125.379V114.509Z" fill="#FF0000"/>
<path d="M335.535 114.509H338.33V121.372H346.078V114.509H348.873V131H346.078V123.686H338.33V131H335.535V114.509Z" fill="#FF0000"/>
<path d="M353.144 114.509H355.939V128.702H363.672V114.509H366.467V128.702H368.268V135.674H365.97V131H353.144V114.509Z" fill="#FF0000"/>
<path d="M382.243 125.689L385.132 126.046C384.676 127.734 383.832 129.043 382.601 129.975C381.369 130.907 379.795 131.372 377.88 131.372C375.468 131.372 373.553 130.632 372.135 129.152C370.727 127.661 370.023 125.575 370.023 122.894C370.023 120.12 370.737 117.966 372.166 116.434C373.594 114.902 375.447 114.136 377.725 114.136C379.93 114.136 381.731 114.887 383.129 116.388C384.526 117.889 385.225 120.001 385.225 122.723C385.225 122.889 385.22 123.137 385.209 123.469H372.911C373.015 125.28 373.527 126.667 374.448 127.63C375.37 128.593 376.519 129.074 377.896 129.074C378.92 129.074 379.795 128.805 380.52 128.267C381.244 127.728 381.819 126.869 382.243 125.689ZM373.066 121.17H382.274C382.15 119.783 381.798 118.743 381.219 118.049C380.328 116.973 379.174 116.434 377.756 116.434C376.472 116.434 375.39 116.864 374.51 117.723C373.641 118.582 373.159 119.731 373.066 121.17Z" fill="#FF0000"/>
<path d="M388.734 114.509H393.082L397.415 127.708L402.228 114.509H406.25V131H403.455V117.723L398.579 131H396.079L391.467 117.086V131H388.734V114.509Z" fill="#FF0000"/>
<path d="M419.371 114.509H422.167V127.087L429.915 114.509H432.928V131H430.132V118.5L422.384 131H419.371V114.509Z" fill="#FF0000"/>
<path d="M446.002 114.509H452.447C454.03 114.509 455.205 114.643 455.971 114.913C456.748 115.171 457.41 115.653 457.959 116.357C458.518 117.061 458.798 117.904 458.798 118.888C458.798 119.674 458.632 120.363 458.301 120.953C457.98 121.533 457.493 122.019 456.841 122.413C457.617 122.671 458.259 123.158 458.766 123.872C459.284 124.576 459.543 125.415 459.543 126.388C459.439 127.951 458.88 129.11 457.866 129.866C456.851 130.622 455.376 131 453.44 131H446.002V114.509ZM448.797 121.45H451.779C452.969 121.45 453.787 121.388 454.232 121.264C454.677 121.139 455.076 120.891 455.428 120.518C455.78 120.135 455.956 119.68 455.956 119.152C455.956 118.282 455.645 117.677 455.024 117.335C454.413 116.993 453.363 116.822 451.872 116.822H448.797V121.45ZM448.797 128.702H452.478C454.061 128.702 455.148 128.52 455.738 128.158C456.329 127.785 456.639 127.149 456.67 126.248C456.67 125.72 456.499 125.234 456.158 124.788C455.816 124.333 455.371 124.048 454.822 123.934C454.274 123.81 453.394 123.748 452.183 123.748H448.797V128.702Z" fill="#FF0000"/>
<path d="M3.46366 145.509H16.4453V162H13.6657V147.822H6.25874V156.037C6.25874 157.952 6.19663 159.215 6.0724 159.826C5.94818 160.437 5.60656 160.97 5.04754 161.425C4.48853 161.881 3.68106 162.108 2.62514 162.108C1.97295 162.108 1.22242 162.067 0.373548 161.984V159.655H1.60028C2.18 159.655 2.59408 159.598 2.84253 159.484C3.09099 159.36 3.25662 159.168 3.33944 158.91C3.42225 158.651 3.46366 157.807 3.46366 156.379V145.509Z" fill="#FF0000"/>
<path d="M31.9579 156.689L34.8462 157.046C34.3907 158.734 33.547 160.043 32.3151 160.975C31.0832 161.907 29.5097 162.372 27.5945 162.372C25.1825 162.372 23.2673 161.632 21.8491 160.152C20.4412 158.661 19.7372 156.575 19.7372 153.894C19.7372 151.12 20.4515 148.966 21.8801 147.434C23.3087 145.902 25.1618 145.136 27.4392 145.136C29.6442 145.136 31.4455 145.887 32.843 147.388C34.2406 148.889 34.9394 151.001 34.9394 153.723C34.9394 153.889 34.9342 154.137 34.9238 154.469H22.6255C22.729 156.28 23.2414 157.667 24.1628 158.63C25.0841 159.593 26.2332 160.074 27.61 160.074C28.6349 160.074 29.5097 159.805 30.2343 159.267C30.959 158.728 31.5335 157.869 31.9579 156.689ZM22.7808 152.17H31.989C31.8648 150.783 31.5128 149.743 30.9331 149.049C30.0428 147.973 28.8885 147.434 27.4703 147.434C26.1866 147.434 25.1048 147.864 24.2249 148.723C23.3553 149.582 22.8739 150.731 22.7808 152.17Z" fill="#FF0000"/>
<path d="M39.8618 145.509H51.3527V159.702H53.1384V166.674H50.8403V162H37.8587V166.674H35.5605V159.702H37.0357C39.0026 157.031 39.9446 152.3 39.8618 145.509ZM42.191 147.822C41.984 153.175 41.1558 157.134 39.7065 159.702H48.5731V147.822H42.191Z" fill="#FF0000"/>
<path d="M69.2101 145.509V162H66.4306V155.571H64.8156C63.8322 155.571 63.0972 155.7 62.6106 155.959C62.1344 156.208 61.4357 157.02 60.5143 158.397L58.0764 162H54.6136L57.6261 157.559C58.5474 156.203 59.4636 155.436 60.3746 155.26C58.7803 155.043 57.595 154.469 56.8186 153.537C56.0526 152.605 55.6695 151.534 55.6695 150.323C55.6695 148.894 56.1716 147.734 57.1758 146.844C58.1903 145.954 59.6551 145.509 61.5702 145.509H69.2101ZM66.4306 147.822H62.4554C60.7887 147.822 59.712 148.081 59.2255 148.599C58.7493 149.116 58.5112 149.722 58.5112 150.416C58.5112 151.399 58.8632 152.124 59.5671 152.59C60.2814 153.045 61.5392 153.273 63.3405 153.273H66.4306V147.822Z" fill="#FF0000"/>
<path d="M73.4804 145.509H76.2755V152.372H84.024V145.509H86.8191V162H84.024V154.686H76.2755V162H73.4804V145.509Z" fill="#FF0000"/>
<path d="M106.742 145.509H109.537V162H106.742V145.509ZM91.1049 145.509H93.9V151.953H97.4404C99.749 151.953 101.524 152.403 102.767 153.304C104.019 154.194 104.646 155.426 104.646 157C104.646 158.376 104.123 159.557 103.077 160.54C102.042 161.513 100.38 162 98.0926 162H91.1049V145.509ZM93.9 159.702H96.8348C98.605 159.702 99.868 159.484 100.624 159.049C101.379 158.615 101.757 157.937 101.757 157.015C101.757 156.301 101.478 155.664 100.919 155.105C100.36 154.546 99.1227 154.267 97.2075 154.267H93.9V159.702Z" fill="#FF0000"/>
<path d="M112.037 162L118.062 153.428L112.487 145.509H115.981L118.512 149.375C118.988 150.11 119.371 150.726 119.661 151.223C120.117 150.54 120.536 149.934 120.919 149.406L123.699 145.509H127.037L121.338 153.273L127.472 162H124.04L120.655 156.875L119.754 155.493L115.422 162H112.037Z" fill="#FF0000"/>
<path d="M138.73 145.509H143.078L147.41 158.708L152.224 145.509H156.246V162H153.451V148.723L148.575 162H146.075L141.463 148.086V162H138.73V145.509Z" fill="#FF0000"/>
<path d="M159.476 153.754C159.476 150.7 160.325 148.438 162.022 146.968C163.441 145.747 165.169 145.136 167.209 145.136C169.476 145.136 171.329 145.881 172.768 147.372C174.207 148.853 174.926 150.902 174.926 153.521C174.926 155.644 174.605 157.315 173.963 158.537C173.332 159.748 172.405 160.69 171.184 161.363C169.973 162.036 168.648 162.372 167.209 162.372C164.9 162.372 163.032 161.632 161.603 160.152C160.185 158.672 159.476 156.539 159.476 153.754ZM162.348 153.754C162.348 155.866 162.809 157.45 163.73 158.506C164.652 159.551 165.811 160.074 167.209 160.074C168.596 160.074 169.75 159.546 170.671 158.49C171.593 157.434 172.053 155.825 172.053 153.661C172.053 151.622 171.588 150.079 170.656 149.034C169.735 147.978 168.586 147.45 167.209 147.45C165.811 147.45 164.652 147.973 163.73 149.018C162.809 150.064 162.348 151.642 162.348 153.754Z" fill="#FF0000"/>
<path d="M178.218 168.32V145.509H180.765V147.652C181.365 146.813 182.043 146.187 182.799 145.773C183.555 145.348 184.471 145.136 185.548 145.136C186.955 145.136 188.198 145.498 189.274 146.223C190.351 146.948 191.164 147.973 191.712 149.298C192.261 150.612 192.535 152.057 192.535 153.63C192.535 155.317 192.23 156.839 191.619 158.195C191.019 159.541 190.139 160.576 188.979 161.301C187.83 162.015 186.619 162.372 185.346 162.372C184.414 162.372 183.575 162.176 182.83 161.782C182.095 161.389 181.489 160.892 181.013 160.292V168.32H178.218ZM180.749 153.847C180.749 155.97 181.179 157.538 182.038 158.552C182.897 159.567 183.938 160.074 185.159 160.074C186.402 160.074 187.463 159.551 188.343 158.506C189.233 157.45 189.678 155.82 189.678 153.615C189.678 151.513 189.243 149.939 188.374 148.894C187.514 147.848 186.484 147.326 185.284 147.326C184.093 147.326 183.037 147.885 182.116 149.003C181.205 150.11 180.749 151.725 180.749 153.847Z" fill="#FF0000"/>
<path d="M194.88 153.754C194.88 150.7 195.729 148.438 197.427 146.968C198.845 145.747 200.574 145.136 202.613 145.136C204.88 145.136 206.733 145.881 208.172 147.372C209.611 148.853 210.331 150.902 210.331 153.521C210.331 155.644 210.01 157.315 209.368 158.537C208.736 159.748 207.81 160.69 206.588 161.363C205.377 162.036 204.052 162.372 202.613 162.372C200.305 162.372 198.436 161.632 197.007 160.152C195.589 158.672 194.88 156.539 194.88 153.754ZM197.753 153.754C197.753 155.866 198.213 157.45 199.135 158.506C200.056 159.551 201.215 160.074 202.613 160.074C204 160.074 205.154 159.546 206.076 158.49C206.997 157.434 207.458 155.825 207.458 153.661C207.458 151.622 206.992 150.079 206.06 149.034C205.139 147.978 203.99 147.45 202.613 147.45C201.215 147.45 200.056 147.973 199.135 149.018C198.213 150.064 197.753 151.642 197.753 153.754Z" fill="#FF0000"/>
<path d="M216.899 154.546V152.357C218.079 152.346 218.881 152.3 219.306 152.217C219.741 152.134 220.15 151.886 220.533 151.472C220.916 151.058 221.107 150.54 221.107 149.919C221.107 149.163 220.854 148.563 220.346 148.118C219.849 147.662 219.202 147.434 218.405 147.434C216.832 147.434 215.729 148.361 215.098 150.214L212.442 149.779C213.271 146.684 215.269 145.136 218.436 145.136C220.196 145.136 221.573 145.617 222.567 146.58C223.571 147.543 224.073 148.692 224.073 150.027C224.073 151.373 223.421 152.445 222.116 153.242C222.945 153.687 223.566 154.256 223.98 154.95C224.394 155.633 224.601 156.446 224.601 157.388C224.601 158.868 224.063 160.069 222.986 160.99C221.909 161.912 220.403 162.372 218.467 162.372C214.71 162.372 212.53 160.701 211.93 157.357L214.554 156.798C214.792 157.854 215.274 158.672 215.998 159.251C216.733 159.831 217.572 160.121 218.514 160.121C219.456 160.121 220.238 159.857 220.859 159.329C221.49 158.791 221.806 158.107 221.806 157.279C221.806 156.637 221.609 156.078 221.216 155.602C220.822 155.126 220.403 154.831 219.958 154.717C219.513 154.593 218.705 154.531 217.536 154.531C217.442 154.531 217.23 154.536 216.899 154.546Z" fill="#FF0000"/>
<path d="M238.607 159.966C237.572 160.845 236.573 161.467 235.61 161.829C234.658 162.191 233.633 162.372 232.536 162.372C230.724 162.372 229.332 161.932 228.359 161.053C227.386 160.162 226.899 159.029 226.899 157.652C226.899 156.844 227.08 156.109 227.443 155.447C227.815 154.774 228.297 154.236 228.887 153.832C229.487 153.428 230.16 153.123 230.905 152.916C231.454 152.771 232.282 152.631 233.39 152.496C235.647 152.227 237.308 151.906 238.375 151.534C238.385 151.151 238.39 150.907 238.39 150.804C238.39 149.665 238.126 148.863 237.598 148.397C236.884 147.766 235.823 147.45 234.415 147.45C233.1 147.45 232.127 147.683 231.496 148.149C230.874 148.604 230.414 149.417 230.114 150.587L227.381 150.214C227.629 149.044 228.038 148.102 228.607 147.388C229.177 146.663 230 146.109 231.076 145.726C232.153 145.333 233.4 145.136 234.819 145.136C236.226 145.136 237.37 145.302 238.25 145.633C239.13 145.964 239.777 146.384 240.191 146.891C240.605 147.388 240.895 148.019 241.061 148.785C241.154 149.261 241.201 150.121 241.201 151.363V155.09C241.201 157.688 241.258 159.334 241.371 160.028C241.496 160.711 241.734 161.368 242.086 162H239.166C238.877 161.42 238.69 160.742 238.607 159.966ZM238.375 153.723C237.36 154.137 235.838 154.489 233.809 154.779C232.66 154.945 231.847 155.131 231.371 155.338C230.895 155.545 230.528 155.851 230.269 156.254C230.01 156.648 229.881 157.088 229.881 157.574C229.881 158.32 230.16 158.941 230.719 159.438C231.288 159.934 232.117 160.183 233.204 160.183C234.28 160.183 235.238 159.95 236.076 159.484C236.915 159.008 237.531 158.361 237.924 157.543C238.224 156.912 238.375 155.98 238.375 154.748V153.723Z" fill="#FF0000"/>
<path d="M243.685 162L249.71 153.428L244.135 145.509H247.629L250.16 149.375C250.637 150.11 251.02 150.726 251.31 151.223C251.765 150.54 252.184 149.934 252.567 149.406L255.347 145.509H258.685L252.987 153.273L259.12 162H255.688L252.303 156.875L251.403 155.493L247.07 162H243.685Z" fill="#FF0000"/>
<path d="M286.9 154.018L289.913 154.779C289.281 157.253 288.142 159.143 286.496 160.447C284.861 161.741 282.858 162.388 280.487 162.388C278.034 162.388 276.036 161.891 274.493 160.897C272.961 159.893 271.791 158.444 270.984 156.549C270.187 154.655 269.788 152.621 269.788 150.447C269.788 148.076 270.238 146.011 271.139 144.251C272.05 142.481 273.339 141.14 275.006 140.229C276.683 139.308 278.525 138.847 280.534 138.847C282.811 138.847 284.726 139.427 286.279 140.586C287.832 141.746 288.914 143.376 289.524 145.478L286.559 146.176C286.031 144.52 285.265 143.314 284.26 142.558C283.256 141.803 281.993 141.425 280.471 141.425C278.722 141.425 277.257 141.844 276.077 142.683C274.907 143.521 274.084 144.65 273.608 146.068C273.132 147.476 272.894 148.93 272.894 150.431C272.894 152.367 273.173 154.06 273.732 155.509C274.302 156.948 275.182 158.025 276.372 158.739C277.563 159.453 278.851 159.81 280.239 159.81C281.926 159.81 283.355 159.324 284.524 158.351C285.694 157.378 286.486 155.933 286.9 154.018Z" fill="#FF0000"/>
<path d="M293.282 145.509H296.077V158.087L303.826 145.509H306.838V162H304.043V149.5L296.295 162H293.282V145.509Z" fill="#FF0000"/>
<path d="M323.128 138.692L325.596 138.723C325.483 139.831 325.234 140.602 324.851 141.037C324.478 141.471 323.992 141.751 323.391 141.875C322.801 141.999 321.637 142.062 319.898 142.062C317.589 142.062 316.016 142.284 315.177 142.729C314.339 143.174 313.733 143.889 313.36 144.872C312.998 145.845 312.796 147.103 312.755 148.645C313.459 147.6 314.282 146.818 315.224 146.301C316.166 145.773 317.227 145.509 318.407 145.509C320.571 145.509 322.361 146.254 323.78 147.745C325.198 149.225 325.907 151.234 325.907 153.77C325.907 155.695 325.55 157.274 324.836 158.506C324.121 159.738 323.272 160.69 322.289 161.363C321.316 162.036 319.986 162.372 318.298 162.372C316.342 162.372 314.82 161.927 313.733 161.037C312.646 160.136 311.813 158.987 311.233 157.59C310.653 156.192 310.363 153.759 310.363 150.291C310.363 145.933 311.098 142.998 312.568 141.487C314.049 139.976 316.321 139.22 319.385 139.22C321.29 139.22 322.372 139.189 322.631 139.127C322.889 139.065 323.055 138.92 323.128 138.692ZM322.988 153.692C322.988 151.974 322.579 150.566 321.761 149.468C320.954 148.371 319.81 147.822 318.329 147.822C316.787 147.822 315.596 148.402 314.758 149.562C313.919 150.721 313.5 152.269 313.5 154.205C313.5 156.12 313.961 157.585 314.882 158.599C315.814 159.614 316.958 160.121 318.314 160.121C319.701 160.121 320.824 159.536 321.683 158.366C322.553 157.186 322.988 155.628 322.988 153.692Z" fill="#FF0000"/>
<path d="M329.277 145.509H332.072V158.087L339.82 145.509H342.833V162H340.038V149.5L332.289 162H329.277V145.509Z" fill="#FF0000"/>
<path d="M347.041 168.32V145.509H349.588V147.652C350.188 146.813 350.866 146.187 351.622 145.773C352.378 145.348 353.294 145.136 354.37 145.136C355.778 145.136 357.02 145.498 358.097 146.223C359.174 146.948 359.986 147.973 360.535 149.298C361.084 150.612 361.358 152.057 361.358 153.63C361.358 155.317 361.053 156.839 360.442 158.195C359.841 159.541 358.961 160.576 357.802 161.301C356.653 162.015 355.442 162.372 354.168 162.372C353.237 162.372 352.398 162.176 351.653 161.782C350.918 161.389 350.312 160.892 349.836 160.292V168.32H347.041ZM349.572 153.847C349.572 155.97 350.002 157.538 350.861 158.552C351.72 159.567 352.761 160.074 353.982 160.074C355.224 160.074 356.285 159.551 357.165 158.506C358.056 157.45 358.501 155.82 358.501 153.615C358.501 151.513 358.066 149.939 357.196 148.894C356.337 147.848 355.307 147.326 354.106 147.326C352.916 147.326 351.86 147.885 350.939 149.003C350.028 150.11 349.572 151.725 349.572 153.847Z" fill="#FF0000"/>
<path d="M364.743 145.509H367.538V158.087L375.287 145.509H378.299V162H375.504V149.5L367.756 162H364.743V145.509Z" fill="#FF0000"/>
<path d="M389.262 154.888V152.636H421.064V154.888H389.262Z" fill="#FF0000"/>
<path d="M12.8582 186.959L15.6067 187.316C15.3065 189.211 14.5353 190.696 13.293 191.773C12.0611 192.839 10.5445 193.372 8.74326 193.372C6.48649 193.372 4.66969 192.637 3.29285 191.167C1.92637 189.687 1.24313 187.57 1.24313 184.816C1.24313 183.036 1.53816 181.478 2.12824 180.142C2.71831 178.807 3.61377 177.808 4.81462 177.145C6.02582 176.473 7.34054 176.136 8.75879 176.136C10.5497 176.136 12.0145 176.592 13.1533 177.503C14.292 178.403 15.0218 179.687 15.3427 181.354L12.6253 181.773C12.3665 180.665 11.9058 179.832 11.2433 179.273C10.5911 178.714 9.79918 178.434 8.86748 178.434C7.45959 178.434 6.31568 178.942 5.43575 179.956C4.55581 180.96 4.11585 182.554 4.11585 184.739C4.11585 186.954 4.54029 188.564 5.38916 189.568C6.23804 190.572 7.34572 191.074 8.7122 191.074C9.80953 191.074 10.7257 190.738 11.4607 190.065C12.1957 189.392 12.6615 188.357 12.8582 186.959Z" fill="#FF0000"/>
<path d="M29.2871 187.689L32.1753 188.046C31.7198 189.734 30.8761 191.043 29.6442 191.975C28.4123 192.907 26.8388 193.372 24.9237 193.372C22.5116 193.372 20.5965 192.632 19.1782 191.152C17.7703 189.661 17.0664 187.575 17.0664 184.894C17.0664 182.12 17.7807 179.966 19.2093 178.434C20.6379 176.902 22.4909 176.136 24.7684 176.136C26.9734 176.136 28.7747 176.887 30.1722 178.388C31.5697 179.889 32.2685 182.001 32.2685 184.723C32.2685 184.889 32.2633 185.137 32.253 185.469H19.9546C20.0581 187.28 20.5706 188.667 21.4919 189.63C22.4133 190.593 23.5624 191.074 24.9392 191.074C25.964 191.074 26.8388 190.805 27.5635 190.267C28.2881 189.728 28.8626 188.869 29.2871 187.689ZM20.1099 183.17H29.3181C29.1939 181.783 28.8419 180.743 28.2622 180.049C27.3719 178.973 26.2177 178.434 24.7994 178.434C23.5158 178.434 22.434 178.864 21.554 179.723C20.6845 180.582 20.2031 181.731 20.1099 183.17Z" fill="#FF0000"/>
<path d="M35.7002 199.32V176.509H38.2469V178.652C38.8473 177.813 39.5254 177.187 40.2811 176.773C41.0368 176.348 41.9529 176.136 43.0296 176.136C44.4374 176.136 45.6797 176.498 46.7563 177.223C47.833 177.948 48.6456 178.973 49.1943 180.298C49.7429 181.612 50.0173 183.057 50.0173 184.63C50.0173 186.317 49.7119 187.839 49.1011 189.195C48.5007 190.541 47.6207 191.576 46.4613 192.301C45.3122 193.015 44.101 193.372 42.8277 193.372C41.896 193.372 41.0575 193.176 40.3121 192.782C39.5771 192.389 38.9715 191.892 38.4953 191.292V199.32H35.7002ZM38.2313 184.847C38.2313 186.97 38.661 188.538 39.5202 189.552C40.3794 190.567 41.4198 191.074 42.6413 191.074C43.8836 191.074 44.9447 190.551 45.8246 189.506C46.7149 188.45 47.1601 186.82 47.1601 184.615C47.1601 182.513 46.7253 180.939 45.8557 179.894C44.9965 178.848 43.9664 178.326 42.7656 178.326C41.5751 178.326 40.5192 178.885 39.5978 180.003C38.6868 181.11 38.2313 182.725 38.2313 184.847Z" fill="#FF0000"/>
<path d="M53.4024 176.509H56.1975V189.087L63.9461 176.509H66.9585V193H64.1635V180.5L56.4149 193H53.4024V176.509Z" fill="#FF0000"/>
<path d="M84.1483 176.509V193H81.3687V186.571H79.7538C78.7703 186.571 78.0353 186.7 77.5488 186.959C77.0726 187.208 76.3738 188.02 75.4525 189.397L73.0145 193H69.5518L72.5642 188.559C73.4856 187.203 74.4017 186.436 75.3127 186.26C73.7185 186.043 72.5332 185.469 71.7568 184.537C70.9907 183.605 70.6077 182.534 70.6077 181.323C70.6077 179.894 71.1097 178.734 72.1139 177.844C73.1284 176.954 74.5932 176.509 76.5084 176.509H84.1483ZM81.3687 178.822H77.3935C75.7268 178.822 74.6502 179.081 74.1636 179.599C73.6874 180.116 73.4493 180.722 73.4493 181.416C73.4493 182.399 73.8013 183.124 74.5052 183.59C75.2195 184.045 76.4773 184.273 78.2786 184.273H81.3687V178.822Z" fill="#FF0000"/>
<path d="M106.851 170.235H109.646V178.108C110.225 177.446 110.862 176.954 111.556 176.633C112.249 176.302 112.995 176.136 113.792 176.136C115.748 176.136 117.296 176.954 118.435 178.59C119.584 180.215 120.158 182.265 120.158 184.739C120.158 187.316 119.542 189.402 118.31 190.997C117.078 192.58 115.546 193.372 113.714 193.372C113.114 193.372 112.503 193.279 111.882 193.093C111.261 192.907 110.515 192.399 109.646 191.571V199.32H106.851V191.571C106.292 192.172 105.67 192.622 104.987 192.922C104.314 193.222 103.584 193.372 102.798 193.372C101.069 193.372 99.5574 192.617 98.2634 191.105C96.9694 189.584 96.3224 187.41 96.3224 184.583C96.3224 182.192 96.9073 180.189 98.0771 178.574C99.2469 176.949 100.82 176.136 102.798 176.136C103.626 176.136 104.376 176.302 105.049 176.633C105.722 176.954 106.323 177.446 106.851 178.108V170.235ZM109.63 184.816C109.63 187.301 109.972 188.973 110.655 189.832C111.338 190.681 112.192 191.105 113.217 191.105C114.356 191.105 115.324 190.583 116.121 189.537C116.928 188.481 117.332 186.845 117.332 184.63C117.332 182.539 116.959 180.981 116.214 179.956C115.479 178.931 114.532 178.419 113.372 178.419C112.13 178.419 111.193 178.952 110.562 180.018C109.941 181.084 109.63 182.684 109.63 184.816ZM99.1641 184.506C99.1641 186.835 99.5523 188.512 100.329 189.537C101.115 190.562 102.089 191.074 103.248 191.074C104.459 191.074 105.365 190.567 105.965 189.552C106.566 188.528 106.866 186.995 106.866 184.956C106.866 182.782 106.55 181.152 105.919 180.065C105.287 178.978 104.335 178.434 103.062 178.434C101.913 178.434 100.976 178.967 100.251 180.034C99.5264 181.09 99.1641 182.58 99.1641 184.506Z" fill="#FF0000"/>
<path d="M123.435 176.509H126.23V189.087L133.978 176.509H136.991V193H134.196V180.5L126.447 193H123.435V176.509Z" fill="#FF0000"/>
<path d="M142.565 176.509H155.547V193H152.767V178.822H145.361V187.037C145.361 188.952 145.298 190.215 145.174 190.826C145.05 191.437 144.708 191.97 144.149 192.425C143.59 192.881 142.783 193.108 141.727 193.108C141.075 193.108 140.324 193.067 139.475 192.984V190.655H140.702C141.282 190.655 141.696 190.598 141.944 190.484C142.193 190.36 142.358 190.168 142.441 189.91C142.524 189.651 142.565 188.807 142.565 187.379V176.509Z" fill="#FF0000"/>
<path d="M159.724 176.509H162.519V182.953H166.06C168.368 182.953 170.144 183.403 171.386 184.304C172.638 185.194 173.265 186.426 173.265 188C173.265 189.376 172.742 190.557 171.696 191.54C170.661 192.513 169 193 166.712 193H159.724V176.509ZM162.519 190.702H165.454C167.224 190.702 168.487 190.484 169.243 190.049C169.999 189.615 170.376 188.937 170.376 188.015C170.376 187.301 170.097 186.664 169.538 186.105C168.979 185.546 167.742 185.267 165.827 185.267H162.519V190.702Z" fill="#FF0000"/>
<path d="M172.364 176.509H185.765V178.822H180.454V193H177.675V178.822H172.364V176.509Z" fill="#FF0000"/>
<path d="M188.436 199.32V176.509H190.982V178.652C191.583 177.813 192.261 177.187 193.017 176.773C193.772 176.348 194.688 176.136 195.765 176.136C197.173 176.136 198.415 176.498 199.492 177.223C200.568 177.948 201.381 178.973 201.93 180.298C202.478 181.612 202.753 183.057 202.753 184.63C202.753 186.317 202.447 187.839 201.837 189.195C201.236 190.541 200.356 191.576 199.197 192.301C198.048 193.015 196.837 193.372 195.563 193.372C194.632 193.372 193.793 193.176 193.048 192.782C192.313 192.389 191.707 191.892 191.231 191.292V199.32H188.436ZM190.967 184.847C190.967 186.97 191.396 188.538 192.256 189.552C193.115 190.567 194.155 191.074 195.377 191.074C196.619 191.074 197.68 190.551 198.56 189.506C199.45 188.45 199.896 186.82 199.896 184.615C199.896 182.513 199.461 180.939 198.591 179.894C197.732 178.848 196.702 178.326 195.501 178.326C194.311 178.326 193.255 178.885 192.333 180.003C191.422 181.11 190.967 182.725 190.967 184.847Z" fill="#FF0000"/>
<path d="M205.098 184.754C205.098 181.7 205.946 179.438 207.644 177.968C209.062 176.747 210.791 176.136 212.831 176.136C215.098 176.136 216.951 176.881 218.39 178.372C219.829 179.853 220.548 181.902 220.548 184.521C220.548 186.644 220.227 188.315 219.585 189.537C218.954 190.748 218.027 191.69 216.806 192.363C215.595 193.036 214.27 193.372 212.831 193.372C210.522 193.372 208.654 192.632 207.225 191.152C205.807 189.672 205.098 187.539 205.098 184.754ZM207.97 184.754C207.97 186.866 208.431 188.45 209.352 189.506C210.274 190.551 211.433 191.074 212.831 191.074C214.218 191.074 215.372 190.546 216.293 189.49C217.215 188.434 217.675 186.825 217.675 184.661C217.675 182.622 217.21 181.079 216.278 180.034C215.357 178.978 214.207 178.45 212.831 178.45C211.433 178.45 210.274 178.973 209.352 180.018C208.431 181.064 207.97 182.642 207.97 184.754Z" fill="#FF0000"/>
<path d="M223.856 176.509H230.3C231.884 176.509 233.059 176.643 233.825 176.913C234.601 177.171 235.264 177.653 235.812 178.357C236.371 179.061 236.651 179.904 236.651 180.888C236.651 181.674 236.485 182.363 236.154 182.953C235.833 183.533 235.347 184.019 234.694 184.413C235.471 184.671 236.113 185.158 236.62 185.872C237.137 186.576 237.396 187.415 237.396 188.388C237.293 189.951 236.734 191.11 235.719 191.866C234.705 192.622 233.229 193 231.294 193H223.856V176.509ZM226.651 183.45H229.632C230.823 183.45 231.64 183.388 232.086 183.264C232.531 183.139 232.929 182.891 233.281 182.518C233.633 182.135 233.809 181.68 233.809 181.152C233.809 180.282 233.499 179.677 232.878 179.335C232.267 178.993 231.216 178.822 229.725 178.822H226.651V183.45ZM226.651 190.702H230.331C231.915 190.702 233.002 190.52 233.592 190.158C234.182 189.785 234.492 189.149 234.524 188.248C234.524 187.72 234.353 187.234 234.011 186.788C233.669 186.333 233.224 186.048 232.676 185.934C232.127 185.81 231.247 185.748 230.036 185.748H226.651V190.702Z" fill="#FF0000"/>
<path d="M241.465 193V189.816H244.648V193C244.648 194.17 244.441 195.112 244.027 195.826C243.613 196.551 242.955 197.11 242.055 197.503L241.278 196.307C241.868 196.048 242.303 195.665 242.583 195.158C242.862 194.661 243.017 193.942 243.049 193H241.465Z" fill="#FF0000"/>
<path d="M2.09718 230.32V207.509H4.64381V209.652C5.24423 208.813 5.9223 208.187 6.678 207.773C7.43371 207.348 8.34988 207.136 9.4265 207.136C10.8344 207.136 12.0766 207.498 13.1533 208.223C14.2299 208.948 15.0425 209.973 15.5912 211.298C16.1399 212.612 16.4142 214.057 16.4142 215.63C16.4142 217.317 16.1088 218.839 15.498 220.195C14.8976 221.541 14.0177 222.576 12.8582 223.301C11.7091 224.015 10.4979 224.372 9.22463 224.372C8.29294 224.372 7.45441 224.176 6.70906 223.782C5.97406 223.389 5.36846 222.892 4.89226 222.292V230.32H2.09718ZM4.62828 215.847C4.62828 217.97 5.05789 219.538 5.91712 220.552C6.77635 221.567 7.81674 222.074 9.03829 222.074C10.2806 222.074 11.3416 221.551 12.2216 220.506C13.1119 219.45 13.557 217.82 13.557 215.615C13.557 213.513 13.1222 211.939 12.2526 210.894C11.3934 209.848 10.3634 209.326 9.16252 209.326C7.97202 209.326 6.9161 209.885 5.99476 211.003C5.08377 212.11 4.62828 213.725 4.62828 215.847Z" fill="#FF0000"/>
<path d="M30.5604 221.966C29.5252 222.845 28.5262 223.467 27.5635 223.829C26.6111 224.191 25.5862 224.372 24.4889 224.372C22.6772 224.372 21.2849 223.932 20.3118 223.053C19.3387 222.162 18.8521 221.029 18.8521 219.652C18.8521 218.844 19.0333 218.109 19.3956 217.447C19.7683 216.774 20.2497 216.236 20.8397 215.832C21.4402 215.428 22.113 215.123 22.8584 214.916C23.4071 214.771 24.2352 214.631 25.3429 214.496C27.5997 214.227 29.2612 213.906 30.3275 213.534C30.3378 213.151 30.343 212.907 30.343 212.804C30.343 211.665 30.079 210.863 29.5511 210.397C28.8368 209.766 27.7757 209.45 26.3678 209.45C25.0531 209.45 24.08 209.683 23.4485 210.149C22.8273 210.604 22.3667 211.417 22.0665 212.587L19.3335 212.214C19.582 211.044 19.9909 210.102 20.5602 209.388C21.1296 208.663 21.9526 208.109 23.0292 207.726C24.1058 207.333 25.3533 207.136 26.7715 207.136C28.1794 207.136 29.3233 207.302 30.2033 207.633C31.0832 207.964 31.7302 208.384 32.1443 208.891C32.5584 209.388 32.8482 210.019 33.0139 210.785C33.107 211.261 33.1536 212.121 33.1536 213.363V217.09C33.1536 219.688 33.2105 221.334 33.3244 222.028C33.4486 222.711 33.6867 223.368 34.0387 224H31.1194C30.8296 223.42 30.6432 222.742 30.5604 221.966ZM30.3275 215.723C29.313 216.137 27.7912 216.489 25.7622 216.779C24.6131 216.945 23.8004 217.131 23.3243 217.338C22.8481 217.545 22.4806 217.851 22.2217 218.254C21.9629 218.648 21.8335 219.088 21.8335 219.574C21.8335 220.32 22.113 220.941 22.6721 221.438C23.2414 221.934 24.0696 222.183 25.1566 222.183C26.2332 222.183 27.1908 221.95 28.0293 221.484C28.8678 221.008 29.4838 220.361 29.8772 219.543C30.1774 218.912 30.3275 217.98 30.3275 216.748V215.723Z" fill="#FF0000"/>
<path d="M48.2626 217.959L51.0111 218.316C50.7108 220.211 49.9396 221.696 48.6974 222.773C47.4654 223.839 45.9489 224.372 44.1476 224.372C41.8908 224.372 40.074 223.637 38.6972 222.167C37.3307 220.687 36.6475 218.57 36.6475 215.816C36.6475 214.036 36.9425 212.478 37.5326 211.142C38.1226 209.807 39.0181 208.808 40.2189 208.145C41.4301 207.473 42.7449 207.136 44.1631 207.136C45.954 207.136 47.4189 207.592 48.5576 208.503C49.6963 209.403 50.4262 210.687 50.7471 212.354L48.0296 212.773C47.7708 211.665 47.3102 210.832 46.6476 210.273C45.9954 209.714 45.2035 209.434 44.2718 209.434C42.8639 209.434 41.72 209.942 40.8401 210.956C39.9601 211.96 39.5202 213.554 39.5202 215.739C39.5202 217.954 39.9446 219.564 40.7935 220.568C41.6424 221.572 42.75 222.074 44.1165 222.074C45.2139 222.074 46.13 221.738 46.865 221.065C47.6 220.392 48.0659 219.357 48.2626 217.959Z" fill="#FF0000"/>
<path d="M53.3869 207.509H56.182V214.636C57.0722 214.636 57.6934 214.465 58.0453 214.124C58.4077 213.782 58.9356 212.788 59.6292 211.142C60.1779 209.838 60.623 208.979 60.9646 208.565C61.3063 208.151 61.6996 207.871 62.1448 207.726C62.5899 207.581 63.3042 207.509 64.2877 207.509H64.8467V209.822L64.0703 209.807C63.3353 209.807 62.8643 209.916 62.6572 210.133C62.4398 210.361 62.1086 211.039 61.6634 212.167C61.239 213.244 60.8508 213.989 60.4988 214.403C60.1468 214.817 59.6033 215.195 58.8683 215.537C60.0692 215.858 61.2493 216.976 62.4088 218.891L65.4678 224H62.3932L59.4118 218.891C58.8011 217.866 58.2679 217.193 57.8124 216.872C57.3569 216.541 56.8134 216.375 56.182 216.375V224H53.3869V207.509Z" fill="#FF0000"/>
<path d="M67.3157 230.32V207.509H69.8623V209.652C70.4627 208.813 71.1408 208.187 71.8965 207.773C72.6522 207.348 73.5684 207.136 74.645 207.136C76.0529 207.136 77.2951 207.498 78.3718 208.223C79.4484 208.948 80.261 209.973 80.8097 211.298C81.3584 212.612 81.6327 214.057 81.6327 215.63C81.6327 217.317 81.3273 218.839 80.7165 220.195C80.1161 221.541 79.2362 222.576 78.0767 223.301C76.9276 224.015 75.7165 224.372 74.4431 224.372C73.5114 224.372 72.6729 224.176 71.9276 223.782C71.1926 223.389 70.587 222.892 70.1108 222.292V230.32H67.3157ZM69.8468 215.847C69.8468 217.97 70.2764 219.538 71.1356 220.552C71.9949 221.567 73.0352 222.074 74.2568 222.074C75.4991 222.074 76.5602 221.551 77.4401 220.506C78.3304 219.45 78.7755 217.82 78.7755 215.615C78.7755 213.513 78.3407 211.939 77.4711 210.894C76.6119 209.848 75.5819 209.326 74.381 209.326C73.1905 209.326 72.1346 209.885 71.2133 211.003C70.3023 212.11 69.8468 213.725 69.8468 215.847Z" fill="#FF0000"/>
<path d="M100.717 207.509H103.512V224H100.717V207.509ZM85.08 207.509H87.875V213.953H91.4155C93.724 213.953 95.4994 214.403 96.7417 215.304C97.9943 216.194 98.6206 217.426 98.6206 219C98.6206 220.376 98.0978 221.557 97.0522 222.54C96.017 223.513 94.3555 224 92.0677 224H85.08V207.509ZM87.875 221.702H90.8099C92.5801 221.702 93.8431 221.484 94.5988 221.049C95.3545 220.615 95.7323 219.937 95.7323 219.015C95.7323 218.301 95.4528 217.664 94.8938 217.105C94.3348 216.546 93.0977 216.267 91.1825 216.267H87.875V221.702Z" fill="#FF0000"/>
<path d="M107.891 207.509H114.335C115.919 207.509 117.094 207.643 117.86 207.913C118.636 208.171 119.299 208.653 119.848 209.357C120.407 210.061 120.686 210.904 120.686 211.888C120.686 212.674 120.521 213.363 120.189 213.953C119.868 214.533 119.382 215.019 118.73 215.413C119.506 215.671 120.148 216.158 120.655 216.872C121.173 217.576 121.432 218.415 121.432 219.388C121.328 220.951 120.769 222.11 119.754 222.866C118.74 223.622 117.265 224 115.329 224H107.891V207.509ZM110.686 214.45H113.667C114.858 214.45 115.676 214.388 116.121 214.264C116.566 214.139 116.965 213.891 117.317 213.518C117.669 213.135 117.844 212.68 117.844 212.152C117.844 211.282 117.534 210.677 116.913 210.335C116.302 209.993 115.251 209.822 113.761 209.822H110.686V214.45ZM110.686 221.702H114.366C115.95 221.702 117.037 221.52 117.627 221.158C118.217 220.785 118.528 220.149 118.559 219.248C118.559 218.72 118.388 218.234 118.046 217.788C117.705 217.333 117.26 217.048 116.711 216.934C116.162 216.81 115.282 216.748 114.071 216.748H110.686V221.702Z" fill="#FF0000"/>
<path d="M135.158 221.966C134.123 222.845 133.124 223.467 132.162 223.829C131.209 224.191 130.184 224.372 129.087 224.372C127.275 224.372 125.883 223.932 124.91 223.053C123.937 222.162 123.45 221.029 123.45 219.652C123.45 218.844 123.631 218.109 123.994 217.447C124.366 216.774 124.848 216.236 125.438 215.832C126.038 215.428 126.711 215.123 127.456 214.916C128.005 214.771 128.833 214.631 129.941 214.496C132.198 214.227 133.859 213.906 134.926 213.534C134.936 213.151 134.941 212.907 134.941 212.804C134.941 211.665 134.677 210.863 134.149 210.397C133.435 209.766 132.374 209.45 130.966 209.45C129.651 209.45 128.678 209.683 128.047 210.149C127.425 210.604 126.965 211.417 126.665 212.587L123.932 212.214C124.18 211.044 124.589 210.102 125.158 209.388C125.728 208.663 126.551 208.109 127.627 207.726C128.704 207.333 129.951 207.136 131.37 207.136C132.777 207.136 133.921 207.302 134.801 207.633C135.681 207.964 136.328 208.384 136.742 208.891C137.156 209.388 137.446 210.019 137.612 210.785C137.705 211.261 137.752 212.121 137.752 213.363V217.09C137.752 219.688 137.809 221.334 137.922 222.028C138.047 222.711 138.285 223.368 138.637 224H135.717C135.428 223.42 135.241 222.742 135.158 221.966ZM134.926 215.723C133.911 216.137 132.389 216.489 130.36 216.779C129.211 216.945 128.399 217.131 127.922 217.338C127.446 217.545 127.079 217.851 126.82 218.254C126.561 218.648 126.432 219.088 126.432 219.574C126.432 220.32 126.711 220.941 127.27 221.438C127.84 221.934 128.668 222.183 129.755 222.183C130.831 222.183 131.789 221.95 132.627 221.484C133.466 221.008 134.082 220.361 134.475 219.543C134.775 218.912 134.926 217.98 134.926 216.748V215.723Z" fill="#FF0000"/>
<path d="M142.131 207.509H144.926V214.403H148.311C148.559 212.043 149.294 210.242 150.516 208.999C151.748 207.757 153.342 207.136 155.299 207.136C156.965 207.136 158.28 207.473 159.243 208.145C160.205 208.818 160.997 209.745 161.619 210.925C162.25 212.105 162.566 213.694 162.566 215.692C162.566 218.539 161.919 220.697 160.625 222.167C159.331 223.637 157.576 224.372 155.361 224.372C153.301 224.372 151.649 223.689 150.407 222.323C149.165 220.956 148.466 219.082 148.311 216.701H144.926V224H142.131V207.509ZM155.454 209.512C154.087 209.512 153.021 210.04 152.255 211.096C151.499 212.141 151.121 213.611 151.121 215.506C151.121 217.773 151.504 219.434 152.271 220.49C153.037 221.546 154.061 222.074 155.345 222.074C156.618 222.074 157.659 221.588 158.466 220.615C159.284 219.631 159.693 218.052 159.693 215.878C159.693 213.756 159.341 212.167 158.637 211.111C157.933 210.045 156.872 209.512 155.454 209.512Z" fill="#FF0000"/>
<path d="M166.044 207.509H168.839V221.702H175.206V207.509H178.001V221.702H184.383V207.509H187.162V221.702H189.01V228.674H186.697V224H166.044V207.509Z" fill="#FF0000"/>
<path d="M192.131 207.509H194.927V220.087L202.675 207.509H205.688V224H202.893V211.5L195.144 224H192.131V207.509Z" fill="#FF0000"/>
<path d="M208.032 224L214.057 215.428L208.483 207.509H211.977L214.508 211.375C214.984 212.11 215.367 212.726 215.657 213.223C216.112 212.54 216.531 211.934 216.915 211.406L219.694 207.509H223.033L217.334 215.273L223.467 224H220.036L216.651 218.875L215.75 217.493L211.418 224H208.032Z" fill="#FF0000"/>
<path d="M233.607 215.754C233.607 212.7 234.456 210.438 236.154 208.968C237.572 207.747 239.301 207.136 241.34 207.136C243.608 207.136 245.461 207.881 246.9 209.372C248.338 210.853 249.058 212.902 249.058 215.521C249.058 217.644 248.737 219.315 248.095 220.537C247.464 221.748 246.537 222.69 245.316 223.363C244.104 224.036 242.779 224.372 241.34 224.372C239.032 224.372 237.163 223.632 235.735 222.152C234.316 220.672 233.607 218.539 233.607 215.754ZM236.48 215.754C236.48 217.866 236.941 219.45 237.862 220.506C238.783 221.551 239.943 222.074 241.34 222.074C242.728 222.074 243.882 221.546 244.803 220.49C245.725 219.434 246.185 217.825 246.185 215.661C246.185 213.622 245.719 212.079 244.788 211.034C243.866 209.978 242.717 209.45 241.34 209.45C239.943 209.45 238.783 209.973 237.862 211.018C236.941 212.064 236.48 213.642 236.48 215.754Z" fill="#FF0000"/>
<path d="M263.111 217.959L265.859 218.316C265.559 220.211 264.788 221.696 263.546 222.773C262.314 223.839 260.797 224.372 258.996 224.372C256.739 224.372 254.922 223.637 253.546 222.167C252.179 220.687 251.496 218.57 251.496 215.816C251.496 214.036 251.791 212.478 252.381 211.142C252.971 209.807 253.867 208.808 255.067 208.145C256.279 207.473 257.593 207.136 259.012 207.136C260.802 207.136 262.267 207.592 263.406 208.503C264.545 209.403 265.275 210.687 265.595 212.354L262.878 212.773C262.619 211.665 262.159 210.832 261.496 210.273C260.844 209.714 260.052 209.434 259.12 209.434C257.712 209.434 256.568 209.942 255.688 210.956C254.809 211.96 254.369 213.554 254.369 215.739C254.369 217.954 254.793 219.564 255.642 220.568C256.491 221.572 257.598 222.074 258.965 222.074C260.062 222.074 260.978 221.738 261.713 221.065C262.448 220.392 262.914 219.357 263.111 217.959Z" fill="#FF0000"/>
<path d="M267.583 215.754C267.583 212.7 268.432 210.438 270.13 208.968C271.548 207.747 273.277 207.136 275.316 207.136C277.583 207.136 279.436 207.881 280.875 209.372C282.314 210.853 283.034 212.902 283.034 215.521C283.034 217.644 282.713 219.315 282.071 220.537C281.439 221.748 280.513 222.69 279.291 223.363C278.08 224.036 276.755 224.372 275.316 224.372C273.008 224.372 271.139 223.632 269.71 222.152C268.292 220.672 267.583 218.539 267.583 215.754ZM270.456 215.754C270.456 217.866 270.916 219.45 271.838 220.506C272.759 221.551 273.919 222.074 275.316 222.074C276.703 222.074 277.858 221.546 278.779 220.49C279.7 219.434 280.161 217.825 280.161 215.661C280.161 213.622 279.695 212.079 278.763 211.034C277.842 209.978 276.693 209.45 275.316 209.45C273.919 209.45 272.759 209.973 271.838 211.018C270.916 212.064 270.456 213.642 270.456 215.754Z" fill="#FF0000"/>
<path d="M298.407 200.692L300.876 200.723C300.762 201.831 300.513 202.602 300.13 203.037C299.758 203.471 299.271 203.751 298.671 203.875C298.08 203.999 296.916 204.062 295.177 204.062C292.868 204.062 291.295 204.284 290.456 204.729C289.618 205.174 289.012 205.889 288.639 206.872C288.277 207.845 288.075 209.103 288.034 210.645C288.738 209.6 289.561 208.818 290.503 208.301C291.445 207.773 292.506 207.509 293.686 207.509C295.85 207.509 297.641 208.254 299.059 209.745C300.477 211.225 301.186 213.234 301.186 215.77C301.186 217.695 300.829 219.274 300.115 220.506C299.4 221.738 298.552 222.69 297.568 223.363C296.595 224.036 295.265 224.372 293.577 224.372C291.621 224.372 290.099 223.927 289.012 223.037C287.925 222.136 287.092 220.987 286.512 219.59C285.932 218.192 285.642 215.759 285.642 212.291C285.642 207.933 286.377 204.998 287.847 203.487C289.328 201.976 291.6 201.22 294.664 201.22C296.569 201.22 297.651 201.189 297.91 201.127C298.169 201.065 298.334 200.92 298.407 200.692ZM298.267 215.692C298.267 213.974 297.858 212.566 297.04 211.468C296.233 210.371 295.089 209.822 293.608 209.822C292.066 209.822 290.875 210.402 290.037 211.562C289.198 212.721 288.779 214.269 288.779 216.205C288.779 218.12 289.24 219.585 290.161 220.599C291.093 221.614 292.237 222.121 293.593 222.121C294.98 222.121 296.103 221.536 296.962 220.366C297.832 219.186 298.267 217.628 298.267 215.692Z" fill="#FF0000"/>
<path d="M315.472 218.689L318.36 219.046C317.905 220.734 317.061 222.043 315.829 222.975C314.597 223.907 313.024 224.372 311.109 224.372C308.697 224.372 306.781 223.632 305.363 222.152C303.955 220.661 303.251 218.575 303.251 215.894C303.251 213.12 303.966 210.966 305.394 209.434C306.823 207.902 308.676 207.136 310.953 207.136C313.158 207.136 314.96 207.887 316.357 209.388C317.755 210.889 318.454 213.001 318.454 215.723C318.454 215.889 318.448 216.137 318.438 216.469H306.14C306.243 218.28 306.756 219.667 307.677 220.63C308.598 221.593 309.747 222.074 311.124 222.074C312.149 222.074 313.024 221.805 313.748 221.267C314.473 220.728 315.048 219.869 315.472 218.689ZM306.295 214.17H315.503C315.379 212.783 315.027 211.743 314.447 211.049C313.557 209.973 312.403 209.434 310.984 209.434C309.701 209.434 308.619 209.864 307.739 210.723C306.869 211.582 306.388 212.731 306.295 214.17Z" fill="#FF0000"/>
<path d="M321.901 207.509H324.696V214.372H332.444V207.509H335.24V224H332.444V216.686H324.696V224H321.901V207.509Z" fill="#FF0000"/>
<path d="M339.479 207.509H342.274V214.372H350.022V207.509H352.817V224H350.022V216.686H342.274V224H339.479V207.509Z" fill="#FF0000"/>
<path d="M356.001 215.754C356.001 212.7 356.85 210.438 358.547 208.968C359.966 207.747 361.694 207.136 363.734 207.136C366.001 207.136 367.854 207.881 369.293 209.372C370.732 210.853 371.451 212.902 371.451 215.521C371.451 217.644 371.13 219.315 370.489 220.537C369.857 221.748 368.931 222.69 367.709 223.363C366.498 224.036 365.173 224.372 363.734 224.372C361.425 224.372 359.557 223.632 358.128 222.152C356.71 220.672 356.001 218.539 356.001 215.754ZM358.873 215.754C358.873 217.866 359.334 219.45 360.255 220.506C361.177 221.551 362.336 222.074 363.734 222.074C365.121 222.074 366.275 221.546 367.197 220.49C368.118 219.434 368.579 217.825 368.579 215.661C368.579 213.622 368.113 212.079 367.181 211.034C366.26 209.978 365.111 209.45 363.734 209.45C362.336 209.45 361.177 209.973 360.255 211.018C359.334 212.064 358.873 213.642 358.873 215.754Z" fill="#FF0000"/>
<path d="M385.504 217.959L388.253 218.316C387.953 220.211 387.181 221.696 385.939 222.773C384.707 223.839 383.191 224.372 381.389 224.372C379.133 224.372 377.316 223.637 375.939 222.167C374.572 220.687 373.889 218.57 373.889 215.816C373.889 214.036 374.184 212.478 374.774 211.142C375.364 209.807 376.26 208.808 377.461 208.145C378.672 207.473 379.987 207.136 381.405 207.136C383.196 207.136 384.661 207.592 385.799 208.503C386.938 209.403 387.668 210.687 387.989 212.354L385.271 212.773C385.013 211.665 384.552 210.832 383.889 210.273C383.237 209.714 382.445 209.434 381.514 209.434C380.106 209.434 378.962 209.942 378.082 210.956C377.202 211.96 376.762 213.554 376.762 215.739C376.762 217.954 377.186 219.564 378.035 220.568C378.884 221.572 379.992 222.074 381.358 222.074C382.456 222.074 383.372 221.738 384.107 221.065C384.842 220.392 385.308 219.357 385.504 217.959Z" fill="#FF0000"/>
<path d="M389.138 207.509H402.539V209.822H397.228V224H394.449V209.822H389.138V207.509Z" fill="#FF0000"/>
<path d="M405.21 207.509H408.005V220.087L415.753 207.509H418.766V224H415.971V211.5L408.222 224H405.21V207.509Z" fill="#FF0000"/>
<path d="M0.140625 255L8.94512 243.136L1.18102 232.235H4.76803L8.89854 238.074C9.75777 239.285 10.3685 240.217 10.7309 240.869C11.2381 240.041 11.8385 239.176 12.5321 238.276L17.113 232.235H20.3894L12.3924 242.965L21.0105 255H17.2838L11.5539 246.878C11.2329 246.413 10.9017 245.905 10.5601 245.357C10.0528 246.185 9.69048 246.754 9.47308 247.065L3.7587 255H0.140625Z" fill="#FF0000"/>
<path d="M34.0698 252.966C33.0346 253.845 32.0356 254.467 31.0728 254.829C30.1204 255.191 29.0956 255.372 27.9982 255.372C26.1866 255.372 24.7943 254.932 23.8212 254.053C22.8481 253.162 22.3615 252.029 22.3615 250.652C22.3615 249.844 22.5427 249.109 22.905 248.447C23.2777 247.774 23.759 247.236 24.3491 246.832C24.9495 246.428 25.6224 246.123 26.3678 245.916C26.9164 245.771 27.7446 245.631 28.8523 245.496C31.1091 245.227 32.7706 244.906 33.8369 244.534C33.8472 244.151 33.8524 243.907 33.8524 243.804C33.8524 242.665 33.5884 241.863 33.0604 241.397C32.3461 240.766 31.2851 240.45 29.8772 240.45C28.5624 240.45 27.5893 240.683 26.9579 241.149C26.3367 241.604 25.8761 242.417 25.5758 243.587L22.8429 243.214C23.0913 242.044 23.5002 241.102 24.0696 240.388C24.639 239.663 25.462 239.109 26.5386 238.726C27.6152 238.333 28.8626 238.136 30.2809 238.136C31.6888 238.136 32.8327 238.302 33.7126 238.633C34.5926 238.964 35.2396 239.384 35.6537 239.891C36.0677 240.388 36.3576 241.019 36.5232 241.785C36.6164 242.261 36.663 243.121 36.663 244.363V248.09C36.663 250.688 36.7199 252.334 36.8338 253.028C36.958 253.711 37.1961 254.368 37.5481 255H34.6288C34.3389 254.42 34.1526 253.742 34.0698 252.966ZM33.8369 246.723C32.8223 247.137 31.3006 247.489 29.2716 247.779C28.1225 247.945 27.3098 248.131 26.8336 248.338C26.3574 248.545 25.9899 248.851 25.7311 249.254C25.4723 249.648 25.3429 250.088 25.3429 250.574C25.3429 251.32 25.6224 251.941 26.1814 252.438C26.7508 252.934 27.579 253.183 28.666 253.183C29.7426 253.183 30.7002 252.95 31.5387 252.484C32.3772 252.008 32.9932 251.361 33.3865 250.543C33.6867 249.912 33.8369 248.98 33.8369 247.748V246.723Z" fill="#FF0000"/>
<path d="M40.9954 238.509H43.7904V245.636C44.6807 245.636 45.3019 245.465 45.6538 245.124C46.0162 244.782 46.5441 243.788 47.2377 242.142C47.7864 240.838 48.2315 239.979 48.5731 239.565C48.9148 239.151 49.3081 238.871 49.7533 238.726C50.1984 238.581 50.9127 238.509 51.8962 238.509H52.4552V240.822L51.6788 240.807C50.9438 240.807 50.4728 240.916 50.2657 241.133C50.0483 241.361 49.717 242.039 49.2719 243.167C48.8475 244.244 48.4593 244.989 48.1073 245.403C47.7553 245.817 47.2118 246.195 46.4768 246.537C47.6777 246.858 48.8578 247.976 50.0173 249.891L53.0763 255H50.0017L47.0203 249.891C46.4095 248.866 45.8764 248.193 45.4209 247.872C44.9654 247.541 44.4219 247.375 43.7904 247.375V255H40.9954V238.509Z" fill="#FF0000"/>
<path d="M66.3995 252.966C65.3643 253.845 64.3653 254.467 63.4026 254.829C62.4502 255.191 61.4253 255.372 60.328 255.372C58.5164 255.372 57.124 254.932 56.1509 254.053C55.1778 253.162 54.6912 252.029 54.6912 250.652C54.6912 249.844 54.8724 249.109 55.2347 248.447C55.6074 247.774 56.0888 247.236 56.6789 246.832C57.2793 246.428 57.9522 246.123 58.6975 245.916C59.2462 245.771 60.0744 245.631 61.182 245.496C63.4388 245.227 65.1003 244.906 66.1666 244.534C66.177 244.151 66.1821 243.907 66.1821 243.804C66.1821 242.665 65.9181 241.863 65.3902 241.397C64.6759 240.766 63.6148 240.45 62.2069 240.45C60.8922 240.45 59.9191 240.683 59.2876 241.149C58.6665 241.604 58.2058 242.417 57.9056 243.587L55.1726 243.214C55.4211 242.044 55.83 241.102 56.3994 240.388C56.9687 239.663 57.7917 239.109 58.8683 238.726C59.945 238.333 61.1924 238.136 62.6106 238.136C64.0185 238.136 65.1624 238.302 66.0424 238.633C66.9223 238.964 67.5693 239.384 67.9834 239.891C68.3975 240.388 68.6873 241.019 68.853 241.785C68.9462 242.261 68.9927 243.121 68.9927 244.363V248.09C68.9927 250.688 69.0497 252.334 69.1635 253.028C69.2878 253.711 69.5259 254.368 69.8778 255H66.9585C66.6687 254.42 66.4823 253.742 66.3995 252.966ZM66.1666 246.723C65.1521 247.137 63.6303 247.489 61.6013 247.779C60.4522 247.945 59.6396 248.131 59.1634 248.338C58.6872 248.545 58.3197 248.851 58.0609 249.254C57.8021 249.648 57.6727 250.088 57.6727 250.574C57.6727 251.32 57.9522 251.941 58.5112 252.438C59.0806 252.934 59.9087 253.183 60.9957 253.183C62.0723 253.183 63.0299 252.95 63.8684 252.484C64.7069 252.008 65.3229 251.361 65.7163 250.543C66.0165 249.912 66.1666 248.98 66.1666 247.748V246.723Z" fill="#FF0000"/>
<path d="M84.1017 248.959L86.8502 249.316C86.55 251.211 85.7787 252.696 84.5365 253.773C83.3046 254.839 81.788 255.372 79.9867 255.372C77.7299 255.372 75.9131 254.637 74.5363 253.167C73.1698 251.687 72.4866 249.57 72.4866 246.816C72.4866 245.036 72.7816 243.478 73.3717 242.142C73.9618 240.807 74.8572 239.808 76.0581 239.145C77.2693 238.473 78.584 238.136 80.0022 238.136C81.7932 238.136 83.258 238.592 84.3967 239.503C85.5355 240.403 86.2653 241.687 86.5862 243.354L83.8688 243.773C83.61 242.665 83.1493 241.832 82.4868 241.273C81.8346 240.714 81.0426 240.434 80.1109 240.434C78.703 240.434 77.5591 240.942 76.6792 241.956C75.7993 242.96 75.3593 244.554 75.3593 246.739C75.3593 248.954 75.7837 250.564 76.6326 251.568C77.4815 252.572 78.5892 253.074 79.9557 253.074C81.053 253.074 81.9691 252.738 82.7041 252.065C83.4391 251.392 83.905 250.357 84.1017 248.959Z" fill="#FF0000"/>
<path d="M89.2415 238.509H92.0366V251.087L99.7852 238.509H102.798V255H100.003V242.5L92.254 255H89.2415V238.509Z" fill="#FF0000"/>
<path d="M107.006 238.509H109.801V251.087L117.549 238.509H120.562V255H117.767V242.5L110.018 255H107.006V238.509Z" fill="#FF0000"/>
<path d="M132.581 246.754C132.581 243.7 133.43 241.438 135.127 239.968C136.546 238.747 138.274 238.136 140.314 238.136C142.581 238.136 144.434 238.881 145.873 240.372C147.312 241.853 148.031 243.902 148.031 246.521C148.031 248.644 147.71 250.315 147.069 251.537C146.437 252.748 145.511 253.69 144.289 254.363C143.078 255.036 141.753 255.372 140.314 255.372C138.005 255.372 136.137 254.632 134.708 253.152C133.29 251.672 132.581 249.539 132.581 246.754ZM135.453 246.754C135.453 248.866 135.914 250.45 136.836 251.506C137.757 252.551 138.916 253.074 140.314 253.074C141.701 253.074 142.855 252.546 143.777 251.49C144.698 250.434 145.159 248.825 145.159 246.661C145.159 244.622 144.693 243.079 143.761 242.034C142.84 240.978 141.691 240.45 140.314 240.45C138.916 240.45 137.757 240.973 136.836 242.018C135.914 243.064 135.453 244.642 135.453 246.754Z" fill="#FF0000"/>
<path d="M149.103 238.509H162.504V240.822H157.193V255H154.413V240.822H149.103V238.509Z" fill="#FF0000"/>
<path d="M174.476 255V232.235H177.488V241.583H189.321V232.235H192.333V255H189.321V244.27H177.488V255H174.476Z" fill="#FF0000"/>
<path d="M207.768 252.966C206.733 253.845 205.734 254.467 204.771 254.829C203.819 255.191 202.794 255.372 201.697 255.372C199.885 255.372 198.493 254.932 197.52 254.053C196.547 253.162 196.06 252.029 196.06 250.652C196.06 249.844 196.241 249.109 196.604 248.447C196.976 247.774 197.458 247.236 198.048 246.832C198.648 246.428 199.321 246.123 200.066 245.916C200.615 245.771 201.443 245.631 202.551 245.496C204.808 245.227 206.469 244.906 207.535 244.534C207.546 244.151 207.551 243.907 207.551 243.804C207.551 242.665 207.287 241.863 206.759 241.397C206.045 240.766 204.984 240.45 203.576 240.45C202.261 240.45 201.288 240.683 200.656 241.149C200.035 241.604 199.575 242.417 199.274 243.587L196.542 243.214C196.79 242.044 197.199 241.102 197.768 240.388C198.338 239.663 199.161 239.109 200.237 238.726C201.314 238.333 202.561 238.136 203.98 238.136C205.387 238.136 206.531 238.302 207.411 238.633C208.291 238.964 208.938 239.384 209.352 239.891C209.766 240.388 210.056 241.019 210.222 241.785C210.315 242.261 210.362 243.121 210.362 244.363V248.09C210.362 250.688 210.419 252.334 210.532 253.028C210.657 253.711 210.895 254.368 211.247 255H208.327C208.038 254.42 207.851 253.742 207.768 252.966ZM207.535 246.723C206.521 247.137 204.999 247.489 202.97 247.779C201.821 247.945 201.008 248.131 200.532 248.338C200.056 248.545 199.689 248.851 199.43 249.254C199.171 249.648 199.042 250.088 199.042 250.574C199.042 251.32 199.321 251.941 199.88 252.438C200.449 252.934 201.278 253.183 202.365 253.183C203.441 253.183 204.399 252.95 205.237 252.484C206.076 252.008 206.692 251.361 207.085 250.543C207.385 249.912 207.535 248.98 207.535 247.748V246.723Z" fill="#FF0000"/>
<path d="M216.915 238.509H228.405V252.702H230.191V259.674H227.893V255H214.911V259.674H212.613V252.702H214.088C216.055 250.031 216.997 245.3 216.915 238.509ZM219.244 240.822C219.037 246.175 218.209 250.134 216.759 252.702H225.626V240.822H219.244Z" fill="#FF0000"/>
<path d="M246.263 238.509V255H243.483V248.571H241.868C240.885 248.571 240.15 248.7 239.663 248.959C239.187 249.208 238.488 250.02 237.567 251.397L235.129 255H231.666L234.679 250.559C235.6 249.203 236.516 248.436 237.427 248.26C235.833 248.043 234.648 247.469 233.871 246.537C233.105 245.605 232.722 244.534 232.722 243.323C232.722 241.894 233.224 240.734 234.228 239.844C235.243 238.954 236.708 238.509 238.623 238.509H246.263ZM243.483 240.822H239.508C237.841 240.822 236.765 241.081 236.278 241.599C235.802 242.116 235.564 242.722 235.564 243.416C235.564 244.399 235.916 245.124 236.62 245.59C237.334 246.045 238.592 246.273 240.393 246.273H243.483V240.822Z" fill="#FF0000"/>
<path d="M259.819 255V232.235H262.831V241.583H274.664V232.235H277.676V255H274.664V244.27H262.831V255H259.819Z" fill="#FF0000"/>
<path d="M293.111 252.966C292.076 253.845 291.077 254.467 290.115 254.829C289.162 255.191 288.137 255.372 287.04 255.372C285.228 255.372 283.836 254.932 282.863 254.053C281.89 253.162 281.403 252.029 281.403 250.652C281.403 249.844 281.584 249.109 281.947 248.447C282.319 247.774 282.801 247.236 283.391 246.832C283.991 246.428 284.664 246.123 285.409 245.916C285.958 245.771 286.786 245.631 287.894 245.496C290.151 245.227 291.812 244.906 292.879 244.534C292.889 244.151 292.894 243.907 292.894 243.804C292.894 242.665 292.63 241.863 292.102 241.397C291.388 240.766 290.327 240.45 288.919 240.45C287.604 240.45 286.631 240.683 286 241.149C285.378 241.604 284.918 242.417 284.618 243.587L281.885 243.214C282.133 242.044 282.542 241.102 283.111 240.388C283.681 239.663 284.504 239.109 285.58 238.726C286.657 238.333 287.904 238.136 289.323 238.136C290.73 238.136 291.874 238.302 292.754 238.633C293.634 238.964 294.281 239.384 294.695 239.891C295.109 240.388 295.399 241.019 295.565 241.785C295.658 242.261 295.705 243.121 295.705 244.363V248.09C295.705 250.688 295.762 252.334 295.875 253.028C296 253.711 296.238 254.368 296.59 255H293.67C293.381 254.42 293.194 253.742 293.111 252.966ZM292.879 246.723C291.864 247.137 290.342 247.489 288.313 247.779C287.164 247.945 286.352 248.131 285.875 248.338C285.399 248.545 285.032 248.851 284.773 249.254C284.514 249.648 284.385 250.088 284.385 250.574C284.385 251.32 284.664 251.941 285.223 252.438C285.793 252.934 286.621 253.183 287.708 253.183C288.784 253.183 289.742 252.95 290.58 252.484C291.419 252.008 292.035 251.361 292.428 250.543C292.728 249.912 292.879 248.98 292.879 247.748V246.723Z" fill="#FF0000"/>
<path d="M300.053 238.509H302.848V251.087L310.596 238.509H313.609V255H310.814V242.5L303.065 255H300.053V238.509ZM309.758 232.266H311.668C311.512 233.56 311.036 234.554 310.239 235.248C309.452 235.941 308.402 236.288 307.087 236.288C305.762 236.288 304.701 235.947 303.904 235.263C303.117 234.57 302.646 233.571 302.491 232.266H304.4C304.545 232.97 304.83 233.498 305.255 233.85C305.689 234.192 306.269 234.363 306.994 234.363C307.832 234.363 308.464 234.197 308.888 233.866C309.323 233.524 309.613 232.991 309.758 232.266Z" fill="#FF0000"/>
<path d="M320.022 238.509H331.513V252.702H333.298V259.674H331V255H318.019V259.674H315.721V252.702H317.196C319.163 250.031 320.105 245.3 320.022 238.509ZM322.351 240.822C322.144 246.175 321.316 250.134 319.867 252.702H328.733V240.822H322.351Z" fill="#FF0000"/>
<path d="M347.678 249.689L350.566 250.046C350.11 251.734 349.267 253.043 348.035 253.975C346.803 254.907 345.229 255.372 343.314 255.372C340.902 255.372 338.987 254.632 337.569 253.152C336.161 251.661 335.457 249.575 335.457 246.894C335.457 244.12 336.171 241.966 337.6 240.434C339.028 238.902 340.881 238.136 343.159 238.136C345.364 238.136 347.165 238.887 348.563 240.388C349.96 241.889 350.659 244.001 350.659 246.723C350.659 246.889 350.654 247.137 350.644 247.469H338.345C338.449 249.28 338.961 250.667 339.882 251.63C340.804 252.593 341.953 253.074 343.33 253.074C344.355 253.074 345.229 252.805 345.954 252.267C346.679 251.728 347.253 250.869 347.678 249.689ZM338.5 245.17H347.709C347.584 243.783 347.232 242.743 346.653 242.049C345.762 240.973 344.608 240.434 343.19 240.434C341.906 240.434 340.825 240.864 339.945 241.723C339.075 242.582 338.594 243.731 338.5 245.17Z" fill="#FF0000"/>
<path d="M354.106 238.509H356.901V245.372H364.65V238.509H367.445V255H364.65V247.686H356.901V255H354.106V238.509Z" fill="#FF0000"/>
<path d="M371.653 238.509H374.448V245.636C375.339 245.636 375.96 245.465 376.312 245.124C376.674 244.782 377.202 243.788 377.896 242.142C378.444 240.838 378.889 239.979 379.231 239.565C379.573 239.151 379.966 238.871 380.411 238.726C380.856 238.581 381.571 238.509 382.554 238.509H383.113V240.822L382.337 240.807C381.602 240.807 381.131 240.916 380.924 241.133C380.706 241.361 380.375 242.039 379.93 243.167C379.505 244.244 379.117 244.989 378.765 245.403C378.413 245.817 377.87 246.195 377.135 246.537C378.335 246.858 379.516 247.976 380.675 249.891L383.734 255H380.66L377.678 249.891C377.067 248.866 376.534 248.193 376.079 247.872C375.623 247.541 375.08 247.375 374.448 247.375V255H371.653V238.509Z" fill="#FF0000"/>
<path d="M385.582 238.509H388.377V251.087L396.126 238.509H399.138V255H396.343V242.5L388.594 255H385.582V238.509Z" fill="#FF0000"/>
<path d="M403.362 238.509H406.157V245.372H413.905V238.509H416.701V255H413.905V247.686H406.157V255H403.362V238.509Z" fill="#FF0000"/>
<path d="M419.884 246.754C419.884 243.7 420.733 241.438 422.43 239.968C423.849 238.747 425.578 238.136 427.617 238.136C429.884 238.136 431.737 238.881 433.176 240.372C434.615 241.853 435.334 243.902 435.334 246.521C435.334 248.644 435.013 250.315 434.372 251.537C433.74 252.748 432.814 253.69 431.592 254.363C430.381 255.036 429.056 255.372 427.617 255.372C425.308 255.372 423.44 254.632 422.011 253.152C420.593 251.672 419.884 249.539 419.884 246.754ZM422.757 246.754C422.757 248.866 423.217 250.45 424.139 251.506C425.06 252.551 426.219 253.074 427.617 253.074C429.004 253.074 430.158 252.546 431.08 251.49C432.001 250.434 432.462 248.825 432.462 246.661C432.462 244.622 431.996 243.079 431.064 242.034C430.143 240.978 428.994 240.45 427.617 240.45C426.219 240.45 425.06 240.973 424.139 242.018C423.217 243.064 422.757 244.642 422.757 246.754Z" fill="#FF0000"/>
<path d="M438.626 238.509H441.421V251.087L449.17 238.509H452.183V255H449.387V242.5L441.639 255H438.626V238.509ZM448.332 232.266H450.241C450.086 233.56 449.61 234.554 448.813 235.248C448.026 235.941 446.975 236.288 445.661 236.288C444.336 236.288 443.275 235.947 442.477 235.263C441.691 234.57 441.22 233.571 441.064 232.266H442.974C443.119 232.97 443.404 233.498 443.828 233.85C444.263 234.192 444.843 234.363 445.568 234.363C446.406 234.363 447.038 234.197 447.462 233.866C447.897 233.524 448.187 232.991 448.332 232.266Z" fill="#FF0000"/>
</svg>
