<svg width="441" height="200" viewBox="0 0 441 200" fill="none" xmlns="http://www.w3.org/2000/svg">
<path d="M13.603 47V6.844H1.30469V1.47124H30.9015V6.844H18.541V47H13.603Z" fill="#FF0000"/>
<path d="M31.8021 47L46.1502 1.47124H51.4608L66.7406 47H61.0883L56.7404 33.2109H41.1501L37.0506 47H31.8021ZM42.5787 28.304H55.2187L51.3366 15.6951C50.1358 11.8234 49.2558 8.67633 48.6968 6.25393C48.2206 9.17323 47.5477 12.0718 46.6781 14.9497L42.5787 28.304Z" fill="#FF0000"/>
<path d="M80.2501 47V6.844H67.9518V1.47124H97.5486V6.844H85.1881V47H80.2501Z" fill="#FF0000"/>
<path d="M98.4492 47L112.797 1.47124H118.108L133.388 47H127.735L123.388 33.2109H107.797L103.698 47H98.4492ZM109.226 28.304H121.866L117.984 15.6951C116.783 11.8234 115.903 8.67633 115.344 6.25393C114.868 9.17323 114.195 12.0718 113.325 14.9497L109.226 28.304Z" fill="#FF0000"/>
<path d="M137.332 47V1.47124H151.4C154.713 1.47124 157.156 1.7611 158.73 2.34082C160.883 3.12758 162.601 4.58723 163.885 6.71977C165.169 8.85231 165.811 11.4714 165.811 14.577C165.811 18.6765 164.765 22.0202 162.674 24.6083C160.583 27.1963 156.97 28.4903 151.835 28.4903H142.27V47H137.332ZM142.27 23.1176H151.928C154.972 23.1176 157.198 22.4343 158.606 21.0678C160.013 19.6807 160.717 17.5999 160.717 14.8255C160.717 13.0242 160.365 11.4818 159.661 10.1981C158.978 8.91443 158.14 8.03449 157.146 7.5583C156.173 7.0821 154.403 6.844 151.835 6.844H142.27V23.1176Z" fill="#FF0000"/>
<path d="M198.606 31.037L203.575 32.5587C202.478 37.6727 200.552 41.4926 197.799 44.0185C195.066 46.5238 191.732 47.7764 187.799 47.7764C184.341 47.7764 181.38 46.9379 178.916 45.2608C176.473 43.5631 174.465 40.8508 172.891 37.124C171.339 33.3972 170.562 28.9976 170.562 23.925C170.562 18.9146 171.339 14.6806 172.891 11.223C174.465 7.74463 176.587 5.12554 179.258 3.36568C181.929 1.58511 184.91 0.694824 188.202 0.694824C191.805 0.694824 194.9 1.82321 197.488 4.07998C200.076 6.31604 201.888 9.60802 202.923 13.9559L198.078 15.3535C196.422 9.01795 193.099 5.85019 188.109 5.85019C185.625 5.85019 183.471 6.49202 181.649 7.77569C179.827 9.03865 178.368 11.0159 177.27 13.7075C176.194 16.399 175.655 19.8049 175.655 23.925C175.655 30.157 176.753 34.8362 178.947 37.9625C181.142 41.0682 184.061 42.621 187.705 42.621C190.397 42.621 192.716 41.6686 194.662 39.7638C196.629 37.8383 197.944 34.9294 198.606 31.037Z" fill="#FF0000"/>
<path d="M219.321 47V6.844H207.022V1.47124H236.619V6.844H224.259V47H219.321Z" fill="#FF0000"/>
<path d="M237.52 47L251.868 1.47124H257.179L272.458 47H266.806L262.458 33.2109H246.868L242.768 47H237.52ZM248.296 28.304H260.936L257.054 15.6951C255.854 11.8234 254.974 8.67633 254.415 6.25393C253.938 9.17323 253.266 12.0718 252.396 14.9497L248.296 28.304Z" fill="#FF0000"/>
<path d="M276.371 47V1.47124H281.309V20.1672H300.72V1.47124H305.658V47H300.72V25.54H281.309V47H276.371Z" fill="#FF0000"/>
<path d="M2.36029 99.9997V77.2354H6.89453L12.2828 93.3537C12.7797 94.8547 13.142 95.9779 13.3698 96.7233C13.6286 95.8951 14.0323 94.6787 14.581 93.0742L20.0314 77.2354H24.0843V99.9997H21.1805V80.9466L14.5655 99.9997H11.848L5.26407 80.6205V99.9997H2.36029Z" fill="#FF0000"/>
<path d="M39.7212 97.9655C38.686 98.8455 37.687 99.4666 36.7242 99.8289C35.7718 100.191 34.747 100.372 33.6496 100.372C31.838 100.372 30.4457 99.9324 29.4726 99.0525C28.4995 98.1622 28.0129 97.0287 28.0129 95.6518C28.0129 94.8444 28.1941 94.1094 28.5564 93.4468C28.9291 92.7739 29.4104 92.2356 30.0005 91.8319C30.6009 91.4282 31.2738 91.1228 32.0192 90.9157C32.5678 90.7708 33.396 90.631 34.5037 90.4965C36.7605 90.2273 38.422 89.9064 39.4883 89.5337C39.4986 89.1507 39.5038 88.9074 39.5038 88.8039C39.5038 87.6652 39.2398 86.8629 38.7118 86.397C37.9975 85.7655 36.9364 85.4498 35.5286 85.4498C34.2138 85.4498 33.2407 85.6827 32.6093 86.1486C31.9881 86.6041 31.5275 87.4167 31.2272 88.5865L28.4943 88.2138C28.7427 87.044 29.1516 86.102 29.721 85.3877C30.2904 84.663 31.1134 84.1092 32.19 83.7262C33.2666 83.3328 34.514 83.1361 35.9323 83.1361C37.3402 83.1361 38.4841 83.3017 39.364 83.633C40.244 83.9643 40.891 84.3835 41.3051 84.8908C41.7191 85.3877 42.009 86.0192 42.1746 86.7852C42.2678 87.2614 42.3144 88.1207 42.3144 89.3629V93.0897C42.3144 95.6881 42.3713 97.3341 42.4852 98.0277C42.6094 98.7109 42.8475 99.3683 43.1995 99.9997H40.2802C39.9903 99.42 39.804 98.742 39.7212 97.9655ZM39.4883 91.7232C38.4737 92.1373 36.952 92.4893 34.923 92.7791C33.7739 92.9448 32.9612 93.1311 32.485 93.3381C32.0088 93.5452 31.6413 93.8506 31.3825 94.2543C31.1237 94.6477 30.9943 95.0876 30.9943 95.5742C30.9943 96.3195 31.2738 96.9407 31.8328 97.4376C32.4022 97.9345 33.2304 98.1829 34.3174 98.1829C35.394 98.1829 36.3516 97.95 37.1901 97.4842C38.0286 97.008 38.6446 96.361 39.0379 95.5431C39.3381 94.9117 39.4883 93.98 39.4883 92.7481V91.7232Z" fill="#FF0000"/>
<path d="M57.4233 93.9593L60.1718 94.3164C59.8716 96.2109 59.1004 97.6964 57.8581 98.773C56.6262 99.8393 55.1096 100.372 53.3084 100.372C51.0516 100.372 49.2348 99.6374 47.858 98.1674C46.4915 96.6871 45.8082 94.57 45.8082 91.8164C45.8082 90.0358 46.1033 88.4778 46.6933 87.1424C47.2834 85.8069 48.1789 84.808 49.3797 84.1454C50.5909 83.4725 51.9057 83.1361 53.3239 83.1361C55.1148 83.1361 56.5796 83.5916 57.7184 84.5026C58.8571 85.4032 59.5869 86.6869 59.9079 88.3536L57.1904 88.7728C56.9316 87.6652 56.4709 86.8318 55.8084 86.2728C55.1562 85.7138 54.3643 85.4343 53.4326 85.4343C52.0247 85.4343 50.8808 85.9415 50.0009 86.956C49.1209 87.9602 48.681 89.5544 48.681 91.7387C48.681 93.9541 49.1054 95.5638 49.9543 96.568C50.8031 97.5722 51.9108 98.0742 53.2773 98.0742C54.3746 98.0742 55.2908 97.7378 56.0258 97.0649C56.7608 96.392 57.2267 95.3568 57.4233 93.9593Z" fill="#FF0000"/>
<path d="M62.5477 83.5088H65.3427V90.6362C66.233 90.6362 66.8541 90.4654 67.2061 90.1238C67.5684 89.7822 68.0964 88.7884 68.79 87.1424C69.3387 85.838 69.7838 84.9788 70.1254 84.5647C70.467 84.1506 70.8604 83.8711 71.3056 83.7262C71.7507 83.5812 72.465 83.5088 73.4485 83.5088H74.0075V85.8225L73.2311 85.8069C72.4961 85.8069 72.025 85.9156 71.818 86.133C71.6006 86.3608 71.2693 87.0389 70.8242 88.1672C70.3998 89.2439 70.0116 89.9892 69.6596 90.4033C69.3076 90.8174 68.7641 91.1952 68.0291 91.5369C69.23 91.8578 70.4101 92.9758 71.5695 94.891L74.6286 99.9997H71.554L68.5726 94.891C67.9618 93.8661 67.4287 93.1932 66.9732 92.8723C66.5177 92.541 65.9742 92.3754 65.3427 92.3754V99.9997H62.5477V83.5088Z" fill="#FF0000"/>
<path d="M76.4765 83.5088H79.2715V96.0866L87.0201 83.5088H90.0326V99.9997H87.2375V87.4995L79.4889 99.9997H76.4765V83.5088Z" fill="#FF0000"/>
<path d="M103.107 83.5088H116.12V99.9997H113.325V85.8225H105.902V99.9997H103.107V83.5088Z" fill="#FF0000"/>
<path d="M120.328 106.32V83.5088H122.875V85.6517C123.475 84.8131 124.153 84.1868 124.909 83.7728C125.665 83.3483 126.581 83.1361 127.657 83.1361C129.065 83.1361 130.308 83.4984 131.384 84.2231C132.461 84.9477 133.273 85.9726 133.822 87.2977C134.371 88.6124 134.645 90.0565 134.645 91.63C134.645 93.3174 134.34 94.8392 133.729 96.1953C133.129 97.5411 132.249 98.5763 131.089 99.301C129.94 100.015 128.729 100.372 127.456 100.372C126.524 100.372 125.685 100.176 124.94 99.7823C124.205 99.389 123.599 98.8921 123.123 98.2916V106.32H120.328ZM122.859 91.8474C122.859 93.9696 123.289 95.538 124.148 96.5525C125.007 97.567 126.048 98.0742 127.269 98.0742C128.512 98.0742 129.573 97.5515 130.453 96.5059C131.343 95.45 131.788 93.8195 131.788 91.6145C131.788 89.513 131.353 87.9395 130.484 86.8939C129.624 85.8484 128.594 85.3256 127.393 85.3256C126.203 85.3256 125.147 85.8846 124.226 87.0026C123.315 88.1103 122.859 89.7252 122.859 91.8474Z" fill="#FF0000"/>
<path d="M136.99 91.7543C136.99 88.7004 137.839 86.4384 139.537 84.9684C140.955 83.7469 142.684 83.1361 144.723 83.1361C146.99 83.1361 148.843 83.8815 150.282 85.3722C151.721 86.8525 152.441 88.9022 152.441 91.5213C152.441 93.6435 152.12 95.3154 151.478 96.5369C150.846 97.7481 149.92 98.6902 148.698 99.3631C147.487 100.036 146.162 100.372 144.723 100.372C142.414 100.372 140.546 99.6322 139.117 98.1519C137.699 96.6715 136.99 94.539 136.99 91.7543ZM139.863 91.7543C139.863 93.8661 140.323 95.45 141.245 96.5059C142.166 97.5515 143.325 98.0742 144.723 98.0742C146.11 98.0742 147.264 97.5463 148.186 96.4904C149.107 95.4344 149.568 93.8247 149.568 91.6611C149.568 89.6217 149.102 88.0792 148.17 87.0337C147.249 85.9778 146.1 85.4498 144.723 85.4498C143.325 85.4498 142.166 85.9726 141.245 87.0181C140.323 88.0637 139.863 89.6424 139.863 91.7543Z" fill="#FF0000"/>
<path d="M164.599 83.5088H171.043C172.627 83.5088 173.802 83.6434 174.568 83.9125C175.345 84.1713 176.007 84.6527 176.556 85.3566C177.115 86.0606 177.394 86.9043 177.394 87.8877C177.394 88.6745 177.229 89.3629 176.897 89.953C176.577 90.5327 176.09 91.0193 175.438 91.4126C176.214 91.6714 176.856 92.158 177.363 92.8723C177.881 93.5762 178.14 94.4148 178.14 95.3879C178.036 96.951 177.477 98.1105 176.463 98.8662C175.448 99.6219 173.973 99.9997 172.037 99.9997H164.599V83.5088ZM167.394 90.4499H170.376C171.566 90.4499 172.384 90.3878 172.829 90.2635C173.274 90.1393 173.673 89.8909 174.025 89.5182C174.377 89.1352 174.553 88.6797 174.553 88.1517C174.553 87.2821 174.242 86.6765 173.621 86.3349C173.01 85.9933 171.959 85.8225 170.469 85.8225H167.394V90.4499ZM167.394 97.7016H171.074C172.658 97.7016 173.745 97.5204 174.335 97.1581C174.925 96.7854 175.236 96.1487 175.267 95.2481C175.267 94.7201 175.096 94.2336 174.755 93.7885C174.413 93.333 173.968 93.0483 173.419 92.9344C172.87 92.8102 171.991 92.7481 170.779 92.7481H167.394V97.7016Z" fill="#FF0000"/>
<path d="M180.065 91.7543C180.065 88.7004 180.914 86.4384 182.612 84.9684C184.03 83.7469 185.759 83.1361 187.798 83.1361C190.065 83.1361 191.918 83.8815 193.357 85.3722C194.796 86.8525 195.516 88.9022 195.516 91.5213C195.516 93.6435 195.195 95.3154 194.553 96.5369C193.922 97.7481 192.995 98.6902 191.773 99.3631C190.562 100.036 189.237 100.372 187.798 100.372C185.49 100.372 183.621 99.6322 182.193 98.1519C180.774 96.6715 180.065 94.539 180.065 91.7543ZM182.938 91.7543C182.938 93.8661 183.399 95.45 184.32 96.5059C185.241 97.5515 186.401 98.0742 187.798 98.0742C189.185 98.0742 190.34 97.5463 191.261 96.4904C192.182 95.4344 192.643 93.8247 192.643 91.6611C192.643 89.6217 192.177 88.0792 191.246 87.0337C190.324 85.9778 189.175 85.4498 187.798 85.4498C186.401 85.4498 185.241 85.9726 184.32 87.0181C183.399 88.0637 182.938 89.6424 182.938 91.7543Z" fill="#FF0000"/>
<path d="M200.298 83.5088H211.789V97.7016H213.575V104.674H211.277V99.9997H198.295V104.674H195.997V97.7016H197.472C199.439 95.0307 200.381 90.2998 200.298 83.5088ZM202.628 85.8225C202.421 91.1745 201.592 95.1342 200.143 97.7016H209.01V85.8225H202.628Z" fill="#FF0000"/>
<path d="M229.647 83.5088V99.9997H226.867V93.5711H225.252C224.269 93.5711 223.534 93.7005 223.047 93.9593C222.571 94.2077 221.872 95.0204 220.951 96.3972L218.513 99.9997H215.05L218.063 95.5587C218.984 94.2025 219.9 93.4365 220.811 93.2605C219.217 93.0431 218.032 92.4686 217.255 91.5369C216.489 90.6052 216.106 89.5337 216.106 88.3225C216.106 86.8939 216.608 85.7345 217.612 84.8442C218.627 83.9539 220.092 83.5088 222.007 83.5088H229.647ZM226.867 85.8225H222.892C221.225 85.8225 220.149 86.0813 219.662 86.5989C219.186 87.1165 218.948 87.7221 218.948 88.4157C218.948 89.3991 219.3 90.1238 220.004 90.5896C220.718 91.0451 221.976 91.2729 223.777 91.2729H226.867V85.8225Z" fill="#FF0000"/>
<path d="M233.917 83.5088H236.712V90.3722H244.461V83.5088H247.256V99.9997H244.461V92.6859H236.712V99.9997H233.917V83.5088Z" fill="#FF0000"/>
<path d="M251.355 106.351L251.045 103.727C251.655 103.892 252.189 103.975 252.644 103.975C253.265 103.975 253.762 103.871 254.135 103.664C254.507 103.457 254.813 103.167 255.051 102.795C255.227 102.515 255.512 101.822 255.905 100.714C255.957 100.559 256.04 100.331 256.153 100.031L249.896 83.5088H252.908L256.34 93.0586C256.785 94.2698 257.184 95.5431 257.535 96.8786C257.856 95.5949 258.239 94.3423 258.685 93.1207L262.209 83.5088H265.005L258.731 100.279C258.058 102.091 257.535 103.338 257.163 104.022C256.666 104.943 256.097 105.616 255.455 106.04C254.813 106.475 254.047 106.692 253.157 106.692C252.618 106.692 252.018 106.579 251.355 106.351Z" fill="#FF0000"/>
<path d="M267.411 83.5088H270.206V90.4033H273.592C273.84 88.043 274.575 86.2417 275.797 84.9995C277.029 83.7572 278.623 83.1361 280.579 83.1361C282.246 83.1361 283.561 83.4725 284.523 84.1454C285.486 84.8183 286.278 85.7448 286.899 86.925C287.531 88.1051 287.847 89.6942 287.847 91.6921C287.847 94.539 287.199 96.6974 285.905 98.1674C284.611 99.6374 282.857 100.372 280.641 100.372C278.581 100.372 276.93 99.6892 275.688 98.3227C274.446 96.9562 273.747 95.0825 273.592 92.7015H270.206V99.9997H267.411V83.5088ZM280.735 85.5119C279.368 85.5119 278.302 86.0399 277.536 87.0958C276.78 88.1414 276.402 89.6114 276.402 91.5058C276.402 93.7729 276.785 95.4344 277.551 96.4904C278.317 97.5463 279.342 98.0742 280.626 98.0742C281.899 98.0742 282.94 97.5877 283.747 96.6146C284.565 95.6311 284.974 94.0524 284.974 91.8785C284.974 89.7563 284.622 88.1672 283.918 87.1113C283.214 86.045 282.153 85.5119 280.735 85.5119Z" fill="#FF0000"/>
<path d="M316.682 92.0182L319.695 92.7791C319.063 95.2533 317.925 97.1425 316.279 98.4469C314.643 99.7409 312.64 100.388 310.269 100.388C307.816 100.388 305.818 99.891 304.275 98.8972C302.743 97.8931 301.573 96.4438 300.766 94.5493C299.969 92.6549 299.57 90.6207 299.57 88.4467C299.57 86.0761 300.021 84.0109 300.921 82.251C301.832 80.4808 303.121 79.1402 304.788 78.2292C306.465 77.3078 308.308 76.8472 310.316 76.8472C312.593 76.8472 314.508 77.4269 316.061 78.5863C317.614 79.7458 318.696 81.3762 319.307 83.4777L316.341 84.1765C315.813 82.5201 315.047 81.3141 314.043 80.5584C313.038 79.8027 311.776 79.4249 310.254 79.4249C308.504 79.4249 307.039 79.8441 305.859 80.6826C304.689 81.5212 303.866 82.6495 303.39 84.0678C302.914 85.4757 302.676 86.9302 302.676 88.4312C302.676 90.3671 302.955 92.0596 303.514 93.5089C304.084 94.9479 304.964 96.0245 306.154 96.7388C307.345 97.4531 308.634 97.8103 310.021 97.8103C311.708 97.8103 313.137 97.3237 314.307 96.3506C315.476 95.3775 316.268 93.9334 316.682 92.0182Z" fill="#FF0000"/>
<path d="M322.94 106.351L322.63 103.727C323.241 103.892 323.774 103.975 324.229 103.975C324.85 103.975 325.347 103.871 325.72 103.664C326.093 103.457 326.398 103.167 326.636 102.795C326.812 102.515 327.097 101.822 327.49 100.714C327.542 100.559 327.625 100.331 327.739 100.031L321.481 83.5088H324.493L327.925 93.0586C328.37 94.2698 328.769 95.5431 329.121 96.8786C329.441 95.5949 329.824 94.3423 330.27 93.1207L333.795 83.5088H336.59L330.316 100.279C329.643 102.091 329.121 103.338 328.748 104.022C328.251 104.943 327.682 105.616 327.04 106.04C326.398 106.475 325.632 106.692 324.742 106.692C324.203 106.692 323.603 106.579 322.94 106.351Z" fill="#FF0000"/>
<path d="M337.878 93.1673V90.3567H346.466V93.1673H337.878Z" fill="#FF0000"/>
<path d="M347.413 99.9997L356.155 77.2354H359.401L368.717 99.9997H365.286L362.63 93.1052H353.112L350.612 99.9997H347.413ZM353.981 90.6518H361.699L359.323 84.3473C358.598 82.4321 358.06 80.8586 357.708 79.6267C357.418 81.0864 357.009 82.5357 356.481 83.9746L353.981 90.6518Z" fill="#FF0000"/>
<path d="M370.783 83.5088H373.578V90.3722H381.326V83.5088H384.121V99.9997H381.326V92.6859H373.578V99.9997H370.783V83.5088Z" fill="#FF0000"/>
<path d="M399.106 97.9655C398.071 98.8455 397.072 99.4666 396.109 99.8289C395.157 100.191 394.132 100.372 393.035 100.372C391.223 100.372 389.831 99.9324 388.858 99.0525C387.884 98.1622 387.398 97.0287 387.398 95.6518C387.398 94.8444 387.579 94.1094 387.941 93.4468C388.314 92.7739 388.795 92.2356 389.386 91.8319C389.986 91.4282 390.659 91.1228 391.404 90.9157C391.953 90.7708 392.781 90.631 393.889 90.4965C396.146 90.2273 397.807 89.9064 398.873 89.5337C398.884 89.1507 398.889 88.9074 398.889 88.8039C398.889 87.6652 398.625 86.8629 398.097 86.397C397.383 85.7655 396.321 85.4498 394.914 85.4498C393.599 85.4498 392.626 85.6827 391.994 86.1486C391.373 86.6041 390.912 87.4167 390.612 88.5865L387.879 88.2138C388.128 87.044 388.537 86.102 389.106 85.3877C389.675 84.663 390.498 84.1092 391.575 83.7262C392.652 83.3328 393.899 83.1361 395.317 83.1361C396.725 83.1361 397.869 83.3017 398.749 83.633C399.629 83.9643 400.276 84.3835 400.69 84.8908C401.104 85.3877 401.394 86.0192 401.56 86.7852C401.653 87.2614 401.699 88.1207 401.699 89.3629V93.0897C401.699 95.6881 401.756 97.3341 401.87 98.0277C401.994 98.7109 402.233 99.3683 402.585 99.9997H399.665C399.375 99.42 399.189 98.742 399.106 97.9655ZM398.873 91.7232C397.859 92.1373 396.337 92.4893 394.308 92.7791C393.159 92.9448 392.346 93.1311 391.87 93.3381C391.394 93.5452 391.026 93.8506 390.768 94.2543C390.509 94.6477 390.379 95.0876 390.379 95.5742C390.379 96.3195 390.659 96.9407 391.218 97.4376C391.787 97.9345 392.615 98.1829 393.702 98.1829C394.779 98.1829 395.737 97.95 396.575 97.4842C397.414 97.008 398.03 96.361 398.423 95.5431C398.723 94.9117 398.873 93.98 398.873 92.7481V91.7232Z" fill="#FF0000"/>
<path d="M416.808 93.9593L419.557 94.3164C419.257 96.2109 418.485 97.6964 417.243 98.773C416.011 99.8393 414.495 100.372 412.693 100.372C410.437 100.372 408.62 99.6374 407.243 98.1674C405.877 96.6871 405.193 94.57 405.193 91.8164C405.193 90.0358 405.488 88.4778 406.078 87.1424C406.668 85.8069 407.564 84.808 408.765 84.1454C409.976 83.4725 411.291 83.1361 412.709 83.1361C414.5 83.1361 415.965 83.5916 417.103 84.5026C418.242 85.4032 418.972 86.6869 419.293 88.3536L416.575 88.7728C416.317 87.6652 415.856 86.8318 415.193 86.2728C414.541 85.7138 413.749 85.4343 412.818 85.4343C411.41 85.4343 410.266 85.9415 409.386 86.956C408.506 87.9602 408.066 89.5544 408.066 91.7387C408.066 93.9541 408.49 95.5638 409.339 96.568C410.188 97.5722 411.296 98.0742 412.662 98.0742C413.76 98.0742 414.676 97.7378 415.411 97.0649C416.146 96.392 416.612 95.3568 416.808 93.9593Z" fill="#FF0000"/>
<path d="M437.647 83.5088H440.442V99.9997H437.647V83.5088ZM422.01 83.5088H424.805V89.953H428.346C430.654 89.953 432.43 90.4033 433.672 91.3039C434.925 92.1942 435.551 93.4261 435.551 94.9997C435.551 96.3765 435.028 97.5566 433.983 98.5401C432.947 99.5132 431.286 99.9997 428.998 99.9997H422.01V83.5088ZM424.805 97.7016H427.74C429.51 97.7016 430.773 97.4842 431.529 97.0494C432.285 96.6146 432.663 95.9365 432.663 95.0152C432.663 94.3009 432.383 93.6642 431.824 93.1052C431.265 92.5462 430.028 92.2667 428.113 92.2667H424.805V97.7016Z" fill="#FF0000"/>
<path d="M0 123.888V121.636H31.8018V123.888H0Z" fill="#FF0000"/>
<path d="M46.9263 121.403V123.701H52.7494C52.5734 125.492 52.1075 126.838 51.3518 127.739C50.6065 128.629 49.5661 129.074 48.2306 129.074C45.8703 129.074 44.478 127.708 44.0536 124.975L41.3206 125.332C41.6104 127.144 42.361 128.603 43.5722 129.711C44.7937 130.819 46.388 131.372 48.3549 131.372C50.6945 131.507 52.5061 130.767 53.7897 129.152C55.0734 127.527 55.6842 125.394 55.6221 122.754C55.6221 120.073 54.9544 117.966 53.6189 116.434C52.2835 114.902 50.4615 114.136 48.153 114.136C46.3103 114.136 44.8196 114.628 43.6809 115.611C42.5421 116.584 41.8485 117.842 41.6001 119.385L44.3175 119.819C44.773 117.573 46.0826 116.45 48.2462 116.45C49.4884 116.45 50.5029 116.91 51.2897 117.832C52.0868 118.743 52.5734 119.933 52.7494 121.403H46.9263Z" fill="#FF0000"/>
<path d="M56.7712 114.509H70.172V116.822H64.8614V131H62.0818V116.822H56.7712V114.509Z" fill="#FF0000"/>
<path d="M71.4298 122.754C71.4298 119.7 72.2787 117.438 73.9764 115.968C75.3947 114.747 77.1235 114.136 79.1628 114.136C81.43 114.136 83.283 114.881 84.7219 116.372C86.1609 117.853 86.8804 119.902 86.8804 122.521C86.8804 124.644 86.5594 126.315 85.9176 127.537C85.2861 128.748 84.3596 129.69 83.1381 130.363C81.9269 131.036 80.6018 131.372 79.1628 131.372C76.8543 131.372 74.9857 130.632 73.5572 129.152C72.1389 127.672 71.4298 125.539 71.4298 122.754ZM74.3025 122.754C74.3025 124.866 74.7632 126.45 75.6845 127.506C76.6059 128.551 77.7653 129.074 79.1628 129.074C80.55 129.074 81.7043 128.546 82.6256 127.49C83.547 126.434 84.0076 124.825 84.0076 122.661C84.0076 120.622 83.5418 119.079 82.6101 118.034C81.6888 116.978 80.5397 116.45 79.1628 116.45C77.7653 116.45 76.6059 116.973 75.6845 118.018C74.7632 119.064 74.3025 120.642 74.3025 122.754Z" fill="#FF0000"/>
<path d="M99.0234 137.32V114.509H101.57V116.652C102.17 115.813 102.849 115.187 103.604 114.773C104.36 114.348 105.276 114.136 106.353 114.136C107.761 114.136 109.003 114.498 110.08 115.223C111.156 115.948 111.969 116.973 112.517 118.298C113.066 119.612 113.34 121.057 113.34 122.63C113.34 124.317 113.035 125.839 112.424 127.195C111.824 128.541 110.944 129.576 109.784 130.301C108.635 131.015 107.424 131.372 106.151 131.372C105.219 131.372 104.381 131.176 103.635 130.782C102.9 130.389 102.295 129.892 101.819 129.292V137.32H99.0234ZM101.555 122.847C101.555 124.97 101.984 126.538 102.843 127.552C103.703 128.567 104.743 129.074 105.965 129.074C107.207 129.074 108.268 128.551 109.148 127.506C110.038 126.45 110.483 124.82 110.483 122.615C110.483 120.513 110.048 118.939 109.179 117.894C108.32 116.848 107.29 116.326 106.089 116.326C104.898 116.326 103.842 116.885 102.921 118.003C102.01 119.11 101.555 120.725 101.555 122.847Z" fill="#FF0000"/>
<path d="M127.487 128.966C126.451 129.845 125.452 130.467 124.49 130.829C123.537 131.191 122.512 131.372 121.415 131.372C119.603 131.372 118.211 130.932 117.238 130.053C116.265 129.162 115.778 128.029 115.778 126.652C115.778 125.844 115.96 125.109 116.322 124.447C116.695 123.774 117.176 123.236 117.766 122.832C118.366 122.428 119.039 122.123 119.785 121.916C120.333 121.771 121.161 121.631 122.269 121.496C124.526 121.227 126.187 120.906 127.254 120.534C127.264 120.151 127.269 119.907 127.269 119.804C127.269 118.665 127.005 117.863 126.477 117.397C125.763 116.766 124.702 116.45 123.294 116.45C121.979 116.45 121.006 116.683 120.375 117.149C119.754 117.604 119.293 118.417 118.993 119.586L116.26 119.214C116.508 118.044 116.917 117.102 117.486 116.388C118.056 115.663 118.879 115.109 119.955 114.726C121.032 114.333 122.28 114.136 123.698 114.136C125.106 114.136 126.25 114.302 127.13 114.633C128.009 114.964 128.656 115.384 129.071 115.891C129.485 116.388 129.774 117.019 129.94 117.785C130.033 118.261 130.08 119.121 130.08 120.363V124.09C130.08 126.688 130.137 128.334 130.251 129.028C130.375 129.711 130.613 130.368 130.965 131H128.046C127.756 130.42 127.569 129.742 127.487 128.966ZM127.254 122.723C126.239 123.137 124.717 123.489 122.688 123.779C121.539 123.945 120.727 124.131 120.251 124.338C119.774 124.545 119.407 124.851 119.148 125.254C118.889 125.648 118.76 126.088 118.76 126.574C118.76 127.32 119.039 127.941 119.598 128.438C120.168 128.934 120.996 129.183 122.083 129.183C123.159 129.183 124.117 128.95 124.956 128.484C125.794 128.008 126.41 127.361 126.803 126.543C127.104 125.912 127.254 124.98 127.254 123.748V122.723Z" fill="#FF0000"/>
<path d="M145.189 124.959L147.937 125.316C147.637 127.211 146.866 128.696 145.624 129.773C144.392 130.839 142.875 131.372 141.074 131.372C138.817 131.372 137 130.637 135.623 129.167C134.257 127.687 133.574 125.57 133.574 122.816C133.574 121.036 133.869 119.478 134.459 118.142C135.049 116.807 135.944 115.808 137.145 115.145C138.356 114.473 139.671 114.136 141.089 114.136C142.88 114.136 144.345 114.592 145.484 115.503C146.623 116.403 147.352 117.687 147.673 119.354L144.956 119.773C144.697 118.665 144.236 117.832 143.574 117.273C142.922 116.714 142.13 116.434 141.198 116.434C139.79 116.434 138.646 116.942 137.766 117.956C136.886 118.96 136.446 120.554 136.446 122.739C136.446 124.954 136.871 126.564 137.72 127.568C138.569 128.572 139.676 129.074 141.043 129.074C142.14 129.074 143.056 128.738 143.791 128.065C144.526 127.392 144.992 126.357 145.189 124.959Z" fill="#FF0000"/>
<path d="M161.09 124.959L163.838 125.316C163.538 127.211 162.767 128.696 161.525 129.773C160.293 130.839 158.776 131.372 156.975 131.372C154.718 131.372 152.901 130.637 151.524 129.167C150.158 127.687 149.475 125.57 149.475 122.816C149.475 121.036 149.77 119.478 150.36 118.142C150.95 116.807 151.845 115.808 153.046 115.145C154.257 114.473 155.572 114.136 156.99 114.136C158.781 114.136 160.246 114.592 161.385 115.503C162.523 116.403 163.253 117.687 163.574 119.354L160.857 119.773C160.598 118.665 160.137 117.832 159.475 117.273C158.823 116.714 158.031 116.434 157.099 116.434C155.691 116.434 154.547 116.942 153.667 117.956C152.787 118.96 152.347 120.554 152.347 122.739C152.347 124.954 152.772 126.564 153.621 127.568C154.47 128.572 155.577 129.074 156.944 129.074C158.041 129.074 158.957 128.738 159.692 128.065C160.427 127.392 160.893 126.357 161.09 124.959Z" fill="#FF0000"/>
<path d="M166.214 114.509H169.009V121.636C169.899 121.636 170.521 121.465 170.872 121.124C171.235 120.782 171.763 119.788 172.456 118.142C173.005 116.838 173.45 115.979 173.792 115.565C174.133 115.151 174.527 114.871 174.972 114.726C175.417 114.581 176.131 114.509 177.115 114.509H177.674V116.822L176.897 116.807C176.162 116.807 175.691 116.916 175.484 117.133C175.267 117.361 174.936 118.039 174.491 119.167C174.066 120.244 173.678 120.989 173.326 121.403C172.974 121.817 172.43 122.195 171.695 122.537C172.896 122.858 174.076 123.976 175.236 125.891L178.295 131H175.22L172.239 125.891C171.628 124.866 171.095 124.193 170.64 123.872C170.184 123.541 169.641 123.375 169.009 123.375V131H166.214V114.509Z" fill="#FF0000"/>
<path d="M191.618 128.966C190.583 129.845 189.584 130.467 188.621 130.829C187.669 131.191 186.644 131.372 185.547 131.372C183.735 131.372 182.343 130.932 181.37 130.053C180.396 129.162 179.91 128.029 179.91 126.652C179.91 125.844 180.091 125.109 180.453 124.447C180.826 123.774 181.307 123.236 181.898 122.832C182.498 122.428 183.171 122.123 183.916 121.916C184.465 121.771 185.293 121.631 186.401 121.496C188.657 121.227 190.319 120.906 191.385 120.534C191.396 120.151 191.401 119.907 191.401 119.804C191.401 118.665 191.137 117.863 190.609 117.397C189.895 116.766 188.833 116.45 187.426 116.45C186.111 116.45 185.138 116.683 184.506 117.149C183.885 117.604 183.424 118.417 183.124 119.586L180.391 119.214C180.64 118.044 181.049 117.102 181.618 116.388C182.187 115.663 183.01 115.109 184.087 114.726C185.164 114.333 186.411 114.136 187.829 114.136C189.237 114.136 190.381 114.302 191.261 114.633C192.141 114.964 192.788 115.384 193.202 115.891C193.616 116.388 193.906 117.019 194.072 117.785C194.165 118.261 194.211 119.121 194.211 120.363V124.09C194.211 126.688 194.268 128.334 194.382 129.028C194.506 129.711 194.745 130.368 195.096 131H192.177C191.887 130.42 191.701 129.742 191.618 128.966ZM191.385 122.723C190.371 123.137 188.849 123.489 186.82 123.779C185.671 123.945 184.858 124.131 184.382 124.338C183.906 124.545 183.538 124.851 183.28 125.254C183.021 125.648 182.891 126.088 182.891 126.574C182.891 127.32 183.171 127.941 183.73 128.438C184.299 128.934 185.127 129.183 186.214 129.183C187.291 129.183 188.249 128.95 189.087 128.484C189.926 128.008 190.542 127.361 190.935 126.543C191.235 125.912 191.385 124.98 191.385 123.748V122.723Z" fill="#FF0000"/>
<path d="M201.836 123.546V121.357C203.016 121.346 203.818 121.3 204.243 121.217C204.677 121.134 205.086 120.886 205.469 120.472C205.852 120.058 206.044 119.54 206.044 118.919C206.044 118.163 205.79 117.563 205.283 117.118C204.786 116.662 204.139 116.434 203.342 116.434C201.768 116.434 200.666 117.361 200.034 119.214L197.379 118.779C198.207 115.684 200.205 114.136 203.373 114.136C205.133 114.136 206.51 114.617 207.504 115.58C208.508 116.543 209.01 117.692 209.01 119.027C209.01 120.373 208.358 121.445 207.053 122.242C207.881 122.687 208.503 123.256 208.917 123.95C209.331 124.633 209.538 125.446 209.538 126.388C209.538 127.868 208.999 129.069 207.923 129.99C206.846 130.912 205.34 131.372 203.404 131.372C199.646 131.372 197.467 129.701 196.867 126.357L199.491 125.798C199.729 126.854 200.21 127.672 200.935 128.251C201.67 128.831 202.509 129.121 203.451 129.121C204.393 129.121 205.174 128.857 205.795 128.329C206.427 127.791 206.743 127.107 206.743 126.279C206.743 125.637 206.546 125.078 206.153 124.602C205.759 124.126 205.34 123.831 204.895 123.717C204.45 123.593 203.642 123.531 202.472 123.531C202.379 123.531 202.167 123.536 201.836 123.546Z" fill="#FF0000"/>
<path d="M221.634 114.509H224.429V127.087L232.178 114.509H235.19V131H232.395V118.5L224.647 131H221.634V114.509Z" fill="#FF0000"/>
<path d="M243.048 123.546V121.357C244.228 121.346 245.03 121.3 245.455 121.217C245.889 121.134 246.298 120.886 246.681 120.472C247.064 120.058 247.256 119.54 247.256 118.919C247.256 118.163 247.002 117.563 246.495 117.118C245.998 116.662 245.351 116.434 244.554 116.434C242.98 116.434 241.878 117.361 241.246 119.214L238.591 118.779C239.419 115.684 241.417 114.136 244.585 114.136C246.345 114.136 247.722 114.617 248.715 115.58C249.72 116.543 250.222 117.692 250.222 119.027C250.222 120.373 249.569 121.445 248.265 122.242C249.093 122.687 249.714 123.256 250.129 123.95C250.543 124.633 250.75 125.446 250.75 126.388C250.75 127.868 250.211 129.069 249.135 129.99C248.058 130.912 246.552 131.372 244.616 131.372C240.858 131.372 238.679 129.701 238.079 126.357L240.703 125.798C240.941 126.854 241.422 127.672 242.147 128.251C242.882 128.831 243.721 129.121 244.663 129.121C245.605 129.121 246.386 128.857 247.007 128.329C247.639 127.791 247.955 127.107 247.955 126.279C247.955 125.637 247.758 125.078 247.364 124.602C246.971 124.126 246.552 123.831 246.107 123.717C245.662 123.593 244.854 123.531 243.684 123.531C243.591 123.531 243.379 123.536 243.048 123.546Z" fill="#FF0000"/>
<path d="M254.011 114.509H260.455C262.039 114.509 263.214 114.643 263.98 114.913C264.756 115.171 265.419 115.653 265.967 116.357C266.526 117.061 266.806 117.904 266.806 118.888C266.806 119.674 266.64 120.363 266.309 120.953C265.988 121.533 265.501 122.019 264.849 122.413C265.626 122.671 266.267 123.158 266.775 123.872C267.292 124.576 267.551 125.415 267.551 126.388C267.448 127.951 266.889 129.11 265.874 129.866C264.86 130.622 263.384 131 261.449 131H254.011V114.509ZM256.806 121.45H259.787C260.978 121.45 261.795 121.388 262.241 121.264C262.686 121.139 263.084 120.891 263.436 120.518C263.788 120.135 263.964 119.68 263.964 119.152C263.964 118.282 263.654 117.677 263.032 117.335C262.422 116.993 261.371 116.822 259.88 116.822H256.806V121.45ZM256.806 128.702H260.486C262.07 128.702 263.157 128.52 263.747 128.158C264.337 127.785 264.647 127.149 264.678 126.248C264.678 125.72 264.508 125.234 264.166 124.788C263.824 124.333 263.379 124.048 262.831 123.934C262.282 123.81 261.402 123.748 260.191 123.748H256.806V128.702Z" fill="#FF0000"/>
<path d="M281.806 125.689L284.694 126.046C284.239 127.734 283.395 129.043 282.163 129.975C280.931 130.907 279.358 131.372 277.443 131.372C275.031 131.372 273.115 130.632 271.697 129.152C270.289 127.661 269.585 125.575 269.585 122.894C269.585 120.12 270.3 117.966 271.728 116.434C273.157 114.902 275.01 114.136 277.287 114.136C279.492 114.136 281.294 114.887 282.691 116.388C284.089 117.889 284.787 120.001 284.787 122.723C284.787 122.889 284.782 123.137 284.772 123.469H272.474C272.577 125.28 273.09 126.667 274.011 127.63C274.932 128.593 276.081 129.074 277.458 129.074C278.483 129.074 279.358 128.805 280.082 128.267C280.807 127.728 281.382 126.869 281.806 125.689ZM272.629 121.17H281.837C281.713 119.783 281.361 118.743 280.781 118.049C279.891 116.973 278.737 116.434 277.318 116.434C276.035 116.434 274.953 116.864 274.073 117.723C273.203 118.582 272.722 119.731 272.629 121.17Z" fill="#FF0000"/>
<path d="M298.98 124.959L301.729 125.316C301.429 127.211 300.657 128.696 299.415 129.773C298.183 130.839 296.667 131.372 294.865 131.372C292.608 131.372 290.792 130.637 289.415 129.167C288.048 127.687 287.365 125.57 287.365 122.816C287.365 121.036 287.66 119.478 288.25 118.142C288.84 116.807 289.736 115.808 290.937 115.145C292.148 114.473 293.463 114.136 294.881 114.136C296.672 114.136 298.137 114.592 299.275 115.503C300.414 116.403 301.144 117.687 301.465 119.354L298.747 119.773C298.489 118.665 298.028 117.832 297.365 117.273C296.713 116.714 295.921 116.434 294.99 116.434C293.582 116.434 292.438 116.942 291.558 117.956C290.678 118.96 290.238 120.554 290.238 122.739C290.238 124.954 290.662 126.564 291.511 127.568C292.36 128.572 293.468 129.074 294.834 129.074C295.932 129.074 296.848 128.738 297.583 128.065C298.318 127.392 298.784 126.357 298.98 124.959Z" fill="#FF0000"/>
<path d="M302.614 114.509H316.015V116.822H310.704V131H307.925V116.822H302.614V114.509Z" fill="#FF0000"/>
<path d="M318.701 114.509H321.496V121.372H329.245V114.509H332.04V131H329.245V123.686H321.496V131H318.701V114.509Z" fill="#FF0000"/>
<path d="M335.223 122.754C335.223 119.7 336.072 117.438 337.77 115.968C339.188 114.747 340.917 114.136 342.956 114.136C345.223 114.136 347.076 114.881 348.515 116.372C349.954 117.853 350.674 119.902 350.674 122.521C350.674 124.644 350.353 126.315 349.711 127.537C349.079 128.748 348.153 129.69 346.931 130.363C345.72 131.036 344.395 131.372 342.956 131.372C340.648 131.372 338.779 130.632 337.35 129.152C335.932 127.672 335.223 125.539 335.223 122.754ZM338.096 122.754C338.096 124.866 338.557 126.45 339.478 127.506C340.399 128.551 341.559 129.074 342.956 129.074C344.343 129.074 345.498 128.546 346.419 127.49C347.34 126.434 347.801 124.825 347.801 122.661C347.801 120.622 347.335 119.079 346.403 118.034C345.482 116.978 344.333 116.45 342.956 116.45C341.559 116.45 340.399 116.973 339.478 118.018C338.557 119.064 338.096 120.642 338.096 122.754Z" fill="#FF0000"/>
<path d="M353.966 114.509H356.761V127.087L364.509 114.509H367.522V131H364.727V118.5L356.978 131H353.966V114.509ZM363.671 108.266H365.581C365.426 109.56 364.949 110.554 364.152 111.248C363.365 111.941 362.315 112.288 361 112.288C359.675 112.288 358.614 111.947 357.817 111.263C357.03 110.57 356.559 109.571 356.404 108.266H358.314C358.459 108.97 358.743 109.498 359.168 109.85C359.602 110.192 360.182 110.363 360.907 110.363C361.745 110.363 362.377 110.197 362.801 109.866C363.236 109.524 363.526 108.991 363.671 108.266Z" fill="#FF0000"/>
<path d="M0.590072 145.509H13.9909V147.822H8.68027V162H5.90072V147.822H0.590072V145.509Z" fill="#FF0000"/>
<path d="M27.0502 159.966C26.0149 160.845 25.016 161.467 24.0532 161.829C23.1008 162.191 22.0759 162.372 20.9786 162.372C19.167 162.372 17.7746 161.932 16.8015 161.053C15.8284 160.162 15.3419 159.029 15.3419 157.652C15.3419 156.844 15.523 156.109 15.8854 155.447C16.258 154.774 16.7394 154.236 17.3295 153.832C17.9299 153.428 18.6028 153.123 19.3482 152.916C19.8968 152.771 20.725 152.631 21.8327 152.496C24.0894 152.227 25.751 151.906 26.8172 151.534C26.8276 151.151 26.8328 150.907 26.8328 150.804C26.8328 149.665 26.5688 148.863 26.0408 148.397C25.3265 147.766 24.2654 147.45 22.8575 147.45C21.5428 147.45 20.5697 147.683 19.9382 148.149C19.3171 148.604 18.8564 149.417 18.5562 150.587L15.8233 150.214C16.0717 149.044 16.4806 148.102 17.05 147.388C17.6193 146.663 18.4423 146.109 19.519 145.726C20.5956 145.333 21.843 145.136 23.2613 145.136C24.6692 145.136 25.8131 145.302 26.693 145.633C27.5729 145.964 28.2199 146.384 28.634 146.891C29.0481 147.388 29.338 148.019 29.5036 148.785C29.5968 149.261 29.6434 150.121 29.6434 151.363V155.09C29.6434 157.688 29.7003 159.334 29.8142 160.028C29.9384 160.711 30.1765 161.368 30.5285 162H27.6092C27.3193 161.42 27.133 160.742 27.0502 159.966ZM26.8172 153.723C25.8027 154.137 24.281 154.489 22.2519 154.779C21.1028 154.945 20.2902 155.131 19.814 155.338C19.3378 155.545 18.9703 155.851 18.7115 156.254C18.4527 156.648 18.3233 157.088 18.3233 157.574C18.3233 158.32 18.6028 158.941 19.1618 159.438C19.7312 159.934 20.5594 160.183 21.6463 160.183C22.723 160.183 23.6805 159.95 24.5191 159.484C25.3576 159.008 25.9735 158.361 26.3669 157.543C26.6671 156.912 26.8172 155.98 26.8172 154.748V153.723Z" fill="#FF0000"/>
<path d="M31.7707 145.509H45.1716V147.822H39.8609V162H37.0814V147.822H31.7707V145.509Z" fill="#FF0000"/>
<path d="M58.2308 159.966C57.1956 160.845 56.1966 161.467 55.2339 161.829C54.2815 162.191 53.2566 162.372 52.1593 162.372C50.3477 162.372 48.9553 161.932 47.9822 161.053C47.0091 160.162 46.5225 159.029 46.5225 157.652C46.5225 156.844 46.7037 156.109 47.066 155.447C47.4387 154.774 47.9201 154.236 48.5101 153.832C49.1106 153.428 49.7835 153.123 50.5288 152.916C51.0775 152.771 51.9056 152.631 53.0133 152.496C55.2701 152.227 56.9316 151.906 57.9979 151.534C58.0082 151.151 58.0134 150.907 58.0134 150.804C58.0134 149.665 57.7494 148.863 57.2215 148.397C56.5072 147.766 55.4461 147.45 54.0382 147.45C52.7235 147.45 51.7504 147.683 51.1189 148.149C50.4978 148.604 50.0371 149.417 49.7369 150.587L47.0039 150.214C47.2524 149.044 47.6613 148.102 48.2306 147.388C48.8 146.663 49.623 146.109 50.6996 145.726C51.7762 145.333 53.0237 145.136 54.4419 145.136C55.8498 145.136 56.9937 145.302 57.8737 145.633C58.7536 145.964 59.4006 146.384 59.8147 146.891C60.2288 147.388 60.5186 148.019 60.6843 148.785C60.7774 149.261 60.824 150.121 60.824 151.363V155.09C60.824 157.688 60.881 159.334 60.9948 160.028C61.1191 160.711 61.3572 161.368 61.7091 162H58.7898C58.5 161.42 58.3136 160.742 58.2308 159.966ZM57.9979 153.723C56.9834 154.137 55.4616 154.489 53.4326 154.779C52.2835 154.945 51.4709 155.131 50.9947 155.338C50.5185 155.545 50.151 155.851 49.8922 156.254C49.6334 156.648 49.504 157.088 49.504 157.574C49.504 158.32 49.7835 158.941 50.3425 159.438C50.9118 159.934 51.74 160.183 52.827 160.183C53.9036 160.183 54.8612 159.95 55.6997 159.484C56.5382 159.008 57.1542 158.361 57.5476 157.543C57.8478 156.912 57.9979 155.98 57.9979 154.748V153.723Z" fill="#FF0000"/>
<path d="M65.1719 168.32V145.509H67.7186V147.652C68.319 146.813 68.997 146.187 69.7527 145.773C70.5085 145.348 71.4246 145.136 72.5012 145.136C73.9091 145.136 75.1514 145.498 76.228 146.223C77.3046 146.948 78.1173 147.973 78.6659 149.298C79.2146 150.612 79.4889 152.057 79.4889 153.63C79.4889 155.317 79.1836 156.839 78.5728 158.195C77.9724 159.541 77.0924 160.576 75.933 161.301C74.7839 162.015 73.5727 162.372 72.2994 162.372C71.3677 162.372 70.5292 162.176 69.7838 161.782C69.0488 161.389 68.4432 160.892 67.967 160.292V168.32H65.1719ZM67.703 153.847C67.703 155.97 68.1326 157.538 68.9919 158.552C69.8511 159.567 70.8915 160.074 72.113 160.074C73.3553 160.074 74.4164 159.551 75.2963 158.506C76.1866 157.45 76.6317 155.82 76.6317 153.615C76.6317 151.513 76.197 149.939 75.3274 148.894C74.4681 147.848 73.4381 147.326 72.2373 147.326C71.0468 147.326 69.9908 147.885 69.0695 149.003C68.1585 150.11 67.703 151.725 67.703 153.847Z" fill="#FF0000"/>
<path d="M93.6351 155.959L96.3836 156.316C96.0834 158.211 95.3122 159.696 94.0699 160.773C92.838 161.839 91.3214 162.372 89.5202 162.372C87.2634 162.372 85.4466 161.637 84.0698 160.167C82.7033 158.687 82.02 156.57 82.02 153.816C82.02 152.036 82.3151 150.478 82.9051 149.142C83.4952 147.807 84.3907 146.808 85.5915 146.145C86.8027 145.473 88.1174 145.136 89.5357 145.136C91.3266 145.136 92.7914 145.592 93.9302 146.503C95.0689 147.403 95.7987 148.687 96.1197 150.354L93.4022 150.773C93.1434 149.665 92.6827 148.832 92.0202 148.273C91.368 147.714 90.5761 147.434 89.6444 147.434C88.2365 147.434 87.0926 147.942 86.2127 148.956C85.3327 149.96 84.8928 151.554 84.8928 153.739C84.8928 155.954 85.3172 157.564 86.1661 158.568C87.0149 159.572 88.1226 160.074 89.4891 160.074C90.5864 160.074 91.5026 159.738 92.2376 159.065C92.9726 158.392 93.4384 157.357 93.6351 155.959Z" fill="#FF0000"/>
<path d="M98.7595 145.509H101.555V152.636C102.445 152.636 103.066 152.465 103.418 152.124C103.78 151.782 104.308 150.788 105.002 149.142C105.55 147.838 105.996 146.979 106.337 146.565C106.679 146.151 107.072 145.871 107.517 145.726C107.963 145.581 108.677 145.509 109.66 145.509H110.219V147.822L109.443 147.807C108.708 147.807 108.237 147.916 108.03 148.133C107.812 148.361 107.481 149.039 107.036 150.167C106.612 151.244 106.223 151.989 105.871 152.403C105.519 152.817 104.976 153.195 104.241 153.537C105.442 153.858 106.622 154.976 107.781 156.891L110.84 162H107.766L104.784 156.891C104.174 155.866 103.64 155.193 103.185 154.872C102.729 154.541 102.186 154.375 101.555 154.375V162H98.7595V145.509Z" fill="#FF0000"/>
<path d="M112.021 153.754C112.021 150.7 112.869 148.438 114.567 146.968C115.985 145.747 117.714 145.136 119.754 145.136C122.021 145.136 123.874 145.881 125.313 147.372C126.752 148.853 127.471 150.902 127.471 153.521C127.471 155.644 127.15 157.315 126.508 158.537C125.877 159.748 124.95 160.69 123.729 161.363C122.518 162.036 121.193 162.372 119.754 162.372C117.445 162.372 115.577 161.632 114.148 160.152C112.73 158.672 112.021 156.539 112.021 153.754ZM114.893 153.754C114.893 155.866 115.354 157.45 116.275 158.506C117.197 159.551 118.356 160.074 119.754 160.074C121.141 160.074 122.295 159.546 123.216 158.49C124.138 157.434 124.598 155.825 124.598 153.661C124.598 151.622 124.133 150.079 123.201 149.034C122.28 147.978 121.13 147.45 119.754 147.45C118.356 147.45 117.197 147.973 116.275 149.018C115.354 150.064 114.893 151.642 114.893 153.754Z" fill="#FF0000"/>
<path d="M130.763 145.509H133.558V158.087L141.307 145.509H144.319V162H141.524V149.5L133.776 162H130.763V145.509ZM140.468 139.266H142.378C142.223 140.56 141.747 141.554 140.95 142.248C140.163 142.941 139.112 143.288 137.797 143.288C136.472 143.288 135.411 142.947 134.614 142.263C133.827 141.57 133.356 140.571 133.201 139.266H135.111C135.256 139.97 135.541 140.498 135.965 140.85C136.4 141.192 136.98 141.363 137.704 141.363C138.543 141.363 139.174 141.197 139.599 140.866C140.033 140.524 140.323 139.991 140.468 139.266Z" fill="#FF0000"/>
<path d="M158.745 145.509H171.727V162H168.947V147.822H161.54V156.037C161.54 157.952 161.478 159.215 161.354 159.826C161.229 160.437 160.888 160.97 160.329 161.425C159.77 161.881 158.962 162.108 157.906 162.108C157.254 162.108 156.504 162.067 155.655 161.984V159.655H156.882C157.461 159.655 157.875 159.598 158.124 159.484C158.372 159.36 158.538 159.168 158.621 158.91C158.704 158.651 158.745 157.807 158.745 156.379V145.509Z" fill="#FF0000"/>
<path d="M187.239 156.689L190.127 157.046C189.672 158.734 188.828 160.043 187.596 160.975C186.364 161.907 184.791 162.372 182.876 162.372C180.464 162.372 178.549 161.632 177.13 160.152C175.722 158.661 175.019 156.575 175.019 153.894C175.019 151.12 175.733 148.966 177.161 147.434C178.59 145.902 180.443 145.136 182.721 145.136C184.926 145.136 186.727 145.887 188.124 147.388C189.522 148.889 190.221 151.001 190.221 153.723C190.221 153.889 190.215 154.137 190.205 154.469H177.907C178.01 156.28 178.523 157.667 179.444 158.63C180.365 159.593 181.514 160.074 182.891 160.074C183.916 160.074 184.791 159.805 185.516 159.267C186.24 158.728 186.815 157.869 187.239 156.689ZM178.062 152.17H187.27C187.146 150.783 186.794 149.743 186.214 149.049C185.324 147.973 184.17 147.434 182.752 147.434C181.468 147.434 180.386 147.864 179.506 148.723C178.637 149.582 178.155 150.731 178.062 152.17Z" fill="#FF0000"/>
<path d="M193.668 145.509H203.156V147.822H196.463V162H193.668V145.509Z" fill="#FF0000"/>
<path d="M215.842 156.689L218.73 157.046C218.275 158.734 217.431 160.043 216.199 160.975C214.967 161.907 213.394 162.372 211.479 162.372C209.067 162.372 207.152 161.632 205.733 160.152C204.325 158.661 203.621 156.575 203.621 153.894C203.621 151.12 204.336 148.966 205.764 147.434C207.193 145.902 209.046 145.136 211.323 145.136C213.528 145.136 215.33 145.887 216.727 147.388C218.125 148.889 218.824 151.001 218.824 153.723C218.824 153.889 218.818 154.137 218.808 154.469H206.51C206.613 156.28 207.126 157.667 208.047 158.63C208.968 159.593 210.117 160.074 211.494 160.074C212.519 160.074 213.394 159.805 214.119 159.267C214.843 158.728 215.418 157.869 215.842 156.689ZM206.665 152.17H215.873C215.749 150.783 215.397 149.743 214.817 149.049C213.927 147.973 212.773 147.434 211.355 147.434C210.071 147.434 208.989 147.864 208.109 148.723C207.24 149.582 206.758 150.731 206.665 152.17Z" fill="#FF0000"/>
<path d="M222.271 145.509H225.066V152.372H232.815V145.509H235.61V162H232.815V154.686H225.066V162H222.271V145.509Z" fill="#FF0000"/>
<path d="M242.038 145.509H253.529V159.702H255.315V166.674H253.017V162H240.035V166.674H237.737V159.702H239.212C241.179 157.031 242.121 152.3 242.038 145.509ZM244.368 147.822C244.16 153.175 243.332 157.134 241.883 159.702H250.75V147.822H244.368Z" fill="#FF0000"/>
<path d="M274.104 145.509H276.899V162H274.104V145.509ZM258.467 145.509H261.262V151.953H264.803C267.111 151.953 268.887 152.403 270.129 153.304C271.381 154.194 272.008 155.426 272.008 157C272.008 158.376 271.485 159.557 270.439 160.54C269.404 161.513 267.743 162 265.455 162H258.467V145.509ZM261.262 159.702H264.197C265.967 159.702 267.23 159.484 267.986 159.049C268.742 158.615 269.12 157.937 269.12 157.015C269.12 156.301 268.84 155.664 268.281 155.105C267.722 154.546 266.485 154.267 264.57 154.267H261.262V159.702Z" fill="#FF0000"/>
<path d="M290.129 145.509H296.573C298.157 145.509 299.332 145.643 300.098 145.913C300.875 146.171 301.537 146.653 302.086 147.357C302.645 148.061 302.924 148.904 302.924 149.888C302.924 150.674 302.759 151.363 302.428 151.953C302.107 152.533 301.62 153.019 300.968 153.413C301.744 153.671 302.386 154.158 302.893 154.872C303.411 155.576 303.67 156.415 303.67 157.388C303.566 158.951 303.007 160.11 301.993 160.866C300.978 161.622 299.503 162 297.567 162H290.129V145.509ZM292.924 152.45H295.906C297.096 152.45 297.914 152.388 298.359 152.264C298.804 152.139 299.203 151.891 299.555 151.518C299.907 151.135 300.083 150.68 300.083 150.152C300.083 149.282 299.772 148.677 299.151 148.335C298.54 147.993 297.49 147.822 295.999 147.822H292.924V152.45ZM292.924 159.702H296.604C298.188 159.702 299.275 159.52 299.865 159.158C300.455 158.785 300.766 158.149 300.797 157.248C300.797 156.72 300.626 156.234 300.285 155.788C299.943 155.333 299.498 155.048 298.949 154.934C298.401 154.81 297.521 154.748 296.309 154.748H292.924V159.702Z" fill="#FF0000"/>
<path d="M311.946 162L320.689 139.235H323.934L333.251 162H329.819L327.164 155.105H317.645L315.145 162H311.946ZM318.515 152.652H326.232L323.856 146.347C323.132 144.432 322.594 142.859 322.242 141.627C321.952 143.086 321.543 144.536 321.015 145.975L318.515 152.652Z" fill="#FF0000"/>
<path d="M335.704 162V139.235H345.798C347.827 139.235 349.369 139.442 350.425 139.857C351.481 140.26 352.325 140.98 352.956 142.015C353.588 143.05 353.904 144.194 353.904 145.447C353.904 147.062 353.381 148.423 352.335 149.531C351.29 150.638 349.675 151.342 347.49 151.642C348.288 152.025 348.893 152.403 349.307 152.776C350.187 153.583 351.021 154.593 351.807 155.804L355.767 162H351.978L348.966 157.264C348.086 155.897 347.361 154.852 346.792 154.127C346.222 153.402 345.71 152.895 345.254 152.605C344.809 152.315 344.354 152.113 343.888 152C343.546 151.927 342.987 151.891 342.211 151.891H338.717V162H335.704ZM338.717 149.282H345.192C346.569 149.282 347.646 149.142 348.422 148.863C349.199 148.573 349.789 148.118 350.192 147.496C350.596 146.865 350.798 146.182 350.798 145.447C350.798 144.37 350.405 143.485 349.618 142.791C348.841 142.098 347.609 141.751 345.922 141.751H338.717V149.282Z" fill="#FF0000"/>
<path d="M11.6927 170.235H14.4878V178.108C15.0675 177.446 15.7042 176.954 16.3978 176.633C17.0914 176.302 17.8367 176.136 18.6339 176.136C20.5904 176.136 22.1381 176.954 23.2768 178.59C24.4259 180.215 25.0004 182.265 25.0004 184.739C25.0004 187.316 24.3845 189.402 23.1526 190.997C21.9207 192.58 20.3885 193.372 18.5562 193.372C17.9558 193.372 17.345 193.279 16.7239 193.093C16.1028 192.907 15.3574 192.399 14.4878 191.571V199.32H11.6927V191.571C11.1337 192.172 10.5126 192.622 9.82936 192.922C9.15647 193.222 8.42665 193.372 7.63988 193.372C5.91107 193.372 4.39966 192.617 3.10564 191.105C1.81163 189.584 1.16462 187.41 1.16462 184.583C1.16462 182.192 1.74951 180.189 2.9193 178.574C4.0891 176.949 5.66262 176.136 7.63988 176.136C8.46805 176.136 9.21858 176.302 9.89147 176.633C10.5644 176.954 11.1648 177.446 11.6927 178.108V170.235ZM14.4723 184.816C14.4723 187.301 14.8139 188.973 15.4972 189.832C16.1804 190.681 17.0345 191.105 18.0593 191.105C19.1981 191.105 20.166 190.583 20.9631 189.537C21.7706 188.481 22.1743 186.845 22.1743 184.63C22.1743 182.539 21.8016 180.981 21.0563 179.956C20.3213 178.931 19.374 178.419 18.2146 178.419C16.9723 178.419 16.0355 178.952 15.404 180.018C14.7829 181.084 14.4723 182.684 14.4723 184.816ZM4.00628 184.506C4.00628 186.835 4.39449 188.512 5.1709 189.537C5.95766 190.562 6.93076 191.074 8.0902 191.074C9.3014 191.074 10.2072 190.567 10.8076 189.552C11.4081 188.528 11.7083 186.995 11.7083 184.956C11.7083 182.782 11.3925 181.152 10.7611 180.065C10.1296 178.978 9.17718 178.434 7.90386 178.434C6.75477 178.434 5.8179 178.967 5.09326 180.034C4.36861 181.09 4.00628 182.58 4.00628 184.506Z" fill="#FF0000"/>
<path d="M27.2365 184.754C27.2365 181.7 28.0854 179.438 29.7831 177.968C31.2014 176.747 32.9302 176.136 34.9695 176.136C37.2367 176.136 39.0897 176.881 40.5286 178.372C41.9676 179.853 42.6871 181.902 42.6871 184.521C42.6871 186.644 42.3661 188.315 41.7243 189.537C41.0928 190.748 40.1663 191.69 38.9448 192.363C37.7336 193.036 36.4085 193.372 34.9695 193.372C32.661 193.372 30.7925 192.632 29.3639 191.152C27.9456 189.672 27.2365 187.539 27.2365 184.754ZM30.1092 184.754C30.1092 186.866 30.5699 188.45 31.4912 189.506C32.4126 190.551 33.572 191.074 34.9695 191.074C36.3567 191.074 37.511 190.546 38.4323 189.49C39.3537 188.434 39.8143 186.825 39.8143 184.661C39.8143 182.622 39.3485 181.079 38.4168 180.034C37.4955 178.978 36.3464 178.45 34.9695 178.45C33.572 178.45 32.4126 178.973 31.4912 180.018C30.5699 181.064 30.1092 182.642 30.1092 184.754Z" fill="#FF0000"/>
<path d="M45.979 199.32V176.509H48.5257V178.652C49.1261 177.813 49.8042 177.187 50.5599 176.773C51.3156 176.348 52.2317 176.136 53.3084 176.136C54.7163 176.136 55.9585 176.498 57.0351 177.223C58.1118 177.948 58.9244 178.973 59.4731 180.298C60.0217 181.612 60.2961 183.057 60.2961 184.63C60.2961 186.317 59.9907 187.839 59.3799 189.195C58.7795 190.541 57.8995 191.576 56.7401 192.301C55.591 193.015 54.3798 193.372 53.1065 193.372C52.1748 193.372 51.3363 193.176 50.5909 192.782C49.8559 192.389 49.2503 191.892 48.7741 191.292V199.32H45.979ZM48.5101 184.847C48.5101 186.97 48.9398 188.538 49.799 189.552C50.6582 190.567 51.6986 191.074 52.9202 191.074C54.1624 191.074 55.2235 190.551 56.1034 189.506C56.9937 188.45 57.4389 186.82 57.4389 184.615C57.4389 182.513 57.0041 180.939 56.1345 179.894C55.2753 178.848 54.2452 178.326 53.0444 178.326C51.8539 178.326 50.798 178.885 49.8766 180.003C48.9656 181.11 48.5101 182.725 48.5101 184.847Z" fill="#FF0000"/>
<path d="M63.7589 176.509H68.1068L72.4391 189.708L77.2529 176.509H81.2747V193H78.4796V179.723L73.6037 193H71.1037L66.4918 179.086V193H63.7589V176.509Z" fill="#FF0000"/>
<path d="M96.306 190.966C95.2708 191.845 94.2718 192.467 93.3091 192.829C92.3567 193.191 91.3318 193.372 90.2345 193.372C88.4228 193.372 87.0305 192.932 86.0574 192.053C85.0843 191.162 84.5977 190.029 84.5977 188.652C84.5977 187.844 84.7789 187.109 85.1412 186.447C85.5139 185.774 85.9953 185.236 86.5853 184.832C87.1858 184.428 87.8586 184.123 88.604 183.916C89.1527 183.771 89.9808 183.631 91.0885 183.496C93.3453 183.227 95.0068 182.906 96.0731 182.534C96.0834 182.151 96.0886 181.907 96.0886 181.804C96.0886 180.665 95.8246 179.863 95.2967 179.397C94.5824 178.766 93.5213 178.45 92.1134 178.45C90.7987 178.45 89.8255 178.683 89.1941 179.149C88.5729 179.604 88.1123 180.417 87.8121 181.587L85.0791 181.214C85.3275 180.044 85.7365 179.102 86.3058 178.388C86.8752 177.663 87.6982 177.109 88.7748 176.726C89.8514 176.333 91.0989 176.136 92.5171 176.136C93.925 176.136 95.0689 176.302 95.9488 176.633C96.8288 176.964 97.4758 177.384 97.8899 177.891C98.304 178.388 98.5938 179.019 98.7595 179.785C98.8526 180.261 98.8992 181.121 98.8992 182.363V186.09C98.8992 188.688 98.9561 190.334 99.07 191.028C99.1942 191.711 99.4323 192.368 99.7843 193H96.865C96.5751 192.42 96.3888 191.742 96.306 190.966ZM96.0731 184.723C95.0586 185.137 93.5368 185.489 91.5078 185.779C90.3587 185.945 89.546 186.131 89.0698 186.338C88.5937 186.545 88.2261 186.851 87.9673 187.254C87.7085 187.648 87.5791 188.088 87.5791 188.574C87.5791 189.32 87.8587 189.941 88.4177 190.438C88.987 190.934 89.8152 191.183 90.9022 191.183C91.9788 191.183 92.9364 190.95 93.7749 190.484C94.6134 190.008 95.2294 189.361 95.6227 188.543C95.923 187.912 96.0731 186.98 96.0731 185.748V184.723Z" fill="#FF0000"/>
<path d="M101.027 176.509H114.427V178.822H109.117V193H106.337V178.822H101.027V176.509Z" fill="#FF0000"/>
<path d="M128.015 187.689L130.903 188.046C130.447 189.734 129.604 191.043 128.372 191.975C127.14 192.907 125.566 193.372 123.651 193.372C121.239 193.372 119.324 192.632 117.906 191.152C116.498 189.661 115.794 187.575 115.794 184.894C115.794 182.12 116.508 179.966 117.937 178.434C119.365 176.902 121.218 176.136 123.496 176.136C125.701 176.136 127.502 176.887 128.9 178.388C130.297 179.889 130.996 182.001 130.996 184.723C130.996 184.889 130.991 185.137 130.98 185.469H118.682C118.786 187.28 119.298 188.667 120.219 189.63C121.141 190.593 122.29 191.074 123.667 191.074C124.692 191.074 125.566 190.805 126.291 190.267C127.016 189.728 127.59 188.869 128.015 187.689ZM118.837 183.17H128.046C127.921 181.783 127.569 180.743 126.99 180.049C126.099 178.973 124.945 178.434 123.527 178.434C122.243 178.434 121.161 178.864 120.282 179.723C119.412 180.582 118.931 181.731 118.837 183.17Z" fill="#FF0000"/>
<path d="M142.238 184.754C142.238 181.7 143.087 179.438 144.785 177.968C146.203 176.747 147.932 176.136 149.972 176.136C152.239 176.136 154.092 176.881 155.531 178.372C156.97 179.853 157.689 181.902 157.689 184.521C157.689 186.644 157.368 188.315 156.726 189.537C156.095 190.748 155.168 191.69 153.947 192.363C152.736 193.036 151.41 193.372 149.972 193.372C147.663 193.372 145.794 192.632 144.366 191.152C142.948 189.672 142.238 187.539 142.238 184.754ZM145.111 184.754C145.111 186.866 145.572 188.45 146.493 189.506C147.415 190.551 148.574 191.074 149.972 191.074C151.359 191.074 152.513 190.546 153.434 189.49C154.356 188.434 154.816 186.825 154.816 184.661C154.816 182.622 154.35 181.079 153.419 180.034C152.497 178.978 151.348 178.45 149.972 178.45C148.574 178.45 147.415 178.973 146.493 180.018C145.572 181.064 145.111 182.642 145.111 184.754Z" fill="#FF0000"/>
<path d="M158.76 176.509H172.161V178.822H166.851V193H164.071V178.822H158.76V176.509Z" fill="#FF0000"/>
<path d="M181.54 193L190.283 170.235H193.528L202.845 193H199.413L196.758 186.105H187.239L184.739 193H181.54ZM188.109 183.652H195.826L193.451 177.347C192.726 175.432 192.188 173.859 191.836 172.627C191.546 174.086 191.137 175.536 190.609 176.975L188.109 183.652Z" fill="#FF0000"/>
<path d="M207.1 176.509H218.591V190.702H220.376V197.674H218.078V193H205.097V197.674H202.799V190.702H204.274C206.241 188.031 207.183 183.3 207.1 176.509ZM209.429 178.822C209.222 184.175 208.394 188.134 206.945 190.702H215.811V178.822H209.429Z" fill="#FF0000"/>
<path d="M234.756 187.689L237.644 188.046C237.188 189.734 236.345 191.043 235.113 191.975C233.881 192.907 232.307 193.372 230.392 193.372C227.98 193.372 226.065 192.632 224.647 191.152C223.239 189.661 222.535 187.575 222.535 184.894C222.535 182.12 223.249 179.966 224.678 178.434C226.106 176.902 227.959 176.136 230.237 176.136C232.442 176.136 234.243 176.887 235.641 178.388C237.038 179.889 237.737 182.001 237.737 184.723C237.737 184.889 237.732 185.137 237.721 185.469H225.423C225.527 187.28 226.039 188.667 226.96 189.63C227.882 190.593 229.031 191.074 230.408 191.074C231.433 191.074 232.307 190.805 233.032 190.267C233.757 189.728 234.331 188.869 234.756 187.689ZM225.578 183.17H234.787C234.662 181.783 234.31 180.743 233.731 180.049C232.84 178.973 231.686 178.434 230.268 178.434C228.984 178.434 227.902 178.864 227.023 179.723C226.153 180.582 225.672 181.731 225.578 183.17Z" fill="#FF0000"/>
<path d="M241.479 176.509H254.461V193H251.681V178.822H244.274V187.037C244.274 188.952 244.212 190.215 244.088 190.826C243.964 191.437 243.622 191.97 243.063 192.425C242.504 192.881 241.697 193.108 240.641 193.108C239.989 193.108 239.238 193.067 238.389 192.984V190.655H239.616C240.196 190.655 240.61 190.598 240.858 190.484C241.107 190.36 241.272 190.168 241.355 189.91C241.438 189.651 241.479 188.807 241.479 187.379V176.509Z" fill="#FF0000"/>
<path d="M258.638 176.509H261.433V182.953H264.973C267.282 182.953 269.057 183.403 270.3 184.304C271.552 185.194 272.179 186.426 272.179 188C272.179 189.376 271.656 190.557 270.61 191.54C269.575 192.513 267.913 193 265.626 193H258.638V176.509ZM261.433 190.702H264.368C266.138 190.702 267.401 190.484 268.157 190.049C268.912 189.615 269.29 188.937 269.29 188.015C269.29 187.301 269.011 186.664 268.452 186.105C267.893 185.546 266.656 185.267 264.741 185.267H261.433V190.702Z" fill="#FF0000"/>
<path d="M284.523 170.235H299.244V172.922H287.536V193H284.523V170.235Z" fill="#FF0000"/>
<path d="M310.316 190.966C309.281 191.845 308.282 192.467 307.319 192.829C306.367 193.191 305.342 193.372 304.244 193.372C302.433 193.372 301.04 192.932 300.067 192.053C299.094 191.162 298.608 190.029 298.608 188.652C298.608 187.844 298.789 187.109 299.151 186.447C299.524 185.774 300.005 185.236 300.595 184.832C301.196 184.428 301.868 184.123 302.614 183.916C303.163 183.771 303.991 183.631 305.098 183.496C307.355 183.227 309.017 182.906 310.083 182.534C310.093 182.151 310.098 181.907 310.098 181.804C310.098 180.665 309.834 179.863 309.307 179.397C308.592 178.766 307.531 178.45 306.123 178.45C304.809 178.45 303.835 178.683 303.204 179.149C302.583 179.604 302.122 180.417 301.822 181.587L299.089 181.214C299.337 180.044 299.746 179.102 300.316 178.388C300.885 177.663 301.708 177.109 302.785 176.726C303.861 176.333 305.109 176.136 306.527 176.136C307.935 176.136 309.079 176.302 309.959 176.633C310.839 176.964 311.486 177.384 311.9 177.891C312.314 178.388 312.604 179.019 312.769 179.785C312.862 180.261 312.909 181.121 312.909 182.363V186.09C312.909 188.688 312.966 190.334 313.08 191.028C313.204 191.711 313.442 192.368 313.794 193H310.875C310.585 192.42 310.399 191.742 310.316 190.966ZM310.083 184.723C309.068 185.137 307.547 185.489 305.518 185.779C304.369 185.945 303.556 186.131 303.08 186.338C302.604 186.545 302.236 186.851 301.977 187.254C301.718 187.648 301.589 188.088 301.589 188.574C301.589 189.32 301.868 189.941 302.428 190.438C302.997 190.934 303.825 191.183 304.912 191.183C305.989 191.183 306.946 190.95 307.785 190.484C308.623 190.008 309.239 189.361 309.633 188.543C309.933 187.912 310.083 186.98 310.083 185.748V184.723Z" fill="#FF0000"/>
<path d="M318.623 176.509H331.605V193H328.826V178.822H321.419V187.037C321.419 188.952 321.356 190.215 321.232 190.826C321.108 191.437 320.766 191.97 320.207 192.425C319.648 192.881 318.841 193.108 317.785 193.108C317.133 193.108 316.382 193.067 315.533 192.984V190.655H316.76C317.34 190.655 317.754 190.598 318.002 190.484C318.251 190.36 318.416 190.168 318.499 189.91C318.582 189.651 318.623 188.807 318.623 187.379V176.509Z" fill="#FF0000"/>
<path d="M335.829 176.509H338.624V189.087L346.372 176.509H349.385V193H346.59V180.5L338.841 193H335.829V176.509Z" fill="#FF0000"/>
<path d="M353.671 176.509H358.019L362.351 189.708L367.165 176.509H371.186V193H368.391V179.723L363.516 193H361.016L356.404 179.086V193H353.671V176.509Z" fill="#FF0000"/>
<path d="M374.416 184.754C374.416 181.7 375.265 179.438 376.963 177.968C378.381 176.747 380.11 176.136 382.149 176.136C384.417 176.136 386.27 176.881 387.708 178.372C389.147 179.853 389.867 181.902 389.867 184.521C389.867 186.644 389.546 188.315 388.904 189.537C388.273 190.748 387.346 191.69 386.125 192.363C384.913 193.036 383.588 193.372 382.149 193.372C379.841 193.372 377.972 192.632 376.544 191.152C375.125 189.672 374.416 187.539 374.416 184.754ZM377.289 184.754C377.289 186.866 377.75 188.45 378.671 189.506C379.592 190.551 380.752 191.074 382.149 191.074C383.537 191.074 384.691 190.546 385.612 189.49C386.534 188.434 386.994 186.825 386.994 184.661C386.994 182.622 386.528 181.079 385.597 180.034C384.675 178.978 383.526 178.45 382.149 178.45C380.752 178.45 379.592 178.973 378.671 180.018C377.75 181.064 377.289 182.642 377.289 184.754Z" fill="#FF0000"/>
<path d="M393.174 176.509H399.619C401.203 176.509 402.378 176.643 403.144 176.913C403.92 177.171 404.582 177.653 405.131 178.357C405.69 179.061 405.97 179.904 405.97 180.888C405.97 181.674 405.804 182.363 405.473 182.953C405.152 183.533 404.665 184.019 404.013 184.413C404.79 184.671 405.431 185.158 405.939 185.872C406.456 186.576 406.715 187.415 406.715 188.388C406.612 189.951 406.052 191.11 405.038 191.866C404.023 192.622 402.548 193 400.612 193H393.174V176.509ZM395.97 183.45H398.951C400.141 183.45 400.959 183.388 401.404 183.264C401.85 183.139 402.248 182.891 402.6 182.518C402.952 182.135 403.128 181.68 403.128 181.152C403.128 180.282 402.817 179.677 402.196 179.335C401.586 178.993 400.535 178.822 399.044 178.822H395.97V183.45ZM395.97 190.702H399.65C401.234 190.702 402.321 190.52 402.911 190.158C403.501 189.785 403.811 189.149 403.842 188.248C403.842 187.72 403.672 187.234 403.33 186.788C402.988 186.333 402.543 186.048 401.994 185.934C401.446 185.81 400.566 185.748 399.355 185.748H395.97V190.702Z" fill="#FF0000"/>
<path d="M408.641 184.754C408.641 181.7 409.489 179.438 411.187 177.968C412.605 176.747 414.334 176.136 416.374 176.136C418.641 176.136 420.494 176.881 421.933 178.372C423.372 179.853 424.091 181.902 424.091 184.521C424.091 186.644 423.77 188.315 423.128 189.537C422.497 190.748 421.57 191.69 420.349 192.363C419.138 193.036 417.813 193.372 416.374 193.372C414.065 193.372 412.197 192.632 410.768 191.152C409.35 189.672 408.641 187.539 408.641 184.754ZM411.513 184.754C411.513 186.866 411.974 188.45 412.895 189.506C413.817 190.551 414.976 191.074 416.374 191.074C417.761 191.074 418.915 190.546 419.836 189.49C420.758 188.434 421.218 186.825 421.218 184.661C421.218 182.622 420.753 181.079 419.821 180.034C418.9 178.978 417.75 178.45 416.374 178.45C414.976 178.45 413.817 178.973 412.895 180.018C411.974 181.064 411.513 182.642 411.513 184.754Z" fill="#FF0000"/>
<path d="M427.383 176.509H430.178V189.087L437.927 176.509H440.939V193H438.144V180.5L430.396 193H427.383V176.509ZM437.088 170.266H438.998C438.843 171.56 438.367 172.554 437.57 173.248C436.783 173.941 435.732 174.288 434.417 174.288C433.092 174.288 432.031 173.947 431.234 173.263C430.447 172.57 429.976 171.571 429.821 170.266H431.731C431.876 170.97 432.161 171.498 432.585 171.85C433.02 172.192 433.6 172.363 434.324 172.363C435.163 172.363 435.794 172.197 436.219 171.866C436.653 171.524 436.943 170.991 437.088 170.266Z" fill="#FF0000"/>
</svg>
