<svg width="415" height="192" viewBox="0 0 415 192" fill="none" xmlns="http://www.w3.org/2000/svg">
<path d="M33.6327 46.0001V0.471343H17.0796C13.622 0.471343 11.065 0.895781 9.40869 1.74466C7.77305 2.59353 6.42727 4.01178 5.37136 5.99939C4.31544 7.9663 3.78748 10.2541 3.78748 12.8629C3.78748 16.2998 4.67776 19.0845 6.45833 21.217C8.2596 23.3496 10.8683 24.7057 14.2846 25.2854C12.8974 26.1136 11.8414 26.9521 11.1168 27.801C9.64679 29.5402 8.35277 31.476 7.23474 33.6086L0.712891 46.0001H6.92418L11.8932 36.5279C13.8187 32.8218 15.268 30.3269 16.2411 29.0433C17.2349 27.7596 18.1873 26.9004 19.0983 26.4656C20.03 26.0101 21.324 25.7823 22.9804 25.7823H28.6947V46.0001H33.6327ZM28.6947 20.5649H18.0734C15.7546 20.5649 13.9947 20.2853 12.7938 19.7263C11.593 19.1673 10.6406 18.2874 9.93665 17.0865C9.23271 15.8857 8.88073 14.4881 8.88073 12.8939C8.88073 10.5957 9.55362 8.79447 10.8994 7.4901C12.2452 6.16502 14.2431 5.50249 16.8933 5.50249H28.6947V20.5649Z" fill="#FF0000"/>
<path d="M41.7384 0.471343H46.6764V20.4096C48.9539 20.4096 50.5378 19.8816 51.428 18.8257C52.339 17.7698 53.5192 15.2024 54.9685 11.1237C56.0658 7.95594 56.9768 5.73023 57.7014 4.44657C58.4468 3.1629 59.4303 2.16909 60.6518 1.46515C61.8941 0.740499 63.5608 0.378174 65.6519 0.378174C66.2523 0.378174 66.8631 0.40923 67.4842 0.471343V5.71988L66.4904 5.68882L65.3724 5.65777C64.0266 5.65777 62.9603 6.05115 62.1736 6.83791C61.3868 7.60397 60.4344 9.66405 59.3164 13.0181C58.0948 16.7656 57.0493 19.1673 56.1797 20.2232C55.3308 21.2584 54.2749 22.0866 53.0119 22.7077C55.4343 23.5152 57.8153 26.2275 60.1549 30.8445L67.8258 46.0001H61.7077L55.4654 33.6396C53.4985 29.7265 51.9249 27.2523 50.7448 26.2171C49.5647 25.1819 48.3742 24.6643 47.1733 24.6643C47.0284 24.6643 46.8628 24.6747 46.6764 24.6954V46.0001H41.7384V0.471343Z" fill="#FF0000"/>
<path d="M68.2606 0.471343H73.2297L85.4348 28.36L96.0561 0.471343H100.994L86.9877 35.8757C85.1864 40.3892 83.7164 43.3085 82.5776 44.6336C81.4596 45.9587 79.9171 46.6212 77.9502 46.6212C76.6045 46.6212 75.0102 46.2589 73.1675 45.5342V40.3789C74.4926 41.3106 75.8902 41.7764 77.3602 41.7764C78.5817 41.7764 79.6273 41.3106 80.4969 40.3789C81.3664 39.4472 82.3292 37.2939 83.3851 33.9191L68.2606 0.471343Z" fill="#FF0000"/>
<path d="M114.721 46.0001V5.84411H102.423V0.471343H132.019V5.84411H119.659V46.0001H114.721Z" fill="#FF0000"/>
<path d="M137.082 0.471343H141.554V36.5279L161.43 0.471343H166.399V46.0001H161.927V10.0367L142.02 46.0001H137.082V0.471343Z" fill="#FF0000"/>
<path d="M204.133 46.0001V0.471343H187.579C184.122 0.471343 181.565 0.895781 179.909 1.74466C178.273 2.59353 176.927 4.01178 175.871 5.99939C174.815 7.9663 174.287 10.2541 174.287 12.8629C174.287 16.2998 175.178 19.0845 176.958 21.217C178.759 23.3496 181.368 24.7057 184.784 25.2854C183.397 26.1136 182.341 26.9521 181.617 27.801C180.147 29.5402 178.853 31.476 177.735 33.6086L171.213 46.0001H177.424L182.393 36.5279C184.319 32.8218 185.768 30.3269 186.741 29.0433C187.735 27.7596 188.687 26.9004 189.598 26.4656C190.53 26.0101 191.824 25.7823 193.48 25.7823H199.195V46.0001H204.133ZM199.195 20.5649H188.573C186.254 20.5649 184.495 20.2853 183.294 19.7263C182.093 19.1673 181.14 18.2874 180.436 17.0865C179.733 15.8857 179.381 14.4881 179.381 12.8939C179.381 10.5957 180.053 8.79447 181.399 7.4901C182.745 6.16502 184.743 5.50249 187.393 5.50249H199.195V20.5649Z" fill="#FF0000"/>
<path d="M2.36101 97.9998V75.2355H6.89525L12.2835 91.3537C12.7804 92.8548 13.1428 93.978 13.3705 94.7234C13.6293 93.8952 14.0331 92.6788 14.5817 91.0742L20.0321 75.2355H24.085V97.9998H21.1812V78.9467L14.5662 97.9998H11.8488L5.26479 78.6206V97.9998H2.36101Z" fill="#FF0000"/>
<path d="M27.9205 89.7543C27.9205 86.7005 28.7693 84.4385 30.4671 82.9685C31.8853 81.747 33.6141 81.1362 35.6535 81.1362C37.9206 81.1362 39.7737 81.8815 41.2126 83.3722C42.6516 84.8526 43.371 86.9023 43.371 89.5214C43.371 91.6436 43.0501 93.3155 42.4083 94.537C41.7768 95.7482 40.8503 96.6903 39.6287 97.3632C38.4175 98.0361 37.0925 98.3725 35.6535 98.3725C33.345 98.3725 31.4764 97.6323 30.0478 96.152C28.6296 94.6716 27.9205 92.5391 27.9205 89.7543ZM30.7932 89.7543C30.7932 91.8662 31.2538 93.4501 32.1752 94.506C33.0965 95.5515 34.256 96.0743 35.6535 96.0743C37.0407 96.0743 38.195 95.5464 39.1163 94.4904C40.0376 93.4345 40.4983 91.8248 40.4983 89.6612C40.4983 87.6218 40.0325 86.0793 39.1008 85.0338C38.1794 83.9778 37.0303 83.4499 35.6535 83.4499C34.256 83.4499 33.0965 83.9727 32.1752 85.0182C31.2538 86.0638 30.7932 87.6425 30.7932 89.7543Z" fill="#FF0000"/>
<path d="M46.663 104.32V81.5089H49.2096V83.6518C49.8101 82.8132 50.4881 82.1869 51.2438 81.7728C51.9995 81.3484 52.9157 81.1362 53.9923 81.1362C55.4002 81.1362 56.6425 81.4985 57.7191 82.2232C58.7957 82.9478 59.6084 83.9727 60.157 85.2977C60.7057 86.6125 60.98 88.0566 60.98 89.6301C60.98 91.3175 60.6746 92.8393 60.0639 94.1954C59.4634 95.5412 58.5835 96.5764 57.4241 97.3011C56.275 98.0154 55.0638 98.3725 53.7905 98.3725C52.8588 98.3725 52.0202 98.1758 51.2749 97.7824C50.5399 97.389 49.9343 96.8921 49.4581 96.2917V104.32H46.663ZM49.1941 89.8475C49.1941 91.9697 49.6237 93.538 50.483 94.5526C51.3422 95.5671 52.3826 96.0743 53.6041 96.0743C54.8464 96.0743 55.9075 95.5515 56.7874 94.506C57.6777 93.4501 58.1228 91.8196 58.1228 89.6146C58.1228 87.5131 57.688 85.9396 56.8185 84.894C55.9592 83.8484 54.9292 83.3257 53.7283 83.3257C52.5378 83.3257 51.4819 83.8847 50.5606 85.0027C49.6496 86.1104 49.1941 87.7253 49.1941 89.8475Z" fill="#FF0000"/>
<path d="M63.3248 89.7543C63.3248 86.7005 64.1737 84.4385 65.8714 82.9685C67.2897 81.747 69.0185 81.1362 71.0578 81.1362C73.325 81.1362 75.178 81.8815 76.6169 83.3722C78.0559 84.8526 78.7754 86.9023 78.7754 89.5214C78.7754 91.6436 78.4544 93.3155 77.8126 94.537C77.1811 95.7482 76.2546 96.6903 75.0331 97.3632C73.8219 98.0361 72.4968 98.3725 71.0578 98.3725C68.7493 98.3725 66.8807 97.6323 65.4521 96.152C64.0339 94.6716 63.3248 92.5391 63.3248 89.7543ZM66.1975 89.7543C66.1975 91.8662 66.6582 93.4501 67.5795 94.506C68.5009 95.5515 69.6603 96.0743 71.0578 96.0743C72.445 96.0743 73.5993 95.5464 74.5206 94.4904C75.442 93.4345 75.9026 91.8248 75.9026 89.6612C75.9026 87.6218 75.4368 86.0793 74.5051 85.0338C73.5838 83.9778 72.4347 83.4499 71.0578 83.4499C69.6603 83.4499 68.5009 83.9727 67.5795 85.0182C66.6582 86.0638 66.1975 87.6425 66.1975 89.7543Z" fill="#FF0000"/>
<path d="M85.3438 90.5463V88.3568C86.5239 88.3464 87.3262 88.2999 87.7507 88.217C88.1855 88.1342 88.5944 87.8858 88.9774 87.4717C89.3604 87.0576 89.5519 86.54 89.5519 85.9189C89.5519 85.1632 89.2983 84.5627 88.7911 84.1176C88.2942 83.6621 87.6471 83.4344 86.85 83.4344C85.2765 83.4344 84.174 84.3609 83.5425 86.2139L80.8872 85.7791C81.7154 82.6838 83.7133 81.1362 86.8811 81.1362C88.641 81.1362 90.0178 81.6176 91.0116 82.5803C92.0158 83.5431 92.5178 84.6921 92.5178 86.0276C92.5178 87.3733 91.8656 88.4448 90.5613 89.2419C91.3895 89.687 92.0106 90.2564 92.4247 90.95C92.8387 91.6333 93.0458 92.4459 93.0458 93.3879C93.0458 94.8683 92.5075 96.0691 91.4309 96.9905C90.3542 97.9118 88.848 98.3725 86.9121 98.3725C83.1543 98.3725 80.9752 96.7006 80.3748 93.3569L82.999 92.7979C83.2371 93.8538 83.7185 94.6716 84.4432 95.2513C85.1782 95.831 86.0167 96.1209 86.9587 96.1209C87.9008 96.1209 88.6824 95.8569 89.3035 95.329C89.935 94.7907 90.2507 94.1074 90.2507 93.2792C90.2507 92.6374 90.054 92.0784 89.6606 91.6022C89.2673 91.126 88.848 90.831 88.4029 90.7171C87.9577 90.5929 87.1502 90.5308 85.9805 90.5308C85.8873 90.5308 85.6751 90.5359 85.3438 90.5463Z" fill="#FF0000"/>
<path d="M97.021 97.9998V94.8165H100.204V97.9998C100.204 99.1696 99.9973 100.112 99.5832 100.826C99.1691 101.551 98.5117 102.11 97.6111 102.503L96.8347 101.307C97.4247 101.049 97.8595 100.665 98.139 100.158C98.4185 99.6613 98.5738 98.9419 98.6049 97.9998H97.021Z" fill="#FF0000"/>
<path d="M115.903 91.9593L118.652 92.3165C118.352 94.2109 117.58 95.6965 116.338 96.7731C115.106 97.8394 113.59 98.3725 111.788 98.3725C109.532 98.3725 107.715 97.6375 106.338 96.1675C104.971 94.6871 104.288 92.5701 104.288 89.8165C104.288 88.0359 104.583 86.4779 105.173 85.1425C105.763 83.807 106.659 82.8081 107.86 82.1455C109.071 81.4726 110.386 81.1362 111.804 81.1362C113.595 81.1362 115.06 81.5917 116.198 82.5027C117.337 83.4033 118.067 84.687 118.388 86.3537L115.67 86.7729C115.412 85.6652 114.951 84.8319 114.288 84.2729C113.636 83.7139 112.844 83.4344 111.913 83.4344C110.505 83.4344 109.361 83.9416 108.481 84.9561C107.601 85.9603 107.161 87.5545 107.161 89.7388C107.161 91.9542 107.585 93.5639 108.434 94.5681C109.283 95.5722 110.391 96.0743 111.757 96.0743C112.855 96.0743 113.771 95.7379 114.506 95.065C115.241 94.3921 115.707 93.3569 115.903 91.9593Z" fill="#FF0000"/>
<path d="M120.375 89.7543C120.375 86.7005 121.224 84.4385 122.922 82.9685C124.34 81.747 126.069 81.1362 128.109 81.1362C130.376 81.1362 132.229 81.8815 133.668 83.3722C135.107 84.8526 135.826 86.9023 135.826 89.5214C135.826 91.6436 135.505 93.3155 134.863 94.537C134.232 95.7482 133.305 96.6903 132.084 97.3632C130.873 98.0361 129.547 98.3725 128.109 98.3725C125.8 98.3725 123.931 97.6323 122.503 96.152C121.085 94.6716 120.375 92.5391 120.375 89.7543ZM123.248 89.7543C123.248 91.8662 123.709 93.4501 124.63 94.506C125.552 95.5515 126.711 96.0743 128.109 96.0743C129.496 96.0743 130.65 95.5464 131.571 94.4904C132.493 93.4345 132.953 91.8248 132.953 89.6612C132.953 87.6218 132.487 86.0793 131.556 85.0338C130.634 83.9778 129.485 83.4499 128.109 83.4499C126.711 83.4499 125.552 83.9727 124.63 85.0182C123.709 86.0638 123.248 87.6425 123.248 89.7543Z" fill="#FF0000"/>
<path d="M139.77 81.5089H152.752V97.9998H149.972V83.8226H142.565V92.037C142.565 93.9521 142.503 95.2151 142.379 95.8259C142.255 96.4366 141.913 96.9698 141.354 97.4253C140.795 97.8808 139.988 98.1085 138.932 98.1085C138.279 98.1085 137.529 98.0671 136.68 97.9843V95.6551H137.907C138.487 95.6551 138.901 95.5981 139.149 95.4843C139.398 95.36 139.563 95.1685 139.646 94.9097C139.729 94.6509 139.77 93.8072 139.77 92.3786V81.5089Z" fill="#FF0000"/>
<path d="M156.991 81.5089H159.786V88.3723H167.535V81.5089H170.33V97.9998H167.535V90.686H159.786V97.9998H156.991V81.5089Z" fill="#FF0000"/>
<path d="M174.6 81.5089H177.395V95.7016H185.128V81.5089H187.923V95.7016H189.724V102.674H187.426V97.9998H174.6V81.5089Z" fill="#FF0000"/>
<path d="M203.7 92.6892L206.588 93.0463C206.133 94.7337 205.289 96.0433 204.057 96.975C202.825 97.9067 201.252 98.3725 199.336 98.3725C196.924 98.3725 195.009 97.6323 193.591 96.152C192.183 94.6613 191.479 92.5753 191.479 89.8941C191.479 87.1197 192.193 84.9665 193.622 83.4344C195.051 81.9022 196.904 81.1362 199.181 81.1362C201.386 81.1362 203.187 81.8867 204.585 83.3878C205.982 84.8888 206.681 87.0007 206.681 89.7233C206.681 89.8889 206.676 90.1374 206.666 90.4686H194.367C194.471 92.2803 194.983 93.6674 195.905 94.6302C196.826 95.5929 197.975 96.0743 199.352 96.0743C200.377 96.0743 201.252 95.8052 201.976 95.2669C202.701 94.7285 203.275 93.8693 203.7 92.6892ZM194.523 88.1705H203.731C203.607 86.7833 203.255 85.7429 202.675 85.0493C201.785 83.9727 200.63 83.4344 199.212 83.4344C197.929 83.4344 196.847 83.864 195.967 84.7232C195.097 85.5824 194.616 86.7315 194.523 88.1705Z" fill="#FF0000"/>
<path d="M210.843 97.9998V94.8165H214.026V97.9998C214.026 99.1696 213.819 100.112 213.405 100.826C212.991 101.551 212.334 102.11 211.433 102.503L210.656 101.307C211.247 101.049 211.681 100.665 211.961 100.158C212.24 99.6613 212.396 98.9419 212.427 97.9998H210.843Z" fill="#FF0000"/>
<path d="M238.576 91.9593L241.325 92.3165C241.025 94.2109 240.253 95.6965 239.011 96.7731C237.779 97.8394 236.263 98.3725 234.461 98.3725C232.204 98.3725 230.388 97.6375 229.011 96.1675C227.644 94.6871 226.961 92.5701 226.961 89.8165C226.961 88.0359 227.256 86.4779 227.846 85.1425C228.436 83.807 229.332 82.8081 230.533 82.1455C231.744 81.4726 233.059 81.1362 234.477 81.1362C236.268 81.1362 237.733 81.5917 238.871 82.5027C240.01 83.4033 240.74 84.687 241.061 86.3537L238.343 86.7729C238.085 85.6652 237.624 84.8319 236.961 84.2729C236.309 83.7139 235.517 83.4344 234.585 83.4344C233.178 83.4344 232.034 83.9416 231.154 84.9561C230.274 85.9603 229.834 87.5545 229.834 89.7388C229.834 91.9542 230.258 93.5639 231.107 94.5681C231.956 95.5722 233.064 96.0743 234.43 96.0743C235.528 96.0743 236.444 95.7379 237.179 95.065C237.914 94.3921 238.38 93.3569 238.576 91.9593Z" fill="#FF0000"/>
<path d="M243.732 81.5089H250.176C251.76 81.5089 252.935 81.6434 253.701 81.9126C254.477 82.1714 255.14 82.6528 255.688 83.3567C256.247 84.0607 256.527 84.9044 256.527 85.8878C256.527 86.6746 256.361 87.363 256.03 87.9531C255.709 88.5328 255.222 89.0193 254.57 89.4127C255.347 89.6715 255.989 90.1581 256.496 90.8724C257.013 91.5763 257.272 92.4148 257.272 93.3879C257.169 94.9511 256.61 96.1106 255.595 96.8663C254.581 97.622 253.105 97.9998 251.17 97.9998H243.732V81.5089ZM246.527 88.45H249.508C250.699 88.45 251.516 88.3879 251.962 88.2636C252.407 88.1394 252.805 87.891 253.157 87.5183C253.509 87.1352 253.685 86.6798 253.685 86.1518C253.685 85.2822 253.375 84.6766 252.753 84.335C252.143 83.9934 251.092 83.8226 249.601 83.8226H246.527V88.45ZM246.527 95.7016H250.207C251.791 95.7016 252.878 95.5205 253.468 95.1582C254.058 94.7855 254.368 94.1488 254.399 93.2482C254.399 92.7202 254.229 92.2337 253.887 91.7885C253.545 91.333 253.1 91.0484 252.552 90.9345C252.003 90.8103 251.123 90.7481 249.912 90.7481H246.527V95.7016Z" fill="#FF0000"/>
<path d="M271.527 92.6892L274.415 93.0463C273.96 94.7337 273.116 96.0433 271.884 96.975C270.652 97.9067 269.079 98.3725 267.164 98.3725C264.752 98.3725 262.836 97.6323 261.418 96.152C260.01 94.6613 259.306 92.5753 259.306 89.8941C259.306 87.1197 260.021 84.9665 261.449 83.4344C262.878 81.9022 264.731 81.1362 267.008 81.1362C269.213 81.1362 271.015 81.8867 272.412 83.3878C273.81 84.8888 274.509 87.0007 274.509 89.7233C274.509 89.8889 274.503 90.1374 274.493 90.4686H262.195C262.298 92.2803 262.811 93.6674 263.732 94.6302C264.653 95.5929 265.802 96.0743 267.179 96.0743C268.204 96.0743 269.079 95.8052 269.803 95.2669C270.528 94.7285 271.103 93.8693 271.527 92.6892ZM262.35 88.1705H271.558C271.434 86.7833 271.082 85.7429 270.502 85.0493C269.612 83.9727 268.458 83.4344 267.039 83.4344C265.756 83.4344 264.674 83.864 263.794 84.7232C262.924 85.5824 262.443 86.7315 262.35 88.1705Z" fill="#FF0000"/>
<path d="M275.378 81.5089H288.779V83.8226H283.468V97.9998H280.689V83.8226H275.378V81.5089Z" fill="#FF0000"/>
<path d="M288.639 97.9998V94.8165H291.822V97.9998C291.822 99.1696 291.615 100.112 291.201 100.826C290.787 101.551 290.13 102.11 289.229 102.503L288.453 101.307C289.043 101.049 289.478 100.665 289.757 100.158C290.037 99.6613 290.192 98.9419 290.223 97.9998H288.639Z" fill="#FF0000"/>
<path d="M306.978 81.5089H319.96V97.9998H317.18V83.8226H309.773V92.037C309.773 93.9521 309.711 95.2151 309.587 95.8259C309.463 96.4366 309.121 96.9698 308.562 97.4253C308.003 97.8808 307.195 98.1085 306.139 98.1085C305.487 98.1085 304.737 98.0671 303.888 97.9843V95.6551H305.115C305.694 95.6551 306.108 95.5981 306.357 95.4843C306.605 95.36 306.771 95.1685 306.854 94.9097C306.937 94.6509 306.978 93.8072 306.978 92.3786V81.5089Z" fill="#FF0000"/>
<path d="M335.472 92.6892L338.361 93.0463C337.905 94.7337 337.061 96.0433 335.829 96.975C334.598 97.9067 333.024 98.3725 331.109 98.3725C328.697 98.3725 326.782 97.6323 325.363 96.152C323.956 94.6613 323.252 92.5753 323.252 89.8941C323.252 87.1197 323.966 84.9665 325.394 83.4344C326.823 81.9022 328.676 81.1362 330.954 81.1362C333.159 81.1362 334.96 81.8867 336.357 83.3878C337.755 84.8888 338.454 87.0007 338.454 89.7233C338.454 89.8889 338.449 90.1374 338.438 90.4686H326.14C326.243 92.2803 326.756 93.6674 327.677 94.6302C328.598 95.5929 329.748 96.0743 331.124 96.0743C332.149 96.0743 333.024 95.8052 333.749 95.2669C334.473 94.7285 335.048 93.8693 335.472 92.6892ZM326.295 88.1705H335.503C335.379 86.7833 335.027 85.7429 334.447 85.0493C333.557 83.9727 332.403 83.4344 330.985 83.4344C329.701 83.4344 328.619 83.864 327.739 84.7232C326.87 85.5824 326.388 86.7315 326.295 88.1705ZM326.497 78.279V75.0957H329.416V78.279H326.497ZM332.289 78.279V75.0957H335.208V78.279H332.289Z" fill="#FF0000"/>
<path d="M344.09 81.5089H355.581V95.7016H357.367V102.674H355.069V97.9998H342.087V102.674H339.789V95.7016H341.264C343.231 93.0308 344.173 88.2999 344.09 81.5089ZM346.42 83.8226C346.213 89.1746 345.384 93.1343 343.935 95.7016H352.802V83.8226H346.42Z" fill="#FF0000"/>
<path d="M2.09703 112.509H4.89211V125.087L12.6407 112.509H15.6532V129H12.8581V116.5L5.10951 129H2.09703V112.509Z" fill="#FF0000"/>
<path d="M28.79 112.509H33.1379L37.4703 125.708L42.2841 112.509H46.3059V129H43.5108V115.723L38.6349 129H36.1349L31.523 115.087V129H28.79V112.509Z" fill="#FF0000"/>
<path d="M50.8246 135.351L50.514 132.727C51.1248 132.892 51.6579 132.975 52.1134 132.975C52.7345 132.975 53.2314 132.872 53.6041 132.664C53.9768 132.457 54.2822 132.168 54.5203 131.795C54.6963 131.515 54.981 130.822 55.3743 129.714C55.4261 129.559 55.5089 129.331 55.6228 129.031L49.3649 112.509H52.3774L55.8091 122.059C56.2543 123.27 56.6528 124.543 57.0048 125.879C57.3257 124.595 57.7087 123.342 58.1539 122.121L61.6788 112.509H64.4739L58.2005 129.279C57.5276 131.091 57.0048 132.338 56.6321 133.022C56.1352 133.943 55.5659 134.616 54.924 135.04C54.2822 135.475 53.5161 135.692 52.6258 135.692C52.0875 135.692 51.4871 135.579 50.8246 135.351Z" fill="#FF0000"/>
<path d="M70.4988 121.546V119.357C71.679 119.346 72.4813 119.3 72.9057 119.217C73.3405 119.134 73.7494 118.886 74.1324 118.472C74.5154 118.058 74.707 117.54 74.707 116.919C74.707 116.163 74.4533 115.563 73.9461 115.118C73.4492 114.662 72.8022 114.434 72.0051 114.434C70.4315 114.434 69.329 115.361 68.6975 117.214L66.0422 116.779C66.8704 113.684 68.8684 112.136 72.0361 112.136C73.796 112.136 75.1728 112.618 76.1666 113.58C77.1708 114.543 77.6729 115.692 77.6729 117.028C77.6729 118.373 77.0207 119.445 75.7163 120.242C76.5445 120.687 77.1656 121.256 77.5797 121.95C77.9938 122.633 78.2008 123.446 78.2008 124.388C78.2008 125.868 77.6625 127.069 76.5859 127.99C75.5093 128.912 74.003 129.372 72.0672 129.372C68.3093 129.372 66.1302 127.701 65.5298 124.357L68.1541 123.798C68.3922 124.854 68.8735 125.672 69.5982 126.251C70.3332 126.831 71.1717 127.121 72.1138 127.121C73.0558 127.121 73.8374 126.857 74.4585 126.329C75.09 125.791 75.4057 125.107 75.4057 124.279C75.4057 123.637 75.209 123.078 74.8157 122.602C74.4223 122.126 74.003 121.831 73.5579 121.717C73.1127 121.593 72.3053 121.531 71.1355 121.531C71.0423 121.531 70.8301 121.536 70.4988 121.546Z" fill="#FF0000"/>
<path d="M97.1452 112.509H99.9403V129H97.1452V112.509ZM81.5083 112.509H84.3034V118.953H87.8438C90.1524 118.953 91.9278 119.403 93.17 120.304C94.4226 121.194 95.0489 122.426 95.0489 124C95.0489 125.377 94.5262 126.557 93.4806 127.54C92.4454 128.513 90.7839 129 88.496 129H81.5083V112.509ZM84.3034 126.702H87.2382C89.0085 126.702 90.2714 126.484 91.0271 126.049C91.7828 125.615 92.1607 124.937 92.1607 124.015C92.1607 123.301 91.8812 122.664 91.3222 122.105C90.7631 121.546 89.5261 121.267 87.6109 121.267H84.3034V126.702Z" fill="#FF0000"/>
<path d="M104.288 112.509H107.083V119.636C107.974 119.636 108.595 119.465 108.947 119.124C109.309 118.782 109.837 117.788 110.531 116.142C111.079 114.838 111.524 113.979 111.866 113.565C112.208 113.151 112.601 112.871 113.046 112.726C113.491 112.581 114.206 112.509 115.189 112.509H115.748V114.823L114.972 114.807C114.237 114.807 113.766 114.916 113.559 115.133C113.341 115.361 113.01 116.039 112.565 117.167C112.14 118.244 111.752 118.989 111.4 119.403C111.048 119.817 110.505 120.195 109.77 120.537C110.971 120.858 112.151 121.976 113.31 123.891L116.369 129H113.295L110.313 123.891C109.702 122.866 109.169 122.193 108.714 121.872C108.258 121.541 107.715 121.375 107.083 121.375V129H104.288V112.509Z" fill="#FF0000"/>
<path d="M129.692 126.966C128.657 127.846 127.658 128.467 126.695 128.829C125.743 129.191 124.718 129.372 123.621 129.372C121.809 129.372 120.417 128.933 119.444 128.053C118.471 127.162 117.984 126.029 117.984 124.652C117.984 123.844 118.165 123.109 118.528 122.447C118.9 121.774 119.382 121.236 119.972 120.832C120.572 120.428 121.245 120.123 121.99 119.916C122.539 119.771 123.367 119.631 124.475 119.497C126.732 119.227 128.393 118.906 129.459 118.534C129.47 118.151 129.475 117.908 129.475 117.804C129.475 116.665 129.211 115.863 128.683 115.397C127.969 114.766 126.908 114.45 125.5 114.45C124.185 114.45 123.212 114.683 122.58 115.149C121.959 115.604 121.499 116.417 121.198 117.587L118.465 117.214C118.714 116.044 119.123 115.102 119.692 114.388C120.262 113.663 121.085 113.109 122.161 112.726C123.238 112.333 124.485 112.136 125.903 112.136C127.311 112.136 128.455 112.302 129.335 112.633C130.215 112.964 130.862 113.384 131.276 113.891C131.69 114.388 131.98 115.019 132.146 115.785C132.239 116.262 132.286 117.121 132.286 118.363V122.09C132.286 124.688 132.343 126.334 132.456 127.028C132.581 127.711 132.819 128.368 133.171 129H130.251C129.962 128.42 129.775 127.742 129.692 126.966ZM129.459 120.723C128.445 121.137 126.923 121.489 124.894 121.779C123.745 121.945 122.932 122.131 122.456 122.338C121.98 122.545 121.613 122.851 121.354 123.254C121.095 123.648 120.966 124.088 120.966 124.574C120.966 125.32 121.245 125.941 121.804 126.438C122.373 126.935 123.202 127.183 124.289 127.183C125.365 127.183 126.323 126.95 127.161 126.484C128 126.008 128.616 125.361 129.009 124.543C129.309 123.912 129.459 122.98 129.459 121.748V120.723Z" fill="#FF0000"/>
<path d="M145.5 112.509H148.295V119.372H156.044V112.509H158.839V129H156.044V121.686H148.295V129H145.5V112.509Z" fill="#FF0000"/>
<path d="M173.824 126.966C172.788 127.846 171.789 128.467 170.827 128.829C169.874 129.191 168.849 129.372 167.752 129.372C165.94 129.372 164.548 128.933 163.575 128.053C162.602 127.162 162.115 126.029 162.115 124.652C162.115 123.844 162.296 123.109 162.659 122.447C163.031 121.774 163.513 121.236 164.103 120.832C164.703 120.428 165.376 120.123 166.122 119.916C166.67 119.771 167.498 119.631 168.606 119.497C170.863 119.227 172.524 118.906 173.591 118.534C173.601 118.151 173.606 117.908 173.606 117.804C173.606 116.665 173.342 115.863 172.814 115.397C172.1 114.766 171.039 114.45 169.631 114.45C168.316 114.45 167.343 114.683 166.712 115.149C166.091 115.604 165.63 116.417 165.33 117.587L162.597 117.214C162.845 116.044 163.254 115.102 163.823 114.388C164.393 113.663 165.216 113.109 166.292 112.726C167.369 112.333 168.616 112.136 170.035 112.136C171.443 112.136 172.586 112.302 173.466 112.633C174.346 112.964 174.993 113.384 175.407 113.891C175.822 114.388 176.111 115.019 176.277 115.785C176.37 116.262 176.417 117.121 176.417 118.363V122.09C176.417 124.688 176.474 126.334 176.588 127.028C176.712 127.711 176.95 128.368 177.302 129H174.383C174.093 128.42 173.906 127.742 173.824 126.966ZM173.591 120.723C172.576 121.137 171.054 121.489 169.025 121.779C167.876 121.945 167.064 122.131 166.587 122.338C166.111 122.545 165.744 122.851 165.485 123.254C165.226 123.648 165.097 124.088 165.097 124.574C165.097 125.32 165.376 125.941 165.935 126.438C166.505 126.935 167.333 127.183 168.42 127.183C169.496 127.183 170.454 126.95 171.292 126.484C172.131 126.008 172.747 125.361 173.14 124.543C173.441 123.912 173.591 122.98 173.591 121.748V120.723Z" fill="#FF0000"/>
<path d="M189.631 112.509H196.076C197.659 112.509 198.834 112.643 199.6 112.913C200.377 113.171 201.039 113.653 201.588 114.357C202.147 115.061 202.427 115.904 202.427 116.888C202.427 117.675 202.261 118.363 201.93 118.953C201.609 119.533 201.122 120.019 200.47 120.413C201.246 120.672 201.888 121.158 202.395 121.872C202.913 122.576 203.172 123.415 203.172 124.388C203.068 125.951 202.509 127.111 201.495 127.866C200.48 128.622 199.005 129 197.069 129H189.631V112.509ZM192.426 119.45H195.408C196.598 119.45 197.416 119.388 197.861 119.264C198.306 119.139 198.705 118.891 199.057 118.518C199.409 118.135 199.585 117.68 199.585 117.152C199.585 116.282 199.274 115.677 198.653 115.335C198.042 114.993 196.992 114.823 195.501 114.823H192.426V119.45ZM192.426 126.702H196.107C197.69 126.702 198.777 126.52 199.367 126.158C199.958 125.785 200.268 125.149 200.299 124.248C200.299 123.72 200.128 123.234 199.787 122.789C199.445 122.333 199 122.048 198.451 121.934C197.903 121.81 197.023 121.748 195.812 121.748H192.426V126.702Z" fill="#FF0000"/>
<path d="M216.899 126.966C215.864 127.846 214.865 128.467 213.902 128.829C212.95 129.191 211.925 129.372 210.827 129.372C209.016 129.372 207.623 128.933 206.65 128.053C205.677 127.162 205.191 126.029 205.191 124.652C205.191 123.844 205.372 123.109 205.734 122.447C206.107 121.774 206.588 121.236 207.178 120.832C207.779 120.428 208.451 120.123 209.197 119.916C209.745 119.771 210.574 119.631 211.681 119.497C213.938 119.227 215.6 118.906 216.666 118.534C216.676 118.151 216.681 117.908 216.681 117.804C216.681 116.665 216.417 115.863 215.89 115.397C215.175 114.766 214.114 114.45 212.706 114.45C211.391 114.45 210.418 114.683 209.787 115.149C209.166 115.604 208.705 116.417 208.405 117.587L205.672 117.214C205.92 116.044 206.329 115.102 206.899 114.388C207.468 113.663 208.291 113.109 209.368 112.726C210.444 112.333 211.692 112.136 213.11 112.136C214.518 112.136 215.662 112.302 216.542 112.633C217.422 112.964 218.069 113.384 218.483 113.891C218.897 114.388 219.187 115.019 219.352 115.785C219.445 116.262 219.492 117.121 219.492 118.363V122.09C219.492 124.688 219.549 126.334 219.663 127.028C219.787 127.711 220.025 128.368 220.377 129H217.458C217.168 128.42 216.982 127.742 216.899 126.966ZM216.666 120.723C215.651 121.137 214.13 121.489 212.101 121.779C210.952 121.945 210.139 122.131 209.663 122.338C209.186 122.545 208.819 122.851 208.56 123.254C208.301 123.648 208.172 124.088 208.172 124.574C208.172 125.32 208.451 125.941 209.011 126.438C209.58 126.935 210.408 127.183 211.495 127.183C212.572 127.183 213.529 126.95 214.368 126.484C215.206 126.008 215.822 125.361 216.216 124.543C216.516 123.912 216.666 122.98 216.666 121.748V120.723Z" fill="#FF0000"/>
<path d="M223.84 135.32V112.509H226.387V114.652C226.987 113.813 227.665 113.187 228.421 112.773C229.176 112.348 230.093 112.136 231.169 112.136C232.577 112.136 233.819 112.499 234.896 113.223C235.973 113.948 236.785 114.973 237.334 116.298C237.883 117.612 238.157 119.057 238.157 120.63C238.157 122.318 237.852 123.839 237.241 125.195C236.64 126.541 235.76 127.576 234.601 128.301C233.452 129.015 232.241 129.372 230.967 129.372C230.036 129.372 229.197 129.176 228.452 128.782C227.717 128.389 227.111 127.892 226.635 127.292V135.32H223.84ZM226.371 120.848C226.371 122.97 226.801 124.538 227.66 125.553C228.519 126.567 229.56 127.074 230.781 127.074C232.023 127.074 233.084 126.552 233.964 125.506C234.855 124.45 235.3 122.82 235.3 120.615C235.3 118.513 234.865 116.94 233.995 115.894C233.136 114.848 232.106 114.326 230.905 114.326C229.715 114.326 228.659 114.885 227.738 116.003C226.827 117.11 226.371 118.725 226.371 120.848Z" fill="#FF0000"/>
<path d="M241.558 112.509H251.045V114.823H244.353V129H241.558V112.509Z" fill="#FF0000"/>
<path d="M263.204 126.966C262.169 127.846 261.17 128.467 260.207 128.829C259.255 129.191 258.23 129.372 257.132 129.372C255.321 129.372 253.928 128.933 252.955 128.053C251.982 127.162 251.496 126.029 251.496 124.652C251.496 123.844 251.677 123.109 252.039 122.447C252.412 121.774 252.893 121.236 253.483 120.832C254.084 120.428 254.757 120.123 255.502 119.916C256.051 119.771 256.879 119.631 257.986 119.497C260.243 119.227 261.905 118.906 262.971 118.534C262.981 118.151 262.987 117.908 262.987 117.804C262.987 116.665 262.723 115.863 262.195 115.397C261.48 114.766 260.419 114.45 259.011 114.45C257.697 114.45 256.724 114.683 256.092 115.149C255.471 115.604 255.01 116.417 254.71 117.587L251.977 117.214C252.226 116.044 252.634 115.102 253.204 114.388C253.773 113.663 254.596 113.109 255.673 112.726C256.749 112.333 257.997 112.136 259.415 112.136C260.823 112.136 261.967 112.302 262.847 112.633C263.727 112.964 264.374 113.384 264.788 113.891C265.202 114.388 265.492 115.019 265.657 115.785C265.751 116.262 265.797 117.121 265.797 118.363V122.09C265.797 124.688 265.854 126.334 265.968 127.028C266.092 127.711 266.33 128.368 266.682 129H263.763C263.473 128.42 263.287 127.742 263.204 126.966ZM262.971 120.723C261.957 121.137 260.435 121.489 258.406 121.779C257.257 121.945 256.444 122.131 255.968 122.338C255.492 122.545 255.124 122.851 254.865 123.254C254.607 123.648 254.477 124.088 254.477 124.574C254.477 125.32 254.757 125.941 255.316 126.438C255.885 126.935 256.713 127.183 257.8 127.183C258.877 127.183 259.834 126.95 260.673 126.484C261.511 126.008 262.127 125.361 262.521 124.543C262.821 123.912 262.971 122.98 262.971 121.748V120.723Z" fill="#FF0000"/>
<path d="M270.161 112.509H272.956V119.372H280.704V112.509H283.499V129H280.704V121.686H272.956V129H270.161V112.509Z" fill="#FF0000"/>
<path d="M299.012 123.689L301.9 124.046C301.445 125.734 300.601 127.043 299.369 127.975C298.137 128.907 296.564 129.372 294.649 129.372C292.237 129.372 290.321 128.632 288.903 127.152C287.495 125.661 286.791 123.575 286.791 120.894C286.791 118.12 287.506 115.966 288.934 114.434C290.363 112.902 292.216 112.136 294.493 112.136C296.698 112.136 298.5 112.887 299.897 114.388C301.295 115.889 301.993 118.001 301.993 120.723C301.993 120.889 301.988 121.137 301.978 121.469H289.68C289.783 123.28 290.296 124.667 291.217 125.63C292.138 126.593 293.287 127.074 294.664 127.074C295.689 127.074 296.564 126.805 297.288 126.267C298.013 125.729 298.588 124.869 299.012 123.689ZM289.835 119.17H299.043C298.919 117.783 298.567 116.743 297.987 116.049C297.097 114.973 295.943 114.434 294.524 114.434C293.241 114.434 292.159 114.864 291.279 115.723C290.409 116.582 289.928 117.732 289.835 119.17Z" fill="#FF0000"/>
<path d="M306.217 129V125.817H309.4V129H306.217Z" fill="#FF0000"/>
<path d="M323.391 129V106.235H327.926L333.314 122.354C333.811 123.855 334.173 124.978 334.401 125.723C334.66 124.895 335.063 123.679 335.612 122.074L341.062 106.235H345.115V129H342.212V109.947L335.597 129H332.879L326.295 109.621V129H323.391Z" fill="#FF0000"/>
<path d="M360.752 126.966C359.717 127.846 358.718 128.467 357.755 128.829C356.803 129.191 355.778 129.372 354.681 129.372C352.869 129.372 351.477 128.933 350.504 128.053C349.53 127.162 349.044 126.029 349.044 124.652C349.044 123.844 349.225 123.109 349.587 122.447C349.96 121.774 350.441 121.236 351.032 120.832C351.632 120.428 352.305 120.123 353.05 119.916C353.599 119.771 354.427 119.631 355.535 119.497C357.792 119.227 359.453 118.906 360.519 118.534C360.53 118.151 360.535 117.908 360.535 117.804C360.535 116.665 360.271 115.863 359.743 115.397C359.029 114.766 357.967 114.45 356.56 114.45C355.245 114.45 354.272 114.683 353.64 115.149C353.019 115.604 352.558 116.417 352.258 117.587L349.525 117.214C349.774 116.044 350.183 115.102 350.752 114.388C351.321 113.663 352.144 113.109 353.221 112.726C354.298 112.333 355.545 112.136 356.963 112.136C358.371 112.136 359.515 112.302 360.395 112.633C361.275 112.964 361.922 113.384 362.336 113.891C362.75 114.388 363.04 115.019 363.206 115.785C363.299 116.262 363.345 117.121 363.345 118.363V122.09C363.345 124.688 363.402 126.334 363.516 127.028C363.64 127.711 363.879 128.368 364.231 129H361.311C361.021 128.42 360.835 127.742 360.752 126.966ZM360.519 120.723C359.505 121.137 357.983 121.489 355.954 121.779C354.805 121.945 353.992 122.131 353.516 122.338C353.04 122.545 352.672 122.851 352.414 123.254C352.155 123.648 352.025 124.088 352.025 124.574C352.025 125.32 352.305 125.941 352.864 126.438C353.433 126.935 354.261 127.183 355.348 127.183C356.425 127.183 357.383 126.95 358.221 126.484C359.06 126.008 359.676 125.361 360.069 124.543C360.369 123.912 360.519 122.98 360.519 121.748V120.723Z" fill="#FF0000"/>
<path d="M378.454 122.959L381.203 123.316C380.903 125.211 380.131 126.696 378.889 127.773C377.657 128.839 376.141 129.372 374.339 129.372C372.083 129.372 370.266 128.637 368.889 127.167C367.523 125.687 366.839 123.57 366.839 120.816C366.839 119.036 367.134 117.478 367.724 116.142C368.314 114.807 369.21 113.808 370.411 113.146C371.622 112.473 372.937 112.136 374.355 112.136C376.146 112.136 377.611 112.592 378.749 113.503C379.888 114.403 380.618 115.687 380.939 117.354L378.221 117.773C377.963 116.665 377.502 115.832 376.839 115.273C376.187 114.714 375.395 114.434 374.464 114.434C373.056 114.434 371.912 114.942 371.032 115.956C370.152 116.96 369.712 118.555 369.712 120.739C369.712 122.954 370.136 124.564 370.985 125.568C371.834 126.572 372.942 127.074 374.308 127.074C375.406 127.074 376.322 126.738 377.057 126.065C377.792 125.392 378.258 124.357 378.454 122.959Z" fill="#FF0000"/>
<path d="M383.579 112.509H386.374V119.636C387.264 119.636 387.885 119.465 388.237 119.124C388.599 118.782 389.127 117.788 389.821 116.142C390.37 114.838 390.815 113.979 391.156 113.565C391.498 113.151 391.891 112.871 392.337 112.726C392.782 112.581 393.496 112.509 394.479 112.509H395.039V114.823L394.262 114.807C393.527 114.807 393.056 114.916 392.849 115.133C392.632 115.361 392.3 116.039 391.855 117.167C391.431 118.244 391.043 118.989 390.691 119.403C390.339 119.817 389.795 120.195 389.06 120.537C390.261 120.858 391.441 121.976 392.601 123.891L395.66 129H392.585L389.604 123.891C388.993 122.866 388.46 122.193 388.004 121.872C387.549 121.541 387.005 121.375 386.374 121.375V129H383.579V112.509Z" fill="#FF0000"/>
<path d="M397.508 112.509H400.303V125.087L408.051 112.509H411.064V129H408.269V116.5L400.52 129H397.508V112.509Z" fill="#FF0000"/>
<path d="M2.11256 143.509H15.1252V160H12.3301V145.823H4.90764V160H2.11256V143.509Z" fill="#FF0000"/>
<path d="M19.3334 166.32V143.509H21.88V145.652C22.4804 144.813 23.1585 144.187 23.9142 143.773C24.6699 143.348 25.586 143.136 26.6627 143.136C28.0706 143.136 29.3128 143.499 30.3894 144.223C31.4661 144.948 32.2787 145.973 32.8274 147.298C33.376 148.612 33.6504 150.057 33.6504 151.63C33.6504 153.318 33.345 154.839 32.7342 156.195C32.1338 157.541 31.2538 158.576 30.0944 159.301C28.9453 160.015 27.7341 160.372 26.4608 160.372C25.5291 160.372 24.6906 160.176 23.9452 159.782C23.2102 159.389 22.6046 158.892 22.1284 158.292V166.32H19.3334ZM21.8645 151.848C21.8645 153.97 22.2941 155.538 23.1533 156.553C24.0125 157.567 25.0529 158.074 26.2745 158.074C27.5167 158.074 28.5778 157.552 29.4577 156.506C30.348 155.45 30.7932 153.82 30.7932 151.615C30.7932 149.513 30.3584 147.94 29.4888 146.894C28.6296 145.848 27.5995 145.326 26.3987 145.326C25.2082 145.326 24.1523 145.885 23.2309 147.003C22.3199 148.11 21.8645 149.725 21.8645 151.848Z" fill="#FF0000"/>
<path d="M35.9951 151.754C35.9951 148.7 36.844 146.439 38.5418 144.969C39.96 143.747 41.6888 143.136 43.7282 143.136C45.9953 143.136 47.8483 143.882 49.2873 145.372C50.7262 146.853 51.4457 148.902 51.4457 151.521C51.4457 153.644 51.1248 155.315 50.483 156.537C49.8515 157.748 48.925 158.69 47.7034 159.363C46.4922 160.036 45.1671 160.372 43.7282 160.372C41.4196 160.372 39.5511 159.632 38.1225 158.152C36.7042 156.672 35.9951 154.539 35.9951 151.754ZM38.8678 151.754C38.8678 153.866 39.3285 155.45 40.2499 156.506C41.1712 157.552 42.3306 158.074 43.7282 158.074C45.1154 158.074 46.2696 157.546 47.191 156.49C48.1123 155.435 48.573 153.825 48.573 151.661C48.573 149.622 48.1071 148.079 47.1754 147.034C46.2541 145.978 45.105 145.45 43.7282 145.45C42.3306 145.45 41.1712 145.973 40.2499 147.018C39.3285 148.064 38.8678 149.643 38.8678 151.754Z" fill="#FF0000"/>
<path d="M62.5484 151.754C62.5484 148.7 63.3973 146.439 65.095 144.969C66.5132 143.747 68.2421 143.136 70.2814 143.136C72.5485 143.136 74.4016 143.882 75.8405 145.372C77.2795 146.853 77.9989 148.902 77.9989 151.521C77.9989 153.644 77.678 155.315 77.0362 156.537C76.4047 157.748 75.4782 158.69 74.2567 159.363C73.0454 160.036 71.7204 160.372 70.2814 160.372C67.9729 160.372 66.1043 159.632 64.6757 158.152C63.2575 156.672 62.5484 154.539 62.5484 151.754ZM65.4211 151.754C65.4211 153.866 65.8818 155.45 66.8031 156.506C67.7244 157.552 68.8839 158.074 70.2814 158.074C71.6686 158.074 72.8229 157.546 73.7442 156.49C74.6656 155.435 75.1262 153.825 75.1262 151.661C75.1262 149.622 74.6604 148.079 73.7287 147.034C72.8074 145.978 71.6583 145.45 70.2814 145.45C68.8839 145.45 67.7244 145.973 66.8031 147.018C65.8818 148.064 65.4211 149.643 65.4211 151.754Z" fill="#FF0000"/>
<path d="M81.3841 143.509H84.1792V157.702H90.5457V143.509H93.3408V157.702H99.7229V143.509H102.502V157.702H104.35V164.674H102.037V160H81.3841V143.509Z" fill="#FF0000"/>
<path d="M107.72 166.351L107.409 163.727C108.02 163.892 108.553 163.975 109.009 163.975C109.63 163.975 110.127 163.872 110.5 163.664C110.872 163.457 111.178 163.168 111.416 162.795C111.592 162.515 111.876 161.822 112.27 160.714C112.321 160.559 112.404 160.331 112.518 160.031L106.26 143.509H109.273L112.705 153.059C113.15 154.27 113.548 155.543 113.9 156.879C114.221 155.595 114.604 154.342 115.049 153.121L118.574 143.509H121.369L115.096 160.279C114.423 162.091 113.9 163.338 113.528 164.022C113.031 164.943 112.461 165.616 111.819 166.04C111.178 166.475 110.412 166.692 109.521 166.692C108.983 166.692 108.382 166.579 107.72 166.351Z" fill="#FF0000"/>
<path d="M123.838 143.509H126.633V157.702H133V143.509H135.795V157.702H142.177V143.509H144.957V157.702H146.804V164.674H144.491V160H123.838V143.509Z" fill="#FF0000"/>
<path d="M160.842 154.689L163.73 155.046C163.275 156.734 162.431 158.043 161.199 158.975C159.967 159.907 158.394 160.372 156.479 160.372C154.066 160.372 152.151 159.632 150.733 158.152C149.325 156.661 148.621 154.575 148.621 151.894C148.621 149.12 149.336 146.966 150.764 145.434C152.193 143.902 154.046 143.136 156.323 143.136C158.528 143.136 160.33 143.887 161.727 145.388C163.125 146.889 163.823 149.001 163.823 151.723C163.823 151.889 163.818 152.137 163.808 152.469H151.51C151.613 154.28 152.125 155.667 153.047 156.63C153.968 157.593 155.117 158.074 156.494 158.074C157.519 158.074 158.394 157.805 159.118 157.267C159.843 156.729 160.418 155.869 160.842 154.689ZM151.665 150.17H160.873C160.749 148.783 160.397 147.743 159.817 147.049C158.927 145.973 157.773 145.434 156.354 145.434C155.071 145.434 153.989 145.864 153.109 146.723C152.239 147.582 151.758 148.732 151.665 150.17Z" fill="#FF0000"/>
<path d="M167.271 143.509H170.066V150.372H177.814V143.509H180.609V160H177.814V152.686H170.066V160H167.271V143.509Z" fill="#FF0000"/>
<path d="M184.833 143.509H187.628V156.087L195.377 143.509H198.389V160H195.594V147.5L187.846 160H184.833V143.509Z" fill="#FF0000"/>
<path d="M213.886 154.689L216.775 155.046C216.319 156.734 215.475 158.043 214.244 158.975C213.012 159.907 211.438 160.372 209.523 160.372C207.111 160.372 205.196 159.632 203.777 158.152C202.37 156.661 201.666 154.575 201.666 151.894C201.666 149.12 202.38 146.966 203.809 145.434C205.237 143.902 207.09 143.136 209.368 143.136C211.573 143.136 213.374 143.887 214.771 145.388C216.169 146.889 216.868 149.001 216.868 151.723C216.868 151.889 216.863 152.137 216.852 152.469H204.554C204.657 154.28 205.17 155.667 206.091 156.63C207.013 157.593 208.162 158.074 209.538 158.074C210.563 158.074 211.438 157.805 212.163 157.267C212.887 156.729 213.462 155.869 213.886 154.689ZM204.709 150.17H213.917C213.793 148.783 213.441 147.743 212.861 147.049C211.971 145.973 210.817 145.434 209.399 145.434C208.115 145.434 207.033 145.864 206.153 146.723C205.284 147.582 204.802 148.732 204.709 150.17Z" fill="#FF0000"/>
<path d="M229.151 143.509H231.946V156.087L239.694 143.509H242.707V160H239.912V147.5L232.163 160H229.151V143.509Z" fill="#FF0000"/>
<path d="M257.971 143.509H269.462V157.702H271.248V164.674H268.949V160H255.968V164.674H253.67V157.702H255.145C257.112 155.031 258.054 150.3 257.971 143.509ZM260.3 145.823C260.093 151.175 259.265 155.134 257.816 157.702H266.682V145.823H260.3Z" fill="#FF0000"/>
<path d="M274.214 166.351L273.903 163.727C274.514 163.892 275.047 163.975 275.502 163.975C276.123 163.975 276.62 163.872 276.993 163.664C277.366 163.457 277.671 163.168 277.909 162.795C278.085 162.515 278.37 161.822 278.763 160.714C278.815 160.559 278.898 160.331 279.012 160.031L272.754 143.509H275.766L279.198 153.059C279.643 154.27 280.042 155.543 280.394 156.879C280.715 155.595 281.098 154.342 281.543 153.121L285.068 143.509H287.863L281.589 160.279C280.917 162.091 280.394 163.338 280.021 164.022C279.524 164.943 278.955 165.616 278.313 166.04C277.671 166.475 276.905 166.692 276.015 166.692C275.476 166.692 274.876 166.579 274.214 166.351Z" fill="#FF0000"/>
<path d="M288.375 160L294.4 151.428L288.826 143.509H292.319L294.85 147.375C295.327 148.11 295.71 148.726 296 149.223C296.455 148.54 296.874 147.934 297.257 147.406L300.037 143.509H303.375L297.677 151.273L303.81 160H300.379L296.993 154.876L296.093 153.493L291.76 160H288.375Z" fill="#FF0000"/>
<path d="M333.36 160V137.235H323.267C321.238 137.235 319.696 137.443 318.64 137.857C317.584 138.26 316.74 138.98 316.109 140.015C315.477 141.05 315.161 142.194 315.161 143.447C315.161 145.062 315.684 146.423 316.73 147.531C317.775 148.638 319.39 149.342 321.575 149.643C320.777 150.026 320.172 150.403 319.758 150.776C318.878 151.584 318.044 152.593 317.258 153.804L313.298 160H317.087L320.099 155.264C320.979 153.897 321.704 152.852 322.273 152.127C322.843 151.402 323.35 150.895 323.795 150.605C324.251 150.315 324.711 150.114 325.177 150C325.519 149.927 326.078 149.891 326.854 149.891H330.348V160H333.36ZM330.348 147.282H323.873C322.496 147.282 321.419 147.142 320.643 146.863C319.866 146.573 319.276 146.118 318.873 145.496C318.469 144.865 318.267 144.182 318.267 143.447C318.267 142.37 318.655 141.485 319.432 140.791C320.218 140.098 321.456 139.751 323.143 139.751H330.348V147.282Z" fill="#FF0000"/>
<path d="M337.957 143.509H340.752V150.636C341.642 150.636 342.263 150.465 342.615 150.124C342.978 149.782 343.506 148.788 344.199 147.142C344.748 145.838 345.193 144.979 345.535 144.565C345.876 144.151 346.27 143.871 346.715 143.726C347.16 143.581 347.874 143.509 348.858 143.509H349.417V145.823L348.64 145.807C347.905 145.807 347.434 145.916 347.227 146.133C347.01 146.361 346.678 147.039 346.233 148.167C345.809 149.244 345.421 149.989 345.069 150.403C344.717 150.817 344.173 151.195 343.438 151.537C344.639 151.858 345.819 152.976 346.979 154.891L350.038 160H346.963L343.982 154.891C343.371 153.866 342.838 153.193 342.382 152.872C341.927 152.541 341.383 152.375 340.752 152.375V160H337.957V143.509Z" fill="#FF0000"/>
<path d="M352.134 166.351L351.823 163.727C352.434 163.892 352.967 163.975 353.423 163.975C354.044 163.975 354.541 163.872 354.914 163.664C355.286 163.457 355.592 163.168 355.83 162.795C356.006 162.515 356.29 161.822 356.684 160.714C356.736 160.559 356.818 160.331 356.932 160.031L350.674 143.509H353.687L357.119 153.059C357.564 154.27 357.962 155.543 358.314 156.879C358.635 155.595 359.018 154.342 359.463 153.121L362.988 143.509H365.783L359.51 160.279C358.837 162.091 358.314 163.338 357.942 164.022C357.445 164.943 356.875 165.616 356.234 166.04C355.592 166.475 354.826 166.692 353.935 166.692C353.397 166.692 352.797 166.579 352.134 166.351Z" fill="#FF0000"/>
<path d="M366.653 143.509H380.054V145.823H374.743V160H371.964V145.823H366.653V143.509Z" fill="#FF0000"/>
<path d="M382.725 143.509H385.52V156.087L393.268 143.509H396.281V160H393.486V147.5L385.737 160H382.725V143.509Z" fill="#FF0000"/>
<path d="M400.489 143.509H403.284V156.087L411.033 143.509H414.045V160H411.25V147.5L403.501 160H400.489V143.509Z" fill="#FF0000"/>
<path d="M1.05664 182.754C1.05664 179.7 1.90552 177.439 3.60327 175.969C5.02151 174.747 6.75032 174.136 8.78969 174.136C11.0568 174.136 12.9098 174.882 14.3488 176.372C15.7877 177.853 16.5072 179.902 16.5072 182.521C16.5072 184.644 16.1863 186.315 15.5445 187.537C14.913 188.748 13.9865 189.69 12.7649 190.363C11.5537 191.036 10.2286 191.372 8.78969 191.372C6.48116 191.372 4.6126 190.632 3.18401 189.152C1.76576 187.672 1.05664 185.539 1.05664 182.754ZM3.92936 182.754C3.92936 184.866 4.39003 186.45 5.31137 187.506C6.23271 188.552 7.39215 189.074 8.78969 189.074C10.1769 189.074 11.3311 188.546 12.2525 187.49C13.1738 186.435 13.6345 184.825 13.6345 182.661C13.6345 180.622 13.1686 179.079 12.237 178.034C11.3156 176.978 10.1665 176.45 8.78969 176.45C7.39215 176.45 6.23271 176.973 5.31137 178.018C4.39003 179.064 3.92936 180.643 3.92936 182.754Z" fill="#FF0000"/>
<path d="M17.5787 174.509H30.9795V176.823H25.6689V191H22.8893V176.823H17.5787V174.509Z" fill="#FF0000"/>
<path d="M42.8897 168.235H60.7937V191H57.7657V170.922H45.9021V191H42.8897V168.235Z" fill="#FF0000"/>
<path d="M64.3186 182.754C64.3186 179.7 65.1675 177.439 66.8652 175.969C68.2835 174.747 70.0123 174.136 72.0517 174.136C74.3188 174.136 76.1718 174.882 77.6107 176.372C79.0497 177.853 79.7692 179.902 79.7692 182.521C79.7692 184.644 79.4482 186.315 78.8064 187.537C78.1749 188.748 77.2484 189.69 76.0269 190.363C74.8157 191.036 73.4906 191.372 72.0517 191.372C69.7431 191.372 67.8746 190.632 66.446 189.152C65.0277 187.672 64.3186 185.539 64.3186 182.754ZM67.1913 182.754C67.1913 184.866 67.652 186.45 68.5733 187.506C69.4947 188.552 70.6541 189.074 72.0517 189.074C73.4388 189.074 74.5931 188.546 75.5144 187.49C76.4358 186.435 76.8965 184.825 76.8965 182.661C76.8965 180.622 76.4306 179.079 75.4989 178.034C74.5776 176.978 73.4285 176.45 72.0517 176.45C70.6541 176.45 69.4947 176.973 68.5733 178.018C67.652 179.064 67.1913 180.643 67.1913 182.754Z" fill="#FF0000"/>
<path d="M83.7133 174.509H96.6949V191H93.9154V176.823H86.5084V185.037C86.5084 186.952 86.4463 188.215 86.3221 188.826C86.1979 189.437 85.8562 189.97 85.2972 190.425C84.7382 190.881 83.9307 191.109 82.8748 191.109C82.2226 191.109 81.4721 191.067 80.6232 190.984V188.655H81.85C82.4297 188.655 82.8438 188.598 83.0922 188.484C83.3407 188.36 83.5063 188.169 83.5891 187.91C83.6719 187.651 83.7133 186.807 83.7133 185.379V174.509Z" fill="#FF0000"/>
<path d="M100.919 174.509H103.714V187.087L111.462 174.509H114.475V191H111.68V178.5L103.931 191H100.919V174.509Z" fill="#FF0000"/>
<path d="M118.698 174.509H121.493V181.372H129.242V174.509H132.037V191H129.242V183.686H121.493V191H118.698V174.509Z" fill="#FF0000"/>
<path d="M151.96 174.509H154.755V191H151.96V174.509ZM136.323 174.509H139.118V180.953H142.658C144.967 180.953 146.742 181.403 147.985 182.304C149.237 183.194 149.864 184.426 149.864 186C149.864 187.377 149.341 188.557 148.295 189.54C147.26 190.513 145.598 191 143.311 191H136.323V174.509ZM139.118 188.702H142.053C143.823 188.702 145.086 188.484 145.842 188.049C146.597 187.615 146.975 186.937 146.975 186.015C146.975 185.301 146.696 184.664 146.137 184.105C145.578 183.546 144.341 183.267 142.426 183.267H139.118V188.702Z" fill="#FF0000"/>
<path d="M167.084 184.571L169.957 183.826C170.174 184.933 170.754 186.041 171.696 187.149C172.649 188.257 173.906 188.81 175.47 188.81C177.064 188.81 178.322 188.401 179.243 187.584C180.164 186.766 180.625 185.777 180.625 184.618C180.625 183.365 180.138 182.371 179.165 181.636C178.192 180.891 176.867 180.518 175.19 180.518H173.746V177.894C175.133 177.894 176.194 177.816 176.929 177.661C177.664 177.495 178.311 177.087 178.87 176.434C179.44 175.772 179.724 175.021 179.724 174.183C179.724 173.189 179.336 172.325 178.56 171.59C177.794 170.855 176.753 170.487 175.439 170.487C174.289 170.487 173.306 170.777 172.488 171.357C171.681 171.926 171.122 172.687 170.811 173.639C170.501 174.581 170.345 175.285 170.345 175.751L167.457 175.099C168.171 170.264 170.842 167.847 175.47 167.847C177.695 167.847 179.46 168.468 180.765 169.711C182.069 170.943 182.721 172.387 182.721 174.043C182.721 176.165 181.717 177.811 179.709 178.981C180.868 179.302 181.836 179.959 182.613 180.953C183.399 181.937 183.793 183.117 183.793 184.493C183.793 186.45 183.032 188.091 181.51 189.416C179.999 190.731 177.99 191.388 175.485 191.388C171.179 191.388 168.378 189.116 167.084 184.571Z" fill="#FF0000"/>
<path d="M197.954 188.966C196.919 189.846 195.92 190.467 194.957 190.829C194.005 191.191 192.98 191.372 191.883 191.372C190.071 191.372 188.679 190.933 187.706 190.053C186.733 189.162 186.246 188.029 186.246 186.652C186.246 185.844 186.427 185.109 186.79 184.447C187.162 183.774 187.644 183.236 188.234 182.832C188.834 182.428 189.507 182.123 190.252 181.916C190.801 181.771 191.629 181.631 192.737 181.497C194.994 181.227 196.655 180.906 197.722 180.534C197.732 180.151 197.737 179.908 197.737 179.804C197.737 178.665 197.473 177.863 196.945 177.397C196.231 176.766 195.17 176.45 193.762 176.45C192.447 176.45 191.474 176.683 190.842 177.149C190.221 177.604 189.761 178.417 189.46 179.587L186.728 179.214C186.976 178.044 187.385 177.102 187.954 176.388C188.524 175.663 189.347 175.109 190.423 174.726C191.5 174.333 192.747 174.136 194.166 174.136C195.573 174.136 196.717 174.302 197.597 174.633C198.477 174.964 199.124 175.384 199.538 175.891C199.952 176.388 200.242 177.019 200.408 177.785C200.501 178.262 200.548 179.121 200.548 180.363V184.09C200.548 186.688 200.605 188.334 200.718 189.028C200.843 189.711 201.081 190.368 201.433 191H198.513C198.224 190.42 198.037 189.742 197.954 188.966ZM197.722 182.723C196.707 183.137 195.185 183.489 193.156 183.779C192.007 183.945 191.194 184.131 190.718 184.338C190.242 184.545 189.875 184.851 189.616 185.254C189.357 185.648 189.228 186.088 189.228 186.574C189.228 187.32 189.507 187.941 190.066 188.438C190.635 188.935 191.464 189.183 192.551 189.183C193.627 189.183 194.585 188.95 195.423 188.484C196.262 188.008 196.878 187.361 197.271 186.543C197.571 185.912 197.722 184.98 197.722 183.748V182.723Z" fill="#FF0000"/>
<path d="M206.262 174.509H219.244V191H216.464V176.823H209.057V185.037C209.057 186.952 208.995 188.215 208.871 188.826C208.747 189.437 208.405 189.97 207.846 190.425C207.287 190.881 206.479 191.109 205.423 191.109C204.771 191.109 204.021 191.067 203.172 190.984V188.655H204.399C204.978 188.655 205.392 188.598 205.641 188.484C205.889 188.36 206.055 188.169 206.138 187.91C206.221 187.651 206.262 186.807 206.262 185.379V174.509Z" fill="#FF0000"/>
<path d="M234.756 185.689L237.645 186.046C237.189 187.734 236.345 189.043 235.113 189.975C233.882 190.907 232.308 191.372 230.393 191.372C227.981 191.372 226.066 190.632 224.647 189.152C223.24 187.661 222.536 185.575 222.536 182.894C222.536 180.12 223.25 177.966 224.678 176.434C226.107 174.902 227.96 174.136 230.238 174.136C232.443 174.136 234.244 174.887 235.641 176.388C237.039 177.889 237.738 180.001 237.738 182.723C237.738 182.889 237.733 183.137 237.722 183.469H225.424C225.527 185.28 226.04 186.667 226.961 187.63C227.882 188.593 229.032 189.074 230.408 189.074C231.433 189.074 232.308 188.805 233.033 188.267C233.757 187.729 234.332 186.869 234.756 185.689ZM225.579 181.17H234.787C234.663 179.783 234.311 178.743 233.731 178.049C232.841 176.973 231.687 176.434 230.269 176.434C228.985 176.434 227.903 176.864 227.023 177.723C226.154 178.582 225.672 179.732 225.579 181.17Z" fill="#FF0000"/>
<path d="M241.185 174.509H247.629C249.213 174.509 250.388 174.643 251.154 174.913C251.931 175.171 252.593 175.653 253.142 176.357C253.701 177.061 253.98 177.904 253.98 178.888C253.98 179.675 253.815 180.363 253.483 180.953C253.162 181.533 252.676 182.019 252.024 182.413C252.8 182.672 253.442 183.158 253.949 183.872C254.467 184.576 254.726 185.415 254.726 186.388C254.622 187.951 254.063 189.111 253.049 189.866C252.034 190.622 250.559 191 248.623 191H241.185V174.509ZM243.98 181.45H246.961C248.152 181.45 248.97 181.388 249.415 181.264C249.86 181.139 250.259 180.891 250.611 180.518C250.963 180.135 251.139 179.68 251.139 179.152C251.139 178.282 250.828 177.677 250.207 177.335C249.596 176.993 248.545 176.823 247.055 176.823H243.98V181.45ZM243.98 188.702H247.66C249.244 188.702 250.331 188.52 250.921 188.158C251.511 187.785 251.822 187.149 251.853 186.248C251.853 185.72 251.682 185.234 251.34 184.789C250.999 184.333 250.554 184.048 250.005 183.934C249.456 183.81 248.576 183.748 247.365 183.748H243.98V188.702Z" fill="#FF0000"/>
<path d="M268.453 184.959L271.201 185.316C270.901 187.211 270.13 188.696 268.887 189.773C267.655 190.839 266.139 191.372 264.338 191.372C262.081 191.372 260.264 190.637 258.887 189.167C257.521 187.687 256.837 185.57 256.837 182.816C256.837 181.036 257.132 179.478 257.723 178.142C258.313 176.807 259.208 175.808 260.409 175.146C261.62 174.473 262.935 174.136 264.353 174.136C266.144 174.136 267.609 174.592 268.748 175.503C269.886 176.403 270.616 177.687 270.937 179.354L268.22 179.773C267.961 178.665 267.5 177.832 266.838 177.273C266.185 176.714 265.393 176.434 264.462 176.434C263.054 176.434 261.91 176.942 261.03 177.956C260.15 178.96 259.71 180.555 259.71 182.739C259.71 184.954 260.135 186.564 260.983 187.568C261.832 188.572 262.94 189.074 264.306 189.074C265.404 189.074 266.32 188.738 267.055 188.065C267.79 187.392 268.256 186.357 268.453 184.959Z" fill="#FF0000"/>
<path d="M273.577 174.509H276.372V181.636C277.262 181.636 277.883 181.465 278.235 181.124C278.598 180.782 279.126 179.788 279.819 178.142C280.368 176.838 280.813 175.979 281.155 175.565C281.496 175.151 281.89 174.871 282.335 174.726C282.78 174.581 283.494 174.509 284.478 174.509H285.037V176.823L284.26 176.807C283.525 176.807 283.054 176.916 282.847 177.133C282.63 177.361 282.298 178.039 281.853 179.167C281.429 180.244 281.041 180.989 280.689 181.403C280.337 181.817 279.793 182.195 279.058 182.537C280.259 182.858 281.439 183.976 282.599 185.891L285.658 191H282.583L279.602 185.891C278.991 184.866 278.458 184.193 278.002 183.872C277.547 183.541 277.003 183.375 276.372 183.375V191H273.577V174.509Z" fill="#FF0000"/>
<path d="M286.838 182.754C286.838 179.7 287.687 177.439 289.385 175.969C290.803 174.747 292.532 174.136 294.571 174.136C296.838 174.136 298.691 174.882 300.13 176.372C301.569 177.853 302.288 179.902 302.288 182.521C302.288 184.644 301.968 186.315 301.326 187.537C300.694 188.748 299.768 189.69 298.546 190.363C297.335 191.036 296.01 191.372 294.571 191.372C292.262 191.372 290.394 190.632 288.965 189.152C287.547 187.672 286.838 185.539 286.838 182.754ZM289.711 182.754C289.711 184.866 290.171 186.45 291.093 187.506C292.014 188.552 293.173 189.074 294.571 189.074C295.958 189.074 297.112 188.546 298.034 187.49C298.955 186.435 299.416 184.825 299.416 182.661C299.416 180.622 298.95 179.079 298.018 178.034C297.097 176.978 295.948 176.45 294.571 176.45C293.173 176.45 292.014 176.973 291.093 178.018C290.171 179.064 289.711 180.643 289.711 182.754Z" fill="#FF0000"/>
<path d="M305.581 174.509H308.376V187.087L316.124 174.509H319.137V191H316.342V178.5L308.593 191H305.581V174.509ZM315.286 168.267H317.196C317.04 169.561 316.564 170.554 315.767 171.248C314.98 171.942 313.93 172.288 312.615 172.288C311.29 172.288 310.229 171.947 309.431 171.263C308.645 170.57 308.174 169.571 308.018 168.267H309.928C310.073 168.97 310.358 169.498 310.782 169.85C311.217 170.192 311.797 170.363 312.522 170.363C313.36 170.363 313.992 170.197 314.416 169.866C314.851 169.524 315.141 168.991 315.286 168.267Z" fill="#FF0000"/>
</svg>
