<svg width="1728" height="832" viewBox="0 0 1728 832" fill="none" xmlns="http://www.w3.org/2000/svg">
<rect x="1.38608" y="70.8218" width="1695.27" height="760.093" transform="rotate(-2.34741 1.38608 70.8218)" fill="white" stroke="#FF0000" stroke-width="2.66524"/>
<path d="M1160.16 610.311L1162.92 610.197L1161.63 617.346L1162.13 617.341C1162.91 617.309 1163.54 617.085 1164.01 616.67C1164.49 616.244 1165.14 615.269 1165.99 613.745C1166.86 612.177 1167.61 611.151 1168.24 610.667C1168.87 610.182 1169.74 609.918 1170.85 609.872L1172.16 609.819L1171.74 612.102L1171.06 612.13C1170.37 612.158 1169.89 612.272 1169.62 612.47C1169.37 612.668 1169 613.225 1168.52 614.141C1167.86 615.397 1167.28 616.302 1166.77 616.854C1166.26 617.396 1165.6 617.835 1164.78 618.17C1165.49 618.412 1166.06 618.78 1166.5 619.272C1166.94 619.765 1167.39 620.523 1167.82 621.547L1169.97 626.507L1167.05 626.627L1165.32 622.54C1164.67 621.025 1164.09 620.059 1163.57 619.642C1163.06 619.226 1162.32 619.037 1161.36 619.076L1159.99 626.916L1157.2 627.031L1160.16 610.311ZM1172.63 620.099C1172.49 616.864 1173.34 614.147 1175.15 611.947C1176.65 610.135 1178.67 609.176 1181.22 609.072C1183.22 608.99 1184.85 609.548 1186.12 610.747C1187.4 611.945 1188.08 613.605 1188.17 615.727C1188.25 617.63 1187.94 619.42 1187.23 621.095C1186.53 622.76 1185.48 624.058 1184.1 624.99C1182.72 625.922 1181.24 626.42 1179.67 626.485C1178.38 626.537 1177.19 626.31 1176.11 625.802C1175.04 625.294 1174.2 624.547 1173.6 623.561C1173 622.574 1172.68 621.421 1172.63 620.099ZM1175.44 619.703C1175.5 621.263 1175.93 622.434 1176.71 623.214C1177.49 623.985 1178.46 624.346 1179.61 624.299C1180.22 624.274 1180.81 624.13 1181.39 623.866C1181.97 623.592 1182.51 623.195 1183 622.675C1183.49 622.155 1183.9 621.57 1184.23 620.921C1184.56 620.261 1184.83 619.558 1185.01 618.81C1185.29 617.767 1185.42 616.772 1185.38 615.826C1185.31 614.328 1184.89 613.183 1184.09 612.393C1183.31 611.591 1182.35 611.214 1181.2 611.261C1180.32 611.297 1179.52 611.543 1178.81 612C1178.1 612.446 1177.46 613.087 1176.91 613.922C1176.36 614.757 1175.96 615.722 1175.73 616.815C1175.5 617.898 1175.4 618.86 1175.44 619.703ZM1192.97 608.965L1197.17 608.793L1199.27 621.946L1206.42 608.414L1210.54 608.245L1207.68 624.961L1204.89 625.076L1207.23 611.601L1200 625.276L1197.49 625.379L1195.28 611.575L1192.89 625.568L1190.09 625.682L1192.97 608.965ZM1210.91 631.237L1210.97 628.578C1211.56 628.72 1212.13 628.78 1212.68 628.758C1213.25 628.734 1213.71 628.585 1214.05 628.31C1214.5 627.948 1214.97 627.283 1215.47 626.314L1216.31 624.654L1212.87 608.15L1215.64 608.036L1217.24 616.364C1217.55 618.008 1217.83 619.653 1218.08 621.3L1224.94 607.655L1227.89 607.534L1218.1 626.738C1217.15 628.611 1216.3 629.86 1215.53 630.485C1214.77 631.11 1213.87 631.444 1212.84 631.486C1212.18 631.513 1211.54 631.43 1210.91 631.237ZM1163.52 692.242L1166.28 692.129L1164.99 699.277L1165.49 699.272C1166.27 699.24 1166.9 699.017 1167.37 698.601C1167.84 698.176 1168.5 697.2 1169.35 695.676C1170.22 694.108 1170.97 693.082 1171.6 692.598C1172.23 692.114 1173.1 691.849 1174.21 691.804L1175.52 691.75L1175.09 694.033L1174.42 694.061C1173.73 694.09 1173.25 694.203 1172.98 694.401C1172.73 694.599 1172.36 695.156 1171.88 696.072C1171.22 697.329 1170.64 698.233 1170.13 698.785C1169.62 699.327 1168.96 699.766 1168.14 700.102C1168.85 700.344 1169.42 700.711 1169.85 701.203C1170.3 701.696 1170.74 702.454 1171.18 703.478L1173.32 708.438L1170.41 708.558L1168.68 704.472C1168.03 702.956 1167.45 701.99 1166.93 701.573C1166.41 701.157 1165.68 700.968 1164.72 701.008L1163.35 708.847L1160.56 708.962L1163.52 692.242ZM1174.94 714.78L1175.01 712.121C1175.6 712.263 1176.17 712.323 1176.72 712.301C1177.29 712.277 1177.75 712.128 1178.09 711.854C1178.53 711.492 1179.01 710.826 1179.51 709.857L1180.35 708.197L1176.9 691.693L1179.68 691.579L1181.27 699.907C1181.59 701.551 1181.87 703.196 1182.12 704.843L1188.98 691.198L1191.93 691.077L1182.14 710.281C1181.19 712.154 1180.34 713.403 1179.57 714.028C1178.8 714.653 1177.91 714.987 1176.88 715.029C1176.22 715.056 1175.58 714.973 1174.94 714.78ZM1196.92 686.621L1197.35 684.15L1199.4 684.066C1202.01 683.959 1203.99 684.56 1205.33 685.87C1206.69 687.179 1207.43 689.296 1207.54 692.219C1207.74 696.941 1207.09 700.682 1205.61 703.442C1204.14 706.201 1201.93 707.641 1198.96 707.763C1197.04 707.842 1195.41 707.325 1194.08 706.212C1192.76 705.099 1192.05 703.404 1191.95 701.126C1191.83 698.213 1192.61 695.717 1194.27 693.638C1195.94 691.548 1197.99 690.454 1200.42 690.354C1201.48 690.31 1202.4 690.512 1203.18 690.96C1203.96 691.397 1204.6 692.084 1205.09 693.023C1205.03 691.577 1204.92 690.508 1204.74 689.817C1204.58 689.126 1204.25 688.499 1203.74 687.936C1203.24 687.373 1202.62 686.987 1201.87 686.778C1201.12 686.558 1200.08 686.476 1198.75 686.531L1196.92 686.621ZM1194.78 701.135C1194.84 702.477 1195.23 703.55 1195.96 704.353C1196.69 705.157 1197.69 705.533 1198.95 705.481C1200.77 705.407 1202.19 704.473 1203.22 702.68C1204.25 700.877 1204.73 698.966 1204.64 696.948C1204.59 695.658 1204.2 694.596 1203.48 693.761C1202.76 692.925 1201.79 692.533 1200.56 692.583C1198.69 692.66 1197.23 693.584 1196.2 695.356C1195.17 697.128 1194.7 699.055 1194.78 701.135ZM1220.47 704.443C1219.53 705.325 1218.61 705.983 1217.72 706.415C1216.83 706.837 1215.87 707.069 1214.84 707.112C1213.32 707.174 1212.06 706.777 1211.09 705.921C1210.12 705.055 1209.6 703.919 1209.55 702.515C1209.51 701.589 1209.68 700.764 1210.07 700.039C1210.47 699.304 1211 698.709 1211.68 698.254C1212.36 697.789 1213.2 697.442 1214.2 697.213C1214.83 697.062 1216.03 696.914 1217.8 696.769C1219.57 696.623 1220.84 696.383 1221.6 696.05C1221.78 695.272 1221.87 694.627 1221.85 694.118C1221.82 693.462 1221.56 692.957 1221.06 692.602C1220.39 692.109 1219.42 691.888 1218.16 691.94C1216.98 691.988 1216.01 692.294 1215.28 692.855C1214.55 693.406 1214.03 694.172 1213.73 695.154L1210.86 695.021C1211.38 693.354 1212.25 692.057 1213.47 691.132C1214.7 690.206 1216.28 689.704 1218.21 689.625C1220.26 689.541 1221.9 689.963 1223.14 690.892C1224.08 691.582 1224.58 692.51 1224.63 693.675C1224.66 694.56 1224.57 695.59 1224.36 696.765L1223.61 700.922C1223.37 702.245 1223.27 703.317 1223.3 704.139C1223.33 704.659 1223.47 705.403 1223.74 706.372L1220.88 706.489C1220.71 705.954 1220.57 705.272 1220.47 704.443ZM1221.26 698.065C1220.87 698.237 1220.45 698.374 1219.99 698.476C1219.55 698.578 1218.8 698.697 1217.74 698.834C1216.1 699.047 1214.95 699.282 1214.28 699.538C1213.62 699.785 1213.12 700.159 1212.8 700.662C1212.48 701.165 1212.33 701.713 1212.35 702.306C1212.38 703.097 1212.68 703.736 1213.24 704.223C1213.81 704.71 1214.6 704.933 1215.61 704.892C1216.55 704.853 1217.44 704.572 1218.28 704.048C1219.13 703.513 1219.78 702.793 1220.24 701.889C1220.7 700.984 1221.04 699.709 1221.26 698.065Z" fill="#FF0000"/>
<path d="M1305.33 614.878L1308.1 615.123C1307.88 617.039 1307.17 618.564 1305.96 619.697C1304.77 620.819 1303.27 621.417 1301.46 621.491C1299.19 621.584 1297.33 620.921 1295.89 619.5C1294.45 618.069 1293.68 615.97 1293.57 613.203C1293.49 611.414 1293.73 609.836 1294.26 608.47C1294.8 607.104 1295.66 606.063 1296.84 605.348C1298.03 604.622 1299.34 604.229 1300.76 604.171C1302.56 604.097 1304.05 604.494 1305.23 605.363C1306.42 606.221 1307.2 607.481 1307.59 609.142L1304.88 609.676C1304.57 608.573 1304.08 607.755 1303.39 607.22C1302.71 606.686 1301.9 606.437 1300.97 606.476C1299.55 606.534 1298.42 607.091 1297.58 608.146C1296.74 609.192 1296.36 610.812 1296.45 613.006C1296.54 615.233 1297.04 616.833 1297.93 617.807C1298.82 618.781 1299.96 619.24 1301.33 619.183C1302.43 619.138 1303.34 618.762 1304.05 618.056C1304.76 617.35 1305.19 616.29 1305.33 614.878ZM1310.08 604.164L1316.55 603.899C1318.14 603.833 1319.33 603.92 1320.11 604.159C1320.9 604.387 1321.59 604.844 1322.17 605.528C1322.76 606.213 1323.07 607.049 1323.11 608.037C1323.15 608.828 1323.01 609.526 1322.7 610.133C1322.4 610.729 1321.93 611.238 1321.29 611.66C1322.08 611.888 1322.75 612.35 1323.29 613.047C1323.84 613.733 1324.13 614.565 1324.17 615.543C1324.13 617.118 1323.62 618.306 1322.63 619.107C1321.64 619.909 1320.18 620.349 1318.23 620.429L1310.76 620.735L1310.08 604.164ZM1313.17 611.024L1316.17 610.901C1317.36 610.852 1318.18 610.756 1318.63 610.613C1319.07 610.47 1319.46 610.203 1319.8 609.814C1320.13 609.415 1320.29 608.95 1320.27 608.42C1320.23 607.546 1319.9 606.95 1319.26 606.632C1318.63 606.314 1317.57 606.186 1316.07 606.247L1312.98 606.374L1313.17 611.024ZM1313.47 618.311L1317.17 618.159C1318.76 618.094 1319.84 617.867 1320.42 617.479C1321 617.08 1321.29 616.427 1321.28 615.521C1321.26 614.99 1321.07 614.509 1320.71 614.075C1320.34 613.632 1319.88 613.364 1319.33 613.272C1318.77 613.17 1317.89 613.144 1316.67 613.194L1313.27 613.333L1313.47 618.311ZM1325.96 611.813C1325.83 608.744 1326.59 606.436 1328.24 604.889C1329.61 603.603 1331.32 602.918 1333.37 602.834C1335.65 602.741 1337.54 603.413 1339.05 604.852C1340.56 606.28 1341.37 608.31 1341.47 610.942C1341.56 613.075 1341.31 614.768 1340.71 616.022C1340.13 617.265 1339.24 618.25 1338.04 618.976C1336.85 619.702 1335.53 620.095 1334.08 620.154C1331.76 620.249 1329.86 619.582 1328.36 618.154C1326.87 616.724 1326.07 614.611 1325.96 611.813ZM1328.84 611.694C1328.93 613.816 1329.46 615.389 1330.43 616.412C1331.4 617.425 1332.58 617.902 1333.99 617.845C1335.38 617.787 1336.52 617.209 1337.4 616.11C1338.29 615.011 1338.68 613.375 1338.59 611.201C1338.51 609.152 1337.98 607.621 1337 606.609C1336.03 605.585 1334.85 605.102 1333.47 605.159C1332.06 605.217 1330.92 605.79 1330.04 606.878C1329.16 607.967 1328.76 609.572 1328.84 611.694ZM1356.26 613.525L1359.17 613.764C1358.78 615.479 1357.99 616.829 1356.79 617.816C1355.59 618.803 1354.03 619.336 1352.11 619.415C1349.68 619.515 1347.73 618.85 1346.24 617.421C1344.76 615.981 1343.97 613.914 1343.86 611.219C1343.75 608.431 1344.38 606.238 1345.75 604.64C1347.12 603.042 1348.95 602.195 1351.24 602.102C1353.46 602.011 1355.3 602.691 1356.76 604.142C1358.23 605.592 1359.02 607.686 1359.13 610.421C1359.14 610.588 1359.14 610.838 1359.14 611.171L1346.79 611.678C1346.97 613.494 1347.54 614.867 1348.5 615.796C1349.47 616.726 1350.64 617.162 1352.03 617.105C1353.06 617.063 1353.92 616.757 1354.63 616.186C1355.34 615.615 1355.88 614.728 1356.26 613.525ZM1346.85 609.362L1356.1 608.983C1355.92 607.594 1355.52 606.563 1354.91 605.89C1353.97 604.845 1352.79 604.351 1351.37 604.41C1350.08 604.463 1349.01 604.939 1348.16 605.838C1347.32 606.738 1346.88 607.912 1346.85 609.362ZM1346.64 599.414L1346.51 596.215L1349.45 596.095L1349.58 599.294L1346.64 599.414ZM1352.46 599.176L1352.33 595.977L1355.27 595.857L1355.4 599.055L1352.46 599.176ZM1314.47 694.618L1317.53 695.258C1317 697.771 1315.93 699.716 1314.33 701.094C1312.74 702.462 1310.76 703.195 1308.37 703.292C1305.91 703.393 1303.88 702.976 1302.29 702.041C1300.71 701.095 1299.47 699.687 1298.58 697.817C1297.7 695.946 1297.22 693.918 1297.13 691.734C1297.03 689.352 1297.4 687.258 1298.23 685.453C1299.08 683.636 1300.32 682.236 1301.95 681.252C1303.6 680.257 1305.43 679.718 1307.45 679.636C1309.74 679.542 1311.69 680.045 1313.3 681.146C1314.9 682.248 1316.06 683.841 1316.76 685.928L1313.81 686.752C1313.21 685.11 1312.39 683.929 1311.35 683.211C1310.31 682.493 1309.02 682.166 1307.49 682.228C1305.74 682.3 1304.28 682.782 1303.13 683.673C1301.99 684.564 1301.21 685.732 1300.79 687.176C1300.37 688.611 1300.19 690.082 1300.25 691.59C1300.33 693.536 1300.68 695.225 1301.3 696.658C1301.93 698.081 1302.86 699.126 1304.09 699.795C1305.31 700.464 1306.62 700.77 1308.02 700.712C1309.71 700.643 1311.13 700.095 1312.26 699.069C1313.4 698.043 1314.14 696.559 1314.47 694.618ZM1332.32 699.873C1331.31 700.799 1330.34 701.465 1329.38 701.868C1328.44 702.272 1327.42 702.496 1326.32 702.541C1324.5 702.616 1323.08 702.231 1322.07 701.387C1321.05 700.532 1320.51 699.413 1320.46 698.03C1320.42 697.219 1320.58 696.473 1320.91 695.792C1321.26 695.1 1321.72 694.54 1322.3 694.11C1322.88 693.679 1323.55 693.345 1324.29 693.106C1324.83 692.938 1325.66 692.763 1326.77 692.582C1329.02 692.219 1330.68 691.828 1331.74 691.409C1331.73 691.024 1331.73 690.779 1331.72 690.675C1331.68 689.531 1331.38 688.736 1330.83 688.29C1330.08 687.684 1329 687.411 1327.59 687.469C1326.27 687.523 1325.3 687.797 1324.69 688.291C1324.08 688.775 1323.65 689.61 1323.4 690.798L1320.64 690.536C1320.84 689.35 1321.21 688.387 1321.75 687.646C1322.29 686.894 1323.1 686.304 1324.16 685.874C1325.23 685.435 1326.48 685.186 1327.9 685.127C1329.32 685.069 1330.47 685.189 1331.37 685.485C1332.27 685.782 1332.93 686.176 1333.37 686.669C1333.81 687.151 1334.13 687.774 1334.32 688.537C1334.44 689.012 1334.52 689.873 1334.57 691.121L1334.72 694.866C1334.83 697.477 1334.96 699.129 1335.1 699.821C1335.25 700.503 1335.52 701.153 1335.9 701.773L1332.96 701.894C1332.65 701.323 1332.43 700.649 1332.32 699.873ZM1331.83 693.61C1330.83 694.067 1329.31 694.484 1327.28 694.859C1326.14 695.072 1325.33 695.293 1324.86 695.521C1324.39 695.748 1324.03 696.07 1323.79 696.487C1323.54 696.893 1323.43 697.34 1323.45 697.829C1323.48 698.578 1323.79 699.191 1324.37 699.667C1324.96 700.143 1325.81 700.358 1326.9 700.314C1327.98 700.269 1328.93 699.996 1329.76 699.493C1330.58 698.98 1331.17 698.305 1331.53 697.467C1331.81 696.82 1331.92 695.877 1331.87 694.639L1331.83 693.61ZM1338.71 685.059L1341.52 684.944L1341.8 691.841L1349.59 691.522L1349.31 684.625L1352.12 684.51L1352.8 701.081L1349.99 701.196L1349.69 693.846L1341.9 694.166L1342.2 701.515L1339.39 701.63L1338.71 685.059ZM1356.35 684.336L1359.15 684.221L1359.45 691.383C1360.34 691.347 1360.96 691.149 1361.3 690.792C1361.65 690.433 1362.14 689.413 1362.77 687.73C1363.27 686.397 1363.68 685.515 1364 685.085C1364.33 684.655 1364.71 684.358 1365.15 684.194C1365.6 684.03 1366.31 683.928 1367.3 683.887L1367.86 683.864L1367.96 686.189L1367.18 686.206C1366.44 686.236 1365.97 686.364 1365.77 686.591C1365.56 686.829 1365.25 687.524 1364.85 688.676C1364.47 689.776 1364.11 690.541 1363.78 690.971C1363.44 691.402 1362.91 691.804 1362.18 692.178C1363.4 692.451 1364.64 693.525 1365.88 695.402L1369.16 700.41L1366.07 700.536L1362.87 695.526C1362.21 694.521 1361.65 693.867 1361.18 693.563C1360.71 693.249 1360.15 693.105 1359.52 693.131L1359.83 700.792L1357.02 700.907L1356.35 684.336ZM1369.2 683.809L1382.67 683.257L1382.76 685.582L1377.43 685.801L1378.01 700.047L1375.22 700.161L1374.63 685.915L1369.3 686.134L1369.2 683.809ZM1384.66 692.897L1384.54 690.073L1393.17 689.719L1393.29 692.544L1384.66 692.897ZM1396.13 676.391L1414.12 675.654L1415.05 698.528L1412.01 698.653L1411.18 678.478L1399.26 678.967L1400.09 699.142L1397.06 699.266L1396.13 676.391ZM1430.77 692.539L1433.68 692.779C1433.3 694.493 1432.5 695.844 1431.3 696.831C1430.1 697.818 1428.54 698.351 1426.62 698.43C1424.19 698.529 1422.24 697.864 1420.75 696.435C1419.28 694.995 1418.48 692.928 1418.37 690.234C1418.26 687.446 1418.89 685.253 1420.26 683.654C1421.63 682.056 1423.46 681.21 1425.75 681.116C1427.97 681.025 1429.81 681.705 1431.27 683.156C1432.74 684.607 1433.53 686.7 1433.64 689.436C1433.65 689.602 1433.65 689.852 1433.66 690.186L1421.3 690.692C1421.48 692.508 1422.05 693.881 1423.01 694.811C1423.98 695.74 1425.15 696.176 1426.54 696.12C1427.57 696.077 1428.43 695.771 1429.14 695.2C1429.85 694.629 1430.39 693.742 1430.77 692.539ZM1421.36 688.376L1430.61 687.997C1430.43 686.608 1430.03 685.577 1429.42 684.904C1428.48 683.859 1427.3 683.366 1425.88 683.424C1424.59 683.477 1423.52 683.953 1422.67 684.853C1421.83 685.752 1421.39 686.927 1421.36 688.376ZM1434.18 681.146L1447.64 680.594L1447.74 682.919L1442.4 683.138L1442.98 697.384L1440.19 697.498L1439.61 683.252L1434.27 683.471L1434.18 681.146ZM1461.76 691.269L1464.67 691.509C1464.28 693.223 1463.49 694.574 1462.29 695.561C1461.09 696.548 1459.53 697.08 1457.6 697.159C1455.18 697.259 1453.23 696.594 1451.74 695.165C1450.26 693.725 1449.47 691.658 1449.36 688.963C1449.25 686.176 1449.87 683.983 1451.25 682.384C1452.62 680.786 1454.45 679.94 1456.74 679.846C1458.95 679.755 1460.8 680.435 1462.26 681.886C1463.73 683.337 1464.52 685.43 1464.63 688.166C1464.64 688.332 1464.64 688.582 1464.64 688.915L1452.29 689.422C1452.46 691.238 1453.04 692.611 1454 693.54C1454.97 694.47 1456.14 694.906 1457.53 694.849C1458.56 694.807 1459.42 694.501 1460.13 693.93C1460.84 693.359 1461.38 692.472 1461.76 691.269ZM1452.35 687.106L1461.6 686.727C1461.42 685.338 1461.02 684.307 1460.41 683.634C1459.47 682.589 1458.29 682.095 1456.86 682.154C1455.57 682.207 1454.51 682.683 1453.66 683.583C1452.82 684.482 1452.38 685.656 1452.35 687.106ZM1468.68 702.692L1467.74 679.77L1470.3 679.665L1470.39 681.818C1470.95 680.951 1471.61 680.294 1472.35 679.847C1473.09 679.389 1474.01 679.138 1475.09 679.094C1476.5 679.036 1477.77 679.349 1478.88 680.032C1479.99 680.716 1480.85 681.713 1481.45 683.021C1482.06 684.32 1482.4 685.76 1482.46 687.341C1482.53 689.036 1482.29 690.578 1481.73 691.966C1481.18 693.343 1480.34 694.42 1479.2 695.196C1478.08 695.961 1476.88 696.369 1475.6 696.422C1474.66 696.46 1473.81 696.297 1473.04 695.933C1472.29 695.567 1471.66 695.093 1471.16 694.509L1471.49 702.576L1468.68 702.692ZM1470.63 688.045C1470.71 690.177 1471.21 691.736 1472.11 692.72C1473.02 693.704 1474.09 694.17 1475.31 694.12C1476.56 694.069 1477.61 693.5 1478.45 692.413C1479.3 691.315 1479.68 689.659 1479.59 687.443C1479.5 685.331 1479 683.768 1478.08 682.753C1477.18 681.738 1476.12 681.255 1474.91 681.305C1473.72 681.354 1472.68 681.959 1471.8 683.12C1470.93 684.271 1470.54 685.912 1470.63 688.045ZM1497.39 671.693L1499.87 671.623C1499.8 672.74 1499.58 673.526 1499.21 673.978C1498.86 674.431 1498.38 674.732 1497.78 674.881C1497.19 675.03 1496.03 675.141 1494.28 675.212C1491.96 675.307 1490.39 675.596 1489.56 676.078C1488.74 676.559 1488.16 677.302 1487.83 678.306C1487.5 679.299 1487.35 680.571 1487.37 682.122C1488.04 681.043 1488.83 680.223 1489.76 679.665C1490.68 679.095 1491.74 678.786 1492.92 678.738C1495.1 678.649 1496.93 679.324 1498.41 680.763C1499.9 682.192 1500.7 684.181 1500.8 686.73C1500.88 688.665 1500.59 690.266 1499.92 691.533C1499.25 692.8 1498.44 693.792 1497.48 694.509C1496.53 695.225 1495.2 695.618 1493.51 695.688C1491.54 695.768 1489.99 695.383 1488.87 694.534C1487.74 693.673 1486.85 692.553 1486.21 691.173C1485.57 689.792 1485.18 687.36 1485.04 683.875C1484.86 679.495 1485.48 676.516 1486.89 674.937C1488.32 673.357 1490.57 672.504 1493.65 672.378C1495.56 672.299 1496.65 672.224 1496.9 672.151C1497.16 672.078 1497.32 671.925 1497.39 671.693ZM1497.86 686.772C1497.79 685.045 1497.32 683.647 1496.46 682.578C1495.6 681.509 1494.43 681.005 1492.94 681.066C1491.39 681.129 1490.22 681.761 1489.42 682.96C1488.63 684.16 1488.27 685.732 1488.35 687.678C1488.43 689.602 1488.95 691.055 1489.92 692.037C1490.9 693.018 1492.07 693.48 1493.43 693.424C1494.83 693.367 1495.93 692.733 1496.74 691.522C1497.57 690.301 1497.94 688.717 1497.86 686.772ZM1503.94 701.277L1503.52 698.653C1504.14 698.794 1504.68 698.856 1505.14 698.837C1505.77 698.811 1506.26 698.687 1506.63 698.463C1506.99 698.24 1507.29 697.936 1507.51 697.552C1507.68 697.264 1507.93 696.555 1508.28 695.426C1508.33 695.268 1508.4 695.035 1508.5 694.729L1501.54 678.385L1504.56 678.26L1508.4 687.715C1508.9 688.914 1509.36 690.177 1509.76 691.504C1510.03 690.201 1510.37 688.927 1510.76 687.681L1513.91 677.877L1516.72 677.762L1511.11 694.872C1510.5 696.721 1510.03 697.996 1509.68 698.697C1509.22 699.644 1508.68 700.343 1508.05 700.796C1507.42 701.26 1506.66 701.51 1505.77 701.546C1505.23 701.568 1504.62 701.479 1503.94 701.277ZM1519.67 700.601L1518.73 677.68L1521.29 677.575L1521.38 679.728C1521.95 678.861 1522.6 678.203 1523.35 677.756C1524.09 677.299 1525 677.048 1526.08 677.003C1527.5 676.945 1528.76 677.258 1529.87 677.942C1530.98 678.626 1531.84 679.622 1532.45 680.931C1533.05 682.23 1533.39 683.669 1533.45 685.251C1533.52 686.946 1533.28 688.488 1532.72 689.876C1532.17 691.253 1531.33 692.329 1530.19 693.105C1529.07 693.87 1527.87 694.279 1526.59 694.331C1525.65 694.37 1524.8 694.207 1524.04 693.842C1523.28 693.477 1522.65 693.003 1522.15 692.419L1522.48 700.486L1519.67 700.601ZM1521.62 685.955C1521.71 688.087 1522.2 689.645 1523.11 690.629C1524.01 691.613 1525.08 692.08 1526.31 692.03C1527.55 691.979 1528.6 691.41 1529.44 690.323C1530.29 689.225 1530.67 687.568 1530.58 685.353C1530.49 683.241 1529.99 681.678 1529.08 680.663C1528.17 679.648 1527.11 679.165 1525.91 679.214C1524.71 679.263 1523.67 679.869 1522.79 681.03C1521.92 682.18 1521.53 683.822 1521.62 685.955ZM1536.53 676.95L1546.07 676.559L1546.16 678.884L1539.44 679.16L1540.02 693.406L1537.21 693.521L1536.53 676.95ZM1545.7 693.173L1545.57 689.974L1548.77 689.843L1548.9 693.042C1548.95 694.217 1548.78 695.172 1548.39 695.907C1548.01 696.652 1547.37 697.241 1546.48 697.674L1545.65 696.504C1546.23 696.22 1546.65 695.817 1546.91 695.296C1547.18 694.785 1547.3 694.055 1547.29 693.108L1545.7 693.173ZM1563.12 692.459L1562.18 669.584L1570.81 669.231C1572.33 669.168 1573.49 669.194 1574.3 669.306C1575.43 669.448 1576.38 669.768 1577.16 670.267C1577.94 670.756 1578.58 671.465 1579.08 672.392C1579.59 673.32 1579.86 674.351 1579.91 675.484C1579.99 677.43 1579.44 679.104 1578.26 680.507C1577.07 681.899 1574.86 682.662 1571.63 682.795L1565.76 683.035L1566.14 692.335L1563.12 692.459ZM1565.65 680.336L1571.56 680.093C1573.52 680.013 1574.89 679.592 1575.69 678.83C1576.48 678.069 1576.85 677.027 1576.79 675.706C1576.75 674.749 1576.48 673.942 1575.96 673.286C1575.45 672.619 1574.8 672.193 1574 672.007C1573.48 671.892 1572.54 671.863 1571.17 671.92L1565.32 672.16L1565.65 680.336ZM1581.28 683.415C1581.16 680.346 1581.92 678.038 1583.56 676.491C1584.94 675.205 1586.65 674.52 1588.7 674.436C1590.98 674.343 1592.87 675.016 1594.38 676.454C1595.88 677.883 1596.69 679.913 1596.8 682.544C1596.89 684.677 1596.63 686.37 1596.04 687.624C1595.45 688.867 1594.56 689.852 1593.36 690.578C1592.17 691.304 1590.85 691.697 1589.41 691.756C1587.09 691.851 1585.18 691.185 1583.68 689.756C1582.2 688.327 1581.4 686.213 1581.28 683.415ZM1584.17 683.297C1584.26 685.419 1584.78 686.991 1585.75 688.014C1586.72 689.027 1587.91 689.505 1589.31 689.447C1590.71 689.39 1591.84 688.812 1592.73 687.713C1593.61 686.614 1594.01 684.977 1593.92 682.803C1593.83 680.754 1593.3 679.223 1592.32 678.211C1591.35 677.188 1590.18 676.705 1588.79 676.761C1587.39 676.819 1586.25 677.392 1585.36 678.481C1584.48 679.569 1584.08 681.175 1584.17 683.297ZM1611.02 684.415L1613.8 684.661C1613.57 686.577 1612.86 688.101 1611.65 689.234C1610.46 690.357 1608.96 690.955 1607.15 691.029C1604.88 691.122 1603.03 690.458 1601.58 689.038C1600.15 687.607 1599.37 685.508 1599.26 682.74C1599.19 680.951 1599.42 679.374 1599.96 678.007C1600.49 676.641 1601.35 675.6 1602.53 674.885C1603.72 674.159 1605.03 673.767 1606.45 673.709C1608.25 673.635 1609.74 674.032 1610.93 674.901C1612.11 675.759 1612.89 677.019 1613.29 678.68L1610.57 679.213C1610.27 678.111 1609.77 677.293 1609.08 676.758C1608.4 676.223 1607.59 675.975 1606.66 676.013C1605.24 676.071 1604.11 676.628 1603.27 677.684C1602.43 678.729 1602.05 680.349 1602.14 682.544C1602.23 684.77 1602.73 686.37 1603.62 687.344C1604.52 688.318 1605.65 688.777 1607.02 688.721C1608.13 688.676 1609.03 688.3 1609.74 687.594C1610.45 686.887 1610.88 685.828 1611.02 684.415ZM1627 683.76L1629.77 684.006C1629.55 685.922 1628.84 687.446 1627.63 688.58C1626.44 689.702 1624.94 690.3 1623.13 690.374C1620.86 690.467 1619 689.803 1617.56 688.383C1616.13 686.952 1615.35 684.853 1615.24 682.085C1615.16 680.296 1615.4 678.719 1615.93 677.352C1616.47 675.986 1617.33 674.945 1618.51 674.23C1619.7 673.504 1621.01 673.112 1622.43 673.054C1624.23 672.98 1625.72 673.377 1626.9 674.246C1628.09 675.104 1628.87 676.364 1629.26 678.025L1626.55 678.558C1626.24 677.456 1625.75 676.638 1625.06 676.103C1624.38 675.568 1623.57 675.32 1622.64 675.358C1621.22 675.416 1620.09 675.973 1619.25 677.029C1618.41 678.074 1618.03 679.694 1618.12 681.889C1618.21 684.115 1618.71 685.715 1619.6 686.689C1620.49 687.663 1621.63 688.122 1623 688.066C1624.1 688.021 1625.01 687.645 1625.72 686.939C1626.43 686.232 1626.86 685.173 1627 683.76ZM1631.73 673.047L1634.54 672.932L1635.06 685.571L1642.33 672.613L1645.35 672.489L1646.03 689.06L1643.22 689.175L1642.71 676.614L1635.44 689.494L1632.41 689.618L1631.73 673.047ZM1662.63 671.781L1663.31 688.352L1660.51 688.466L1660.25 682.007L1658.63 682.073C1657.64 682.114 1656.9 682.274 1656.43 682.554C1655.96 682.823 1655.29 683.669 1654.42 685.09L1652.12 688.811L1648.64 688.953L1651.48 684.366C1652.35 682.966 1653.24 682.158 1654.15 681.944C1652.54 681.791 1651.32 681.263 1650.51 680.358C1649.7 679.454 1649.27 678.393 1649.22 677.176C1649.16 675.74 1649.62 674.555 1650.59 673.619C1651.57 672.682 1653.03 672.175 1654.95 672.096L1662.63 671.781ZM1659.93 674.22L1655.93 674.384C1654.26 674.453 1653.19 674.757 1652.72 675.297C1652.26 675.837 1652.05 676.455 1652.08 677.152C1652.12 678.141 1652.5 678.854 1653.23 679.293C1653.97 679.722 1655.24 679.899 1657.05 679.825L1660.15 679.697L1659.93 674.22Z" fill="#FF0000"/>
<path d="M1277.77 628.713L1674.68 612.442" stroke="#FF0000" stroke-width="2.66524"/>
<path d="M199.092 324.586L208.626 324.194L208.721 326.519L201.996 326.795L202.581 341.041L199.772 341.157L199.092 324.586ZM209.325 332.465C209.199 329.396 209.958 327.088 211.604 325.541C212.979 324.255 214.691 323.57 216.74 323.486C219.018 323.393 220.911 324.065 222.418 325.504C223.925 326.932 224.733 328.962 224.841 331.594C224.928 333.726 224.675 335.42 224.08 336.674C223.495 337.917 222.603 338.901 221.403 339.628C220.214 340.354 218.897 340.747 217.451 340.806C215.131 340.901 213.223 340.235 211.726 338.806C210.24 337.377 209.44 335.263 209.325 332.465ZM212.211 332.347C212.298 334.469 212.827 336.041 213.796 337.064C214.765 338.077 215.952 338.554 217.356 338.497C218.75 338.44 219.888 337.861 220.77 336.762C221.652 335.663 222.049 334.027 221.96 331.853C221.876 329.804 221.344 328.273 220.365 327.261C219.395 326.238 218.219 325.754 216.835 325.811C215.431 325.869 214.287 326.442 213.405 327.531C212.522 328.619 212.124 330.225 212.211 332.347ZM228.759 346.328L227.818 323.407L230.377 323.302L230.465 325.455C231.034 324.588 231.69 323.93 232.432 323.483C233.174 323.025 234.086 322.774 235.168 322.73C236.582 322.672 237.845 322.985 238.957 323.669C240.069 324.352 240.928 325.349 241.534 326.658C242.139 327.956 242.474 329.396 242.539 330.977C242.609 332.673 242.365 334.214 241.807 335.602C241.259 336.979 240.418 338.056 239.282 338.832C238.157 339.597 236.955 340.006 235.675 340.058C234.739 340.097 233.889 339.934 233.123 339.569C232.369 339.204 231.74 338.73 231.236 338.146L231.567 346.213L228.759 346.328ZM230.705 331.681C230.793 333.814 231.289 335.372 232.194 336.356C233.1 337.34 234.166 337.807 235.393 337.757C236.642 337.705 237.686 337.136 238.527 336.049C239.379 334.952 239.759 333.295 239.668 331.079C239.581 328.968 239.079 327.404 238.162 326.39C237.256 325.374 236.199 324.891 234.993 324.941C233.796 324.99 232.758 325.595 231.879 326.757C231.009 327.907 230.618 329.549 230.705 331.681ZM244.901 331.005C244.775 327.936 245.534 325.629 247.18 324.081C248.555 322.795 250.267 322.11 252.316 322.026C254.594 321.933 256.487 322.605 257.994 324.044C259.501 325.472 260.308 327.502 260.416 330.134C260.504 332.266 260.25 333.96 259.656 335.214C259.071 336.457 258.179 337.441 256.979 338.168C255.79 338.894 254.472 339.287 253.027 339.346C250.707 339.441 248.799 338.775 247.302 337.346C245.816 335.917 245.015 333.803 244.901 331.005ZM247.787 330.887C247.874 333.009 248.403 334.581 249.372 335.604C250.341 336.617 251.527 337.094 252.932 337.037C254.326 336.98 255.464 336.402 256.346 335.302C257.228 334.203 257.625 332.567 257.536 330.393C257.451 328.344 256.92 326.813 255.94 325.801C254.971 324.778 253.795 324.294 252.411 324.351C251.007 324.409 249.863 324.982 248.981 326.071C248.098 327.159 247.7 328.765 247.787 330.887ZM264.892 321.885L276.439 321.411L277.024 335.673L278.818 335.599L279.106 342.605L276.796 342.7L276.604 338.003L263.559 338.539L263.752 343.235L261.443 343.33L261.155 336.324L262.637 336.263C264.504 333.499 265.255 328.706 264.892 321.885ZM267.328 324.114C267.341 329.501 266.672 333.514 265.321 336.153L274.231 335.788L273.741 323.851L267.328 324.114Z" fill="#D2D2D2"/>
<path d="M440.472 325.198L443.249 325.444C443.025 327.36 442.311 328.884 441.107 330.017C439.913 331.14 438.412 331.738 436.602 331.812C434.334 331.905 432.478 331.242 431.034 329.821C429.6 328.39 428.826 326.291 428.712 323.524C428.639 321.735 428.871 320.157 429.409 318.791C429.947 317.425 430.805 316.384 431.985 315.669C433.174 314.943 434.481 314.55 435.906 314.492C437.706 314.418 439.197 314.815 440.378 315.684C441.56 316.542 442.346 317.801 442.737 319.463L440.024 319.996C439.718 318.894 439.221 318.076 438.532 317.541C437.854 317.006 437.047 316.758 436.11 316.797C434.696 316.855 433.567 317.412 432.725 318.467C431.882 319.513 431.506 321.133 431.596 323.328C431.687 325.554 432.18 327.154 433.074 328.128C433.969 329.102 435.102 329.561 436.476 329.504C437.578 329.459 438.485 329.083 439.196 328.377C439.907 327.67 440.332 326.611 440.472 325.198ZM443.692 314.547L457.158 313.995L457.253 316.32L451.917 316.539L452.502 330.785L449.709 330.899L449.124 316.653L443.788 316.872L443.692 314.547ZM460.783 336.806L459.842 313.885L462.401 313.78L462.489 315.933C463.058 315.066 463.713 314.408 464.456 313.961C465.198 313.503 466.109 313.252 467.191 313.208C468.606 313.15 469.869 313.463 470.981 314.146C472.093 314.83 472.952 315.827 473.558 317.135C474.163 318.434 474.498 319.874 474.563 321.455C474.633 323.15 474.389 324.692 473.831 326.08C473.283 327.457 472.441 328.534 471.306 329.31C470.181 330.075 468.979 330.484 467.699 330.536C466.763 330.574 465.912 330.411 465.147 330.047C464.392 329.682 463.763 329.208 463.26 328.624L463.591 336.691L460.783 336.806ZM462.729 322.159C462.817 324.292 463.313 325.85 464.218 326.834C465.123 327.818 466.19 328.285 467.417 328.234C468.666 328.183 469.71 327.614 470.551 326.527C471.402 325.429 471.782 323.773 471.691 321.557C471.605 319.445 471.103 317.882 470.186 316.867C469.28 315.852 468.223 315.369 467.016 315.419C465.82 315.468 464.782 316.073 463.902 317.235C463.033 318.385 462.642 320.027 462.729 322.159ZM489.039 327.238C488.035 328.165 487.057 328.83 486.105 329.234C485.162 329.637 484.14 329.861 483.037 329.907C481.217 329.981 479.8 329.597 478.786 328.753C477.771 327.898 477.236 326.779 477.179 325.396C477.145 324.584 477.297 323.838 477.634 323.157C477.981 322.466 478.442 321.905 479.018 321.475C479.605 321.045 480.269 320.71 481.009 320.471C481.554 320.303 482.381 320.128 483.488 319.948C485.745 319.584 487.401 319.193 488.457 318.775C488.452 318.389 488.447 318.145 488.443 318.041C488.396 316.896 488.098 316.101 487.548 315.655C486.804 315.05 485.725 314.776 484.31 314.834C482.989 314.888 482.021 315.163 481.405 315.657C480.8 316.14 480.371 316.976 480.117 318.163L477.356 317.902C477.557 316.716 477.929 315.752 478.472 315.011C479.014 314.26 479.818 313.669 480.884 313.24C481.95 312.8 483.195 312.551 484.62 312.493C486.035 312.435 487.191 312.554 488.089 312.85C488.987 313.147 489.655 313.542 490.092 314.034C490.528 314.516 490.845 315.139 491.043 315.902C491.157 316.377 491.239 317.238 491.29 318.486L491.444 322.231C491.551 324.842 491.676 326.494 491.819 327.186C491.972 327.868 492.239 328.518 492.618 329.138L489.685 329.259C489.37 328.688 489.154 328.014 489.039 327.238ZM488.548 320.975C487.545 321.433 486.031 321.849 484.004 322.224C482.856 322.438 482.047 322.659 481.577 322.886C481.107 323.114 480.75 323.436 480.507 323.852C480.263 324.258 480.151 324.706 480.171 325.195C480.202 325.944 480.509 326.556 481.091 327.032C481.683 327.508 482.526 327.724 483.618 327.679C484.7 327.635 485.653 327.361 486.476 326.858C487.299 326.345 487.891 325.67 488.253 324.832C488.528 324.185 488.641 323.242 488.59 322.005L488.548 320.975ZM495.433 312.424L498.242 312.309L498.525 319.205L506.311 318.886L506.028 311.989L508.837 311.874L509.517 328.445L506.708 328.56L506.407 321.211L498.62 321.53L498.922 328.88L496.113 328.995L495.433 312.424ZM524.49 325.783C523.486 326.71 522.508 327.375 521.556 327.779C520.614 328.182 519.591 328.407 518.489 328.452C516.668 328.526 515.251 328.142 514.237 327.298C513.222 326.443 512.687 325.324 512.63 323.941C512.597 323.129 512.748 322.383 513.085 321.703C513.432 321.011 513.893 320.45 514.47 320.02C515.056 319.59 515.72 319.255 516.46 319.016C517.006 318.848 517.832 318.674 518.94 318.493C521.196 318.129 522.852 317.738 523.909 317.32C523.903 316.934 523.898 316.69 523.894 316.586C523.847 315.441 523.549 314.646 522.999 314.2C522.255 313.595 521.176 313.321 519.761 313.379C518.44 313.434 517.472 313.708 516.857 314.202C516.251 314.685 515.822 315.521 515.568 316.709L512.807 316.447C513.008 315.261 513.38 314.298 513.923 313.556C514.465 312.805 515.269 312.214 516.335 311.785C517.401 311.345 518.646 311.096 520.072 311.038C521.486 310.98 522.643 311.099 523.54 311.396C524.438 311.692 525.106 312.087 525.543 312.579C525.979 313.062 526.297 313.684 526.495 314.447C526.608 314.922 526.69 315.783 526.741 317.032L526.895 320.776C527.002 323.387 527.127 325.039 527.27 325.731C527.423 326.413 527.69 327.063 528.069 327.683L525.136 327.804C524.821 327.233 524.606 326.56 524.49 325.783ZM523.999 319.52C522.996 319.978 521.482 320.394 519.455 320.769C518.307 320.983 517.498 321.204 517.028 321.431C516.558 321.659 516.202 321.981 515.958 322.397C515.714 322.803 515.602 323.251 515.623 323.74C515.653 324.489 515.96 325.101 516.542 325.578C517.135 326.053 517.977 326.269 519.069 326.224C520.151 326.18 521.104 325.906 521.927 325.404C522.75 324.89 523.342 324.215 523.704 323.377C523.979 322.73 524.092 321.788 524.041 320.55L523.999 319.52Z" fill="#D2D2D2"/>
<path d="M40.3151 267.445C40.1823 264.21 41.0242 261.492 42.8408 259.292C44.3398 257.48 46.3636 256.522 48.9122 256.417C50.9094 256.335 52.5422 256.893 53.8105 258.092C55.0892 259.29 55.7721 260.95 55.8592 263.072C55.9373 264.975 55.6252 266.765 54.9229 268.44C54.2201 270.105 53.1741 271.403 51.7848 272.335C50.406 273.267 48.9312 273.765 47.3604 273.83C46.0705 273.883 44.8838 273.655 43.8001 273.148C42.7268 272.639 41.8886 271.892 41.2855 270.906C40.6928 269.92 40.3693 268.766 40.3151 267.445ZM43.1278 267.048C43.1918 268.609 43.615 269.779 44.3972 270.56C45.1791 271.33 46.1473 271.691 47.302 271.644C47.9053 271.619 48.4985 271.475 49.0817 271.212C49.6644 270.938 50.2003 270.54 50.6895 270.02C51.1788 269.5 51.5872 268.915 51.9148 268.266C52.2524 267.606 52.5153 266.903 52.7035 266.155C52.9837 265.112 53.1043 264.117 53.0655 263.171C53.004 261.673 52.5767 260.528 51.7836 259.738C51.0005 258.936 50.0368 258.559 48.8926 258.606C48.0084 258.642 47.211 258.889 46.5003 259.345C45.7892 259.791 45.1538 260.432 44.5942 261.268C44.045 262.103 43.6521 263.067 43.4157 264.161C43.1892 265.243 43.0932 266.206 43.1278 267.048ZM57.8462 273.024L60.6301 256.311L63.4544 256.195L62.9891 258.95C63.9915 257.731 64.8944 256.881 65.6978 256.4C66.5117 255.919 67.4023 255.658 68.3697 255.619C69.3995 255.576 70.269 255.817 70.9782 256.34C71.6974 256.852 72.1862 257.593 72.4448 258.562C73.2447 257.487 74.0971 256.676 75.002 256.128C75.9169 255.569 76.8892 255.269 77.919 255.227C79.3025 255.17 80.351 255.455 81.0645 256.082C81.7883 256.709 82.1746 257.615 82.2232 258.801C82.2442 259.311 82.1591 260.158 81.9681 261.344L80.1748 272.108L77.3506 272.224L79.1792 261.177C79.3401 260.274 79.4127 259.63 79.3969 259.245C79.3747 258.705 79.1855 258.285 78.8294 257.987C78.4734 257.689 77.9832 257.553 77.3591 257.579C76.5165 257.613 75.6688 257.903 74.8159 258.449C73.963 258.994 73.3092 259.693 72.8544 260.546C72.4097 261.387 72.0405 262.673 71.7468 264.405L70.3914 272.51L67.5672 272.625L69.4486 261.342C69.5839 260.576 69.6449 260.031 69.6316 259.709C69.6094 259.168 69.4199 258.738 69.0629 258.419C68.7164 258.1 68.2727 257.951 67.7318 257.974C66.9308 258.007 66.0986 258.296 65.2354 258.842C64.3825 259.388 63.6992 260.129 63.1854 261.067C62.6712 261.995 62.2719 263.309 61.9874 265.008L60.6704 272.909L57.8462 273.024ZM96.2529 254.849L99.0147 254.736L97.7295 261.885L98.2294 261.88C99.0096 261.848 99.636 261.624 100.109 261.209C100.581 260.783 101.239 259.808 102.083 258.283C102.956 256.716 103.706 255.69 104.332 255.206C104.969 254.721 105.839 254.456 106.941 254.411L108.252 254.357L107.83 256.641L107.159 256.668C106.462 256.697 105.982 256.81 105.719 257.009C105.467 257.207 105.099 257.763 104.616 258.679C103.959 259.936 103.376 260.84 102.867 261.393C102.358 261.934 101.693 262.373 100.874 262.709C101.582 262.951 102.154 263.318 102.591 263.811C103.039 264.303 103.481 265.061 103.919 266.085L106.061 271.046L103.143 271.166L101.412 267.079C100.767 265.563 100.185 264.597 99.668 264.181C99.1508 263.765 98.4136 263.576 97.4566 263.615L96.0903 271.455L93.2973 271.57L96.2529 254.849ZM108.721 264.638C108.588 261.403 109.43 258.685 111.246 256.485C112.745 254.673 114.769 253.714 117.318 253.61C119.315 253.528 120.948 254.086 122.216 255.284C123.495 256.482 124.178 258.142 124.265 260.264C124.343 262.168 124.031 263.957 123.329 265.633C122.626 267.297 121.58 268.596 120.191 269.528C118.812 270.46 117.337 270.958 115.766 271.023C114.476 271.076 113.289 270.848 112.206 270.34C111.133 269.832 110.294 269.085 109.691 268.099C109.098 267.113 108.775 265.959 108.721 264.638ZM111.533 264.241C111.598 265.801 112.021 266.972 112.803 267.753C113.585 268.523 114.553 268.884 115.708 268.837C116.311 268.812 116.904 268.668 117.487 268.404C118.07 268.13 118.606 267.733 119.095 267.213C119.584 266.693 119.993 266.108 120.32 265.459C120.658 264.799 120.921 264.095 121.109 263.348C121.389 262.305 121.51 261.31 121.471 260.363C121.41 258.865 120.982 257.721 120.189 256.931C119.406 256.129 118.443 255.752 117.298 255.799C116.414 255.835 115.617 256.081 114.906 256.538C114.195 256.984 113.56 257.625 113 258.46C112.451 259.296 112.058 260.26 111.821 261.353C111.595 262.436 111.499 263.398 111.533 264.241ZM130.203 257.582L127.621 257.501C128.658 254.582 130.726 253.06 133.826 252.932C135.803 252.851 137.319 253.227 138.374 254.059C139.44 254.89 139.999 255.946 140.051 257.225C140.087 258.089 139.878 258.853 139.426 259.517C138.974 260.171 138.37 260.696 137.615 261.092C136.86 261.477 135.648 261.912 133.98 262.398C131.992 262.959 130.67 263.482 130.012 263.967C129.355 264.453 129.041 265.065 129.072 265.803C129.103 266.563 129.512 267.15 130.301 267.566C131.089 267.982 132.013 268.168 133.074 268.124C134.395 268.07 135.358 267.775 135.961 267.24C136.574 266.694 137.085 265.813 137.494 264.598L139.889 264.687C139.036 268.286 136.727 270.162 132.961 270.317C130.766 270.407 129.11 270.037 127.992 269.208C126.885 268.378 126.305 267.334 126.254 266.075C126.217 265.181 126.438 264.348 126.917 263.578C127.396 262.809 128.007 262.216 128.751 261.8C129.495 261.384 130.742 260.936 132.494 260.458C134.772 259.844 136.139 259.277 136.597 258.758C137.045 258.239 137.259 257.736 137.239 257.247C137.215 256.664 136.918 256.166 136.349 255.752C135.78 255.337 134.944 255.153 133.841 255.198C132.801 255.241 132.043 255.439 131.568 255.792C131.103 256.134 130.648 256.731 130.203 257.582ZM141.894 263.276C141.761 260.041 142.603 257.324 144.419 255.123C145.918 253.311 147.942 252.353 150.491 252.249C152.488 252.167 154.121 252.725 155.389 253.923C156.668 255.121 157.351 256.781 157.438 258.903C157.516 260.807 157.204 262.596 156.502 264.271C155.799 265.936 154.753 267.234 153.364 268.167C151.985 269.099 150.51 269.597 148.939 269.661C147.649 269.714 146.462 269.487 145.379 268.979C144.306 268.471 143.467 267.724 142.864 266.738C142.271 265.751 141.948 264.598 141.894 263.276ZM144.706 262.88C144.771 264.44 145.194 265.611 145.976 266.391C146.758 267.161 147.726 267.523 148.881 267.475C149.484 267.451 150.077 267.307 150.66 267.043C151.243 266.769 151.779 266.372 152.268 265.852C152.757 265.331 153.166 264.747 153.493 264.098C153.831 263.438 154.094 262.734 154.282 261.987C154.562 260.944 154.683 259.949 154.644 259.002C154.583 257.504 154.155 256.36 153.362 255.569C152.579 254.768 151.616 254.391 150.471 254.437C149.587 254.474 148.79 254.72 148.079 255.176C147.368 255.622 146.733 256.263 146.173 257.099C145.624 257.934 145.231 258.899 144.994 259.992C144.768 261.075 144.672 262.037 144.706 262.88ZM43.6774 349.376C43.5446 346.141 44.3865 343.423 46.2031 341.223C47.7021 339.411 49.7259 338.453 52.2745 338.348C54.2717 338.266 55.9045 338.824 57.1728 340.023C58.4515 341.221 59.1344 342.881 59.2215 345.003C59.2996 346.906 58.9875 348.696 58.2852 350.371C57.5824 352.036 56.5364 353.334 55.1471 354.266C53.7683 355.198 52.2935 355.696 50.7227 355.761C49.4328 355.814 48.2461 355.586 47.1624 355.079C46.0892 354.57 45.251 353.823 44.6478 352.837C44.0551 351.851 43.7316 350.697 43.6774 349.376ZM46.4901 348.979C46.5541 350.54 46.9773 351.71 47.7596 352.491C48.5414 353.261 49.5096 353.623 50.6643 353.575C51.2676 353.55 51.8609 353.406 52.444 353.143C53.0267 352.869 53.5626 352.471 54.0518 351.951C54.5411 351.431 54.9495 350.846 55.2771 350.197C55.6147 349.537 55.8776 348.834 56.0658 348.086C56.346 347.043 56.4666 346.048 56.4278 345.102C56.3663 343.604 55.939 342.459 55.146 341.669C54.3628 340.867 53.3991 340.49 52.2549 340.537C51.3707 340.573 50.5733 340.82 49.8626 341.276C49.1515 341.722 48.5162 342.363 47.9565 343.199C47.4073 344.034 47.0144 344.998 46.778 346.092C46.5515 347.174 46.4555 348.137 46.4901 348.979ZM61.2085 354.955L63.9924 338.242L66.8167 338.126L66.3514 340.881C67.3538 339.662 68.2567 338.812 69.0601 338.331C69.874 337.85 70.7646 337.589 71.732 337.55C72.7618 337.507 73.6313 337.748 74.3405 338.271C75.0597 338.783 75.5485 339.524 75.8071 340.493C76.607 339.418 77.4594 338.607 78.3643 338.059C79.2792 337.5 80.2515 337.2 81.2813 337.158C82.6649 337.101 83.7133 337.386 84.4268 338.013C85.1506 338.64 85.5369 339.546 85.5855 340.732C85.6065 341.242 85.5214 342.089 85.3304 343.275L83.5371 354.039L80.7129 354.155L82.5415 343.108C82.7024 342.205 82.775 341.561 82.7592 341.176C82.737 340.636 82.5478 340.216 82.1917 339.918C81.8357 339.62 81.3455 339.484 80.7214 339.51C79.8788 339.544 79.0311 339.834 78.1782 340.38C77.3253 340.925 76.6715 341.624 76.2168 342.477C75.772 343.318 75.4028 344.604 75.1091 346.336L73.7537 354.441L70.9295 354.557L72.8109 343.273C72.9462 342.507 73.0072 341.962 72.9939 341.64C72.9717 341.099 72.7822 340.669 72.4252 340.35C72.0787 340.031 71.635 339.882 71.0941 339.905C70.2931 339.938 69.4609 340.227 68.5977 340.773C67.7448 341.319 67.0615 342.06 66.5477 342.998C66.0335 343.926 65.6342 345.24 65.3497 346.939L64.0327 354.84L61.2085 354.955ZM90.7212 337.145L93.483 337.032L92.1978 344.181L92.6977 344.176C93.4779 344.144 94.1043 343.92 94.577 343.505C95.0493 343.079 95.7074 342.104 96.5514 340.579C97.4248 339.012 98.1746 337.986 98.8008 337.502C99.4373 337.017 100.307 336.752 101.41 336.707L102.72 336.653L102.298 338.937L101.627 338.964C100.93 338.993 100.45 339.106 100.188 339.305C99.9353 339.503 99.5674 340.06 99.084 340.975C98.427 342.232 97.8442 343.136 97.3354 343.689C96.8262 344.231 96.1618 344.669 95.3419 345.005C96.05 345.247 96.6225 345.614 97.0595 346.107C97.507 346.599 97.9497 347.357 98.3876 348.381L100.529 353.342L97.6114 353.462L95.8808 349.375C95.2351 347.859 94.6536 346.893 94.1363 346.477C93.6191 346.061 92.882 345.872 91.925 345.911L90.5587 353.751L87.7656 353.866L90.7212 337.145ZM102.149 359.684L102.212 357.024C102.801 357.166 103.372 357.226 103.923 357.204C104.495 357.18 104.953 357.031 105.296 356.757C105.739 356.395 106.212 355.729 106.714 354.76L107.553 353.1L104.109 336.596L106.886 336.482L108.479 344.81C108.796 346.454 109.077 348.099 109.322 349.746L116.186 336.1L119.135 335.979L109.342 355.184C108.398 357.057 107.542 358.306 106.776 358.931C106.01 359.556 105.112 359.89 104.082 359.932C103.427 359.959 102.782 359.876 102.149 359.684ZM124.126 331.523L124.556 329.052L126.6 328.968C129.211 328.861 131.189 329.462 132.535 330.772C133.891 332.081 134.629 334.197 134.749 337.12C134.943 341.843 134.299 345.584 132.818 348.344C131.348 351.103 129.13 352.543 126.166 352.665C124.241 352.744 122.615 352.227 121.288 351.114C119.961 350.002 119.25 348.307 119.157 346.028C119.037 343.116 119.81 340.62 121.475 338.54C123.14 336.451 125.19 335.356 127.624 335.256C128.685 335.212 129.605 335.414 130.384 335.862C131.162 336.299 131.8 336.986 132.297 337.924C132.238 336.479 132.121 335.41 131.947 334.719C131.783 334.028 131.45 333.401 130.947 332.838C130.445 332.275 129.82 331.889 129.071 331.68C128.322 331.461 127.282 331.378 125.951 331.433L124.126 331.523ZM121.986 346.037C122.041 347.379 122.434 348.452 123.165 349.256C123.897 350.059 124.891 350.435 126.15 350.384C127.971 350.309 129.396 349.375 130.427 347.582C131.458 345.779 131.931 343.868 131.849 341.85C131.796 340.56 131.408 339.498 130.686 338.663C129.964 337.827 128.99 337.435 127.762 337.485C125.89 337.562 124.438 338.487 123.406 340.259C122.374 342.031 121.901 343.957 121.986 346.037ZM147.677 349.344C146.733 350.227 145.817 350.884 144.928 351.317C144.039 351.739 143.08 351.971 142.05 352.013C140.521 352.076 139.27 351.679 138.297 350.823C137.323 349.956 136.808 348.821 136.75 347.416C136.712 346.491 136.887 345.666 137.274 344.941C137.671 344.206 138.209 343.611 138.889 343.156C139.568 342.69 140.408 342.343 141.409 342.114C142.039 341.964 143.236 341.815 145.001 341.67C146.777 341.524 148.044 341.285 148.801 340.951C148.988 340.173 149.071 339.528 149.05 339.019C149.023 338.363 148.763 337.858 148.269 337.503C147.592 337.01 146.625 336.789 145.366 336.841C144.18 336.89 143.218 337.195 142.481 337.757C141.753 338.307 141.238 339.074 140.934 340.055L138.068 339.923C138.583 338.255 139.452 336.959 140.675 336.033C141.908 335.107 143.487 334.605 145.412 334.526C147.461 334.442 149.104 334.864 150.34 335.793C151.285 336.484 151.782 337.411 151.83 338.576C151.866 339.461 151.778 340.491 151.566 341.666L150.814 345.823C150.577 347.146 150.475 348.218 150.509 349.04C150.53 349.56 150.675 350.304 150.944 351.273L148.089 351.39C147.91 350.856 147.773 350.173 147.677 349.344ZM148.462 342.966C148.073 343.138 147.651 343.275 147.197 343.377C146.753 343.479 146.003 343.598 144.946 343.735C143.308 343.948 142.156 344.183 141.489 344.44C140.822 344.686 140.327 345.061 140.003 345.564C139.68 346.067 139.531 346.615 139.555 347.208C139.588 347.998 139.885 348.637 140.447 349.125C141.019 349.612 141.809 349.835 142.818 349.793C143.755 349.755 144.644 349.473 145.488 348.949C146.331 348.414 146.984 347.695 147.447 346.79C147.91 345.885 148.248 344.611 148.462 342.966Z" fill="#FF0000"/>
<path d="M195.797 244.654L198.605 244.538L199.124 257.177L206.391 244.219L209.418 244.095L210.099 260.666L207.29 260.781L206.774 248.22L199.504 261.1L196.477 261.225L195.797 244.654ZM213.725 243.918L218.094 243.739L222.992 256.823L227.284 243.361L231.326 243.196L232.006 259.766L229.197 259.882L228.65 246.541L224.298 260.083L221.786 260.186L216.578 246.395L217.151 260.376L214.405 260.489L213.725 243.918ZM248.661 242.484L249.341 259.055L246.548 259.17L246.283 252.71L244.66 252.776C243.672 252.817 242.939 252.977 242.461 253.257C241.992 253.527 241.324 254.372 240.455 255.794L238.154 259.514L234.674 259.657L237.518 255.07C238.388 253.669 239.277 252.862 240.185 252.648C238.574 252.495 237.359 251.966 236.541 251.062C235.733 250.158 235.303 249.097 235.254 247.88C235.195 246.444 235.651 245.258 236.624 244.322C237.606 243.386 239.06 242.878 240.984 242.799L248.661 242.484ZM245.964 244.924L241.969 245.088C240.294 245.156 239.223 245.461 238.756 246.001C238.298 246.541 238.084 247.159 238.113 247.856C238.153 248.844 238.537 249.558 239.263 249.997C240 250.425 241.273 250.602 243.083 250.528L246.188 250.401L245.964 244.924Z" fill="#D2D2D2"/>
<path d="M425.963 235.208L428.772 235.092L429.055 241.989L436.841 241.67L436.558 234.773L439.367 234.658L440.047 251.229L437.238 251.344L436.936 243.995L429.15 244.314L429.452 251.663L426.643 251.779L425.963 235.208ZM443.611 234.483L446.419 234.368L446.938 247.007L454.205 234.049L457.233 233.924L457.913 250.495L455.104 250.611L454.588 238.05L447.318 250.93L444.291 251.054L443.611 234.483ZM461.445 233.752L464.254 233.636L464.548 240.798C465.443 240.762 466.06 240.564 466.399 240.207C466.749 239.848 467.239 238.828 467.868 237.145C468.365 235.812 468.777 234.93 469.103 234.5C469.43 234.07 469.813 233.773 470.255 233.609C470.696 233.445 471.411 233.343 472.399 233.302L472.961 233.279L473.056 235.604L472.275 235.62C471.537 235.651 471.068 235.779 470.869 236.006C470.66 236.244 470.355 236.939 469.954 238.091C469.572 239.191 469.213 239.956 468.876 240.386C468.54 240.817 468.009 241.219 467.285 241.593C468.504 241.865 469.736 242.94 470.98 244.817L474.265 249.824L471.176 249.951L467.969 244.94C467.313 243.936 466.75 243.282 466.279 242.978C465.807 242.664 465.254 242.52 464.62 242.546L464.934 250.207L462.125 250.322L461.445 233.752ZM484.351 232.812L490.827 232.546C492.418 232.48 493.605 232.567 494.385 232.806C495.176 233.034 495.862 233.491 496.442 234.175C497.033 234.86 497.349 235.696 497.389 236.684C497.422 237.475 497.284 238.173 496.975 238.78C496.677 239.376 496.208 239.885 495.569 240.307C496.359 240.535 497.024 240.997 497.564 241.694C498.113 242.38 498.407 243.212 498.447 244.19C498.408 245.765 497.894 246.953 496.906 247.754C495.917 248.555 494.451 248.996 492.505 249.076L485.031 249.382L484.351 232.812ZM487.446 239.671L490.442 239.548C491.638 239.499 492.458 239.403 492.9 239.26C493.342 239.116 493.732 238.85 494.07 238.461C494.408 238.062 494.566 237.597 494.545 237.067C494.509 236.193 494.172 235.597 493.534 235.279C492.906 234.961 491.843 234.833 490.345 234.894L487.255 235.021L487.446 239.671ZM487.745 246.958L491.443 246.806C493.035 246.741 494.12 246.514 494.698 246.125C495.275 245.727 495.561 245.074 495.555 244.168C495.533 243.637 495.342 243.155 494.98 242.722C494.618 242.279 494.159 242.011 493.603 241.919C493.046 241.817 492.16 241.791 490.943 241.841L487.541 241.98L487.745 246.958ZM510.206 231.75L513.015 231.635L513.534 244.274L520.801 231.316L523.828 231.191L524.508 247.762L521.7 247.878L521.184 235.317L513.913 248.197L510.886 248.321L510.206 231.75ZM528.072 231.017L530.881 230.902L531.164 237.799L538.95 237.479L538.667 230.583L541.476 230.467L542.156 247.038L539.347 247.153L539.046 239.804L531.259 240.124L531.561 247.473L528.752 247.588L528.072 231.017ZM556.964 240.35L559.741 240.596C559.517 242.512 558.803 244.037 557.599 245.17C556.406 246.292 554.904 246.89 553.094 246.964C550.826 247.057 548.97 246.394 547.526 244.973C546.092 243.542 545.318 241.443 545.204 238.676C545.131 236.887 545.363 235.309 545.901 233.943C546.439 232.577 547.297 231.536 548.477 230.821C549.666 230.095 550.973 229.702 552.398 229.644C554.198 229.57 555.689 229.967 556.871 230.836C558.052 231.694 558.838 232.954 559.229 234.615L556.516 235.149C556.21 234.046 555.713 233.228 555.024 232.693C554.346 232.159 553.539 231.91 552.602 231.949C551.188 232.007 550.059 232.564 549.217 233.619C548.374 234.665 547.998 236.285 548.088 238.48C548.179 240.706 548.672 242.306 549.566 243.28C550.461 244.254 551.594 244.713 552.968 244.656C554.07 244.611 554.977 244.235 555.688 243.529C556.399 242.822 556.824 241.763 556.964 240.35ZM560.184 229.699L573.65 229.147L573.746 231.472L568.409 231.691L568.994 245.937L566.201 246.051L565.616 231.805L560.28 232.024L560.184 229.699ZM587.764 239.821L590.681 240.061C590.293 241.775 589.499 243.126 588.3 244.113C587.1 245.1 585.538 245.633 583.614 245.712C581.19 245.811 579.235 245.147 577.749 243.718C576.273 242.278 575.48 240.211 575.369 237.516C575.255 234.729 575.884 232.535 577.256 230.937C578.628 229.339 580.459 228.492 582.747 228.398C584.963 228.307 586.804 228.987 588.27 230.438C589.736 231.889 590.525 233.982 590.638 236.718C590.645 236.884 590.65 237.134 590.653 237.467L578.295 237.975C578.474 239.791 579.046 241.164 580.011 242.093C580.977 243.022 582.151 243.459 583.535 243.402C584.565 243.36 585.433 243.053 586.139 242.482C586.844 241.912 587.386 241.024 587.764 239.821ZM578.356 235.659L587.609 235.279C587.427 233.89 587.03 232.859 586.419 232.186C585.48 231.141 584.298 230.648 582.873 230.706C581.583 230.759 580.514 231.236 579.665 232.135C578.827 233.035 578.39 234.209 578.356 235.659Z" fill="#D2D2D2"/>
<path d="M1281.27 714.158L1678.18 697.888" stroke="#FF0000" stroke-width="2.66524"/>
<path d="M2.92578 73.5664L69.3637 169.923C78.7137 183.484 94.3668 191.299 110.825 190.625L1596.09 129.739C1612.48 129.067 1627.39 120.069 1635.62 105.882L1694.61 4.2194" stroke="#FF0000" stroke-width="2.66524"/>
<path d="M641.376 671.439C640.021 664.473 644.313 657.537 650.968 655.79L649.274 647.083C642.189 647.784 635.869 643.14 634.513 636.174C633.157 629.208 637.449 622.273 644.105 620.526L642.071 610.077C634.986 610.778 628.666 606.134 627.31 599.168C625.954 592.202 630.246 585.267 636.902 583.52L634.953 573.506C627.868 574.208 621.548 569.563 620.192 562.598C618.837 555.632 623.129 548.696 629.784 546.949L627.369 534.541C620.284 535.242 613.964 530.598 612.608 523.633C611.253 516.667 615.545 509.731 622.2 507.984L619.828 495.794C612.743 496.495 606.423 491.851 605.067 484.885C603.711 477.919 608.003 470.984 614.659 469.237L612.286 457.046C605.201 457.748 598.881 453.104 597.525 446.138C596.17 439.172 600.462 432.236 607.117 430.489L604.745 418.299C597.66 419 591.34 414.356 589.984 407.39C588.628 400.424 592.92 393.489 599.576 391.742L596.653 376.722L586.433 378.711C587.094 385.586 582.5 392.128 575.542 393.482C568.584 394.837 561.914 390.713 559.906 383.874L549.469 385.905C550.13 392.78 545.536 399.323 538.578 400.677C531.62 402.031 524.95 397.907 522.942 391.068L512.722 393.057C513.383 399.932 508.789 406.475 501.831 407.829C494.873 409.183 488.203 405.059 486.195 398.22L474.019 400.59C474.68 407.465 470.086 414.008 463.128 415.362C456.17 416.716 449.5 412.592 447.492 405.753L435.315 408.123C435.976 414.998 431.382 421.541 424.424 422.895C417.466 424.249 410.754 419.907 408.788 413.286L396.612 415.656C397.273 422.531 392.679 429.074 385.721 430.428C378.763 431.782 372.093 427.658 370.085 420.819L357.908 423.189C358.569 430.064 353.975 436.607 347.017 437.961C340.059 439.315 333.347 434.973 331.381 428.352L321.379 430.299L324.345 445.537C330.512 445.918 335.66 450.338 336.846 456.433C338.033 462.528 334.743 468.817 329.344 471.223L331.844 484.066C338.011 484.447 343.159 488.868 344.346 494.963C345.574 501.276 342.242 507.346 336.843 509.753L339.343 522.596C345.51 522.977 350.658 527.397 351.845 533.493C353.031 539.588 349.741 545.876 344.342 548.283L347.012 561.997C353.179 562.378 358.327 566.798 359.513 572.893C360.742 579.206 357.41 585.277 352.011 587.683L354.511 600.526C360.678 600.907 365.826 605.328 367.012 611.423C368.241 617.736 364.909 623.806 359.51 626.213L361.629 637.097C367.796 637.478 372.944 641.898 374.13 647.993C375.317 654.089 372.027 660.377 366.628 662.783L368.831 674.103C374.998 674.484 380.147 678.904 381.333 684.999C382.519 691.094 379.23 697.383 373.831 699.789L376.034 711.109C382.201 711.49 387.349 715.91 388.535 722.005C389.722 728.1 386.432 734.389 381.033 736.795L383.914 751.598L394.134 749.609C394.294 743.477 398.84 737.848 405.146 736.621C411.452 735.393 417.735 738.689 420.226 744.53L432.837 742.076C432.998 735.944 437.544 730.315 443.85 729.088C450.155 727.86 456.438 731.156 458.929 736.997L471.758 734.5C471.919 728.369 476.465 722.74 482.771 721.512C489.076 720.285 495.359 723.581 497.85 729.422L510.679 726.925C510.84 720.794 515.386 715.164 521.692 713.937C527.997 712.71 534.28 716.006 536.771 721.847L549.6 719.35C549.761 713.219 554.307 707.589 560.613 706.362C566.918 705.135 573.201 708.43 575.692 714.271L586.347 712.198C586.507 706.066 591.054 700.437 597.359 699.21C603.665 697.983 609.948 701.278 612.439 707.119L623.528 704.961C623.689 698.83 628.235 693.2 634.541 691.973C640.846 690.746 647.13 694.041 649.621 699.883L660.057 697.851L656.922 681.743C649.095 683.266 642.775 678.622 641.376 671.439Z" fill="white" stroke="#FF0000" stroke-width="2.66524" stroke-miterlimit="10"/>
<path d="M958.976 595.109C960.54 588.187 967.262 583.568 974.058 584.649L976.013 575.996C969.246 573.785 965.331 566.989 966.896 560.067C968.46 553.145 975.182 548.525 981.977 549.606L984.324 539.223C977.556 537.012 973.642 530.216 975.206 523.294C976.771 516.372 983.492 511.752 990.288 512.833L992.537 502.883C985.769 500.672 981.855 493.876 983.419 486.954C984.984 480.032 991.705 475.412 998.501 476.493L1001.29 464.163C994.52 461.952 990.605 455.156 992.17 448.234C993.734 441.312 1000.46 436.692 1007.25 437.773L1009.99 425.66C1003.22 423.448 999.307 416.652 1000.87 409.73C1002.44 402.808 1009.16 398.189 1015.95 399.27L1018.69 387.156C1011.92 384.945 1008.01 378.149 1009.57 371.227C1011.14 364.305 1017.86 359.685 1024.66 360.766L1027.39 348.653C1020.63 346.441 1016.71 339.645 1018.28 332.723C1019.84 325.801 1026.56 321.182 1033.36 322.263L1036.73 307.337L1026.57 305.042C1024.41 311.602 1017.57 315.74 1010.66 314.177C1003.74 312.615 999.299 306.153 1000.21 299.085L989.843 296.741C987.68 303.3 980.84 307.438 973.926 305.876C967.012 304.313 962.567 297.852 963.483 290.784L953.328 288.489C951.164 295.048 944.325 299.186 937.41 297.623C930.496 296.061 926.052 289.6 926.968 282.531L914.868 279.797C912.705 286.356 905.865 290.494 898.951 288.932C892.036 287.369 887.592 280.908 888.508 273.839L876.408 271.105C874.245 277.664 867.405 281.802 860.491 280.24C853.577 278.677 849.181 272 850.048 265.148L837.949 262.413C835.785 268.972 828.945 273.11 822.031 271.548C815.117 269.985 810.672 263.524 811.588 256.456L799.489 253.721C797.325 260.28 790.485 264.419 783.571 262.856C776.657 261.293 772.261 254.616 773.129 247.764L763.189 245.518L759.767 260.659C765.259 263.492 768.191 269.611 766.822 275.668C765.453 281.725 759.91 286.156 753.999 286.184L751.115 298.947C756.606 301.779 759.538 307.898 758.169 313.955C756.752 320.228 751.257 324.443 745.346 324.471L742.462 337.234C747.953 340.066 750.885 346.186 749.517 352.242C748.148 358.299 742.604 362.73 736.693 362.758L733.613 376.386C739.105 379.219 742.037 385.338 740.668 391.395C739.25 397.668 733.756 401.883 727.845 401.911L724.96 414.673C730.452 417.506 733.384 423.625 732.015 429.682C730.598 435.955 725.103 440.17 719.192 440.198L716.748 451.014C722.239 453.846 725.171 459.966 723.802 466.022C722.434 472.079 716.89 476.51 710.979 476.538L708.437 487.787C713.929 490.619 716.861 496.739 715.492 502.795C714.123 508.852 708.579 513.283 702.668 513.311L700.126 524.56C705.618 527.392 708.55 533.511 707.181 539.568C705.812 545.625 700.269 550.056 694.358 550.084L691.033 564.794L701.189 567.089C703.805 561.541 710.233 558.219 716.499 559.635C722.765 561.052 727.189 566.599 727.117 572.948L739.648 575.781C742.265 570.233 748.693 566.911 754.959 568.327C761.225 569.743 765.649 575.29 765.576 581.64L778.324 584.521C780.941 578.974 787.369 575.652 793.635 577.068C799.901 578.484 804.325 584.031 804.252 590.381L817 593.262C819.617 587.715 826.045 584.393 832.311 585.809C838.577 587.225 843.001 592.772 842.928 599.122L855.676 602.003C858.293 596.455 864.721 593.133 870.987 594.55C877.253 595.966 881.677 601.513 881.604 607.862L892.192 610.255C894.808 604.708 901.236 601.386 907.502 602.802C913.768 604.218 918.192 609.765 918.12 616.115L929.139 618.605C931.755 613.058 938.184 609.736 944.45 611.152C950.715 612.568 955.139 618.115 955.067 624.465L965.438 626.809L969.056 610.802C961.277 609.044 957.363 602.248 958.976 595.109Z" fill="white" stroke="#FF0000" stroke-width="2.66524" stroke-miterlimit="10"/>
<path d="M1408.56 436.943C1406.19 430.253 1409.42 422.761 1415.74 420.053L1412.79 411.69C1405.88 413.426 1398.95 409.763 1396.58 403.073C1394.21 396.383 1397.44 388.891 1403.76 386.183L1400.21 376.147C1393.31 377.884 1386.38 374.221 1384.01 367.53C1381.64 360.84 1384.87 353.348 1391.19 350.64L1387.79 341.023C1380.89 342.759 1373.95 339.096 1371.58 332.406C1369.22 325.716 1372.44 318.224 1378.77 315.516L1374.55 303.599C1367.65 305.335 1360.71 301.672 1358.35 294.982C1355.98 288.291 1359.21 280.8 1365.53 278.092L1361.39 266.384C1354.49 268.12 1347.55 264.457 1345.18 257.767C1342.82 251.076 1346.04 243.584 1352.37 240.876L1348.23 229.168C1341.32 230.905 1334.39 227.242 1332.02 220.551C1329.66 213.861 1332.88 206.369 1339.21 203.661L1335.06 191.953C1328.16 193.69 1321.22 190.027 1318.86 183.336C1316.49 176.646 1319.72 169.154 1326.04 166.446L1320.94 152.02L1311.12 155.492C1312.79 162.195 1309.21 169.342 1302.53 171.706C1295.84 174.07 1288.64 170.972 1285.65 164.504L1275.62 168.049C1277.29 174.752 1273.71 181.899 1267.02 184.263C1260.34 186.627 1253.14 183.53 1250.14 177.061L1240.33 180.533C1241.99 187.235 1238.41 194.383 1231.73 196.747C1225.05 199.11 1217.84 196.013 1214.85 189.544L1203.16 193.681C1204.82 200.384 1201.24 207.531 1194.56 209.895C1187.87 212.259 1180.67 209.161 1177.68 202.693L1165.98 206.829C1167.65 213.532 1164.07 220.679 1157.38 223.043C1150.7 225.407 1143.42 222.1 1140.5 215.841L1128.81 219.977C1130.48 226.68 1126.89 233.828 1120.21 236.191C1113.53 238.555 1106.32 235.458 1103.33 228.989L1091.64 233.126C1093.3 239.828 1089.72 246.976 1083.04 249.34C1076.36 251.703 1069.08 248.397 1066.16 242.137L1056.55 245.535L1061.73 260.17C1067.88 259.639 1073.63 263.254 1075.7 269.108C1077.77 274.962 1075.44 281.666 1070.45 284.841L1074.82 297.176C1080.97 296.646 1086.72 300.26 1088.79 306.114C1090.93 312.177 1088.53 318.672 1083.54 321.847L1087.91 334.183C1094.06 333.652 1099.81 337.266 1101.88 343.12C1103.95 348.974 1101.62 355.678 1096.63 358.853L1101.29 372.025C1107.45 371.494 1113.19 375.108 1115.26 380.962C1117.41 387.026 1115 393.521 1110.02 396.696L1114.38 409.031C1120.54 408.5 1126.28 412.114 1128.35 417.968C1130.5 424.032 1128.09 430.527 1123.11 433.702L1126.8 444.155C1132.96 443.625 1138.7 447.239 1140.77 453.093C1142.84 458.947 1140.52 465.651 1135.53 468.826L1139.38 479.698C1145.53 479.167 1151.28 482.781 1153.35 488.636C1155.42 494.49 1153.09 501.194 1148.1 504.369L1151.95 515.241C1158.1 514.71 1163.85 518.324 1165.92 524.178C1167.99 530.032 1165.66 536.736 1160.67 539.911L1165.7 554.128L1175.52 550.657C1174.77 544.568 1178.44 538.331 1184.5 536.189C1190.55 534.047 1197.25 536.382 1200.58 541.793L1212.69 537.508C1211.95 531.42 1215.62 525.183 1221.67 523.041C1227.73 520.899 1234.43 523.234 1237.75 528.644L1250.07 524.286C1249.33 518.198 1253 511.961 1259.05 509.819C1265.11 507.677 1271.81 510.011 1275.13 515.422L1287.45 511.064C1286.71 504.976 1290.38 498.739 1296.44 496.597C1302.49 494.454 1309.19 496.789 1312.52 502.2L1324.84 497.842C1324.09 491.754 1327.76 485.517 1333.82 483.374C1339.87 481.232 1346.57 483.567 1349.9 488.978L1360.13 485.359C1359.39 479.27 1363.05 473.033 1369.11 470.891C1375.17 468.749 1381.87 471.084 1385.19 476.495L1395.84 472.727C1395.1 466.639 1398.77 460.402 1404.82 458.26C1410.88 456.118 1417.58 458.453 1420.9 463.863L1430.93 460.318L1425.45 444.846C1417.94 447.505 1411 443.842 1408.56 436.943Z" fill="white" stroke="#FF0000" stroke-width="2.66524" stroke-miterlimit="10"/>
<path d="M1582.38 518.183L1584.35 518.102C1584.41 519.632 1584.26 521.171 1583.64 522.072C1583.02 522.973 1582.17 523.665 1580.87 523.937C1579.35 524.218 1578.25 524.044 1576.89 523.005C1575.75 521.957 1574.81 520.463 1574.28 518.077C1573.74 515.691 1573.67 513.942 1574.49 512.595C1575.09 511.257 1576.15 510.338 1577.67 510.056C1578.76 509.793 1579.86 509.967 1580.75 510.368C1581.64 510.769 1582.34 511.835 1583.05 513.12L1581.33 513.847C1580.86 512.991 1580.39 512.353 1579.95 512.152C1579.49 511.733 1578.84 511.76 1578.18 511.787C1577.32 512.041 1576.68 512.505 1576.29 513.616C1575.89 514.727 1575.94 515.82 1576.23 517.559C1576.74 519.29 1577.23 520.583 1578.13 521.203C1578.81 521.832 1579.69 522.015 1580.57 521.979C1581.22 521.733 1581.86 521.488 1582.27 520.814C1582.46 520.15 1582.65 519.266 1582.38 518.183Z" fill="#FF0000"/>
<path d="M1585.13 515.663C1585.03 513.259 1585.39 511.492 1586.22 510.363C1587.26 509.007 1588.33 508.307 1589.86 508.244C1591.39 508.181 1592.72 508.565 1593.65 509.84C1594.78 510.888 1595.29 512.619 1595.39 515.023C1595.49 517.427 1595.13 519.412 1594.3 520.541C1593.48 521.888 1592.19 522.379 1590.67 522.66C1589.14 522.723 1587.81 522.34 1586.88 521.064C1585.95 519.789 1585.23 518.067 1585.13 515.663ZM1587.09 515.582C1587.17 517.331 1587.66 518.624 1588.35 519.471C1589.04 520.319 1589.93 520.72 1590.81 520.684C1591.68 520.648 1592.54 520.175 1592.94 519.283C1593.34 518.391 1593.72 517.062 1593.65 515.313C1593.58 513.565 1593.09 512.271 1592.4 511.424C1591.7 510.358 1590.81 510.175 1589.94 510.211C1589.06 510.247 1588.21 510.72 1587.81 511.612C1587.19 512.513 1587.02 513.834 1587.09 515.582Z" fill="#FF0000"/>
<path d="M1600.59 508.461L1608.3 509.459L1606.81 521.124L1607.91 521.297L1607.27 527.016L1605.73 526.86L1606.22 522.899L1597.42 521.727L1596.91 525.47L1595.6 525.524L1596.24 519.805L1597.35 519.979C1598.79 517.949 1599.95 514.18 1600.59 508.461ZM1602 510.593C1601.3 515 1600.33 518.105 1599.1 520.126L1605.04 520.758L1606.18 511.079L1602 510.593Z" fill="#FF0000"/>
<path d="M1607.55 528.537L1613.38 510.565L1614.93 511.158L1614.35 512.934C1614.99 512.47 1615.63 512.006 1616.27 511.76C1616.92 511.515 1617.58 511.706 1618.03 511.907C1618.91 512.09 1619.6 512.719 1620.06 513.356C1620.52 513.994 1620.79 515.078 1621.05 516.162C1621.1 517.255 1620.93 518.575 1620.55 519.904C1619.76 522.126 1618.73 523.7 1617.46 524.628C1616.18 525.556 1614.88 525.829 1613.55 525.445C1613.1 525.245 1612.44 525.053 1612.19 524.406C1611.95 523.76 1611.49 523.34 1611.25 522.694L1609.09 528.912L1607.55 528.537ZM1612.79 517.595C1612.21 519.37 1612.04 520.691 1612.51 521.547C1612.78 522.631 1613.24 523.269 1614.13 523.451C1614.79 523.643 1615.66 523.607 1616.51 522.916C1617.36 522.224 1617.97 521.104 1618.55 519.329C1619.14 517.554 1619.3 516.233 1618.83 515.377C1618.57 514.293 1618.1 513.655 1617.22 513.473C1616.55 513.281 1615.69 513.535 1614.84 514.227C1613.99 514.919 1613.38 516.038 1612.79 517.595Z" fill="#FF0000"/>
<path d="M1617.1 531.866L1617.89 529.863C1618.13 530.292 1618.57 530.492 1618.79 530.483C1619.24 530.684 1619.46 530.675 1619.68 530.666C1619.89 530.657 1620.32 530.421 1620.54 530.412C1620.76 530.403 1621.17 529.729 1622.23 528.81L1624.93 514.688L1626.94 515.7L1625.3 523.649C1625.13 524.75 1624.94 525.634 1624.55 526.744C1625.17 525.843 1626.02 525.152 1626.65 524.469L1632.53 518.536L1634.11 519.566L1623.8 529.84C1622.54 531.205 1621.49 532.124 1621.06 532.361C1620.42 532.825 1619.99 533.061 1619.56 533.079C1619.12 533.097 1618.68 533.115 1618.23 532.696C1617.78 532.495 1617.54 532.067 1617.1 531.866Z" fill="#FF0000"/>
<path d="M1642.24 525.582L1638.48 530.115C1638.94 530.534 1639.38 530.735 1639.81 530.498C1640.25 530.48 1640.88 530.016 1642.17 529.307C1643.23 528.606 1643.88 528.361 1644.31 528.124C1644.75 528.106 1644.97 528.097 1645.4 528.079C1645.62 528.071 1646.08 528.49 1646.75 528.9L1646.98 529.11L1645.73 530.693L1645.27 530.274C1644.83 530.073 1644.61 530.082 1644.39 530.091C1644.17 530.1 1643.95 530.109 1643.52 530.346C1642.24 531.055 1641.6 531.519 1641.17 531.756C1640.75 531.992 1640.31 532.01 1639.64 531.818C1640.11 532.456 1640.16 533.768 1639.8 535.534L1638.67 540.177L1637.09 538.929L1638.21 534.285C1638.4 533.402 1638.59 532.737 1638.35 532.309C1638.33 531.872 1638.11 531.663 1637.65 531.243L1633.7 536.222L1632.11 534.973L1636.07 529.995C1635.84 529.785 1635.39 529.584 1634.96 529.602C1634.52 529.62 1633.87 529.866 1633.02 530.339L1628.72 532.266L1627.13 531.018L1631.43 529.09C1633.15 528.363 1634.24 528.099 1635.13 528.501C1634.88 527.854 1634.87 527.417 1634.85 526.98C1634.83 526.542 1635.23 525.65 1635.83 524.312C1636.03 523.647 1636.02 523.429 1636.01 523.21C1636 522.992 1635.77 522.782 1635.54 522.573L1635.09 522.153L1636.34 520.57L1636.56 520.779C1637.24 521.189 1637.48 521.618 1637.71 522.046C1637.94 522.255 1637.96 522.693 1637.76 523.139C1637.77 523.576 1637.37 524.468 1636.99 525.797C1636.6 526.908 1636.41 527.573 1636.41 527.791C1636.43 528.228 1636.66 528.438 1637.12 528.857L1640.87 524.325L1642.24 525.582Z" fill="#FF0000"/>
<path d="M1646.92 543.779L1647.87 545.492C1646.58 546.202 1645.28 546.474 1644.18 546.3C1643.08 546.126 1642.18 545.506 1641.27 544.668C1640.34 543.393 1639.85 542.099 1640.22 540.551C1640.6 539.003 1641.64 537.647 1643.32 536.046C1645.23 534.654 1646.73 533.717 1648.49 533.864C1650.02 533.801 1651.35 534.403 1652.28 535.678C1653.2 536.735 1653.47 538.038 1653.1 539.586C1652.72 541.133 1651.69 542.49 1650 544.091L1649.58 544.546L1644.28 538.195C1643.23 539.114 1642.4 540.243 1642.22 541.126C1642.03 542.01 1642.29 542.875 1642.76 543.731C1643.88 544.342 1645.2 544.507 1646.92 543.779ZM1645.97 536.594L1649.89 541.468C1650.73 540.558 1651.36 539.876 1651.55 539.211C1651.72 538.109 1651.69 537.235 1651.01 536.606C1650.54 535.969 1649.65 535.567 1648.78 535.603C1647.9 535.639 1646.82 535.902 1645.97 536.594Z" fill="#FF0000"/>
<path d="M1653.66 553.355L1654.39 555.076C1652.88 555.576 1651.58 555.849 1650.47 555.456C1649.36 555.064 1648.45 554.444 1647.75 553.378C1647.04 552.094 1646.99 550.782 1647.59 549.444C1648.19 548.106 1649.45 546.741 1651.59 545.558C1653.73 544.376 1655.46 543.867 1657.01 544.241C1658.55 544.397 1659.68 545.227 1660.39 546.511C1660.87 547.586 1661.13 548.451 1660.95 549.553C1660.78 550.655 1659.94 551.565 1658.88 552.484L1657.73 550.999C1658.36 550.316 1658.99 549.852 1658.97 549.197C1659.16 548.532 1659.14 548.095 1658.68 547.457C1658.2 546.601 1657.53 546.191 1656.43 546.017C1655.33 545.843 1654.03 546.334 1652.53 547.052C1650.82 547.998 1649.98 548.908 1649.36 549.809C1648.96 550.702 1648.99 551.576 1649.47 552.432C1649.71 553.079 1650.39 553.489 1651.05 553.681C1651.71 553.873 1652.59 553.837 1653.66 553.355Z" fill="#FF0000"/>
<path d="M1662.83 552.761L1666.03 561.169L1664.3 561.896L1663.07 558.444L1652.07 562.616L1651.35 560.895L1662.35 556.941L1661.11 553.489L1662.83 552.761Z" fill="#FF0000"/>
<path d="M1666.81 564.419L1667.65 568.764C1667.9 569.629 1667.94 570.503 1667.74 570.949C1667.76 571.386 1667.35 572.06 1666.93 572.515C1666.51 572.97 1665.65 573.443 1665 573.47C1663.69 573.742 1662.59 573.568 1661.9 572.721C1661.52 574.05 1660.67 574.742 1658.94 575.251C1657.86 575.514 1656.97 575.331 1656.08 574.93C1655.19 574.529 1654.71 573.454 1654.42 571.933L1653.56 566.933L1666.81 564.419ZM1655.81 568.373L1656.35 570.759C1656.61 571.843 1656.86 572.49 1657.31 572.909C1657.77 573.328 1658.2 573.311 1658.86 573.284C1659.51 573.257 1660.15 572.793 1660.35 572.347C1660.55 571.901 1660.52 571.026 1660.47 569.934L1659.95 567.766L1655.81 568.373ZM1661.68 567.257L1661.98 569.215C1662.23 570.08 1662.25 570.518 1662.48 570.727C1662.7 570.937 1662.93 571.146 1663.16 571.356C1663.39 571.566 1663.82 571.548 1664.26 571.53C1664.92 571.503 1665.33 571.048 1665.54 570.602C1665.74 570.156 1665.71 569.5 1665.45 568.416L1665.15 566.458L1661.68 567.257Z" fill="#FF0000"/>
<path d="M1662.28 576.647C1664.68 576.548 1666.46 577.132 1667.59 577.961C1668.73 579.009 1669.43 580.075 1669.49 581.605C1669.55 583.135 1668.94 584.255 1667.67 585.402C1666.4 586.33 1664.67 586.838 1662.48 586.928C1660.08 587.026 1658.3 586.442 1656.96 585.622C1655.82 584.574 1655.12 583.508 1655.06 581.978C1654.99 580.448 1655.6 579.328 1656.87 578.182C1658.15 577.254 1659.88 576.745 1662.28 576.647ZM1662.14 578.623C1660.39 578.694 1659.09 578.967 1658.24 579.658C1657.4 580.35 1656.99 581.023 1657.03 582.116C1657.07 582.99 1657.54 583.847 1658.44 584.466C1659.34 585.086 1660.67 585.47 1662.42 585.398C1664.17 585.326 1665.47 585.054 1666.32 584.362C1667.17 583.671 1667.58 582.997 1667.53 581.905C1667.5 581.03 1667.02 580.174 1666.12 579.554C1665.22 578.934 1663.89 578.551 1662.14 578.623Z" fill="#FF0000"/>
<path d="M1657.43 602.461L1656.63 604.245C1655.07 603.652 1653.94 602.823 1653.46 601.748C1652.98 600.673 1652.71 599.589 1653.11 598.478C1653.49 597.149 1654.32 596.02 1655.83 595.521C1657.33 594.802 1659.09 594.949 1661.3 595.515C1663.52 596.081 1665.09 597.111 1666.01 598.168C1666.94 599.444 1667.21 600.746 1666.83 602.076C1666.43 603.186 1666.03 604.078 1664.96 604.56C1664.1 605.033 1662.8 605.306 1661.48 605.141L1661.63 603.383C1662.5 603.348 1663.37 603.312 1663.8 603.075C1664.45 602.83 1664.65 602.384 1664.84 601.719C1665.02 600.836 1664.77 599.971 1664.3 599.114C1663.61 598.267 1662.49 597.656 1660.72 597.291C1658.95 596.925 1657.63 596.76 1656.55 597.024C1655.68 597.278 1655.05 597.961 1654.87 598.844C1654.68 599.508 1654.71 600.164 1655.17 600.802C1655.63 601.44 1656.32 602.069 1657.43 602.461Z" fill="#FF0000"/>
<path d="M1664.07 609.631L1662.27 613.646C1661.86 614.538 1661.45 615.212 1661.04 615.667C1660.62 616.122 1660.19 616.358 1659.31 616.394C1658.66 616.421 1657.78 616.457 1657.11 616.047C1655.99 615.436 1655.3 614.588 1655.04 613.723C1653.99 614.642 1652.89 614.687 1651.34 614.094C1650.45 613.693 1649.76 613.064 1649.29 612.208C1648.82 611.351 1648.99 610.249 1649.59 608.911L1651.59 604.232L1664.07 609.631ZM1652.77 606.373L1651.77 608.603C1651.37 609.495 1651.19 610.378 1651.2 610.816C1651.22 611.253 1651.68 611.672 1652.35 612.082C1653.02 612.492 1653.68 612.465 1654.11 612.229C1654.54 611.993 1654.95 611.319 1655.56 610.199L1656.57 608.187L1652.77 606.373ZM1658.13 608.999L1657.33 610.783C1656.92 611.457 1656.73 612.121 1656.74 612.34C1656.75 612.559 1656.77 612.996 1657 613.424C1657.24 613.852 1657.47 614.062 1657.91 614.262C1658.58 614.454 1659.02 614.655 1659.44 614.2C1659.87 613.963 1660.28 613.289 1660.68 612.397L1661.48 610.613L1658.13 608.999Z" fill="#FF0000"/>
<path d="M1653.2 616.863C1655.22 618.094 1656.38 619.579 1656.66 621.1C1657.16 622.612 1656.78 623.942 1655.95 625.289C1655.13 626.417 1653.84 627.127 1652.32 627.408C1650.8 627.689 1649.01 626.887 1647.21 625.647C1645.18 624.198 1644.03 622.713 1643.54 621.419C1643.04 619.907 1643.42 618.578 1644.24 617.231C1645.07 616.102 1646.35 615.393 1647.88 615.111C1649.61 614.821 1651.39 615.405 1653.2 616.863ZM1652.17 618.438C1650.82 617.399 1649.49 617.016 1648.39 617.061C1647.3 617.105 1646.44 617.578 1646.03 618.252C1645.62 618.926 1645.44 619.809 1645.7 620.893C1645.97 621.976 1646.88 622.815 1648.45 623.845C1649.81 624.884 1651.14 625.267 1652.23 625.223C1653.32 625.178 1654.18 624.705 1654.59 624.031C1655 623.358 1655.18 622.474 1654.92 621.391C1654.66 620.307 1653.53 619.477 1652.17 618.438Z" fill="#FF0000"/>
<path d="M1638.46 631.042L1636.97 632.197C1636.26 630.913 1635.78 629.838 1635.95 628.517C1636.12 627.416 1636.51 626.305 1637.36 625.613C1638.41 624.476 1639.92 623.976 1641.46 624.132C1643 624.288 1644.56 625.099 1646.16 626.785C1647.77 628.471 1648.71 630.183 1648.99 631.704C1649.06 633.234 1648.67 634.564 1647.62 635.701C1646.57 636.62 1645.27 637.111 1643.74 636.955C1642.2 636.799 1640.62 635.769 1639.03 634.302L1638.57 633.883L1644.46 627.949C1643.32 626.901 1642.2 626.291 1641.33 626.326C1640.23 626.153 1639.58 626.398 1638.95 627.081C1637.46 628.018 1637.51 629.329 1638.46 631.042ZM1645.4 629.444L1640.98 633.784C1641.89 634.623 1642.56 635.033 1643.45 635.216C1644.55 635.39 1645.41 635.135 1646.04 634.453C1646.67 633.77 1646.86 633.105 1646.83 632.231C1646.56 631.147 1646.09 630.291 1645.4 629.444ZM1648.16 638.088L1649.99 639.983L1648.51 641.357L1646.68 639.462L1648.16 638.088ZM1650.89 635.348L1652.72 637.244L1651.25 638.618L1649.42 636.722L1650.89 635.348Z" fill="#FF0000"/>
<path d="M1612.8 645.886L1610.84 646.185C1610.56 644.664 1610.71 643.125 1611.11 642.233C1611.72 641.114 1612.57 640.422 1613.65 639.94C1614.94 639.449 1616.26 639.614 1617.61 640.435C1618.95 641.255 1619.89 642.749 1620.65 645.127C1621.39 647.285 1621.47 649.252 1621.09 650.582C1620.49 651.92 1619.66 653.048 1618.15 653.548C1617.07 654.03 1615.97 653.856 1615.08 653.455C1614.18 653.054 1613.27 652.216 1612.56 650.931L1614.28 649.985C1614.75 650.841 1615.21 651.261 1615.88 651.671C1616.55 652.081 1616.99 652.063 1617.64 651.818C1618.5 651.563 1619.13 650.881 1619.53 649.989C1619.93 649.096 1619.65 647.575 1619.15 646.063C1618.64 644.333 1617.93 643.048 1617.03 642.429C1616.13 641.809 1615.47 641.617 1614.6 641.871C1613.95 642.117 1613.54 642.572 1613.13 643.246C1612.72 643.919 1612.53 644.802 1612.8 645.886Z" fill="#FF0000"/>
<path d="M1610.28 648.617C1610.6 651.012 1610.45 652.77 1609.63 654.117C1608.81 655.464 1607.74 656.164 1606.22 656.446C1604.7 656.727 1603.37 656.344 1602.23 655.296C1601.1 654.248 1600.37 652.526 1600.06 650.349C1599.74 647.954 1599.88 645.978 1600.7 644.631C1601.52 643.284 1602.59 642.583 1604.11 642.302C1605.63 642.021 1606.96 642.404 1608.1 643.452C1609.24 644.5 1609.96 646.222 1610.28 648.617ZM1608.54 648.907C1608.25 647.168 1607.76 645.874 1607.08 645.245C1606.39 644.398 1605.5 644.215 1604.63 644.251C1603.75 644.287 1603.13 644.969 1602.51 645.871C1602.1 646.763 1601.94 648.083 1602.23 649.823C1602.52 651.562 1603.01 652.856 1603.69 653.484C1604.38 654.332 1605.27 654.514 1606.14 654.479C1607.02 654.443 1607.65 653.76 1608.27 652.859C1608.67 651.967 1608.83 650.647 1608.54 648.907Z" fill="#FF0000"/>
<path d="M1595.52 657.102L1587.85 656.76L1588.25 645.141L1587.15 645.186L1587.36 639.485L1588.9 639.641L1588.84 643.584L1597.61 643.881L1597.67 639.938L1599.2 640.094L1599 645.795L1597.91 645.839C1596.44 647.432 1595.73 651.402 1595.52 657.102ZM1594.13 655.189C1594.39 650.8 1595.13 647.486 1596.14 645.474L1590.22 645.279L1589.74 654.931L1594.13 655.189Z" fill="#FF0000"/>
<path d="M1587.07 637.747L1583 656.084L1581.24 655.719L1581.6 653.952C1580.97 654.635 1580.55 655.09 1579.9 655.117C1579.25 655.362 1578.59 655.389 1578.15 655.189C1577.27 655.006 1576.59 654.596 1575.91 653.967C1575.23 653.338 1574.97 652.473 1574.7 651.17C1574.44 650.087 1574.6 648.766 1574.98 647.218C1575.54 645.006 1576.34 643.222 1577.62 642.293C1578.9 641.365 1580.19 640.875 1581.3 641.267C1581.96 641.459 1582.41 641.659 1582.87 642.078C1583.32 642.498 1583.56 642.926 1583.8 643.573L1585.29 637.163L1587.07 637.747ZM1582.71 649.09C1583.08 647.324 1583.03 646.013 1582.77 645.147C1582.52 644.282 1581.84 643.653 1580.95 643.47C1580.07 643.288 1579.42 643.533 1578.57 644.225C1577.73 644.916 1577.13 646.254 1576.76 648.021C1576.39 649.787 1576.45 651.099 1576.7 651.964C1577.18 652.82 1577.64 653.458 1578.52 653.641C1579.19 653.832 1580.05 653.578 1580.89 652.668C1581.74 651.976 1582.35 650.857 1582.71 649.09Z" fill="#FF0000"/>
<path d="M1577.12 635.308L1576.54 637.302C1576.31 637.092 1575.87 636.892 1575.64 636.682C1575.19 636.481 1574.97 636.49 1574.54 636.508C1574.32 636.517 1573.89 636.754 1573.68 636.981C1573.68 636.981 1573.05 637.664 1572.22 638.792L1570.84 653.08L1569.05 652.277L1570.03 644.136C1570.21 643.035 1570.38 641.933 1570.55 640.831C1569.93 641.732 1569.31 642.633 1568.69 643.316L1563.47 649.66L1561.69 648.857L1570.87 637.753C1572.12 636.388 1572.96 635.478 1573.38 635.023C1573.8 634.568 1574.45 634.323 1574.88 634.305C1575.32 634.287 1575.76 634.269 1576.2 634.47C1576.44 634.898 1576.67 635.107 1577.12 635.308Z" fill="#FF0000"/>
<path d="M1552.51 643.979L1555.81 639.027C1555.36 638.608 1554.92 638.626 1554.48 638.644C1554.05 638.662 1553.41 639.126 1552.13 640.054C1551.28 640.745 1550.65 641.209 1550.21 641.227C1549.77 641.245 1549.56 641.472 1549.12 641.272C1548.67 641.071 1548.44 640.862 1547.77 640.451L1547.54 640.242L1548.81 639.095L1549.26 639.514C1549.49 639.724 1549.94 639.925 1550.16 639.916C1550.37 639.907 1550.58 639.679 1551.01 639.443C1552.07 638.524 1552.93 638.051 1553.35 637.814C1553.78 637.578 1554.22 637.56 1554.88 637.533C1554.41 636.895 1554.14 635.593 1554.5 633.826L1555.19 629.201L1556.99 630.44L1556.31 635.066C1556.12 635.949 1556.15 636.605 1556.17 637.042C1556.19 637.479 1556.41 637.689 1556.86 637.889L1560.37 632.71L1561.94 633.74L1558.43 638.92C1558.88 639.12 1559.11 639.33 1559.55 639.312C1559.98 639.294 1560.63 639.048 1561.49 638.576L1565.55 636.22L1567.35 637.459L1563.29 639.815C1561.79 640.752 1560.49 641.025 1559.83 640.833C1560.06 641.261 1560.31 641.908 1560.33 642.345C1560.34 642.782 1560.16 643.665 1559.79 645.213C1559.59 645.659 1559.6 645.878 1559.6 646.096C1559.61 646.315 1559.84 646.524 1560.29 646.725L1560.73 646.926L1559.7 648.5L1559.48 648.291C1558.8 647.881 1558.35 647.461 1558.34 647.243C1558.11 647.033 1558.09 646.596 1558.07 646.159C1558.06 645.722 1558.24 644.839 1558.62 643.509C1558.8 642.408 1558.99 641.743 1558.97 641.306C1558.95 640.869 1558.73 640.659 1558.05 640.249L1554.75 645.201L1552.51 643.979Z" fill="#FF0000"/>
<path d="M1546.31 626.281L1545.16 624.796C1546.44 624.087 1547.52 623.605 1548.84 623.769C1549.94 623.943 1551.05 624.336 1551.74 625.183C1552.88 626.231 1553.38 627.743 1553.22 629.282C1553.07 630.821 1552.26 632.386 1550.57 633.988C1548.88 635.59 1547.17 636.536 1545.65 636.817C1544.13 637.098 1542.77 636.059 1541.64 635.011C1540.72 633.954 1540.23 632.661 1540.38 631.122C1540.54 629.583 1541.57 628.008 1543.03 626.416L1543.68 626.17L1549.62 632.057C1550.66 630.919 1551.27 629.8 1551.24 628.925C1551.41 627.824 1551.17 627.177 1550.48 626.548C1549.34 625.281 1548.03 625.335 1546.31 626.281ZM1547.91 633.221L1543.57 628.802C1542.73 629.712 1542.32 630.385 1542.14 631.269C1541.97 632.37 1542.22 633.236 1542.9 633.865C1543.59 634.493 1544.25 634.685 1545.12 634.649C1546 634.613 1547.07 634.131 1547.91 633.221Z" fill="#FF0000"/>
<path d="M1538.72 617.179L1537.99 615.457C1539.49 614.739 1540.79 614.466 1541.9 614.64C1543 614.814 1544.12 615.425 1544.82 616.491C1545.74 617.766 1545.8 619.078 1545.42 620.407C1545.04 621.955 1543.78 623.32 1541.86 624.493C1539.95 625.885 1538.22 626.394 1536.68 626.238C1534.94 626.528 1533.81 625.699 1532.88 624.424C1532.19 623.576 1531.93 622.492 1532.1 621.391C1532.27 620.289 1532.89 619.388 1533.94 618.25L1535.31 619.508C1534.68 620.19 1534.27 620.864 1534.08 621.528C1533.89 622.193 1534.12 622.621 1534.37 623.268C1534.84 624.124 1535.73 624.526 1536.61 624.49C1537.48 624.454 1538.77 623.963 1540.27 623.026C1541.75 621.871 1542.81 620.952 1542.99 620.068C1543.39 619.176 1543.36 618.302 1542.67 617.455C1542.2 616.817 1541.76 616.616 1540.87 616.433C1540.66 616.442 1539.79 616.697 1538.72 617.179Z" fill="#FF0000"/>
<path d="M1529.59 618.866L1525.75 610.704L1527.47 609.977L1528.92 613.202L1539.44 608.173L1540.17 609.894L1529.65 614.923L1531.3 617.92L1529.59 618.866Z" fill="#FF0000"/>
<path d="M1524.52 607.471L1523.25 603.144C1523 602.279 1522.96 601.405 1522.94 600.968C1522.93 600.53 1523.12 599.866 1523.75 599.183C1524.17 598.728 1524.8 598.264 1525.67 598.01C1526.97 597.737 1528.07 597.911 1528.76 598.54C1528.92 597.22 1529.76 596.31 1531.49 595.801C1532.57 595.537 1533.45 595.502 1534.34 595.903C1535.23 596.304 1535.92 597.152 1536.2 598.673L1537.49 603.436L1524.52 607.471ZM1529.64 603.977L1529.12 602.028C1528.86 601.163 1528.63 600.735 1528.62 600.516C1528.39 600.306 1528.16 600.097 1527.72 599.896C1527.27 599.696 1527.05 599.705 1526.62 599.941C1525.98 600.186 1525.55 600.423 1525.35 600.869C1525.15 601.315 1525.17 601.971 1525.44 603.055L1525.96 605.004L1529.64 603.977ZM1535.26 602.433L1534.51 600.056C1534.25 598.972 1533.78 598.334 1533.34 598.133C1532.89 597.933 1532.44 597.732 1531.8 597.977C1531.15 598.223 1530.72 598.459 1530.53 599.124C1530.33 599.57 1530.37 600.444 1530.63 601.528L1531.37 603.687L1535.26 602.433Z" fill="#FF0000"/>
<path d="M1528.17 594.843C1525.77 595.16 1524 594.794 1522.66 593.974C1521.31 593.153 1520.6 591.869 1520.54 590.339C1520.48 588.809 1520.86 587.48 1521.91 586.342C1522.95 585.204 1524.69 584.696 1526.86 584.387C1529.26 584.07 1531.24 584.427 1532.37 585.256C1533.72 586.077 1534.43 587.361 1534.49 588.891C1534.55 590.421 1534.17 591.75 1533.12 592.888C1532.28 593.798 1530.56 594.526 1528.17 594.843ZM1527.87 592.885C1529.62 592.813 1530.91 592.322 1531.76 591.63C1532.6 590.939 1532.79 590.056 1532.75 589.181C1532.71 588.307 1532.25 587.669 1531.13 587.059C1530.23 586.439 1528.91 586.274 1527.17 586.564C1525.42 586.636 1524.13 587.127 1523.28 587.818C1522.43 588.51 1522.25 589.393 1522.29 590.267C1522.32 591.141 1522.79 591.779 1523.91 592.39C1524.8 592.791 1526.12 592.956 1527.87 592.885Z" fill="#FF0000"/>
<path d="M1530.6 568.689L1531.18 566.914C1532.73 567.288 1533.86 568.118 1534.56 569.184C1535.26 570.25 1535.52 571.333 1535.35 572.435C1535.19 573.974 1534.35 574.884 1533.07 575.594C1531.57 576.312 1529.82 576.384 1527.4 576.045C1524.97 575.707 1523.41 574.895 1522.27 573.847C1521.13 572.799 1520.86 571.497 1521.02 569.958C1521.19 568.856 1521.81 567.955 1522.66 567.263C1523.5 566.572 1524.59 566.308 1526.12 566.246L1526.2 568.213C1525.32 568.249 1524.46 568.503 1524.03 568.739C1523.61 569.195 1523.19 569.65 1523 570.314C1522.82 571.197 1523.07 572.063 1523.76 572.91C1524.46 573.757 1525.79 574.141 1527.55 574.506C1529.32 574.872 1530.85 574.809 1531.7 574.336C1532.56 573.863 1533.19 573.181 1533.37 572.297C1533.56 571.633 1533.32 570.986 1532.85 570.348C1532.38 569.492 1531.7 568.863 1530.6 568.689Z" fill="#FF0000"/>
<path d="M1523.11 562.21L1524.47 557.995C1524.87 557.103 1525.06 556.438 1525.48 555.983C1525.9 555.528 1526.33 555.292 1526.97 555.046C1527.62 554.801 1528.5 554.984 1529.17 555.175C1530.5 555.559 1531.19 556.406 1531.45 557.49C1532.29 556.58 1533.59 556.307 1535.15 556.9C1536.04 557.302 1536.94 557.922 1537.42 558.778C1537.89 559.634 1537.93 560.727 1537.33 562.065L1535.77 566.727L1523.11 562.21ZM1529.24 562.397L1529.82 560.403C1530.23 559.729 1530.2 559.074 1530.19 558.855C1530.18 558.636 1530.17 558.199 1529.94 557.99C1529.7 557.562 1529.48 557.352 1529.04 557.37C1528.37 557.178 1527.72 557.205 1527.51 557.433C1527.08 557.669 1526.67 558.343 1526.49 559.226L1525.69 561.229L1529.24 562.397ZM1534.8 564.358L1535.57 561.918C1535.97 560.808 1535.94 560.152 1535.92 559.715C1535.68 559.287 1535.23 558.867 1534.78 558.667C1534.12 558.475 1533.46 558.502 1533.04 558.738C1532.61 558.975 1532.2 559.649 1531.8 560.759L1531.02 562.981L1534.8 564.358Z" fill="#FF0000"/>
<path d="M1533.49 553.903C1531.47 552.672 1530.11 551.415 1529.61 549.903C1529.11 548.391 1529.05 547.079 1529.88 545.732C1530.7 544.385 1531.76 543.684 1533.28 543.403C1534.81 543.34 1536.58 543.706 1538.37 544.727C1540.39 545.958 1541.76 547.215 1542.48 548.718C1543.2 550.221 1543.03 551.542 1542.21 552.889C1541.39 554.236 1540.32 554.937 1538.8 555.218C1537.28 555.499 1535.52 555.134 1533.49 553.903ZM1534.31 552.337C1535.87 553.149 1537.2 553.532 1538.29 553.487C1539.39 553.443 1540.02 552.979 1540.64 552.077C1541.05 551.404 1541.02 550.53 1540.54 549.455C1540.05 548.38 1539.14 547.541 1537.58 546.73C1536.22 545.691 1534.89 545.307 1533.81 545.571C1532.72 545.616 1532.08 546.08 1531.46 546.981C1531.05 547.654 1531.08 548.529 1531.35 549.612C1531.82 550.469 1532.96 551.517 1534.31 552.337Z" fill="#FF0000"/>
<path d="M1534.05 535.489L1532.01 533.821L1533.26 532.238L1535.3 533.905L1534.05 535.489ZM1536.55 532.322L1534.51 530.654L1535.76 529.07L1537.81 530.957L1536.55 532.322ZM1546.87 538.466L1548.35 537.092C1549.28 538.368 1549.76 539.443 1549.8 540.536C1549.85 541.628 1549.46 542.739 1548.62 543.649C1547.57 544.787 1546.29 545.496 1544.75 545.34C1543.22 545.403 1541.65 544.592 1539.84 543.133C1538.03 541.675 1537.09 540.181 1536.58 538.45C1536.07 536.72 1536.68 535.6 1537.51 534.472C1538.34 533.343 1539.64 532.852 1541.17 532.789C1542.7 532.727 1544.26 533.538 1546.07 534.996L1546.53 535.416L1541.1 541.768C1542.23 542.598 1543.35 543.209 1544.44 543.164C1545.53 543.119 1546.18 542.874 1546.81 542.191C1548.09 541.482 1548.04 540.17 1546.87 538.466ZM1539.96 540.72L1543.92 535.96C1543.02 535.34 1542.13 534.939 1541.47 534.747C1540.36 534.574 1539.51 535.047 1539.1 535.72C1538.47 536.403 1538.28 537.067 1538.54 538.151C1538.59 539.244 1539.28 540.091 1539.96 540.72Z" fill="#FF0000"/>
<path d="M1605.62 593.637L1612.87 594.216C1611.94 598.413 1609.89 601.781 1606.92 604.092C1603.95 606.403 1600.07 607.876 1595.48 608.064C1589.58 608.306 1584.7 606.755 1581.05 603.183C1577.4 599.61 1575.45 594.655 1575.17 587.88C1574.89 581.104 1576.42 575.569 1579.76 571.71C1583.11 567.851 1587.62 565.696 1593.3 565.463C1598.76 565.239 1603.2 566.808 1606.85 570.38C1610.5 573.952 1612.47 579.126 1612.74 585.902C1612.76 586.339 1612.79 586.994 1612.82 587.65L1582.22 588.904C1582.62 593.485 1584.07 596.71 1586.35 599.024C1588.64 601.339 1591.52 602.315 1595.02 602.172C1597.64 602.064 1599.8 601.319 1601.5 599.936C1603.19 598.553 1604.64 596.523 1605.62 593.637ZM1582.43 583.422L1605.16 582.491C1604.8 579.003 1603.83 576.634 1602.23 574.948C1599.93 572.415 1597.04 571.22 1593.54 571.364C1590.26 571.498 1587.68 572.698 1585.59 574.974C1583.49 577.249 1582.5 579.698 1582.43 583.422ZM1581.86 558.926L1581.54 551.057L1588.75 550.762L1589.08 558.63L1581.86 558.926ZM1596.29 558.334L1595.97 550.466L1603.18 550.17L1603.5 558.039L1596.29 558.334Z" fill="#FF0000"/>
<path d="M1140.65 368.025L1143.46 367.65C1143.79 369.243 1144.33 370.393 1145.1 371.101C1145.89 371.799 1146.83 372.148 1147.95 372.148C1149.27 372.148 1150.38 371.689 1151.29 370.773C1152.2 369.857 1152.66 368.722 1152.66 367.369C1152.66 366.078 1152.24 365.016 1151.4 364.183C1150.55 363.34 1149.48 362.918 1148.18 362.918C1147.65 362.918 1146.99 363.022 1146.2 363.23L1146.51 360.763C1146.7 360.784 1146.85 360.794 1146.96 360.794C1148.16 360.794 1149.24 360.482 1150.2 359.857C1151.15 359.233 1151.63 358.27 1151.63 356.968C1151.63 355.937 1151.28 355.084 1150.59 354.407C1149.89 353.73 1148.99 353.392 1147.88 353.392C1146.79 353.392 1145.88 353.736 1145.15 354.423C1144.42 355.11 1143.95 356.14 1143.75 357.515L1140.93 357.015C1141.28 355.131 1142.06 353.673 1143.28 352.642C1144.5 351.601 1146.01 351.081 1147.82 351.081C1149.07 351.081 1150.22 351.351 1151.27 351.893C1152.32 352.424 1153.13 353.153 1153.68 354.079C1154.24 355.006 1154.52 355.99 1154.52 357.031C1154.52 358.02 1154.26 358.92 1153.72 359.732C1153.19 360.544 1152.41 361.19 1151.37 361.669C1152.72 361.981 1153.77 362.632 1154.52 363.621C1155.27 364.599 1155.65 365.828 1155.65 367.306C1155.65 369.305 1154.92 371.002 1153.46 372.397C1152 373.782 1150.16 374.474 1147.93 374.474C1145.92 374.474 1144.25 373.876 1142.92 372.678C1141.6 371.481 1140.84 369.93 1140.65 368.025Z" fill="#FF0000"/>
<path d="M387.087 586.482H384.276V568.57C383.6 569.216 382.709 569.861 381.606 570.507C380.513 571.152 379.529 571.636 378.654 571.959V569.242C380.226 568.502 381.601 567.607 382.777 566.556C383.954 565.504 384.787 564.484 385.276 563.495H387.087V586.482Z" fill="#FF0000"/>
<path d="M758.169 465.16V467.861H743.037C743.016 467.185 743.125 466.534 743.365 465.909C743.75 464.879 744.364 463.863 745.207 462.864C746.061 461.865 747.29 460.709 748.893 459.397C751.381 457.357 753.062 455.743 753.937 454.556C754.812 453.359 755.249 452.229 755.249 451.167C755.249 450.053 754.848 449.116 754.046 448.356C753.255 447.586 752.219 447.201 750.939 447.201C749.585 447.201 748.502 447.607 747.69 448.419C746.878 449.231 746.467 450.355 746.457 451.792L743.568 451.495C743.765 449.34 744.51 447.7 745.801 446.576C747.092 445.441 748.825 444.874 751.001 444.874C753.198 444.874 754.936 445.483 756.217 446.701C757.498 447.919 758.138 449.429 758.138 451.23C758.138 452.146 757.95 453.046 757.576 453.931C757.201 454.816 756.576 455.748 755.702 456.727C754.838 457.705 753.396 459.048 751.376 460.756C749.689 462.172 748.607 463.135 748.128 463.645C747.649 464.145 747.253 464.65 746.941 465.16H758.169Z" fill="#FF0000"/>
</svg>
