<svg width="732" height="163" viewBox="0 0 732 163" fill="none" xmlns="http://www.w3.org/2000/svg">
<rect x="2.01497" y="161.667" width="160" height="728.381" transform="rotate(-90 2.01497 161.667)" fill="#D2D2D2" stroke="#0000FF" stroke-width="2.66667"/>
<path d="M542.296 21V141.667" stroke="#0000FF" stroke-width="2.66667"/>
<path d="M568.977 21V141.667" stroke="#0000FF" stroke-width="2.66667"/>
<path d="M352.864 21V141.667" stroke="#0000FF" stroke-width="2.66667"/>
<path d="M379.545 21V141.667" stroke="#0000FF" stroke-width="2.66667"/>
<path d="M163.433 21V141.667" stroke="#0000FF" stroke-width="2.66667"/>
<path d="M190.112 21V141.667" stroke="#0000FF" stroke-width="2.66667"/>
<path d="M33.4883 90.2396L38.1133 89.4896C39.0716 95.4896 41.4987 98.4896 45.3945 98.4896C47.4987 98.4896 49.3216 97.6042 50.8633 95.8334C52.4049 94.0417 53.1758 91.7292 53.1758 88.8959C53.1758 86.2292 52.4674 84.0834 51.0508 82.4584C49.6341 80.8334 47.8945 80.0209 45.832 80.0209C44.957 80.0209 43.8737 80.2292 42.582 80.6459L43.1133 75.7084L43.832 75.7709C46.1029 75.7709 47.9466 75.073 49.3633 73.6771C50.7799 72.2813 51.4883 70.4167 51.4883 68.0834C51.4883 65.9375 50.8945 64.2188 49.707 62.9271C48.5195 61.6146 47.0716 60.9584 45.3633 60.9584C43.5924 60.9584 42.0924 61.6459 40.8633 63.0209C39.6549 64.375 38.8841 66.4375 38.5508 69.2084L33.957 68.2084C34.5404 64.2917 35.8529 61.3334 37.8945 59.3334C39.9362 57.3334 42.4049 56.3334 45.3008 56.3334C48.3424 56.3334 50.9258 57.4584 53.0508 59.7084C55.1758 61.9584 56.2383 64.7917 56.2383 68.2084C56.2383 70.2917 55.7799 72.1355 54.8633 73.7396C53.9674 75.3438 52.707 76.6042 51.082 77.5209C52.582 77.9375 53.8216 78.625 54.8008 79.5834C55.7799 80.5417 56.5716 81.823 57.1758 83.4271C57.7799 85.0313 58.082 86.823 58.082 88.8021C58.082 93.0105 56.8424 96.4584 54.3633 99.1459C51.8841 101.813 48.9154 103.146 45.457 103.146C42.2487 103.146 39.5299 101.979 37.3008 99.6459C35.0716 97.3125 33.8008 94.1771 33.4883 90.2396ZM96.3945 90.1771L100.926 90.8959C100.405 94.8542 99.0924 97.875 96.9883 99.9584C94.9049 102.042 92.3945 103.083 89.457 103.083C85.8945 103.083 82.957 101.625 80.6445 98.7084C78.3529 95.7709 77.207 91.4375 77.207 85.7084C77.207 79.9375 78.3633 75.6146 80.6758 72.7396C83.0091 69.8438 85.9987 68.3959 89.6445 68.3959C92.457 68.3959 94.8216 69.2709 96.7383 71.0209C98.6758 72.7709 99.9154 75.3959 100.457 78.8959L95.9883 79.7396C95.5508 77.4896 94.7904 75.8125 93.707 74.7084C92.6237 73.5834 91.3216 73.0209 89.8008 73.0209C87.5299 73.0209 85.6445 74.0313 84.1445 76.0521C82.6654 78.0521 81.9258 81.2396 81.9258 85.6146C81.9258 90.1355 82.6341 93.4063 84.0508 95.4271C85.4883 97.448 87.3216 98.4584 89.5508 98.4584C91.3008 98.4584 92.7904 97.7917 94.0195 96.4584C95.2695 95.1042 96.0612 93.0105 96.3945 90.1771ZM107.113 69.1459H128.551V102.333H123.957V73.8021H111.738V90.3334C111.738 94.1042 111.634 96.6355 111.426 97.9271C111.238 99.2188 110.665 100.313 109.707 101.208C108.77 102.104 107.426 102.552 105.676 102.552C104.592 102.552 103.374 102.479 102.02 102.333V97.6146C104.186 97.5938 105.467 97.5209 105.863 97.3959C106.259 97.2709 106.561 96.9584 106.77 96.4584C106.999 95.9375 107.113 94.125 107.113 91.0209V69.1459Z" fill="#0000FF"/>
<path d="M231.789 85.0729C231.789 79.3437 232.987 75.0208 235.383 72.1041C237.799 69.1875 240.852 67.7291 244.539 67.7291C248.164 67.7291 251.195 69.1875 253.633 72.1041C256.07 75.0208 257.289 79.2291 257.289 84.7291C257.289 90.6875 256.091 95.125 253.695 98.0416C251.299 100.958 248.247 102.417 244.539 102.417C240.893 102.417 237.852 100.958 235.414 98.0416C232.997 95.1041 231.789 90.7812 231.789 85.0729ZM236.508 85.0729C236.508 89.3645 237.289 92.5625 238.852 94.6666C240.414 96.75 242.352 97.7916 244.664 97.7916C246.831 97.7916 248.685 96.7395 250.227 94.6354C251.789 92.5104 252.57 89.3229 252.57 85.0729C252.57 80.802 251.789 77.625 250.227 75.5416C248.664 73.4375 246.727 72.3854 244.414 72.3854C242.227 72.3854 240.362 73.4375 238.82 75.5416C237.279 77.6458 236.508 80.8229 236.508 85.0729ZM262.789 68.4791H273.414C275.831 68.4791 277.674 68.7083 278.945 69.1666C280.237 69.625 281.383 70.5729 282.383 72.0104C283.404 73.427 283.914 75.1875 283.914 77.2916C283.914 80.4583 282.831 82.8229 280.664 84.3854C283.643 85.7187 285.133 88.3854 285.133 92.3854C285.133 94.9479 284.372 97.1354 282.852 98.9479C281.331 100.76 278.737 101.667 275.07 101.667H262.789V68.4791ZM267.383 82.4479H272.32C274.279 82.4479 275.622 82.3229 276.352 82.0729C277.102 81.8229 277.768 81.3229 278.352 80.5729C278.935 79.802 279.227 78.8645 279.227 77.7604C279.227 76.0104 278.706 74.802 277.664 74.1354C276.643 73.4687 274.914 73.1354 272.477 73.1354H267.383V82.4479ZM267.383 97.0416H273.477C276.081 97.0416 277.883 96.6458 278.883 95.8541C279.883 95.0416 280.383 93.7916 280.383 92.1041C280.383 90.3125 279.852 89.0312 278.789 88.2604C277.747 87.4687 275.82 87.0729 273.008 87.0729H267.383V97.0416ZM308.32 97.5729C306.779 99.177 305.174 100.385 303.508 101.198C301.841 102.01 300.112 102.417 298.32 102.417C295.487 102.417 293.227 101.562 291.539 99.8541C289.852 98.1458 289.008 95.8437 289.008 92.9479C289.008 91.0312 289.404 89.3333 290.195 87.8541C290.987 86.375 292.07 85.2187 293.445 84.3854C294.82 83.552 296.904 82.9375 299.695 82.5416C303.445 82 306.195 81.3541 307.945 80.6041L307.977 79.1666C307.977 76.8958 307.57 75.302 306.758 74.3854C305.612 73.052 303.852 72.3854 301.477 72.3854C299.331 72.3854 297.727 72.8333 296.664 73.7291C295.602 74.6041 294.82 76.2604 294.32 78.6979L289.789 77.9479C290.435 74.3854 291.737 71.7916 293.695 70.1666C295.674 68.5416 298.497 67.7291 302.164 67.7291C305.018 67.7291 307.258 68.2708 308.883 69.3541C310.508 70.4166 311.529 71.7395 311.945 73.3229C312.383 74.9062 312.602 77.2187 312.602 80.2604V87.7604C312.602 93.0104 312.695 96.3229 312.883 97.6979C313.091 99.052 313.487 100.375 314.07 101.667H309.258C308.779 100.521 308.466 99.1562 308.32 97.5729ZM307.945 85.0104C306.258 85.8437 303.747 86.552 300.414 87.1354C298.477 87.4687 297.122 87.8541 296.352 88.2916C295.581 88.7083 294.977 89.3125 294.539 90.1041C294.122 90.875 293.914 91.7708 293.914 92.7916C293.914 94.375 294.404 95.6458 295.383 96.6041C296.362 97.5416 297.716 98.0104 299.445 98.0104C301.091 98.0104 302.581 97.5833 303.914 96.7291C305.268 95.875 306.279 94.7395 306.945 93.3229C307.612 91.8854 307.945 89.802 307.945 87.0729V85.0104Z" fill="#0000FF"/>
<path d="M410.55 86.4062C410.55 80.6771 411.748 76.3542 414.144 73.4375C416.56 70.5208 419.612 69.0625 423.3 69.0625C426.925 69.0625 429.956 70.5208 432.394 73.4375C434.831 76.3542 436.05 80.5625 436.05 86.0625C436.05 92.0208 434.852 96.4583 432.456 99.375C430.06 102.292 427.008 103.75 423.3 103.75C419.654 103.75 416.612 102.292 414.175 99.375C411.758 96.4375 410.55 92.1146 410.55 86.4062ZM415.269 86.4062C415.269 90.6979 416.05 93.8958 417.612 96C419.175 98.0833 421.112 99.125 423.425 99.125C425.591 99.125 427.446 98.0729 428.987 95.9688C430.55 93.8438 431.331 90.6562 431.331 86.4062C431.331 82.1354 430.55 78.9583 428.987 76.875C427.425 74.7708 425.487 73.7188 423.175 73.7188C420.987 73.7188 419.123 74.7708 417.581 76.875C416.039 78.9792 415.269 82.1562 415.269 86.4062ZM456.769 103V57.1875H470.925C474.258 57.1875 476.716 57.4792 478.3 58.0625C480.466 58.8542 482.196 60.3229 483.487 62.4688C484.779 64.6146 485.425 67.25 485.425 70.375C485.425 74.5 484.373 77.8646 482.269 80.4688C480.164 83.0729 476.529 84.375 471.362 84.375H461.737V103H456.769ZM461.737 78.9688H471.456C474.519 78.9688 476.758 78.2812 478.175 76.9062C479.591 75.5104 480.3 73.4167 480.3 70.625C480.3 68.8125 479.946 67.2604 479.237 65.9688C478.55 64.6771 477.706 63.7917 476.706 63.3125C475.727 62.8333 473.946 62.5938 471.362 62.5938H461.737V78.9688ZM489.362 86.4062C489.362 80.6771 490.56 76.3542 492.956 73.4375C495.373 70.5208 498.425 69.0625 502.112 69.0625C505.737 69.0625 508.769 70.5208 511.206 73.4375C513.644 76.3542 514.862 80.5625 514.862 86.0625C514.862 92.0208 513.664 96.4583 511.269 99.375C508.873 102.292 505.821 103.75 502.112 103.75C498.466 103.75 495.425 102.292 492.987 99.375C490.571 96.4375 489.362 92.1146 489.362 86.4062ZM494.081 86.4062C494.081 90.6979 494.862 93.8958 496.425 96C497.987 98.0833 499.925 99.125 502.237 99.125C504.404 99.125 506.258 98.0729 507.8 95.9688C509.362 93.8438 510.144 90.6562 510.144 86.4062C510.144 82.1354 509.362 78.9583 507.8 76.875C506.237 74.7708 504.3 73.7188 501.987 73.7188C499.8 73.7188 497.935 74.7708 496.394 76.875C494.852 78.9792 494.081 82.1562 494.081 86.4062Z" fill="#0000FF"/>
<path d="M612.611 90.8438L617.142 91.5625C616.621 95.5208 615.309 98.5417 613.205 100.625C611.121 102.708 608.611 103.75 605.673 103.75C602.111 103.75 599.173 102.292 596.861 99.375C594.569 96.4375 593.423 92.1042 593.423 86.375C593.423 80.6042 594.58 76.2812 596.892 73.4062C599.226 70.5104 602.215 69.0625 605.861 69.0625C608.673 69.0625 611.038 69.9375 612.955 71.6875C614.892 73.4375 616.132 76.0625 616.673 79.5625L612.205 80.4062C611.767 78.1562 611.007 76.4792 609.923 75.375C608.84 74.25 607.538 73.6875 606.017 73.6875C603.746 73.6875 601.861 74.6979 600.361 76.7188C598.882 78.7188 598.142 81.9062 598.142 86.2812C598.142 90.8021 598.851 94.0729 600.267 96.0938C601.705 98.1146 603.538 99.125 605.767 99.125C607.517 99.125 609.007 98.4583 610.236 97.125C611.486 95.7708 612.278 93.6771 612.611 90.8438ZM638.861 90.8438L643.392 91.5625C642.871 95.5208 641.559 98.5417 639.455 100.625C637.371 102.708 634.861 103.75 631.923 103.75C628.361 103.75 625.423 102.292 623.111 99.375C620.819 96.4375 619.673 92.1042 619.673 86.375C619.673 80.6042 620.83 76.2812 623.142 73.4062C625.476 70.5104 628.465 69.0625 632.111 69.0625C634.923 69.0625 637.288 69.9375 639.205 71.6875C641.142 73.4375 642.382 76.0625 642.923 79.5625L638.455 80.4062C638.017 78.1562 637.257 76.4792 636.173 75.375C635.09 74.25 633.788 73.6875 632.267 73.6875C629.996 73.6875 628.111 74.6979 626.611 76.7188C625.132 78.7188 624.392 81.9062 624.392 86.2812C624.392 90.8021 625.101 94.0729 626.517 96.0938C627.955 98.1146 629.788 99.125 632.017 99.125C633.767 99.125 635.257 98.4583 636.486 97.125C637.736 95.7708 638.528 93.6771 638.861 90.8438ZM647.361 69.8125H651.955V95.125L664.767 69.8125H669.736V103H665.142V77.8438L652.33 103H647.361V69.8125ZM676.736 69.8125H681.33V95.125L694.142 69.8125H699.111V103H694.517V77.8438L681.705 103H676.736V69.8125Z" fill="#0000FF"/>
</svg>
