<svg width="543" height="352" viewBox="0 0 543 352" fill="none" xmlns="http://www.w3.org/2000/svg">
<mask id="path-1-inside-1_232:2073" fill="white">
<path fill-rule="evenodd" clip-rule="evenodd" d="M352.591 0H189.84V189.333H0.408203V352H542.023V189.333H352.591V0Z"/>
</mask>
<path fill-rule="evenodd" clip-rule="evenodd" d="M352.591 0H189.84V189.333H0.408203V352H542.023V189.333H352.591V0Z" fill="#D2D2D2"/>
<path d="M189.84 0V-2.66667H187.173V0H189.84ZM352.591 0H355.258V-2.66667H352.591V0ZM189.84 189.333V192H192.506V189.333H189.84ZM0.408203 189.333V186.667H-2.25846V189.333H0.408203ZM0.408203 352H-2.25846V354.667H0.408203V352ZM542.023 352V354.667H544.69V352H542.023ZM542.023 189.333H544.69V186.667H542.023V189.333ZM352.591 189.333H349.924V192H352.591V189.333ZM189.84 2.66667H352.591V-2.66667H189.84V2.66667ZM192.506 189.333V0H187.173V189.333H192.506ZM0.408203 192H189.84V186.667H0.408203V192ZM3.07487 352V189.333H-2.25846V352H3.07487ZM542.023 349.333H0.408203V354.667H542.023V349.333ZM539.357 189.333V352H544.69V189.333H539.357ZM352.591 192H542.023V186.667H352.591V192ZM349.924 0V189.333H355.258V0H349.924Z" fill="#FF0000" mask="url(#path-1-inside-1_232:2073)"/>
<path d="M331.915 162.667L211.186 162.667" stroke="#FF0000" stroke-width="2.66667"/>
<path d="M331.915 189.333L211.186 189.333" stroke="#FF0000" stroke-width="2.66667"/>
<path d="M163.16 210.667V331.333" stroke="#FF0000" stroke-width="2.66667"/>
<path d="M189.841 210.667V331.333" stroke="#FF0000" stroke-width="2.66667"/>
<path d="M352.592 210.667V331.333" stroke="#FF0000" stroke-width="2.66667"/>
<path d="M379.272 210.667V331.333" stroke="#FF0000" stroke-width="2.66667"/>
<path d="M63.9395 264.146H68.5332V278.021H74.127C75.0436 268.271 78.9603 263.396 85.877 263.396C89.4603 263.396 92.3145 264.917 94.4395 267.958C96.5853 271 97.6582 275.219 97.6582 280.615C97.6582 286.281 96.5957 290.615 94.4707 293.615C92.3665 296.594 89.4707 298.083 85.7832 298.083C82.3249 298.083 79.5957 296.708 77.5957 293.958C75.6165 291.208 74.4603 287.438 74.127 282.646H68.5332V297.333H63.9395V264.146ZM85.9395 268.177C83.6478 268.177 81.877 269.24 80.627 271.365C79.3978 273.469 78.7832 276.427 78.7832 280.24C78.7832 284.76 79.4082 288.094 80.6582 290.24C81.9082 292.385 83.6061 293.458 85.752 293.458C87.7311 293.458 89.4186 292.531 90.8145 290.677C92.2311 288.823 92.9395 285.594 92.9395 280.99C92.9395 272.448 90.6061 268.177 85.9395 268.177Z" fill="#FF0000"/>
<path d="M247.696 264.146H269.821V268.802H261.071V297.333H256.446V268.802H247.696V264.146ZM274.04 310.115L273.54 304.833C274.561 305.167 275.436 305.333 276.165 305.333C277.144 305.333 277.946 305.135 278.571 304.74C279.217 304.344 279.748 303.729 280.165 302.896C280.311 302.604 280.915 300.771 281.977 297.396L271.634 264.146H276.602L282.29 283.365C282.998 285.76 283.654 288.323 284.259 291.052C284.779 288.469 285.404 285.948 286.134 283.49L291.946 264.146H296.571L286.227 297.896C284.873 302.271 283.8 305.188 283.009 306.646C282.238 308.125 281.352 309.188 280.352 309.833C279.373 310.479 278.259 310.802 277.009 310.802C276.134 310.802 275.144 310.573 274.04 310.115Z" fill="#FF0000"/>
<path d="M472.358 250.458H476.452C476.264 252.75 475.848 254.333 475.202 255.208C474.556 256.063 473.744 256.604 472.764 256.833C471.785 257.063 469.879 257.177 467.046 257.177C463.316 257.177 460.744 257.615 459.327 258.49C457.931 259.344 456.921 260.781 456.296 262.802C455.671 264.802 455.316 267.354 455.233 270.458C457.546 266.25 460.65 264.146 464.546 264.146C468.191 264.146 471.171 265.656 473.483 268.677C475.796 271.698 476.952 275.729 476.952 280.771C476.952 285.583 475.879 289.677 473.733 293.052C471.587 296.406 468.473 298.083 464.389 298.083C461.348 298.083 458.91 297.26 457.077 295.615C455.264 293.948 453.848 291.656 452.827 288.74C451.806 285.823 451.296 280.938 451.296 274.083C451.296 265.125 452.504 259.125 454.921 256.083C457.358 253.042 461.119 251.521 466.202 251.521C469.348 251.521 471.129 251.448 471.546 251.302C471.983 251.156 472.254 250.875 472.358 250.458ZM472.139 280.615C472.139 276.906 471.421 274.01 469.983 271.927C468.566 269.844 466.723 268.802 464.452 268.802C461.889 268.802 459.921 269.938 458.546 272.208C457.171 274.479 456.483 277.625 456.483 281.646C456.483 285.625 457.264 288.604 458.827 290.583C460.389 292.563 462.285 293.552 464.514 293.552C466.681 293.552 468.494 292.385 469.952 290.052C471.41 287.719 472.139 284.573 472.139 280.615Z" fill="#FF0000"/>
</svg>
