<svg width="539" height="353" viewBox="0 0 539 353" fill="none" xmlns="http://www.w3.org/2000/svg">
<mask id="path-1-inside-1_232:2121" fill="white">
<path fill-rule="evenodd" clip-rule="evenodd" d="M190.272 0.666748H0.839844V163.333H190.272V352.667H353.023L538.455 352.667V190H353.023L353.023 163.333V0.666748H190.272Z"/>
</mask>
<path fill-rule="evenodd" clip-rule="evenodd" d="M190.272 0.666748H0.839844V163.333H190.272V352.667H353.023L538.455 352.667V190H353.023L353.023 163.333V0.666748H190.272Z" fill="#D2D2D2"/>
<path d="M0.839844 0.666748V-1.99992H-1.82682V0.666748H0.839844ZM0.839844 163.333H-1.82682V166H0.839844V163.333ZM190.272 163.333H192.938V160.667H190.272V163.333ZM190.272 352.667H187.605V355.333H190.272V352.667ZM353.023 352.667V355.333V352.667ZM538.455 352.667V355.333H541.122V352.667H538.455ZM538.455 190H541.122V187.333H538.455V190ZM353.023 190L350.356 190L350.356 192.667H353.023V190ZM353.023 163.333L355.69 163.333V163.333H353.023ZM353.023 0.666748H355.69V-1.99992H353.023V0.666748ZM0.839844 3.33341H190.272V-1.99992H0.839844V3.33341ZM3.50651 163.333V0.666748H-1.82682V163.333H3.50651ZM190.272 160.667H0.839844V166H190.272V160.667ZM187.605 163.333V352.667H192.938V163.333H187.605ZM190.272 355.333H353.023V350H190.272V355.333ZM353.023 355.333L538.455 355.333V350L353.023 350V355.333ZM541.122 352.667V190H535.789V352.667H541.122ZM538.455 187.333H353.023V192.667H538.455V187.333ZM355.69 190L355.69 163.333L350.357 163.333L350.356 190L355.69 190ZM355.69 163.333V0.666748H350.357V163.333H355.69ZM353.023 -1.99992H190.272V3.33341H353.023V-1.99992Z" fill="#0000FF" mask="url(#path-1-inside-1_232:2121)"/>
</svg>
