<svg width="353" height="542" viewBox="0 0 353 542" fill="none" xmlns="http://www.w3.org/2000/svg">
<mask id="path-1-inside-1_232:2154" fill="white">
<path fill-rule="evenodd" clip-rule="evenodd" d="M0.544922 162.667V0.000244141H189.977L352.728 0.000305176V541.334H189.976V162.667H0.544922Z"/>
</mask>
<path fill-rule="evenodd" clip-rule="evenodd" d="M0.544922 162.667V0.000244141H189.977L352.728 0.000305176V541.334H189.976V162.667H0.544922Z" fill="#D2D2D2"/>
<path d="M0.544922 0.000244141H-2.12174V-2.66642H0.544922V0.000244141ZM0.544922 162.667V165.334H-2.12174V162.667H0.544922ZM189.977 0.000244141V-2.66642V0.000244141ZM352.728 0.000305176V-2.66636L355.395 -2.66636V0.000305176H352.728ZM352.728 541.334H355.395V544H352.728V541.334ZM189.976 541.334V544H187.31V541.334H189.976ZM189.976 162.667V160H192.643V162.667H189.976ZM3.21159 0.000244141V162.667H-2.12174V0.000244141H3.21159ZM189.977 2.66691H0.544922V-2.66642H189.977V2.66691ZM352.728 2.66697L189.977 2.66691V-2.66642L352.728 -2.66636V2.66697ZM350.061 541.334V0.000305176H355.395V541.334H350.061ZM189.976 538.667H352.728V544H189.976V538.667ZM192.643 162.667V541.334H187.31V162.667H192.643ZM0.544922 160H189.976V165.334H0.544922V160Z" fill="#FF0000" mask="url(#path-1-inside-1_232:2154)"/>
<path d="M210.652 188L331.382 188" stroke="#FF0000" stroke-width="2.66667"/>
<path d="M210.652 161.333L331.382 161.333" stroke="#FF0000" stroke-width="2.66667"/>
<path d="M210.654 378.667L331.384 378.667" stroke="#FF0000" stroke-width="2.66667"/>
<path d="M210.654 352L331.384 352" stroke="#FF0000" stroke-width="2.66667"/>
<path d="M189.977 140L189.977 19.3333" stroke="#FF0000" stroke-width="2.66667"/>
<path d="M163.297 140L163.297 19.3333" stroke="#FF0000" stroke-width="2.66667"/>
<path d="M246.207 300.719V254.812H250.425V259.125C251.467 257.333 252.623 256.042 253.894 255.25C255.165 254.458 256.623 254.062 258.269 254.062C260.415 254.062 262.353 254.698 264.082 255.969C265.811 257.24 267.196 259.177 268.238 261.781C269.3 264.365 269.832 267.479 269.832 271.125C269.832 276.771 268.644 281.125 266.269 284.188C263.915 287.229 261.144 288.75 257.957 288.75C256.54 288.75 255.217 288.385 253.988 287.656C252.759 286.927 251.696 285.896 250.8 284.562V300.719H246.207ZM250.363 271.594C250.363 275.885 251.082 279.052 252.519 281.094C253.957 283.115 255.696 284.125 257.738 284.125C259.696 284.125 261.415 283.073 262.894 280.969C264.373 278.865 265.113 275.615 265.113 271.219C265.113 266.885 264.394 263.677 262.957 261.594C261.519 259.51 259.769 258.469 257.707 258.469C255.853 258.469 254.165 259.594 252.644 261.844C251.123 264.073 250.363 267.323 250.363 271.594ZM294.019 277.312L298.769 278.031C297.978 281.573 296.54 284.25 294.457 286.062C292.394 287.854 289.832 288.75 286.769 288.75C282.915 288.75 279.79 287.292 277.394 284.375C275.019 281.438 273.832 277.208 273.832 271.688C273.832 265.958 275.03 261.594 277.425 258.594C279.842 255.573 282.894 254.062 286.582 254.062C290.103 254.062 293.04 255.542 295.394 258.5C297.748 261.458 298.925 265.74 298.925 271.344L298.894 272.844H278.582C278.769 276.573 279.634 279.385 281.175 281.281C282.717 283.177 284.592 284.125 286.8 284.125C290.259 284.125 292.665 281.854 294.019 277.312ZM278.863 268.219H294.05C293.842 265.344 293.228 263.198 292.207 261.781C290.728 259.719 288.842 258.688 286.55 258.688C284.488 258.688 282.728 259.552 281.269 261.281C279.811 262.99 279.009 265.302 278.863 268.219Z" fill="#FF0000"/>
<path d="M245.488 440.146H250.082V446.427C250.082 449.177 250.228 451.188 250.519 452.458C250.811 453.708 251.467 454.76 252.488 455.615C253.509 456.448 254.728 456.865 256.144 456.865C257.915 456.865 260.196 456.302 262.988 455.177V440.146H267.582V473.333H262.988V459.958C260.134 461.042 257.478 461.583 255.019 461.583C252.332 461.583 250.071 460.531 248.238 458.427C246.405 456.302 245.488 453.104 245.488 448.833V440.146ZM292.238 469.24C290.696 470.844 289.092 472.052 287.425 472.865C285.759 473.677 284.03 474.083 282.238 474.083C279.405 474.083 277.144 473.229 275.457 471.521C273.769 469.813 272.925 467.51 272.925 464.615C272.925 462.698 273.321 461 274.113 459.521C274.905 458.042 275.988 456.885 277.363 456.052C278.738 455.219 280.821 454.604 283.613 454.208C287.363 453.667 290.113 453.021 291.863 452.271L291.894 450.833C291.894 448.563 291.488 446.969 290.675 446.052C289.53 444.719 287.769 444.052 285.394 444.052C283.248 444.052 281.644 444.5 280.582 445.396C279.519 446.271 278.738 447.927 278.238 450.365L273.707 449.615C274.353 446.052 275.655 443.458 277.613 441.833C279.592 440.208 282.415 439.396 286.082 439.396C288.936 439.396 291.175 439.938 292.8 441.021C294.425 442.083 295.446 443.406 295.863 444.99C296.3 446.573 296.519 448.885 296.519 451.927V459.427C296.519 464.677 296.613 467.99 296.8 469.365C297.009 470.719 297.405 472.042 297.988 473.333H293.175C292.696 472.188 292.384 470.823 292.238 469.24ZM291.863 456.677C290.175 457.51 287.665 458.219 284.332 458.802C282.394 459.135 281.04 459.521 280.269 459.958C279.498 460.375 278.894 460.979 278.457 461.771C278.04 462.542 277.832 463.438 277.832 464.458C277.832 466.042 278.321 467.313 279.3 468.271C280.28 469.208 281.634 469.677 283.363 469.677C285.009 469.677 286.498 469.25 287.832 468.396C289.186 467.542 290.196 466.406 290.863 464.99C291.53 463.552 291.863 461.469 291.863 458.74V456.677Z" fill="#FF0000"/>
<path d="M236.394 64.1461H247.019C249.436 64.1461 251.28 64.3752 252.55 64.8336C253.842 65.2919 254.988 66.2398 255.988 67.6773C257.009 69.094 257.519 70.8544 257.519 72.9586C257.519 76.1252 256.436 78.4898 254.269 80.0523C257.248 81.3856 258.738 84.0523 258.738 88.0523C258.738 90.6148 257.978 92.8023 256.457 94.6148C254.936 96.4273 252.342 97.3336 248.675 97.3336H236.394V64.1461ZM240.988 78.1148H245.925C247.884 78.1148 249.228 77.9898 249.957 77.7398C250.707 77.4898 251.373 76.9898 251.957 76.2398C252.54 75.469 252.832 74.5315 252.832 73.4273C252.832 71.6773 252.311 70.469 251.269 69.8023C250.248 69.1356 248.519 68.8023 246.082 68.8023H240.988V78.1148ZM240.988 92.7086H247.082C249.686 92.7086 251.488 92.3127 252.488 91.5211C253.488 90.7086 253.988 89.4586 253.988 87.7711C253.988 85.9794 253.457 84.6981 252.394 83.9273C251.353 83.1356 249.425 82.7398 246.613 82.7398H240.988V92.7086ZM282.019 85.1773L286.55 85.8961C286.03 89.8544 284.717 92.8752 282.613 94.9586C280.53 97.0419 278.019 98.0836 275.082 98.0836C271.519 98.0836 268.582 96.6252 266.269 93.7086C263.978 90.7711 262.832 86.4377 262.832 80.7086C262.832 74.9377 263.988 70.6148 266.3 67.7398C268.634 64.844 271.623 63.3961 275.269 63.3961C278.082 63.3961 280.446 64.2711 282.363 66.0211C284.3 67.7711 285.54 70.3961 286.082 73.8961L281.613 74.7398C281.175 72.4898 280.415 70.8127 279.332 69.7086C278.248 68.5836 276.946 68.0211 275.425 68.0211C273.155 68.0211 271.269 69.0315 269.769 71.0523C268.29 73.0523 267.55 76.2398 267.55 80.6148C267.55 85.1356 268.259 88.4065 269.675 90.4273C271.113 92.4481 272.946 93.4586 275.175 93.4586C276.925 93.4586 278.415 92.7919 279.644 91.4586C280.894 90.1044 281.686 88.0106 282.019 85.1773ZM288.019 64.1461H310.144V68.8023H301.394V97.3336H296.769V68.8023H288.019V64.1461Z" fill="#FF0000"/>
</svg>
