<svg width="353" height="353" viewBox="0 0 353 353" fill="none" xmlns="http://www.w3.org/2000/svg">
<rect x="2.01497" y="2.00008" width="349.517" height="349.333" fill="#D2D2D2" stroke="#FF0000" stroke-width="2.66667"/>
<path d="M144.088 163.333L23.3584 163.333" stroke="#FF0000" stroke-width="2.66667"/>
<path d="M144.088 190L23.3584 190" stroke="#FF0000" stroke-width="2.66667"/>
<path d="M332.188 163.333L211.459 163.333" stroke="#FF0000" stroke-width="2.66667"/>
<path d="M332.188 190L211.459 190" stroke="#FF0000" stroke-width="2.66667"/>
<path d="M163.433 211.333V332" stroke="#FF0000" stroke-width="2.66667"/>
<path d="M190.112 211.333V332" stroke="#FF0000" stroke-width="2.66667"/>
<path d="M163.433 22V142.667" stroke="#FF0000" stroke-width="2.66667"/>
<path d="M190.112 22V142.667" stroke="#FF0000" stroke-width="2.66667"/>
<path d="M74.6609 104.573C73.1192 106.177 71.515 107.385 69.8484 108.198C68.1817 109.01 66.4525 109.417 64.6609 109.417C61.8275 109.417 59.5671 108.563 57.8796 106.854C56.1921 105.146 55.3484 102.844 55.3484 99.948C55.3484 98.0313 55.7442 96.3334 56.5359 94.8542C57.3275 93.3751 58.4109 92.2188 59.7859 91.3855C61.1609 90.5522 63.2442 89.9376 66.0359 89.5417C69.7859 89.0001 72.5359 88.3542 74.2859 87.6042L74.3171 86.1667C74.3171 83.8959 73.9109 82.3022 73.0984 81.3855C71.9525 80.0522 70.1921 79.3855 67.8171 79.3855C65.6713 79.3855 64.0671 79.8334 63.0046 80.7292C61.9421 81.6042 61.1609 83.2605 60.6609 85.698L56.1296 84.948C56.7754 81.3855 58.0775 78.7917 60.0359 77.1667C62.015 75.5417 64.8379 74.7292 68.5046 74.7292C71.3588 74.7292 73.5984 75.2709 75.2234 76.3542C76.8484 77.4167 77.8692 78.7397 78.2859 80.323C78.7234 81.9063 78.9421 84.2188 78.9421 87.2605V94.7605C78.9421 100.01 79.0359 103.323 79.2234 104.698C79.4317 106.052 79.8275 107.375 80.4109 108.667H75.5984C75.1192 107.521 74.8067 106.156 74.6609 104.573ZM74.2859 92.0105C72.5984 92.8438 70.0879 93.5522 66.7546 94.1355C64.8171 94.4688 63.4629 94.8542 62.6921 95.2917C61.9213 95.7084 61.3171 96.3126 60.8796 97.1042C60.4629 97.8751 60.2546 98.7709 60.2546 99.7917C60.2546 101.375 60.7442 102.646 61.7234 103.604C62.7025 104.542 64.0567 105.01 65.7859 105.01C67.4317 105.01 68.9213 104.583 70.2546 103.729C71.6088 102.875 72.6192 101.74 73.2859 100.323C73.9525 98.8855 74.2859 96.8022 74.2859 94.073V92.0105ZM86.0984 121.385V75.4792H90.3171V79.7917C91.3588 78.0001 92.515 76.7084 93.7859 75.9167C95.0567 75.1251 96.515 74.7292 98.1609 74.7292C100.307 74.7292 102.244 75.3647 103.973 76.6355C105.703 77.9063 107.088 79.8438 108.13 82.448C109.192 85.0313 109.723 88.1459 109.723 91.7917C109.723 97.4376 108.536 101.792 106.161 104.854C103.807 107.896 101.036 109.417 97.8484 109.417C96.4317 109.417 95.1088 109.052 93.8796 108.323C92.6504 107.594 91.5879 106.563 90.6921 105.229V121.385H86.0984ZM90.2546 92.2605C90.2546 96.5522 90.9734 99.7188 92.4109 101.76C93.8484 103.781 95.5879 104.792 97.6296 104.792C99.5879 104.792 101.307 103.74 102.786 101.635C104.265 99.5313 105.005 96.2813 105.005 91.8855C105.005 87.5522 104.286 84.3438 102.848 82.2605C101.411 80.1772 99.6609 79.1355 97.5984 79.1355C95.7442 79.1355 94.0567 80.2605 92.5359 82.5105C91.015 84.7397 90.2546 87.9897 90.2546 92.2605Z" fill="#FF0000"/>
<path d="M229.447 108.667L239.384 91.4167L230.197 75.4792H235.947L240.134 83.2605C240.905 84.698 241.541 85.9376 242.041 86.9792C242.812 85.5626 243.499 84.3438 244.103 83.323L248.697 75.4792H254.197L244.791 91.1042L254.916 108.667H249.259L243.666 98.3542L242.197 95.573L235.041 108.667H229.447ZM258.791 75.4792H263.384V100.792L276.197 75.4792H281.166V108.667H276.572V83.5105L263.759 108.667H258.791V75.4792ZM288.166 75.4792H298.791C301.207 75.4792 303.051 75.7084 304.322 76.1667C305.614 76.6251 306.759 77.573 307.759 79.0105C308.78 80.4272 309.291 82.1876 309.291 84.2917C309.291 87.4584 308.207 89.823 306.041 91.3855C309.02 92.7188 310.509 95.3855 310.509 99.3855C310.509 101.948 309.749 104.135 308.228 105.948C306.707 107.76 304.114 108.667 300.447 108.667H288.166V75.4792ZM292.759 89.448H297.697C299.655 89.448 300.999 89.323 301.728 89.073C302.478 88.823 303.145 88.323 303.728 87.573C304.312 86.8022 304.603 85.8647 304.603 84.7605C304.603 83.0105 304.082 81.8022 303.041 81.1355C302.02 80.4688 300.291 80.1355 297.853 80.1355H292.759V89.448ZM292.759 104.042H298.853C301.457 104.042 303.259 103.646 304.259 102.854C305.259 102.042 305.759 100.792 305.759 99.1042C305.759 97.3126 305.228 96.0313 304.166 95.2605C303.124 94.4688 301.197 94.073 298.384 94.073H292.759V104.042Z" fill="#FF0000"/>
</svg>
