<svg width="82" height="82" viewBox="0 0 82 82" fill="none" xmlns="http://www.w3.org/2000/svg">
<rect x="80.665" y="80.6651" width="79.3301" height="79.3301" transform="rotate(-180 80.665 80.6651)" fill="#D2D2D2" stroke="#FF0000" stroke-width="2.67"/>
<path d="M53.2786 26.6444L67.205 33.3667L68.0539 17.926" stroke="#FF0000" stroke-width="2.67" stroke-linecap="square"/>
<mask id="path-3-inside-1_236:367" fill="white">
<path d="M67.2224 33.0221C65.4093 27.3689 61.7479 22.4895 56.8269 19.1684C51.9058 15.8472 46.011 14.2772 40.09 14.7107C34.169 15.1441 28.5657 17.5559 24.1808 21.5584C19.7959 25.5608 16.8842 30.9213 15.9137 36.7783C14.9431 42.6353 15.9702 48.6486 18.8297 53.8514C21.6892 59.0543 26.2151 63.1445 31.6798 65.4647C37.1446 67.7848 43.2307 68.2001 48.9599 66.6438C54.6892 65.0874 59.7287 61.6499 63.2685 56.8836"/>
</mask>
<path d="M69.7649 32.2066C67.7688 25.9831 63.738 20.6114 58.3205 16.9552L55.3332 21.3815C59.7578 24.3676 63.0498 28.7547 64.68 33.8375L69.7649 32.2066ZM58.3205 16.9552C52.903 13.299 46.4135 11.5706 39.8951 12.0478L40.285 17.3736C45.6086 16.9838 50.9087 18.3954 55.3332 21.3815L58.3205 16.9552ZM39.8951 12.0478C33.3767 12.525 27.208 15.1801 22.3808 19.5863L25.9808 23.5304C29.9233 19.9318 34.9613 17.7633 40.285 17.3736L39.8951 12.0478ZM22.3808 19.5863C17.5535 23.9926 14.348 29.8939 13.2796 36.3419L18.5478 37.2148C19.4204 31.9487 22.0383 27.129 25.9808 23.5304L22.3808 19.5863ZM13.2796 36.3419C12.2111 42.7898 13.3418 49.4097 16.4898 55.1374L21.1696 52.5654C18.5986 47.8875 17.6751 42.4809 18.5478 37.2148L13.2796 36.3419ZM16.4898 55.1374C19.6378 60.8652 24.6203 65.3681 30.6364 67.9223L32.7233 63.007C27.8099 60.9209 23.7406 57.2434 21.1696 52.5654L16.4898 55.1374ZM30.6364 67.9223C36.6524 70.4766 43.3526 70.9337 49.6599 69.2204L48.26 64.0671C43.1088 65.4665 37.6367 65.0931 32.7233 63.007L30.6364 67.9223ZM49.6599 69.2204C55.9672 67.507 61.5151 63.7226 65.412 58.4756L61.1249 55.2917C57.9423 59.5771 53.4112 62.6678 48.26 64.0671L49.6599 69.2204Z" fill="#FF0101" mask="url(#path-3-inside-1_236:367)"/>
</svg>
