<svg width="176" height="63" viewBox="0 0 176 63" fill="none" xmlns="http://www.w3.org/2000/svg">
<path d="M31.4997 45.7917L38.8747 46.75C38.0691 51.8334 35.9997 55.8195 32.6663 58.7084C29.3608 61.5695 25.2913 63 20.458 63C14.4025 63 9.52745 61.0278 5.83301 57.0834C2.16634 53.1111 0.333008 47.4306 0.333008 40.0417C0.333008 35.2639 1.12467 31.0834 2.70801 27.5C4.29134 23.9167 6.69412 21.2361 9.91634 19.4584C13.1663 17.6528 16.6941 16.75 20.4997 16.75C25.3052 16.75 29.2358 17.9722 32.2913 20.4167C35.3469 22.8334 37.3052 26.2778 38.1663 30.75L30.8747 31.875C30.1802 28.9028 28.9441 26.6667 27.1663 25.1667C25.4163 23.6667 23.2913 22.9167 20.7913 22.9167C17.0136 22.9167 13.9441 24.2778 11.583 27C9.2219 29.6945 8.04134 33.9722 8.04134 39.8334C8.04134 45.7778 9.18023 50.0972 11.458 52.7917C13.7358 55.4861 16.708 56.8334 20.3747 56.8334C23.3191 56.8334 25.7775 55.9306 27.7497 54.125C29.7219 52.3195 30.9719 49.5417 31.4997 45.7917Z" fill="#FF0000"/>
<path d="M45.333 17.75H62.6247C66.8747 17.75 70.0275 18.1111 72.083 18.8334C74.1663 19.5278 75.9441 20.8195 77.4163 22.7084C78.9163 24.5972 79.6663 26.8611 79.6663 29.5C79.6663 31.6111 79.2219 33.4584 78.333 35.0417C77.4719 36.5972 76.1663 37.9028 74.4163 38.9584C76.4997 39.6528 78.2219 40.9584 79.583 42.875C80.9719 44.7639 81.6663 47.0139 81.6663 49.625C81.3886 53.8195 79.8886 56.9306 77.1663 58.9584C74.4441 60.9861 70.4858 62 65.2913 62H45.333V17.75ZM52.833 36.375H60.833C64.0275 36.375 66.2219 36.2084 67.4163 35.875C68.6108 35.5417 69.6802 34.875 70.6247 33.875C71.5691 32.8472 72.0413 31.625 72.0413 30.2084C72.0413 27.875 71.208 26.25 69.5413 25.3334C67.9025 24.4167 65.083 23.9584 61.083 23.9584H52.833V36.375ZM52.833 55.8334H62.708C66.958 55.8334 69.8747 55.3472 71.458 54.375C73.0413 53.375 73.8747 51.6667 73.958 49.25C73.958 47.8334 73.4997 46.5278 72.583 45.3334C71.6663 44.1111 70.4719 43.3472 68.9997 43.0417C67.5274 42.7084 65.1663 42.5417 61.9163 42.5417H52.833V55.8334Z" fill="#FF0000"/>
<path d="M86.833 39.875C86.833 31.6806 89.1108 25.6111 93.6663 21.6667C97.4719 18.3889 102.111 16.75 107.583 16.75C113.666 16.75 118.639 18.75 122.5 22.75C126.361 26.7222 128.291 32.2222 128.291 39.25C128.291 44.9445 127.43 49.4306 125.708 52.7084C124.014 55.9584 121.527 58.4861 118.25 60.2917C115 62.0972 111.444 63 107.583 63C101.389 63 96.3747 61.0139 92.5413 57.0417C88.7358 53.0695 86.833 47.3472 86.833 39.875ZM94.5413 39.875C94.5413 45.5417 95.7774 49.7917 98.2497 52.625C100.722 55.4306 103.833 56.8334 107.583 56.8334C111.305 56.8334 114.402 55.4167 116.875 52.5834C119.347 49.75 120.583 45.4306 120.583 39.625C120.583 34.1528 119.333 30.0139 116.833 27.2084C114.361 24.375 111.277 22.9584 107.583 22.9584C103.833 22.9584 100.722 24.3611 98.2497 27.1667C95.7774 29.9722 94.5413 34.2084 94.5413 39.875Z" fill="#FF0000"/>
<path d="M167.416 47.75L175.166 48.7084C173.944 53.2361 171.68 56.75 168.375 59.25C165.069 61.75 160.847 63 155.708 63C149.236 63 144.097 61.0139 140.291 57.0417C136.514 53.0417 134.625 47.4445 134.625 40.25C134.625 32.8056 136.541 27.0278 140.375 22.9167C144.208 18.8056 149.18 16.75 155.291 16.75C161.208 16.75 166.041 18.7639 169.791 22.7917C173.541 26.8195 175.416 32.4861 175.416 39.7917C175.416 40.2361 175.402 40.9028 175.375 41.7917H142.375C142.652 46.6528 144.027 50.375 146.5 52.9584C148.972 55.5417 152.055 56.8334 155.75 56.8334C158.5 56.8334 160.847 56.1111 162.791 54.6667C164.736 53.2222 166.277 50.9167 167.416 47.75ZM142.791 35.625H167.5C167.166 31.9028 166.222 29.1111 164.666 27.25C162.277 24.3611 159.18 22.9167 155.375 22.9167C151.93 22.9167 149.027 24.0695 146.666 26.375C144.333 28.6806 143.041 31.7639 142.791 35.625ZM143.333 9.08335V0.541687H151.166V9.08335H143.333ZM158.875 9.08335V0.541687H166.708V9.08335H158.875Z" fill="#FF0000"/>
</svg>
